<svg xmlns="http://www.w3.org/2000/svg" width="755.2177734375" height="387.20458984375" viewBox="-275.98492431640625 -221.2512664794922 755.2177734375 387.20458984375"><title>Neo4j Graph Visualization</title><desc>Created using Neo4j (http://www.neo4j.com/)</desc><g class="layer relationships"><g class="relationship" transform="translate(125.76771586767839 116.08291603707025) rotate(359.4071112192836)"><path class="outline" fill="#A5ABB6" stroke="none" d="M 40 0.5 L 105.82106720316722 0.5 L 105.82106720316722 -0.5 L 40 -0.5 Z M 150.93825470316722 0.5 L 216.75932190633443 0.5 L 216.75932190633443 3.5 L 223.75932190633443 0 L 216.75932190633443 -3.5 L 216.75932190633443 -0.5 L 150.93825470316722 -0.5 Z"/><text text-anchor="middle" pointer-events="none" font-size="8px" fill="#000000" x="128.37966095316722" y="3" font-family="sans-serif">FOLLOWS</text></g><g class="relationship" transform="translate(125.76771586767839 116.08291603707025) rotate(325.4554720156864)"><path class="outline" fill="#A5ABB6" stroke="none" d="M 40 0.5 L 70.4608394816603 0.5 L 70.4608394816603 -0.5 L 40 -0.5 Z M 115.5780269816603 0.5 L 146.0388664633206 0.5 L 146.0388664633206 3.5 L 153.0388664633206 0 L 146.0388664633206 -3.5 L 146.0388664633206 -0.5 L 115.5780269816603 -0.5 Z"/><text text-anchor="middle" pointer-events="none" font-size="8px" fill="#000000" x="93.0194332316603" y="3" font-family="sans-serif">FOLLOWS</text></g><g class="relationship" transform="translate(125.76771586767839 116.08291603707025) rotate(201.20157536256102)"><path class="outline" fill="#A5ABB6" stroke="none" d="M 40 0.5 L 50.95236903831753 0.5 L 50.95236903831753 -0.5 L 40 -0.5 Z M 96.06955653831753 0.5 L 107.02192557663506 0.5 L 107.02192557663506 3.5 L 114.02192557663506 0 L 107.02192557663506 -3.5 L 107.02192557663506 -0.5 L 96.06955653831753 -0.5 Z"/><text text-anchor="middle" pointer-events="none" font-size="8px" fill="#000000" x="73.51096278831753" y="3" transform="rotate(180 73.51096278831753 0)" font-family="sans-serif">FOLLOWS</text></g><g class="relationship" transform="translate(284.771079669823 6.620894015518967) rotate(309.2933227497503)"><path class="outline" fill="#A5ABB6" stroke="none" d="M 40 0.5 L 97.18232963449326 0.5 L 97.18232963449326 -0.5 L 40 -0.5 Z M 133.40498588449327 0.5 L 190.58731551898651 0.5 L 190.58731551898651 3.5 L 197.58731551898651 0 L 190.58731551898651 -3.5 L 190.58731551898651 -0.5 L 133.40498588449327 -0.5 Z"/><text text-anchor="middle" pointer-events="none" font-size="8px" fill="#000000" x="115.29365775949326" y="3" font-family="sans-serif">KNOWS</text></g><g class="relationship" transform="translate(-17.829059767894883 60.38085516495047) rotate(196.2902322899307)"><path class="outline" fill="#A5ABB6" stroke="none" d="M 40 0.5 L 89.94524510830014 0.5 L 89.94524510830014 -0.5 L 40 -0.5 Z M 126.16790135830014 0.5 L 176.11314646660028 0.5 L 176.11314646660028 3.5 L 183.11314646660028 0 L 176.11314646660028 -3.5 L 176.11314646660028 -0.5 L 126.16790135830014 -0.5 Z"/><text text-anchor="middle" pointer-events="none" font-size="8px" fill="#000000" x="108.05657323330014" y="3" transform="rotate(180 108.05657323330014 0)" font-family="sans-serif">KNOWS</text></g><g class="relationship" transform="translate(-17.829059767894883 60.38085516495047) rotate(320.61153328942186)"><path class="outline" fill="#A5ABB6" stroke="none" d="M 40 0.5 L 64.64148540744232 0.5 L 64.64148540744232 -0.5 L 40 -0.5 Z M 100.86414165744232 0.5 L 125.50562706488464 0.5 L 125.50562706488464 3.5 L 132.50562706488464 0 L 125.50562706488464 -3.5 L 125.50562706488464 -0.5 L 100.86414165744232 -0.5 Z"/><text text-anchor="middle" pointer-events="none" font-size="8px" fill="#000000" x="82.75281353244232" y="3" font-family="sans-serif">KNOWS</text></g><g class="relationship" transform="translate(-17.829059767894883 60.38085516495047) rotate(516.2367795491652)"><path class="outline" fill="#A5ABB6" stroke="none" d="M 40 0.5 L 54.78931307021931 0.5 L 54.78931307021931 -0.5 L 40 -0.5 Z M 91.01196932021931 0.5 L 105.80128239043862 0.5 L 105.80128239043862 3.5 L 112.80128239043862 0 L 105.80128239043862 -3.5 L 105.80128239043862 -0.5 L 91.01196932021931 -0.5 Z"/><text text-anchor="middle" pointer-events="none" font-size="8px" fill="#000000" x="72.90064119521931" y="3" transform="rotate(180 72.90064119521931 0)" font-family="sans-serif">KNOWS</text></g></g><g class="layer nodes"><g class="node" transform="translate(125.76771586767839,116.08291603707025)"><circle class="outline" cx="0" cy="0" r="40" fill="#FFC454" stroke="#d7a013" stroke-width="2px"/><text text-anchor="middle" pointer-events="none" font-family="sans-serif" dy="2.5" font-size="40" fill="#604A0E"/><text text-anchor="middle" pointer-events="none" y="5" font-size="10px" fill="#604A0E" font-family="sans-serif"> Joe</text></g><g class="node" transform="translate(389.5129164588342,113.35361986033902)"><circle class="outline" cx="0" cy="0" r="40" fill="#4C8EDA" stroke="#2870c2" stroke-width="2px"/><text text-anchor="middle" pointer-events="none" font-family="sans-serif" dy="2.5" font-size="40" fill="#FFFFFF"/><text text-anchor="middle" pointer-events="none" y="5" font-size="10px" fill="#FFFFFF" font-family="sans-serif"> Praveena</text></g><g class="node" transform="translate(284.771079669823,6.620894015518967)"><circle class="outline" cx="0" cy="0" r="40" fill="#ECB5C9" stroke="#da7298" stroke-width="2px"/><text text-anchor="middle" pointer-events="none" font-family="sans-serif" dy="2.5" font-size="40" fill="#604A0E"/><text text-anchor="middle" pointer-events="none" y="5" font-size="10px" fill="#604A0E" font-family="sans-serif"> Mark</text></g><g class="node" transform="translate(-17.829059767894883,60.38085516495047)"><circle class="outline" cx="0" cy="0" r="40" fill="#4C8EDA" stroke="#2870c2" stroke-width="2px"/><text text-anchor="middle" pointer-events="none" font-family="sans-serif" dy="2.5" font-size="40" fill="#FFFFFF"/><text text-anchor="middle" pointer-events="none" y="5" font-size="10px" fill="#FFFFFF" font-family="sans-serif"> Zhen</text></g><g class="node" transform="translate(435.23291345909706,-177.25126012503412)"><circle class="outline" cx="0" cy="0" r="40" fill="#DA7194" stroke="#cc3c6c" stroke-width="2px"/><text text-anchor="middle" pointer-events="none" font-family="sans-serif" dy="2.5" font-size="40" fill="#FFFFFF"/><text text-anchor="middle" pointer-events="none" y="5" font-size="10px" fill="#FFFFFF" font-family="sans-serif"> Jake</text></g><g class="node" transform="translate(-231.98491079387207,-2.203069269093163)"><circle class="outline" cx="0" cy="0" r="40" fill="#4C8EDA" stroke="#2870c2" stroke-width="2px"/><text text-anchor="middle" pointer-events="none" font-family="sans-serif" dy="2.5" font-size="40" fill="#FFFFFF"/><text text-anchor="middle" pointer-events="none" y="5" font-size="10px" fill="#FFFFFF" font-family="sans-serif"> Martin</text></g><g class="node" transform="translate(115.4938677708177,-49.086895161601205)"><circle class="outline" cx="0" cy="0" r="40" fill="#ECB5C9" stroke="#da7298" stroke-width="2px"/><text text-anchor="middle" pointer-events="none" font-family="sans-serif" dy="2.5" font-size="40" fill="#604A0E"/><text text-anchor="middle" pointer-events="none" y="5" font-size="10px" fill="#604A0E" font-family="sans-serif"> Lju</text></g><g class="node" transform="translate(-157.6756240284252,121.95333574424762)"><circle class="outline" cx="0" cy="0" r="40" fill="#FFC454" stroke="#d7a013" stroke-width="2px"/><text text-anchor="middle" pointer-events="none" font-family="sans-serif" dy="2.5" font-size="40" fill="#604A0E"/><text text-anchor="middle" pointer-events="none" y="5" font-size="10px" fill="#604A0E" font-family="sans-serif"> Stefan</text></g></g></svg>