<svg xmlns="http://www.w3.org/2000/svg" width="449.7994079589844" height="313.80975341796875" viewBox="-226.427978515625 -58.36774826049805 449.7994079589844 313.80975341796875"><title>Neo4j Graph Visualization</title><desc>Created using Neo4j (http://www.neo4j.com/)</desc><g class="layer relationships"><g class="relationship" transform="translate(21.412243378148858 116.21054179319287) rotate(527.3143810766192)"><path class="outline" fill="#A5ABB6" stroke="none" d="M 40 0.5 L 82.85893650778738 0.5 L 82.85893650778738 -0.5 L 40 -0.5 Z M 119.08159275778738 0.5 L 161.94052926557475 0.5 L 161.94052926557475 3.5 L 168.94052926557475 0 L 161.94052926557475 -3.5 L 161.94052926557475 -0.5 L 119.08159275778738 -0.5 Z"/><text text-anchor="middle" pointer-events="none" font-size="8px" fill="#000000" x="100.97026463278738" y="3" transform="rotate(180 100.97026463278738 0)" font-family="sans-serif">KNOWS</text></g><g class="relationship" transform="translate(21.412243378148858 116.21054179319287) rotate(395.95283167029515)"><path class="outline" fill="#A5ABB6" stroke="none" d="M 40 0.5 L 59.48933049375745 0.5 L 59.48933049375745 -0.5 L 40 -0.5 Z M 95.71198674375745 0.5 L 115.2013172375149 0.5 L 115.2013172375149 3.5 L 122.2013172375149 0 L 115.2013172375149 -3.5 L 115.2013172375149 -0.5 L 95.71198674375745 -0.5 Z"/><text text-anchor="middle" pointer-events="none" font-size="8px" fill="#000000" x="77.60065861875745" y="3" font-family="sans-serif">KNOWS</text></g><g class="relationship" transform="translate(21.412243378148858 116.21054179319287) rotate(351.84351014032586)"><path class="outline" fill="#A5ABB6" stroke="none" d="M 40 0.5 L 58.17536681933433 0.5 L 58.17536681933433 -0.5 L 40 -0.5 Z M 94.39802306933433 0.5 L 112.57338988866866 0.5 L 112.57338988866866 3.5 L 119.57338988866866 0 L 112.57338988866866 -3.5 L 112.57338988866866 -0.5 L 94.39802306933433 -0.5 Z"/><text text-anchor="middle" pointer-events="none" font-size="8px" fill="#000000" x="76.28669494433433" y="3" font-family="sans-serif">KNOWS</text></g><g class="relationship" transform="translate(21.412243378148858 116.21054179319287) rotate(307.78302442565086)"><path class="outline" fill="#A5ABB6" stroke="none" d="M 40 0.5 L 60.99796395859309 0.5 L 60.99796395859309 -0.5 L 40 -0.5 Z M 97.22062020859309 0.5 L 118.21858416718618 0.5 L 118.21858416718618 3.5 L 125.21858416718618 0 L 118.21858416718618 -3.5 L 118.21858416718618 -0.5 L 97.22062020859309 -0.5 Z"/><text text-anchor="middle" pointer-events="none" font-size="8px" fill="#000000" x="79.10929208359309" y="3" font-family="sans-serif">KNOWS</text></g></g><g class="layer nodes"><g class="node" transform="translate(-182.4279836289128,162.09416222018248)"><circle class="outline" cx="0" cy="0" r="40" fill="#4C8EDA" stroke="#2870c2" stroke-width="2px"/><text text-anchor="middle" pointer-events="none" font-family="sans-serif" dy="2.5" font-size="40" fill="#FFFFFF"/><text text-anchor="middle" pointer-events="none" y="5" font-size="10px" fill="#FFFFFF" font-family="sans-serif"> Praveena</text></g><g class="node" transform="translate(21.412243378148858,116.21054179319287)"><circle class="outline" cx="0" cy="0" r="40" fill="#4C8EDA" stroke="#2870c2" stroke-width="2px"/><text text-anchor="middle" pointer-events="none" font-family="sans-serif" dy="2.5" font-size="40" fill="#FFFFFF"/><text text-anchor="middle" pointer-events="none" y="5" font-size="10px" fill="#FFFFFF" font-family="sans-serif"> Zhen</text></g><g class="node" transform="translate(152.71430863536824,211.44202278962518)"><circle class="outline" cx="0" cy="0" r="40" fill="#4C8EDA" stroke="#2870c2" stroke-width="2px"/><text text-anchor="middle" pointer-events="none" font-family="sans-serif" dy="2.5" font-size="40" fill="#FFFFFF"/><text text-anchor="middle" pointer-events="none" y="5" font-size="10px" fill="#FFFFFF" font-family="sans-serif"> Martin</text></g><g class="node" transform="translate(179.37142990230473,93.57070625518612)"><circle class="outline" cx="0" cy="0" r="40" fill="#ECB5C9" stroke="#da7298" stroke-width="2px"/><text text-anchor="middle" pointer-events="none" font-family="sans-serif" dy="2.5" font-size="40" fill="#604A0E"/><text text-anchor="middle" pointer-events="none" y="5" font-size="10px" fill="#604A0E" font-family="sans-serif"> Lju</text></g><g class="node" transform="translate(122.63719576047832,-14.367747249835695)"><circle class="outline" cx="0" cy="0" r="40" fill="#FFC454" stroke="#d7a013" stroke-width="2px"/><text text-anchor="middle" pointer-events="none" font-family="sans-serif" dy="2.5" font-size="40" fill="#604A0E"/><text text-anchor="middle" pointer-events="none" y="5" font-size="10px" fill="#604A0E" font-family="sans-serif"> Stefan</text></g></g></svg>