<svg xmlns="http://www.w3.org/2000/svg" width="626.5106201171875" height="433.7663879394531" viewBox="-251.1785125732422 -237.07997131347656 626.5106201171875 433.7663879394531"><title>Neo4j Graph Visualization</title><desc>Created using Neo4j (http://www.neo4j.com/)</desc><g class="layer relationships"><g class="relationship" transform="translate(-207.1785195541658 -5.449326951674038) rotate(358.92052810722635)"><path class="outline" fill="#A5ABB6" stroke="none" d="M 40 0.5 L 70.31115336905879 0.5 L 70.31115336905879 -0.5 L 40 -0.5 Z M 115.42834086905879 0.5 L 145.73949423811757 0.5 L 145.73949423811757 3.5 L 152.73949423811757 0 L 145.73949423811757 -3.5 L 145.73949423811757 -0.5 L 115.42834086905879 -0.5 Z"/><text text-anchor="middle" pointer-events="none" font-size="8px" fill="#000000" x="92.86974711905879" y="3" font-family="sans-serif">FOLLOWS</text></g><g class="relationship" transform="translate(-14.47323155187236 -9.08038948466475) rotate(357.63108007268283)"><path class="outline" fill="#A5ABB6" stroke="none" d="M 40 0.5 L 71.61604197521584 0.5 L 71.61604197521584 -0.5 L 40 -0.5 Z M 116.73322947521584 0.5 L 148.34927145043167 0.5 L 148.34927145043167 3.5 L 155.34927145043167 0 L 148.34927145043167 -3.5 L 148.34927145043167 -0.5 L 116.73322947521584 -0.5 Z"/><text text-anchor="middle" pointer-events="none" font-size="8px" fill="#000000" x="94.17463572521584" y="3" font-family="sans-serif">FOLLOWS</text></g><g class="relationship" transform="translate(-14.47323155187236 -9.08038948466475) rotate(322.2472337501327)"><path class="outline" fill="#A5ABB6" stroke="none" d="M 38.50762352901147,10.835724717245364 L 38.766442574113995,9.869798890956295 A 426.8776893350542 426.8776893350542 0 0 0 124.21590644779646,23.680582888097376 L 124.15726058112072,24.678861738079604 A 427.8776893350542 427.8776893350542 0 0 1 38.50762352901147,10.835724717245364 Z M 169.3054751964024,24.945049387463484 L 169.25860442657054,23.94614842593859 A 426.8776893350542 426.8776893350542 0 0 0 254.86497515288863,11.14388604839115 L 254.12274060218616,8.23715457270519 L 261.7710543546063,9.896460676033028 L 255.85462122049196,15.019528015972433 L 255.1123866697895,12.112796540286473 A 427.8776893350542 427.8776893350542 0 0 1 169.3054751964024,24.945049387463484"/><text text-anchor="middle" pointer-events="none" font-size="8px" fill="#000000" x="146.73080235776536" y="27.907875545712784" font-family="sans-serif">FOLLOWS</text></g><g class="relationship" transform="translate(180.70909412452932 -17.15489255082968) rotate(448.23823732202516)"><path class="outline" fill="#A5ABB6" stroke="none" d="M 40 0.5 L 58.90222113409678 0.5 L 58.90222113409678 -0.5 L 40 -0.5 Z M 104.01940863409678 0.5 L 122.92162976819355 0.5 L 122.92162976819355 3.5 L 129.92162976819355 0 L 122.92162976819355 -3.5 L 122.92162976819355 -0.5 L 104.01940863409678 -0.5 Z"/><text text-anchor="middle" pointer-events="none" font-size="8px" fill="#000000" x="81.46081488409678" y="3" font-family="sans-serif">FOLLOWS</text></g><g class="relationship" transform="translate(180.70909412452932 -17.15489255082968) rotate(387.09947599832316)"><path class="outline" fill="#A5ABB6" stroke="none" d="M 40 0.5 L 62.98772803892686 0.5 L 62.98772803892686 -0.5 L 40 -0.5 Z M 99.21038428892686 0.5 L 122.19811232785372 0.5 L 122.19811232785372 3.5 L 129.19811232785372 0 L 122.19811232785372 -3.5 L 122.19811232785372 -0.5 L 99.21038428892686 -0.5 Z"/><text text-anchor="middle" pointer-events="none" font-size="8px" fill="#000000" x="81.09905616392686" y="3" font-family="sans-serif">KNOWS</text></g><g class="relationship" transform="translate(180.70909412452932 -17.15489255082968) rotate(283.5606032875185)"><path class="outline" fill="#A5ABB6" stroke="none" d="M 40 0.5 L 68.87371367871897 0.5 L 68.87371367871897 -0.5 L 40 -0.5 Z M 105.09636992871897 0.5 L 133.97008360743794 0.5 L 133.97008360743794 3.5 L 140.97008360743794 0 L 133.97008360743794 -3.5 L 133.97008360743794 -0.5 L 105.09636992871897 -0.5 Z"/><text text-anchor="middle" pointer-events="none" font-size="8px" fill="#000000" x="86.98504180371897" y="3" font-family="sans-serif">KNOWS</text></g><g class="relationship" transform="translate(180.70909412452932 -17.15489255082968) rotate(317.038382019341)"><path class="outline" fill="#A5ABB6" stroke="none" d="M 40 0.5 L 77.98054987397808 0.5 L 77.98054987397808 -0.5 L 40 -0.5 Z M 114.20320612397808 0.5 L 152.18375599795615 0.5 L 152.18375599795615 3.5 L 159.18375599795615 0 L 152.18375599795615 -3.5 L 152.18375599795615 -0.5 L 114.20320612397808 -0.5 Z"/><text text-anchor="middle" pointer-events="none" font-size="8px" fill="#000000" x="96.09187799897808" y="3" font-family="sans-serif">KNOWS</text></g><g class="relationship" transform="translate(180.70909412452932 -17.15489255082968) rotate(351.66086945188397)"><path class="outline" fill="#A5ABB6" stroke="none" d="M 40 0.5 L 53.75468178083659 0.5 L 53.75468178083659 -0.5 L 40 -0.5 Z M 89.97733803083659 0.5 L 103.73201981167318 0.5 L 103.73201981167318 3.5 L 110.73201981167318 0 L 103.73201981167318 -3.5 L 103.73201981167318 -0.5 L 89.97733803083659 -0.5 Z"/><text text-anchor="middle" pointer-events="none" font-size="8px" fill="#000000" x="71.86600990583659" y="3" font-family="sans-serif">KNOWS</text></g><g class="relationship" transform="translate(223.14182553359535 -193.07997452053957) rotate(502.2472337501327)"><path class="outline" fill="#A5ABB6" stroke="none" d="M 38.50762352901147,10.835724717245364 L 38.766442574113995,9.869798890956295 A 426.8776893350542 426.8776893350542 0 0 0 124.21590644779646,23.680582888097376 L 124.15726058112072,24.678861738079604 A 427.8776893350542 427.8776893350542 0 0 1 38.50762352901147,10.835724717245364 Z M 169.3054751964024,24.945049387463484 L 169.25860442657054,23.94614842593859 A 426.8776893350542 426.8776893350542 0 0 0 254.86497515288863,11.14388604839115 L 254.12274060218616,8.23715457270519 L 261.7710543546063,9.896460676033028 L 255.85462122049196,15.019528015972433 L 255.1123866697895,12.112796540286473 A 427.8776893350542 427.8776893350542 0 0 1 169.3054751964024,24.945049387463484"/><text text-anchor="middle" pointer-events="none" font-size="8px" fill="#000000" x="146.73080235776536" y="27.907875545712784" transform="rotate(180 146.73080235776536 24.907875545712784)" font-family="sans-serif">FOLLOWS</text></g></g><g class="layer nodes"><g class="node" transform="translate(-207.1785195541658,-5.449326951674038)"><circle class="outline" cx="0" cy="0" r="40" fill="#DA7194" stroke="#cc3c6c" stroke-width="2px"/><text text-anchor="middle" pointer-events="none" font-family="sans-serif" dy="2.5" font-size="40" fill="#FFFFFF"/><text text-anchor="middle" pointer-events="none" y="5" font-size="10px" fill="#FFFFFF" font-family="sans-serif"> Alicia</text></g><g class="node" transform="translate(-14.47323155187236,-9.08038948466475)"><circle class="outline" cx="0" cy="0" r="40" fill="#FFC454" stroke="#d7a013" stroke-width="2px"/><text text-anchor="middle" pointer-events="none" font-family="sans-serif" dy="2.5" font-size="40" fill="#604A0E"/><text text-anchor="middle" pointer-events="none" y="5" font-size="10px" fill="#604A0E" font-family="sans-serif"> Joe</text></g><g class="node" transform="translate(180.70909412452932,-17.15489255082968)"><circle class="outline" cx="0" cy="0" r="40" fill="#4C8EDA" stroke="#2870c2" stroke-width="2px"/><text text-anchor="middle" pointer-events="none" font-family="sans-serif" dy="2.5" font-size="40" fill="#FFFFFF"/><text text-anchor="middle" pointer-events="none" y="5" font-size="10px" fill="#FFFFFF" font-family="sans-serif"> Zhen</text></g><g class="node" transform="translate(223.14182553359535,-193.07997452053957)"><circle class="outline" cx="0" cy="0" r="40" fill="#4C8EDA" stroke="#2870c2" stroke-width="2px"/><text text-anchor="middle" pointer-events="none" font-family="sans-serif" dy="2.5" font-size="40" fill="#FFFFFF"/><text text-anchor="middle" pointer-events="none" y="5" font-size="10px" fill="#FFFFFF" font-family="sans-serif"> Praveena</text></g><g class="node" transform="translate(185.93311615870834,152.68641531290956)"><circle class="outline" cx="0" cy="0" r="40" fill="#DA7194" stroke="#cc3c6c" stroke-width="2px"/><text text-anchor="middle" pointer-events="none" font-family="sans-serif" dy="2.5" font-size="40" fill="#FFFFFF"/><text text-anchor="middle" pointer-events="none" y="5" font-size="10px" fill="#FFFFFF" font-family="sans-serif"> John</text></g><g class="node" transform="translate(331.3321251435198,59.921068305725555)"><circle class="outline" cx="0" cy="0" r="40" fill="#4C8EDA" stroke="#2870c2" stroke-width="2px"/><text text-anchor="middle" pointer-events="none" font-family="sans-serif" dy="2.5" font-size="40" fill="#FFFFFF"/><text text-anchor="middle" pointer-events="none" y="5" font-size="10px" fill="#FFFFFF" font-family="sans-serif"> Martin</text></g><g class="node" transform="translate(326.47383890181675,-152.90027123263081)"><circle class="outline" cx="0" cy="0" r="40" fill="#ECB5C9" stroke="#da7298" stroke-width="2px"/><text text-anchor="middle" pointer-events="none" font-family="sans-serif" dy="2.5" font-size="40" fill="#604A0E"/><text text-anchor="middle" pointer-events="none" y="5" font-size="10px" fill="#604A0E" font-family="sans-serif"> Lju</text></g><g class="node" transform="translate(329.8474196542762,-39.01585443931663)"><circle class="outline" cx="0" cy="0" r="40" fill="#FFC454" stroke="#d7a013" stroke-width="2px"/><text text-anchor="middle" pointer-events="none" font-family="sans-serif" dy="2.5" font-size="40" fill="#604A0E"/><text text-anchor="middle" pointer-events="none" y="5" font-size="10px" fill="#604A0E" font-family="sans-serif"> Stefan</text></g></g></svg>