<svg xmlns="http://www.w3.org/2000/svg" width="628.056640625" height="201.34088134765625" viewBox="-253.97837829589844 29.66716766357422 628.056640625 201.34088134765625"><title>Neo4j Graph Visualization</title><desc>Created using Neo4j (http://www.neo4j.com/)</desc><g class="layer relationships"><g class="relationship" transform="translate(-209.9783821028742 87.06038699803702) rotate(362.3701411673025)"><path class="outline" fill="#A5ABB6" stroke="none" d="M 40 0.5 L 60.71583046800178 0.5 L 60.71583046800178 -0.5 L 40 -0.5 Z M 105.83301796800178 0.5 L 126.54884843600357 0.5 L 126.54884843600357 3.5 L 133.54884843600357 0 L 126.54884843600357 -3.5 L 126.54884843600357 -0.5 L 105.83301796800178 -0.5 Z"/><text text-anchor="middle" pointer-events="none" font-size="8px" fill="#000000" x="83.27442421800178" y="3" font-family="sans-serif">FOLLOWS</text></g><g class="relationship" transform="translate(-36.578001705610205 94.23749446184743) rotate(384.5073694500959)"><path class="outline" fill="#A5ABB6" stroke="none" d="M 40 0.5 L 85.7642647799227 0.5 L 85.7642647799227 -0.5 L 40 -0.5 Z M 130.8814522799227 0.5 L 176.6457170598454 0.5 L 176.6457170598454 3.5 L 183.6457170598454 0 L 176.6457170598454 -3.5 L 176.6457170598454 -0.5 L 130.8814522799227 -0.5 Z"/><text text-anchor="middle" pointer-events="none" font-size="8px" fill="#000000" x="108.3228585299227" y="3" font-family="sans-serif">FOLLOWS</text></g><g class="relationship" transform="translate(-36.578001705610205 94.23749446184743) rotate(352.89145428013273)"><path class="outline" fill="#A5ABB6" stroke="none" d="M 40 0.5 L 57.054194465020785 0.5 L 57.054194465020785 -0.5 L 40 -0.5 Z M 102.17138196502079 0.5 L 119.22557643004157 0.5 L 119.22557643004157 3.5 L 126.22557643004157 0 L 119.22557643004157 -3.5 L 119.22557643004157 -0.5 L 102.17138196502079 -0.5 Z"/><text text-anchor="middle" pointer-events="none" font-size="8px" fill="#000000" x="79.61278821502079" y="3" font-family="sans-serif">FOLLOWS</text></g><g class="relationship" transform="translate(128.36988042997635 73.66716538124588) rotate(366.3871425489859)"><path class="outline" fill="#A5ABB6" stroke="none" d="M 40 0.5 L 79.87278836596941 0.5 L 79.87278836596941 -0.5 L 40 -0.5 Z M 116.09544461596941 0.5 L 155.96823298193883 0.5 L 155.96823298193883 3.5 L 162.96823298193883 0 L 155.96823298193883 -3.5 L 155.96823298193883 -0.5 L 116.09544461596941 -0.5 Z"/><text text-anchor="middle" pointer-events="none" font-size="8px" fill="#000000" x="97.98411649096941" y="3" font-family="sans-serif">KNOWS</text></g></g><g class="layer nodes"><g class="node" transform="translate(-209.9783821028742,87.06038699803702)"><circle class="outline" cx="0" cy="0" r="40" fill="#DA7194" stroke="#cc3c6c" stroke-width="2px"/><text text-anchor="middle" pointer-events="none" font-family="sans-serif" dy="2.5" font-size="40" fill="#FFFFFF"/><text text-anchor="middle" pointer-events="none" y="5" font-size="10px" fill="#FFFFFF" font-family="sans-serif"> Alicia</text></g><g class="node" transform="translate(-36.578001705610205,94.23749446184743)"><circle class="outline" cx="0" cy="0" r="40" fill="#FFC454" stroke="#d7a013" stroke-width="2px"/><text text-anchor="middle" pointer-events="none" font-family="sans-serif" dy="2.5" font-size="40" fill="#604A0E"/><text text-anchor="middle" pointer-events="none" y="5" font-size="10px" fill="#604A0E" font-family="sans-serif"> Joe</text></g><g class="node" transform="translate(166.91900864402038,187.00803686607594)"><circle class="outline" cx="0" cy="0" r="40" fill="#4C8EDA" stroke="#2870c2" stroke-width="2px"/><text text-anchor="middle" pointer-events="none" font-family="sans-serif" dy="2.5" font-size="40" fill="#FFFFFF"/><text text-anchor="middle" pointer-events="none" y="5" font-size="10px" fill="#FFFFFF" font-family="sans-serif"> Praveena</text></g><g class="node" transform="translate(128.36988042997635,73.66716538124588)"><circle class="outline" cx="0" cy="0" r="40" fill="#4C8EDA" stroke="#2870c2" stroke-width="2px"/><text text-anchor="middle" pointer-events="none" font-family="sans-serif" dy="2.5" font-size="40" fill="#FFFFFF"/><text text-anchor="middle" pointer-events="none" y="5" font-size="10px" fill="#FFFFFF" font-family="sans-serif"> Zhen</text></g><g class="node" transform="translate(330.0782709792224,96.2465538105952)"><circle class="outline" cx="0" cy="0" r="40" fill="#4C8EDA" stroke="#2870c2" stroke-width="2px"/><text text-anchor="middle" pointer-events="none" font-family="sans-serif" dy="2.5" font-size="40" fill="#FFFFFF"/><text text-anchor="middle" pointer-events="none" y="5" font-size="10px" fill="#FFFFFF" font-family="sans-serif"> Martin</text></g></g></svg>