<svg xmlns="http://www.w3.org/2000/svg" width="477.99371337890625" height="266.5296630859375" viewBox="-85.46662902832031 -51.747352600097656 477.99371337890625 266.5296630859375"><title>Neo4j Graph Visualization</title><desc>Created using Neo4j (http://www.neo4j.com/)</desc><g class="layer relationships"><g class="relationship" transform="translate(-41.46662501271018 102.63133504846832) rotate(376.92576217094523)"><path class="outline" fill="#A5ABB6" stroke="none" d="M 40 0.5 L 90.98605598771624 0.5 L 90.98605598771624 -0.5 L 40 -0.5 Z M 136.10324348771624 0.5 L 187.08929947543248 0.5 L 187.08929947543248 3.5 L 194.08929947543248 0 L 187.08929947543248 -3.5 L 187.08929947543248 -0.5 L 136.10324348771624 -0.5 Z"/><text text-anchor="middle" pointer-events="none" font-size="8px" fill="#000000" x="113.54464973771624" y="3" font-family="sans-serif">FOLLOWS</text></g><g class="relationship" transform="translate(-41.46662501271018 102.63133504846832) rotate(329.7401248126098)"><path class="outline" fill="#A5ABB6" stroke="none" d="M 40 0.5 L 87.90810107961802 0.5 L 87.90810107961802 -0.5 L 40 -0.5 Z M 124.13075732961802 0.5 L 172.03885840923604 0.5 L 172.03885840923604 3.5 L 179.03885840923604 0 L 172.03885840923604 -3.5 L 172.03885840923604 -0.5 L 124.13075732961802 -0.5 Z"/><text text-anchor="middle" pointer-events="none" font-size="8px" fill="#000000" x="106.01942920461802" y="3" font-family="sans-serif">KNOWS</text></g><g class="relationship" transform="translate(348.5270722763276 68.46508514201719) rotate(200.78403585129422)"><path class="outline" fill="#A5ABB6" stroke="none" d="M 40 0.5 L 85.7765722444218 0.5 L 85.7765722444218 -0.5 L 40 -0.5 Z M 121.9992284944218 0.5 L 167.7758007388436 0.5 L 167.7758007388436 3.5 L 174.7758007388436 0 L 167.7758007388436 -3.5 L 167.7758007388436 -0.5 L 121.9992284944218 -0.5 Z"/><text text-anchor="middle" pointer-events="none" font-size="8px" fill="#000000" x="103.8879003694218" y="3" transform="rotate(180 103.8879003694218 0)" font-family="sans-serif">KNOWS</text></g></g><g class="layer nodes"><g class="node" transform="translate(-41.46662501271018,102.63133504846832)"><circle class="outline" cx="0" cy="0" r="40" fill="#DA7194" stroke="#cc3c6c" stroke-width="2px"/><text text-anchor="middle" pointer-events="none" font-family="sans-serif" dy="2.5" font-size="40" fill="#FFFFFF"/><text text-anchor="middle" pointer-events="none" y="5" font-size="10px" fill="#FFFFFF" font-family="sans-serif"> Alicia</text></g><g class="node" transform="translate(182.48257620339928,170.78231012267565)"><circle class="outline" cx="0" cy="0" r="40" fill="#FFC454" stroke="#d7a013" stroke-width="2px"/><text text-anchor="middle" pointer-events="none" font-family="sans-serif" dy="2.5" font-size="40" fill="#604A0E"/><text text-anchor="middle" pointer-events="none" y="5" font-size="10px" fill="#604A0E" font-family="sans-serif"> Joe</text></g><g class="node" transform="translate(147.72789644365002,-7.7473519527830135)"><circle class="outline" cx="0" cy="0" r="40" fill="#DA7194" stroke="#cc3c6c" stroke-width="2px"/><text text-anchor="middle" pointer-events="none" font-family="sans-serif" dy="2.5" font-size="40" fill="#FFFFFF"/><text text-anchor="middle" pointer-events="none" y="5" font-size="10px" fill="#FFFFFF" font-family="sans-serif"> Jake</text></g><g class="node" transform="translate(348.5270722763276,68.46508514201719)"><circle class="outline" cx="0" cy="0" r="40" fill="#ECB5C9" stroke="#da7298" stroke-width="2px"/><text text-anchor="middle" pointer-events="none" font-family="sans-serif" dy="2.5" font-size="40" fill="#604A0E"/><text text-anchor="middle" pointer-events="none" y="5" font-size="10px" fill="#604A0E" font-family="sans-serif"> Mark</text></g></g></svg>