<svg xmlns="http://www.w3.org/2000/svg" width="591.248291015625" height="307.35528564453125" viewBox="-196.49916076660156 -82.82626342773438 591.248291015625 307.35528564453125"><title>Neo4j Graph Visualization</title><desc>Created using Neo4j (http://www.neo4j.com/)</desc><g class="layer relationships"><g class="relationship" transform="translate(58.94144983262643 180.52903682294482) rotate(321.23403882533705)"><path class="outline" fill="#A5ABB6" stroke="none" d="M 40 0.5 L 53.19682001344829 0.5 L 53.19682001344829 -0.5 L 40 -0.5 Z M 98.31400751344829 0.5 L 111.51082752689658 0.5 L 111.51082752689658 3.5 L 118.51082752689658 0 L 111.51082752689658 -3.5 L 111.51082752689658 -0.5 L 98.31400751344829 -0.5 Z"/><text text-anchor="middle" pointer-events="none" font-size="8px" fill="#000000" x="75.75541376344829" y="3" font-family="sans-serif">FOLLOWS</text></g><g class="relationship" transform="translate(58.94144983262643 180.52903682294482) rotate(182.5030102774782)"><path class="outline" fill="#A5ABB6" stroke="none" d="M 40 0.5 L 84.20993832245792 0.5 L 84.20993832245792 -0.5 L 40 -0.5 Z M 120.43259457245792 0.5 L 164.64253289491583 0.5 L 164.64253289491583 3.5 L 171.64253289491583 0 L 164.64253289491583 -3.5 L 164.64253289491583 -0.5 L 120.43259457245792 -0.5 Z"/><text text-anchor="middle" pointer-events="none" font-size="8px" fill="#000000" x="102.32126644745792" y="3" transform="rotate(180 102.32126644745792 0)" font-family="sans-serif">KNOWS</text></g><g class="relationship" transform="translate(182.53394082269995 81.27895564348105) rotate(334.6699726585357)"><path class="outline" fill="#A5ABB6" stroke="none" d="M 40 0.5 L 71.44262018207787 0.5 L 71.44262018207787 -0.5 L 40 -0.5 Z M 107.66527643207787 0.5 L 139.10789661415575 0.5 L 139.10789661415575 3.5 L 146.10789661415575 0 L 139.10789661415575 -3.5 L 139.10789661415575 -0.5 L 107.66527643207787 -0.5 Z"/><text text-anchor="middle" pointer-events="none" font-size="8px" fill="#000000" x="89.55394830707787" y="3" font-family="sans-serif">KNOWS</text></g><g class="relationship" transform="translate(-67.02079524144209 36.377389844730104) rotate(482.3583885581079)"><path class="outline" fill="#A5ABB6" stroke="none" d="M 40 0.5 L 58.243134536427874 0.5 L 58.243134536427874 -0.5 L 40 -0.5 Z M 94.46579078642787 0.5 L 112.70892532285575 0.5 L 112.70892532285575 3.5 L 119.70892532285575 0 L 112.70892532285575 -3.5 L 112.70892532285575 -0.5 L 94.46579078642787 -0.5 Z"/><text text-anchor="middle" pointer-events="none" font-size="8px" fill="#000000" x="76.35446266142787" y="3" transform="rotate(180 76.35446266142787 0)" font-family="sans-serif">KNOWS</text></g><g class="relationship" transform="translate(-67.02079524144209 36.377389844730104) rotate(342.33991414335446)"><path class="outline" fill="#A5ABB6" stroke="none" d="M 40 0.5 L 97.88877136188408 0.5 L 97.88877136188408 -0.5 L 40 -0.5 Z M 143.0059588618841 0.5 L 200.89473022376816 0.5 L 200.89473022376816 3.5 L 207.89473022376816 0 L 200.89473022376816 -3.5 L 200.89473022376816 -0.5 L 143.0059588618841 -0.5 Z"/><text text-anchor="middle" pointer-events="none" font-size="8px" fill="#000000" x="120.44736511188408" y="3" font-family="sans-serif">FOLLOWS</text></g></g><g class="layer nodes"><g class="node" transform="translate(58.94144983262643,180.52903682294482)"><circle class="outline" cx="0" cy="0" r="40" fill="#DA7194" stroke="#cc3c6c" stroke-width="2px"/><text text-anchor="middle" pointer-events="none" font-family="sans-serif" dy="2.5" font-size="40" fill="#FFFFFF"/><text text-anchor="middle" pointer-events="none" y="5" font-size="10px" fill="#FFFFFF" font-family="sans-serif"> Alicia</text></g><g class="node" transform="translate(182.53394082269995,81.27895564348105)"><circle class="outline" cx="0" cy="0" r="40" fill="#569480" stroke="#447666" stroke-width="2px"/><text text-anchor="middle" pointer-events="none" font-family="sans-serif" dy="2.5" font-size="40" fill="#FFFFFF"/><text text-anchor="middle" pointer-events="none" y="5" font-size="10px" fill="#FFFFFF" font-family="sans-serif"> Jonny</text></g><g class="node" transform="translate(-152.49916094773954,171.2862102530414)"><circle class="outline" cx="0" cy="0" r="40" fill="#DA7194" stroke="#cc3c6c" stroke-width="2px"/><text text-anchor="middle" pointer-events="none" font-family="sans-serif" dy="2.5" font-size="40" fill="#FFFFFF"/><text text-anchor="middle" pointer-events="none" y="5" font-size="10px" fill="#FFFFFF" font-family="sans-serif"> Jake</text></g><g class="node" transform="translate(350.749137189924,1.6561141136691617)"><circle class="outline" cx="0" cy="0" r="40" fill="#569480" stroke="#447666" stroke-width="2px"/><text text-anchor="middle" pointer-events="none" font-family="sans-serif" dy="2.5" font-size="40" fill="#FFFFFF"/><text text-anchor="middle" pointer-events="none" y="5" font-size="10px" fill="#FFFFFF" font-family="sans-serif"> Anthony</text></g><g class="node" transform="translate(-67.02079524144209,36.377389844730104)"><circle class="outline" cx="0" cy="0" r="40" fill="#ECB5C9" stroke="#da7298" stroke-width="2px"/><text text-anchor="middle" pointer-events="none" font-family="sans-serif" dy="2.5" font-size="40" fill="#604A0E"/><text text-anchor="middle" pointer-events="none" y="5" font-size="10px" fill="#604A0E" font-family="sans-serif"> Mark</text></g><g class="node" transform="translate(169.19141232771423,-38.82626876321676)"><circle class="outline" cx="0" cy="0" r="40" fill="#FFC454" stroke="#d7a013" stroke-width="2px"/><text text-anchor="middle" pointer-events="none" font-family="sans-serif" dy="2.5" font-size="40" fill="#604A0E"/><text text-anchor="middle" pointer-events="none" y="5" font-size="10px" fill="#604A0E" font-family="sans-serif"> Stefan</text></g></g></svg>