<svg xmlns="http://www.w3.org/2000/svg" width="459.5581359863281" height="206.5485382080078" viewBox="-114.60375213623047 -7.768207550048828 459.5581359863281 206.5485382080078"><title>Neo4j Graph Visualization</title><desc>Created using Neo4j (http://www.neo4j.com/)</desc><g class="layer relationships"><g class="relationship" transform="translate(148.2225127979758 36.23179234106762) rotate(397.8181621403604)"><path class="outline" fill="#A5ABB6" stroke="none" d="M 40 0.5 L 75.05921796977337 0.5 L 75.05921796977337 -0.5 L 40 -0.5 Z M 111.28187421977337 0.5 L 146.34109218954674 0.5 L 146.34109218954674 3.5 L 153.34109218954674 0 L 146.34109218954674 -3.5 L 146.34109218954674 -0.5 L 111.28187421977337 -0.5 Z"/><text text-anchor="middle" pointer-events="none" font-size="8px" fill="#000000" x="93.17054609477337" y="3" font-family="sans-serif">KNOWS</text></g><g class="relationship" transform="translate(148.2225127979758 36.23179234106762) rotate(528.356384160596)"><path class="outline" fill="#A5ABB6" stroke="none" d="M 40 0.5 L 90.10062262881635 0.5 L 90.10062262881635 -0.5 L 40 -0.5 Z M 126.32327887881635 0.5 L 176.4239015076327 0.5 L 176.4239015076327 3.5 L 183.4239015076327 0 L 176.4239015076327 -3.5 L 176.4239015076327 -0.5 L 126.32327887881635 -0.5 Z"/><text text-anchor="middle" pointer-events="none" font-size="8px" fill="#000000" x="108.21195075381635" y="3" transform="rotate(180 108.21195075381635 0)" font-family="sans-serif">KNOWS</text></g></g><g class="layer nodes"><g class="node" transform="translate(300.95437496319676,154.780331803141)"><circle class="outline" cx="0" cy="0" r="40" fill="#4C8EDA" stroke="#2870c2" stroke-width="2px"/><text text-anchor="middle" pointer-events="none" font-family="sans-serif" dy="2.5" font-size="40" fill="#FFFFFF"/><text text-anchor="middle" pointer-events="none" y="5" font-size="10px" fill="#FFFFFF" font-family="sans-serif"> Praveena</text></g><g class="node" transform="translate(148.2225127979758,36.23179234106762)"><circle class="outline" cx="0" cy="0" r="40" fill="#4C8EDA" stroke="#2870c2" stroke-width="2px"/><text text-anchor="middle" pointer-events="none" font-family="sans-serif" dy="2.5" font-size="40" fill="#FFFFFF"/><text text-anchor="middle" pointer-events="none" y="5" font-size="10px" fill="#FFFFFF" font-family="sans-serif"> Zhen</text></g><g class="node" transform="translate(-70.60374870348929,81.32399834371036)"><circle class="outline" cx="0" cy="0" r="40" fill="#4C8EDA" stroke="#2870c2" stroke-width="2px"/><text text-anchor="middle" pointer-events="none" font-family="sans-serif" dy="2.5" font-size="40" fill="#FFFFFF"/><text text-anchor="middle" pointer-events="none" y="5" font-size="10px" fill="#FFFFFF" font-family="sans-serif"> Martin</text></g></g></svg>