<svg xmlns="http://www.w3.org/2000/svg" width="427.4466857910156" height="322.0115966796875" viewBox="-144.96270751953125 -42.16632080078125 427.4466857910156 322.0115966796875"><title>Neo4j Graph Visualization</title><desc>Created using Neo4j (http://www.neo4j.com/)</desc><g class="layer relationships"><g class="relationship" transform="translate(-87.21545254972295 145.8018249620839) rotate(391.0831123210962)"><path class="outline" fill="#A5ABB6" stroke="none" d="M 40 0.5 L 65.8172032882536 0.5 L 65.8172032882536 -0.5 L 40 -0.5 Z M 101.5906407882536 0.5 L 127.40784407650719 0.5 L 127.40784407650719 3.5 L 134.4078440765072 0 L 127.40784407650719 -3.5 L 127.40784407650719 -0.5 L 101.5906407882536 -0.5 Z"/><text text-anchor="middle" pointer-events="none" font-size="8px" fill="#000000" x="83.7039220382536" y="3" font-family="sans-serif">WROTE</text></g><g class="relationship" transform="translate(238.48397332938936 203.3495487488026) rotate(529.5583478531923)"><path class="outline" fill="#A5ABB6" stroke="none" d="M 40 0.5 L 68.26449890912714 0.5 L 68.26449890912714 -0.5 L 40 -0.5 Z M 104.03793640912714 0.5 L 132.30243531825428 0.5 L 132.30243531825428 3.5 L 139.30243531825428 0 L 132.30243531825428 -3.5 L 132.30243531825428 -0.5 L 104.03793640912714 -0.5 Z"/><text text-anchor="middle" pointer-events="none" font-size="8px" fill="#000000" x="86.15121765912714" y="3" transform="rotate(180 86.15121765912714 0)" font-family="sans-serif">WROTE</text></g><g class="relationship" transform="translate(62.15079002547357 235.84526811250328) rotate(293.00391400754626)"><path class="outline" fill="#A5ABB6" stroke="none" d="M 40 0.5 L 53.87317836509665 0.5 L 53.87317836509665 -0.5 L 40 -0.5 Z M 109.22083461509665 0.5 L 123.0940129801933 0.5 L 123.0940129801933 3.5 L 130.0940129801933 0 L 123.0940129801933 -3.5 L 123.0940129801933 -0.5 L 109.22083461509665 -0.5 Z"/><text text-anchor="middle" pointer-events="none" font-size="8px" fill="#000000" x="81.54700649009665" y="3" font-family="sans-serif">HAS_GENRE</text></g><g class="relationship" transform="translate(221.11466193731718 30.37987379809646) rotate(189.48285032213937)"><path class="outline" fill="#A5ABB6" stroke="none" d="M 40 0.5 L 65.24690954590935 0.5 L 65.24690954590935 -0.5 L 40 -0.5 Z M 101.02034704590935 0.5 L 126.2672565918187 0.5 L 126.2672565918187 3.5 L 133.2672565918187 0 L 126.2672565918187 -3.5 L 126.2672565918187 -0.5 L 101.02034704590935 -0.5 Z"/><text text-anchor="middle" pointer-events="none" font-size="8px" fill="#000000" x="83.13362829590935" y="3" transform="rotate(180 83.13362829590935 0)" font-family="sans-serif">WROTE</text></g><g class="relationship" transform="translate(50.21510948804604 1.8336800151423673) rotate(520.0819131676758)"><path class="outline" fill="#A5ABB6" stroke="none" d="M 40 0.5 L 56.96304923521936 0.5 L 56.96304923521936 -0.5 L 40 -0.5 Z M 112.31070548521936 0.5 L 129.27375472043872 0.5 L 129.27375472043872 3.5 L 136.27375472043872 0 L 129.27375472043872 -3.5 L 129.27375472043872 -0.5 L 112.31070548521936 -0.5 Z"/><text text-anchor="middle" pointer-events="none" font-size="8px" fill="#000000" x="84.63687736021936" y="3" transform="rotate(180 84.63687736021936 0)" font-family="sans-serif">HAS_GENRE</text></g></g><g class="layer nodes"><g class="node" transform="translate(-87.21545254972295,145.8018249620839)"><circle class="outline" cx="0" cy="0" r="40" fill="#4C8EDA" stroke="#2870c2" stroke-width="2px"/><text text-anchor="middle" pointer-events="none" font-family="sans-serif" dy="2.5" font-size="40" fill="#FFFFFF"/><text text-anchor="middle" pointer-events="none" y="5" font-size="40" fill="#FFFFFF" dy="2.5" font-family="sans-serif"/><text text-anchor="middle" pointer-events="none" y="0" font-size="10px" fill="#FFFFFF" font-family="sans-serif"> Gambardella,</text><text text-anchor="middle" pointer-events="none" y="10" font-size="10px" fill="#FFFFFF" font-family="sans-serif"> Matthew</text></g><g class="node" transform="translate(62.15079002547357,235.84526811250328)"><circle class="outline" cx="0" cy="0" r="40" fill="#C990C0" stroke="#b261a5" stroke-width="2px"/><text text-anchor="middle" pointer-events="none" font-family="sans-serif" dy="2.5" font-size="40" fill="#FFFFFF"/><text text-anchor="middle" pointer-events="none" font-family="sans-serif" dy="2.5" font-size="40" fill="#FFFFFF"/><text text-anchor="middle" pointer-events="none" y="0" font-size="40" fill="#FFFFFF" dy="2.5" font-family="sans-serif"/><text text-anchor="middle" pointer-events="none" y="-5" font-size="10px" fill="#FFFFFF" font-family="sans-serif"> XML</text><text text-anchor="middle" pointer-events="none" y="5" font-size="10px" fill="#FFFFFF" font-family="sans-serif"> Developer's</text><text text-anchor="middle" pointer-events="none" y="15" font-size="10px" fill="#FFFFFF" font-family="sans-serif"> Guide</text></g><g class="node" transform="translate(238.48397332938936,203.3495487488026)"><circle class="outline" cx="0" cy="0" r="40" fill="#4C8EDA" stroke="#2870c2" stroke-width="2px"/><text text-anchor="middle" pointer-events="none" font-family="sans-serif" dy="2.5" font-size="40" fill="#FFFFFF"/><text text-anchor="middle" pointer-events="none" y="5" font-size="40" fill="#FFFFFF" dy="2.5" font-family="sans-serif"/><text text-anchor="middle" pointer-events="none" y="0" font-size="10px" fill="#FFFFFF" font-family="sans-serif"> Arciniegas,</text><text text-anchor="middle" pointer-events="none" y="10" font-size="10px" fill="#FFFFFF" font-family="sans-serif"> Fabio</text></g><g class="node" transform="translate(125.69155626217663,86.18103028978251)"><circle class="outline" cx="0" cy="0" r="32.5" fill="#FFC454" stroke="#d7a013" stroke-width="2px"/><text text-anchor="middle" pointer-events="none" font-family="sans-serif" dy="2.03125" font-size="32.5" fill="#604A0E"/><text text-anchor="middle" pointer-events="none" y="5" font-size="10px" fill="#604A0E" font-family="sans-serif"> Computer</text></g><g class="node" transform="translate(221.11466193731718,30.37987379809646)"><circle class="outline" cx="0" cy="0" r="40" fill="#4C8EDA" stroke="#2870c2" stroke-width="2px"/><text text-anchor="middle" pointer-events="none" font-family="sans-serif" dy="2.5" font-size="40" fill="#FFFFFF"/><text text-anchor="middle" pointer-events="none" y="5" font-size="10px" fill="#FFFFFF" font-family="sans-serif"> Ralls, Kim</text></g><g class="node" transform="translate(50.21510948804604,1.8336800151423673)"><circle class="outline" cx="0" cy="0" r="40" fill="#C990C0" stroke="#b261a5" stroke-width="2px"/><text text-anchor="middle" pointer-events="none" font-family="sans-serif" dy="2.5" font-size="40" fill="#FFFFFF"/><text text-anchor="middle" pointer-events="none" y="5" font-size="10px" fill="#FFFFFF" font-family="sans-serif"> Midnight Rain</text></g><g class="node" transform="translate(-108.46270570843657,59.33090818229596)"><circle class="outline" cx="0" cy="0" r="32.5" fill="#FFC454" stroke="#d7a013" stroke-width="2px"/><text text-anchor="middle" pointer-events="none" font-family="sans-serif" dy="2.03125" font-size="32.5" fill="#604A0E"/><text text-anchor="middle" pointer-events="none" y="5" font-size="10px" fill="#604A0E" font-family="sans-serif"> Fantasy</text></g></g></svg>