<svg xmlns="http://www.w3.org/2000/svg" width="449.9363098144531" height="190.2589111328125" viewBox="-155.61996459960938 -7.549949645996094 449.9363098144531 190.2589111328125"><title>Neo4j Graph Visualization</title><desc>Created using Neo4j (http://www.neo4j.com/)</desc><g class="layer relationships"><g class="relationship" transform="translate(102.80589208912237 138.70895722097663) rotate(325.2690778107727)"><path class="outline" fill="#A5ABB6" stroke="none" d="M 40 0.5 L 63.68579125689271 0.5 L 63.68579125689271 -0.5 L 40 -0.5 Z M 108.80297875689271 0.5 L 132.48877001378543 0.5 L 132.48877001378543 3.5 L 139.48877001378543 0 L 132.48877001378543 -3.5 L 132.48877001378543 -0.5 L 108.80297875689271 -0.5 Z"/><text text-anchor="middle" pointer-events="none" font-size="8px" fill="#000000" x="86.24438500689271" y="3" font-family="sans-serif">FOLLOWS</text></g><g class="relationship" transform="translate(102.80589208912237 138.70895722097663) rotate(201.46743181407516)"><path class="outline" fill="#A5ABB6" stroke="none" d="M 40 0.5 L 89.14660488184967 0.5 L 89.14660488184967 -0.5 L 40 -0.5 Z M 134.26379238184967 0.5 L 183.41039726369934 0.5 L 183.41039726369934 3.5 L 190.41039726369934 0 L 183.41039726369934 -3.5 L 183.41039726369934 -0.5 L 134.26379238184967 -0.5 Z"/><text text-anchor="middle" pointer-events="none" font-size="8px" fill="#000000" x="111.70519863184967" y="3" transform="rotate(180 111.70519863184967 0)" font-family="sans-serif">FOLLOWS</text></g></g><g class="layer nodes"><g class="node" transform="translate(102.80589208912237,138.70895722097663)"><circle class="outline" cx="0" cy="0" r="40" fill="#FFC454" stroke="#d7a013" stroke-width="2px"/><text text-anchor="middle" pointer-events="none" font-family="sans-serif" dy="2.5" font-size="40" fill="#604A0E"/><text text-anchor="middle" pointer-events="none" y="5" font-size="10px" fill="#604A0E" font-family="sans-serif"> Joe</text></g><g class="node" transform="translate(250.3163477533282,36.450050367832915)"><circle class="outline" cx="0" cy="0" r="40" fill="#ECB5C9" stroke="#da7298" stroke-width="2px"/><text text-anchor="middle" pointer-events="none" font-family="sans-serif" dy="2.5" font-size="40" fill="#604A0E"/><text text-anchor="middle" pointer-events="none" y="5" font-size="10px" fill="#604A0E" font-family="sans-serif"> Mark</text></g><g class="node" transform="translate(-111.61995553126538,54.385134729974666)"><circle class="outline" cx="0" cy="0" r="40" fill="#4C8EDA" stroke="#2870c2" stroke-width="2px"/><text text-anchor="middle" pointer-events="none" font-family="sans-serif" dy="2.5" font-size="40" fill="#FFFFFF"/><text text-anchor="middle" pointer-events="none" y="5" font-size="10px" fill="#FFFFFF" font-family="sans-serif"> Zhen</text></g></g></svg>