<svg xmlns="http://www.w3.org/2000/svg" width="1187.6253662109375" height="773.4056396484375" viewBox="-697.4212036132812 -355.7663879394531 1187.6253662109375 773.4056396484375"><title>Neo4j Graph Visualization</title><desc>Created using Neo4j (http://www.neo4j.com/)</desc><g class="layer relationships"><g class="relationship" transform="translate(399.59348042630194 271.3721420837011) rotate(184.68954713275798)"><path class="outline" fill="#A5ABB6" stroke="none" d="M 34.39101615137755,-20.433012701892217 L 34.89101615137755,-19.566987298107776 A 161.29263597377428 161.29263597377428 0 0 1 99.58319685875196,-40.38511794354956 L 99.48428262634953,-41.38021390607189 A 162.29263597377428 162.29263597377428 0 0 0 34.39101615137755,-20.433012701892217 Z M 126.86917727107065,-41.780005120438645 L 126.79935375095334,-40.78244576078207 A 161.29263597377428 161.29263597377428 0 0 1 192.07168160519325,-21.861662882294098 L 190.64816315988668,-19.220906317240825 L 198.47069999786865,-18.980245937420978 L 193.96970619893534,-25.382671635698465 L 192.54618775362877,-22.74191507064519 A 162.29263597377428 162.29263597377428 0 0 0 126.86917727107065,-41.780005120438645"/><text text-anchor="middle" pointer-events="none" font-size="8px" fill="#000000" x="113.17558020848094" y="-38.65886440809156" transform="rotate(180 113.17558020848094 -41.65886440809156)" font-family="sans-serif">NEXT</text></g><g class="relationship" transform="translate(399.59348042630194 271.3721420837011) rotate(184.68954713275798)"><path class="outline" fill="#A5ABB6" stroke="none" d="M 40 0.5 L 81.66461251595618 0.5 L 81.66461251595618 -0.5 L 40 -0.5 Z M 145.01617501595618 0.5 L 186.68078753191236 0.5 L 186.68078753191236 3.5 L 193.68078753191236 0 L 186.68078753191236 -3.5 L 186.68078753191236 -0.5 L 145.01617501595618 -0.5 Z"/><text text-anchor="middle" pointer-events="none" font-size="8px" fill="#000000" x="113.34039376595618" y="3" transform="rotate(180 113.34039376595618 0)" font-family="sans-serif">NEXT_SIBLING</text></g><g class="relationship" transform="translate(399.59348042630194 271.3721420837011) rotate(184.68954713275798)"><path class="outline" fill="#A5ABB6" stroke="none" d="M 34.39101615137755,20.433012701892217 L 34.89101615137755,19.566987298107776 A 161.29263597377428 161.29263597377428 0 0 0 84.90166684156945,38.23993305298261 L 84.7117284286237,39.22172905994519 A 162.29263597377428 162.29263597377428 0 0 1 34.39101615137755,20.433012701892217 Z M 141.69844574040812,40.05367635104956 L 141.53724858290818,39.06675412695388 A 161.29263597377428 161.29263597377428 0 0 0 192.07168160519325,21.861662882294098 L 190.64816315988668,19.220906317240825 L 198.47069999786865,18.980245937420978 L 193.96970619893534,25.382671635698465 L 192.54618775362877,22.74191507064519 A 162.29263597377428 162.29263597377428 0 0 1 141.69844574040812,40.05367635104956"/><text text-anchor="middle" pointer-events="none" font-size="8px" fill="#000000" x="113.17558020848097" y="44.65886440809156" transform="rotate(180 113.17558020848097 41.65886440809156)" font-family="sans-serif">NEXT_WORD</text></g><g class="relationship" transform="translate(166.69498166336075 252.26717583136121) rotate(314.7651945453235)"><path class="outline" fill="#A5ABB6" stroke="none" d="M 34.39101615137755,-20.433012701892217 L 34.89101615137755,-19.566987298107776 A 119.97376914356309 119.97376914356309 0 0 1 64.6586617869496,-31.77222325987016 L 64.40677973679871,-32.739981201099155 A 120.97376914356309 120.97376914356309 0 0 0 34.39101615137755,-20.433012701892217 Z M 121.21276739814743,-33.739207780179726 L 120.99507668005683,-32.76318997744394 A 119.97376914356309 119.97376914356309 0 0 1 151.17355833329148,-21.61241616247172 L 149.76585918341894,-18.96319304928398 L 157.5896954557083,-18.769321998300438 L 153.05049053312152,-25.144713646722046 L 151.64279138324898,-22.495490533534305 A 120.97376914356309 120.97376914356309 0 0 0 121.21276739814743,-33.739207780179726"/><text text-anchor="middle" pointer-events="none" font-size="8px" fill="#000000" x="92.75907526521034" y="-33.12179077432694" font-family="sans-serif">NEXT_WORD</text></g><g class="relationship" transform="translate(166.69498166336075 252.26717583136121) rotate(314.7651945453235)"><path class="outline" fill="#A5ABB6" stroke="none" d="M 40 0.5 L 79.28836639910577 0.5 L 79.28836639910577 -0.5 L 40 -0.5 Z M 106.62430389910577 0.5 L 145.91267029821154 0.5 L 145.91267029821154 3.5 L 152.91267029821154 0 L 145.91267029821154 -3.5 L 145.91267029821154 -0.5 L 106.62430389910577 -0.5 Z"/><text text-anchor="middle" pointer-events="none" font-size="8px" fill="#000000" x="92.95633514910577" y="3" font-family="sans-serif">NEXT</text></g><g class="relationship" transform="translate(166.69498166336075 252.26717583136121) rotate(314.7651945453235)"><path class="outline" fill="#A5ABB6" stroke="none" d="M 34.39101615137755,20.433012701892217 L 34.89101615137755,19.566987298107776 A 119.97376914356309 119.97376914356309 0 0 0 61.66308020846684,30.951003808926856 L 61.386229520589,31.911916758481368 A 120.97376914356309 120.97376914356309 0 0 1 34.39101615137755,20.433012701892217 Z M 124.26057155851868,33.01788667983968 L 124.01768691465436,32.04783150111277 A 119.97376914356309 119.97376914356309 0 0 0 151.17355833329148,21.61241616247172 L 149.76585918341894,18.96319304928398 L 157.5896954557083,18.769321998300438 L 153.05049053312152,25.144713646722046 L 151.64279138324898,22.495490533534305 A 120.97376914356309 120.97376914356309 0 0 1 124.26057155851868,33.01788667983968"/><text text-anchor="middle" pointer-events="none" font-size="8px" fill="#000000" x="92.75907526521031" y="39.12179077432694" font-family="sans-serif">NEXT_SIBLING</text></g><g class="relationship" transform="translate(302.5446700012892 115.29944043329687) rotate(183.41542306321548)"><path class="outline" fill="#A5ABB6" stroke="none" d="M 34.39101615137755,-20.433012701892217 L 34.89101615137755,-19.566987298107776 A 96.5032305644864 96.5032305644864 0 0 1 53.310419814670965,-27.76916566176486 L 53.00128807426758,-28.72018488716209 A 97.5032305644864 97.5032305644864 0 0 0 34.39101615137755,-20.433012701892217 Z M 109.57214784257742,-29.84560502222334 L 109.30108486080805,-28.883043408655524 A 96.5032305644864 96.5032305644864 0 0 1 128.03213357148235,-21.419935783882966 L 126.63665172464826,-18.764256884777026 L 134.4612979772019,-18.60642462445443 L 129.8927760339278,-24.96084098269089 L 128.4972941870937,-22.30516208358495 A 97.5032305644864 97.5032305644864 0 0 0 109.57214784257742,-29.84560502222334"/><text text-anchor="middle" pointer-events="none" font-size="8px" fill="#000000" x="81.21323186872702" y="-29.97677881688098" transform="rotate(180 81.21323186872702 -32.97677881688098)" font-family="sans-serif">NEXT_WORD</text></g><g class="relationship" transform="translate(302.5446700012892 115.29944043329687) rotate(183.41542306321548)"><path class="outline" fill="#A5ABB6" stroke="none" d="M 40 0.5 L 67.76720623264053 0.5 L 67.76720623264053 -0.5 L 40 -0.5 Z M 95.10314373264053 0.5 L 122.87034996528106 0.5 L 122.87034996528106 3.5 L 129.87034996528106 0 L 122.87034996528106 -3.5 L 122.87034996528106 -0.5 L 95.10314373264053 -0.5 Z"/><text text-anchor="middle" pointer-events="none" font-size="8px" fill="#000000" x="81.43517498264053" y="3" transform="rotate(180 81.43517498264053 0)" font-family="sans-serif">NEXT</text></g><g class="relationship" transform="translate(302.5446700012892 115.29944043329687) rotate(183.41542306321548)"><path class="outline" fill="#A5ABB6" stroke="none" d="M 34.39101615137755,20.433012701892217 L 34.89101615137755,19.566987298107776 A 96.5032305644864 96.5032305644864 0 0 0 50.37527675563772,26.762633844796255 L 50.03573004319801,27.703223037840374 A 97.5032305644864 97.5032305644864 0 0 1 34.39101615137755,20.433012701892217 Z M 112.57580629008513,28.94739470757945 L 112.27393757572496,27.994045202261205 A 96.5032305644864 96.5032305644864 0 0 0 128.03213357148235,21.419935783882966 L 126.63665172464826,18.764256884777026 L 134.4612979772019,18.60642462445443 L 129.8927760339278,24.96084098269089 L 128.4972941870937,22.30516208358495 A 97.5032305644864 97.5032305644864 0 0 1 112.57580629008513,28.94739470757945"/><text text-anchor="middle" pointer-events="none" font-size="8px" fill="#000000" x="81.21323186872702" y="35.97677881688098" transform="rotate(180 81.21323186872702 32.97677881688098)" font-family="sans-serif">NEXT_SIBLING</text></g><g class="relationship" transform="translate(132.97603908417466 105.17940060025035) rotate(481.50243668393006)"><path class="outline" fill="#A5ABB6" stroke="none" d="M 40 0.5 L 72.87930322916522 0.5 L 72.87930322916522 -0.5 L 40 -0.5 Z M 129.9925844791652 0.5 L 162.87188770833043 0.5 L 162.87188770833043 3.5 L 169.87188770833043 0 L 162.87188770833043 -3.5 L 162.87188770833043 -0.5 L 129.9925844791652 -0.5 Z"/><text text-anchor="middle" pointer-events="none" font-size="8px" fill="#000000" x="101.43594385416522" y="3" transform="rotate(180 101.43594385416522 0)" font-family="sans-serif">NEXT_WORD</text></g><g class="relationship" transform="translate(23.310668871844797 284.11993772487926) rotate(242.4573151945384)"><path class="outline" fill="#A5ABB6" stroke="none" d="M 34.39101615137755,-20.433012701892217 L 34.89101615137755,-19.566987298107776 A 179.7239437283995 179.7239437283995 0 0 1 93.98970865939337,-40.99298771719893 L 93.81853903826223,-41.978229292043295 A 180.7239437283995 180.7239437283995 0 0 0 34.39101615137755,-20.433012701892217 Z M 150.8456735338459,-42.75189652433451 L 150.70129484787898,-41.76237401572823 A 179.7239437283995 179.7239437283995 0 0 1 210.35948781455667,-21.94750681792581 L 208.93052128917793,-19.309694339877574 L 216.75254468423233,-19.05288700505008 L 212.26477651506167,-25.46459012199012 L 210.83580998968293,-22.826777643941885 A 180.7239437283995 180.7239437283995 0 0 0 150.8456735338459,-42.75189652433451"/><text text-anchor="middle" pointer-events="none" font-size="8px" fill="#000000" x="122.30817764405859" y="-41.12884690784506" transform="rotate(180 122.30817764405859 -44.12884690784506)" font-family="sans-serif">NEXT_WORD</text></g><g class="relationship" transform="translate(23.310668871844797 284.11993772487926) rotate(242.4573151945384)"><path class="outline" fill="#A5ABB6" stroke="none" d="M 40 0.5 L 108.79372011243773 0.5 L 108.79372011243773 -0.5 L 40 -0.5 Z M 136.1296576124377 0.5 L 204.92337772487545 0.5 L 204.92337772487545 3.5 L 211.92337772487545 0 L 204.92337772487545 -3.5 L 204.92337772487545 -0.5 L 136.1296576124377 -0.5 Z"/><text text-anchor="middle" pointer-events="none" font-size="8px" fill="#000000" x="122.46168886243773" y="3" transform="rotate(180 122.46168886243773 0)" font-family="sans-serif">NEXT</text></g><g class="relationship" transform="translate(23.310668871844797 284.11993772487926) rotate(242.4573151945384)"><path class="outline" fill="#A5ABB6" stroke="none" d="M 34.39101615137755,20.433012701892217 L 34.89101615137755,19.566987298107776 A 179.7239437283995 179.7239437283995 0 0 0 90.92988762375856,40.43407466327926 L 90.74169288637324,41.41620639620538 A 180.7239437283995 180.7239437283995 0 0 1 34.39101615137755,20.433012701892217 Z M 153.93663401311522,42.27355010861163 L 153.77515211207066,41.286674434762574 A 179.7239437283995 179.7239437283995 0 0 0 210.35948781455667,21.94750681792581 L 208.93052128917793,19.309694339877574 L 216.75254468423233,19.05288700505008 L 212.26477651506167,25.46459012199012 L 210.83580998968293,22.826777643941885 A 180.7239437283995 180.7239437283995 0 0 1 153.93663401311522,42.27355010861163"/><text text-anchor="middle" pointer-events="none" font-size="8px" fill="#000000" x="122.30817764405856" y="47.12884690784503" transform="rotate(180 122.30817764405856 44.12884690784503)" font-family="sans-serif">NEXT_SIBLING</text></g><g class="relationship" transform="translate(-93.18104377174852 60.747895764223955) rotate(281.64638713987523)"><path class="outline" fill="#A5ABB6" stroke="none" d="M 34.39101615137755,-20.433012701892217 L 34.89101615137755,-19.566987298107776 A 55.04236077071675 55.04236077071675 0 0 1 47.63045574188335,-24.919293290062193 L 47.36190365603756,-25.882558454587453 A 56.04236077071675 56.04236077071675 0 0 0 34.39101615137755,-20.433012701892217 Z M 74.65729482510447,-26.587146180578735 L 74.43879763619293,-25.61130860268078 A 55.04236077071675 55.04236077071675 0 0 1 87.43740988068086,-20.923390063594805 L 86.0734487609068,-18.251385186401528 L 93.89941478076086,-18.1861482636542 L 89.25602470704628,-24.486063233185845 L 87.89206358727222,-21.814058355992568 A 56.04236077071675 56.04236077071675 0 0 0 74.65729482510447,-26.587146180578735"/><text text-anchor="middle" pointer-events="none" font-size="8px" fill="#000000" x="60.97893501491958" y="-24.422769738192443" font-family="sans-serif">NEXT</text></g><g class="relationship" transform="translate(-93.18104377174852 60.747895764223955) rotate(281.64638713987523)"><path class="outline" fill="#A5ABB6" stroke="none" d="M 40 0.5 L 41.370495113335636 0.5 L 41.370495113335636 -0.5 L 40 -0.5 Z M 81.15565136333564 0.5 L 82.52614647667127 0.5 L 82.52614647667127 3.5 L 89.52614647667127 0 L 82.52614647667127 -3.5 L 82.52614647667127 -0.5 L 81.15565136333564 -0.5 Z"/><text text-anchor="middle" pointer-events="none" font-size="8px" fill="#000000" x="61.263073238335636" y="3" font-family="sans-serif">NEXT_…</text></g><g class="relationship" transform="translate(-93.18104377174852 60.747895764223955) rotate(281.64638713987523)"><path class="outline" fill="#A5ABB6" stroke="none" d="M 34.39101615137755,20.433012701892217 L 34.89101615137755,19.566987298107776 A 55.04236077071675 55.04236077071675 0 0 0 35.64032385636942,19.99181791466379 L 35.153937147923415,20.865561566913733 A 56.04236077071675 56.04236077071675 0 0 1 34.39101615137755,20.433012701892217 Z M 87.10784236157575,22.206670170344864 L 86.66718202026935,21.308996252042824 A 55.04236077071675 55.04236077071675 0 0 0 87.43740988068086,20.923390063594805 L 86.0734487609068,18.251385186401528 L 93.89941478076086,18.1861482636542 L 89.25602470704628,24.486063233185845 L 87.89206358727222,21.814058355992568 A 56.04236077071675 56.04236077071675 0 0 1 87.10784236157575,22.206670170344864"/><text text-anchor="middle" pointer-events="none" font-size="8px" fill="#000000" x="60.97893501491959" y="30.422769738192443" font-family="sans-serif">NEXT_WO…</text></g><g class="relationship" transform="translate(-67.03348045567834 -66.11158379378227) rotate(377.0101165433899)"><path class="outline" fill="#A5ABB6" stroke="none" d="M 34.39101615137755,20.433012701892217 L 34.89101615137755,19.566987298107776 A 142.5111850421111 142.5111850421111 0 0 0 75.67209975216262,35.36341474791239 L 75.45826033379511,36.3402835738825 A 143.5111850421111 143.5111850421111 0 0 1 34.39101615137755,20.433012701892217 Z M 132.38398575389277,37.241062790735455 L 132.20116113939488,36.25791724691517 A 142.5111850421111 142.5111850421111 0 0 0 173.46162010058677,21.759695764852232 L 172.04457319142813,19.115460893052095 L 179.86767595298022,18.893958788782058 L 175.351015979465,25.28534226058575 L 173.93396907030635,22.641107388785613 A 143.5111850421111 143.5111850421111 0 0 1 132.38398575389277,37.241062790735455"/><text text-anchor="middle" pointer-events="none" font-size="8px" fill="#000000" x="103.8839167622853" y="42.14196473997755" font-family="sans-serif">NEXT_WORD</text></g><g class="relationship" transform="translate(-67.03348045567834 -66.11158379378227) rotate(377.0101165433899)"><path class="outline" fill="#A5ABB6" stroke="none" d="M 40 0.5 L 90.39410170515767 0.5 L 90.39410170515767 -0.5 L 40 -0.5 Z M 117.73003920515767 0.5 L 168.12414091031533 0.5 L 168.12414091031533 3.5 L 175.12414091031533 0 L 168.12414091031533 -3.5 L 168.12414091031533 -0.5 L 117.73003920515767 -0.5 Z"/><text text-anchor="middle" pointer-events="none" font-size="8px" fill="#000000" x="104.06207045515767" y="3" font-family="sans-serif">NEXT</text></g><g class="relationship" transform="translate(-67.03348045567834 -66.11158379378227) rotate(377.0101165433899)"><path class="outline" fill="#A5ABB6" stroke="none" d="M 34.39101615137755,-20.433012701892217 L 34.89101615137755,-19.566987298107776 A 142.5111850421111 142.5111850421111 0 0 1 72.64325023789905,-34.66569353066417 L 72.40815740343393,-35.637666451677475 A 143.5111850421111 143.5111850421111 0 0 0 34.39101615137755,-20.433012701892217 Z M 135.45479215499958,-36.63530149027606 L 135.2505698605912,-35.65637695055578 A 142.5111850421111 142.5111850421111 0 0 1 173.46162010058677,-21.759695764852232 L 172.04457319142813,-19.115460893052095 L 179.86767595298022,-18.893958788782058 L 175.351015979465,-25.28534226058575 L 173.93396907030635,-22.641107388785613 A 143.5111850421111 143.5111850421111 0 0 0 135.45479215499958,-36.63530149027606"/><text text-anchor="middle" pointer-events="none" font-size="8px" fill="#000000" x="103.88391676228525" y="-36.14196473997755" font-family="sans-serif">NEXT_SIBLING</text></g><g class="relationship" transform="translate(138.67965001768832 -3.179048859546299) rotate(369.53738077352057)"><path class="outline" fill="#A5ABB6" stroke="none" d="M 34.39101615137755,-20.433012701892217 L 34.89101615137755,-19.566987298107776 A 77.10649776680344 77.10649776680344 0 0 1 44.11083754861866,-24.099721142185814 L 43.7304101094828,-25.02453191393998 A 78.10649776680344 78.10649776680344 0 0 0 34.39101615137755,-20.433012701892217 Z M 99.90929301072697,-26.277040198856554 L 99.57046040738886,-25.33619352329505 A 77.10649776680344 77.10649776680344 0 0 1 108.98313482076145,-21.21887120337443 L 107.60041595210797,-18.556524770193796 L 115.4257296429585,-18.43625158204641 L 110.8267599789661,-24.768666447615274 L 109.44404111031261,-22.10632001443464 A 78.10649776680344 78.10649776680344 0 0 0 99.90929301072697,-26.277040198856554"/><text text-anchor="middle" pointer-events="none" font-size="8px" fill="#000000" x="71.71445790355949" y="-27.37801857126486" font-family="sans-serif">NEXT_WORD</text></g><g class="relationship" transform="translate(138.67965001768832 -3.179048859546299) rotate(369.53738077352057)"><path class="outline" fill="#A5ABB6" stroke="none" d="M 40 0.5 L 58.29387229268346 0.5 L 58.29387229268346 -0.5 L 40 -0.5 Z M 85.62980979268346 0.5 L 103.92368208536692 0.5 L 103.92368208536692 3.5 L 110.92368208536692 0 L 103.92368208536692 -3.5 L 103.92368208536692 -0.5 L 85.62980979268346 -0.5 Z"/><text text-anchor="middle" pointer-events="none" font-size="8px" fill="#000000" x="71.96184104268346" y="3" font-family="sans-serif">NEXT</text></g><g class="relationship" transform="translate(138.67965001768832 -3.179048859546299) rotate(369.53738077352057)"><path class="outline" fill="#A5ABB6" stroke="none" d="M 34.39101615137755,20.433012701892217 L 34.89101615137755,19.566987298107776 A 77.10649776680344 77.10649776680344 0 0 0 41.26926821136617,22.86348924776027 L 40.8519882446282,23.772267234597066 A 78.10649776680344 78.10649776680344 0 0 1 34.39101615137755,20.433012701892217 Z M 102.84066550405862,25.154304894102324 L 102.46430244452102,24.227832634714318 A 77.10649776680344 77.10649776680344 0 0 0 108.98313482076145,21.21887120337443 L 107.60041595210797,18.556524770193796 L 115.4257296429585,18.43625158204641 L 110.8267599789661,24.768666447615274 L 109.44404111031261,22.10632001443464 A 78.10649776680344 78.10649776680344 0 0 1 102.84066550405862,25.154304894102324"/><text text-anchor="middle" pointer-events="none" font-size="8px" fill="#000000" x="71.7144579035595" y="33.37801857126486" font-family="sans-serif">NEXT_SIBLING</text></g><g class="relationship" transform="translate(287.517221455036 21.827653098875228) rotate(321.3169063804194)"><path class="outline" fill="#A5ABB6" stroke="none" d="M 34.39101615137755,-20.433012701892217 L 34.89101615137755,-19.566987298107776 A 130.50673428006874 130.50673428006874 0 0 1 66.78228496886435,-32.71527274765282 L 66.5266498975664,-33.682046097679844 A 131.50673428006874 131.50673428006874 0 0 0 34.39101615137755,-20.433012701892217 Z M 129.4933855709162,-34.734766430119336 L 129.27021067086125,-33.759988012228646 A 130.50673428006874 130.50673428006874 0 0 1 161.58317730024078,-21.68511225052708 L 160.17086411162828,-19.038346024115835 L 167.99435069330244,-18.83084251483315 L 163.4662615517241,-25.214133885742076 L 162.0539483631116,-22.56736765933083 A 131.50673428006874 131.50673428006874 0 0 0 129.4933855709162,-34.734766430119336"/><text text-anchor="middle" pointer-events="none" font-size="8px" fill="#000000" x="97.95443043688688" y="-34.53326905172041" font-family="sans-serif">NEXT_SIBLING</text></g><g class="relationship" transform="translate(287.517221455036 21.827653098875228) rotate(321.3169063804194)"><path class="outline" fill="#A5ABB6" stroke="none" d="M 40 0.5 L 69.58564289772617 0.5 L 69.58564289772617 -0.5 L 40 -0.5 Z M 126.69892414772617 0.5 L 156.28456704545235 0.5 L 156.28456704545235 3.5 L 163.28456704545235 0 L 156.28456704545235 -3.5 L 156.28456704545235 -0.5 L 126.69892414772617 -0.5 Z"/><text text-anchor="middle" pointer-events="none" font-size="8px" fill="#000000" x="98.14228352272617" y="3" font-family="sans-serif">NEXT_WORD</text></g><g class="relationship" transform="translate(287.517221455036 21.827653098875228) rotate(321.3169063804194)"><path class="outline" fill="#A5ABB6" stroke="none" d="M 34.39101615137755,20.433012701892217 L 34.89101615137755,19.566987298107776 A 130.50673428006874 130.50673428006874 0 0 0 84.3854338602628,36.09661813274154 L 84.26468185832141,37.08930083835655 A 131.50673428006874 131.50673428006874 0 0 1 34.39101615137755,20.433012701892217 Z M 111.65136917093155,37.54716993803025 L 111.56386805593151,36.55100551642418 A 130.50673428006874 130.50673428006874 0 0 0 161.58317730024078,21.68511225052708 L 160.17086411162828,19.038346024115835 L 167.99435069330244,18.83084251483315 L 163.4662615517241,25.214133885742076 L 162.0539483631116,22.56736765933083 A 131.50673428006874 131.50673428006874 0 0 1 111.65136917093155,37.54716993803025"/><text text-anchor="middle" pointer-events="none" font-size="8px" fill="#000000" x="97.9544304368869" y="40.53326905172041" font-family="sans-serif">NEXT</text></g><g class="relationship" transform="translate(446.20417630838693 -105.22771104694736) rotate(185.2434834245626)"><path class="outline" fill="#A5ABB6" stroke="none" d="M 34.39101615137755,-20.433012701892217 L 34.89101615137755,-19.566987298107776 A 434.8866475658564 434.8866475658564 0 0 1 220.8648322541324,-76.69064891292237 L 220.7924697020598,-77.68802730704243 A 435.8866475658564 435.8866475658564 0 0 0 34.39101615137755,-20.433012701892217 Z M 277.92901695175175,-78.07865897987648 L 277.8702982982661,-77.08038440856217 A 434.8866475658564 434.8866475658564 0 0 1 464.6077802967488,-22.5048788316885 L 463.14344395841385,-19.88653601833653 L 470.96130291762586,-19.524484511132368 L 466.56022874786197,-25.99600258282446 L 465.09589240952704,-23.377659769472487 A 435.8866475658564 435.8866475658564 0 0 0 277.92901695175175,-78.07865897987648"/><text text-anchor="middle" pointer-events="none" font-size="8px" fill="#000000" x="249.35775405441487" y="-75.32057524929297" transform="rotate(180 249.35775405441487 -78.32057524929297)" font-family="sans-serif">NEXT_WORD</text></g><g class="relationship" transform="translate(446.20417630838693 -105.22771104694736) rotate(185.2434834245626)"><path class="outline" fill="#A5ABB6" stroke="none" d="M 40 0.5 L 235.7683014644929 0.5 L 235.7683014644929 -0.5 L 40 -0.5 Z M 263.1042389644929 0.5 L 458.8725404289858 0.5 L 458.8725404289858 3.5 L 465.8725404289858 0 L 458.8725404289858 -3.5 L 458.8725404289858 -0.5 L 263.1042389644929 -0.5 Z"/><text text-anchor="middle" pointer-events="none" font-size="8px" fill="#000000" x="249.4362702144929" y="3" transform="rotate(180 249.4362702144929 0)" font-family="sans-serif">NEXT</text></g><g class="relationship" transform="translate(446.20417630838693 -105.22771104694736) rotate(185.2434834245626)"><path class="outline" fill="#A5ABB6" stroke="none" d="M 34.39101615137755,20.433012701892217 L 34.89101615137755,19.566987298107776 A 434.8866475658564 434.8866475658564 0 0 0 217.75827557715803,76.45407033491267 L 217.67876965406134,77.45090472847687 A 435.8866475658564 435.8866475658564 0 0 1 34.39101615137755,20.433012701892217 Z M 281.0456681045829,77.88413212382267 L 280.97979930972394,76.88630383104692 A 434.8866475658564 434.8866475658564 0 0 0 464.6077802967488,22.5048788316885 L 463.14344395841385,19.88653601833653 L 470.96130291762586,19.524484511132368 L 466.56022874786197,25.99600258282446 L 465.09589240952704,23.377659769472487 A 435.8866475658564 435.8866475658564 0 0 1 281.0456681045829,77.88413212382267"/><text text-anchor="middle" pointer-events="none" font-size="8px" fill="#000000" x="249.35775405441478" y="81.32057524929297" transform="rotate(180 249.35775405441478 78.32057524929297)" font-family="sans-serif">NEXT_SIBLING</text></g><g class="relationship" transform="translate(-57.55145353302254 -151.45857263485976) rotate(356.9582936324822)"><path class="outline" fill="#A5ABB6" stroke="none" d="M 40 0.5 L 86.18394956141077 0.5 L 86.18394956141077 -0.5 L 40 -0.5 Z M 143.29723081141077 0.5 L 189.48118037282154 0.5 L 189.48118037282154 3.5 L 196.48118037282154 0 L 189.48118037282154 -3.5 L 189.48118037282154 -0.5 L 143.29723081141077 -0.5 Z"/><text text-anchor="middle" pointer-events="none" font-size="8px" fill="#000000" x="114.74059018641077" y="3" font-family="sans-serif">NEXT_WORD</text></g><g class="relationship" transform="translate(178.59656603902485 -164.00693996781908) rotate(340.19767897098336)"><path class="outline" fill="#A5ABB6" stroke="none" d="M 34.39101615137755,-20.433012701892217 L 34.89101615137755,-19.566987298107776 A 130.27779931744737 130.27779931744737 0 0 1 69.6835888541589,-33.437244822449216 L 69.45065333394798,-34.409737004126825 A 131.27779931744737 131.27779931744737 0 0 0 34.39101615137755,-20.433012701892217 Z M 126.31980921330855,-35.361539615460444 L 126.11954767982843,-34.38179714000671 A 130.27779931744737 130.27779931744737 0 0 1 161.35678878305316,-21.683608351715492 L 159.94457104616498,-19.036791194521122 L 167.76806510598803,-18.829569825175504 L 163.23974576557072,-25.212697894641316 L 161.82752802868254,-22.565880737446946 A 131.27779931744737 131.27779931744737 0 0 0 126.31980921330855,-35.361539615460444"/><text text-anchor="middle" pointer-events="none" font-size="8px" fill="#000000" x="97.84143210801395" y="-34.50259013052563" font-family="sans-serif">NEXT_WORD</text></g><g class="relationship" transform="translate(178.59656603902485 -164.00693996781908) rotate(340.19767897098336)"><path class="outline" fill="#A5ABB6" stroke="none" d="M 40 0.5 L 84.36151151762314 0.5 L 84.36151151762314 -0.5 L 40 -0.5 Z M 111.69744901762314 0.5 L 156.05896053524629 0.5 L 156.05896053524629 3.5 L 163.05896053524629 0 L 156.05896053524629 -3.5 L 156.05896053524629 -0.5 L 111.69744901762314 -0.5 Z"/><text text-anchor="middle" pointer-events="none" font-size="8px" fill="#000000" x="98.02948026762314" y="3" font-family="sans-serif">NEXT</text></g><g class="relationship" transform="translate(178.59656603902485 -164.00693996781908) rotate(340.19767897098336)"><path class="outline" fill="#A5ABB6" stroke="none" d="M 34.39101615137755,20.433012701892217 L 34.89101615137755,19.566987298107776 A 130.27779931744737 130.27779931744737 0 0 0 66.67076369436745,32.67749902087483 L 66.41470201470668,33.64415946602054 A 131.27779931744737 131.27779931744737 0 0 1 34.39101615137755,20.433012701892217 Z M 129.3796794859216,34.6979860799903 L 129.15610959193785,33.72329817994019 A 130.27779931744737 130.27779931744737 0 0 0 161.35678878305316,21.683608351715492 L 159.94457104616498,19.036791194521122 L 167.76806510598803,18.829569825175504 L 163.23974576557072,25.212697894641316 L 161.82752802868254,22.565880737446946 A 131.27779931744737 131.27779931744737 0 0 1 129.3796794859216,34.6979860799903"/><text text-anchor="middle" pointer-events="none" font-size="8px" fill="#000000" x="97.84143210801395" y="40.50259013052563" font-family="sans-serif">NEXT_SIBLING</text></g><g class="relationship" transform="translate(369.6480504108146 -232.79844942204227) rotate(190.0346140319209)"><path class="outline" fill="#A5ABB6" stroke="none" d="M 34.39101615137755,-20.433012701892217 L 34.89101615137755,-19.566987298107776 A 122.52280823885717 122.52280823885717 0 0 1 80.45511575891618,-34.97222157835226 L 80.32699835173688,-35.96398058636663 A 123.52280823885717 123.52280823885717 0 0 0 34.39101615137755,-20.433012701892217 Z M 107.7134748565721,-36.43971548461295 L 107.61988036377682,-35.44410508344269 A 122.52280823885717 122.52280823885717 0 0 1 153.69154183303016,-21.630690381152824 L 152.28268280369616,-18.98208391067367 L 160.10643343570385,-18.784787057786687 L 155.57002053880882,-25.162165675125035 L 154.16116150947482,-22.51355920464588 A 123.52280823885717 123.52280823885717 0 0 0 107.7134748565721,-36.43971548461295"/><text text-anchor="middle" pointer-events="none" font-size="8px" fill="#000000" x="94.01569359885646" y="-33.46337374721408" transform="rotate(180 94.01569359885646 -36.46337374721408)" font-family="sans-serif">NEXT</text></g><g class="relationship" transform="translate(369.6480504108146 -232.79844942204227) rotate(190.0346140319209)"><path class="outline" fill="#A5ABB6" stroke="none" d="M 40 0.5 L 62.534811937713 0.5 L 62.534811937713 -0.5 L 40 -0.5 Z M 125.886374437713 0.5 L 148.421186375426 0.5 L 148.421186375426 3.5 L 155.421186375426 0 L 148.421186375426 -3.5 L 148.421186375426 -0.5 L 125.886374437713 -0.5 Z"/><text text-anchor="middle" pointer-events="none" font-size="8px" fill="#000000" x="94.210593187713" y="3" transform="rotate(180 94.210593187713 0)" font-family="sans-serif">NEXT_SIBLING</text></g><g class="relationship" transform="translate(369.6480504108146 -232.79844942204227) rotate(190.0346140319209)"><path class="outline" fill="#A5ABB6" stroke="none" d="M 34.39101615137755,20.433012701892217 L 34.89101615137755,19.566987298107776 A 122.52280823885717 122.52280823885717 0 0 0 65.89984406326653,32.188311192538364 L 65.6529302303044,33.157348632007 A 123.52280823885717 123.52280823885717 0 0 1 34.39101615137755,20.433012701892217 Z M 122.47616913403317,34.14443427528492 L 122.2630607272657,33.16740571533131 A 122.52280823885717 122.52280823885717 0 0 0 153.69154183303016,21.630690381152824 L 152.28268280369616,18.98208391067367 L 160.10643343570385,18.784787057786687 L 155.57002053880882,25.162165675125035 L 154.16116150947482,22.51355920464588 A 123.52280823885717 123.52280823885717 0 0 1 122.47616913403317,34.14443427528492"/><text text-anchor="middle" pointer-events="none" font-size="8px" fill="#000000" x="94.0156935988565" y="39.46337374721408" transform="rotate(180 94.0156935988565 36.46337374721408)" font-family="sans-serif">NEXT_WORD</text></g><g class="relationship" transform="translate(177.21628691348135 -266.8492420954204) rotate(184.0925920221573)"><path class="outline" fill="#A5ABB6" stroke="none" d="M 38.50762352901147,-10.835724717245364 L 38.766442574113995,-9.869798890956295 A 252.8300213238603 252.8300213238603 0 0 1 88.47218924905464,-17.99487979739888 L 88.40996769033713,-18.992942158992975 A 253.8300213238603 253.8300213238603 0 0 0 38.50762352901147,-10.835724717245364 Z M 115.78562697891114,-19.220399808184283 L 115.73999817719533,-18.221441344356094 A 252.8300213238603 252.8300213238603 0 0 1 165.57389170721729,-10.923410932796639 L 164.845692293404,-8.013131631127813 L 172.4859099800801,-9.709325517510447 L 166.54482425896833,-14.803783335021741 L 165.81662484515505,-11.893504033352915 A 253.8300213238603 253.8300213238603 0 0 0 115.78562697891114,-19.220399808184283"/><text text-anchor="middle" pointer-events="none" font-size="8px" fill="#000000" x="102.09888280655414" y="-15.976029038466152" transform="rotate(180 102.09888280655414 -18.97602903846615)" font-family="sans-serif">NEXT</text></g><g class="relationship" transform="translate(177.21628691348135 -266.8492420954204) rotate(184.0925920221573)"><path class="outline" fill="#A5ABB6" stroke="none" d="M 38.50762352901147,10.835724717245364 L 38.766442574113995,9.869798890956295 A 252.8300213238603 252.8300213238603 0 0 0 73.67739294482193,16.635161742392853 L 73.55665461571947,17.627846111105043 A 253.8300213238603 253.8300213238603 0 0 1 38.50762352901147,10.835724717245364 Z M 130.65957231755465,18.102300270747634 L 130.55534546167223,17.107746721403572 A 252.8300213238603 252.8300213238603 0 0 0 165.57389170721729,10.923410932796639 L 164.845692293404,8.013131631127813 L 172.4859099800801,9.709325517510447 L 166.54482425896833,14.803783335021741 L 165.81662484515505,11.893504033352915 A 253.8300213238603 253.8300213238603 0 0 1 130.65957231755465,18.102300270747634"/><text text-anchor="middle" pointer-events="none" font-size="8px" fill="#000000" x="102.09888280655422" y="21.97602903846615" transform="rotate(180 102.09888280655422 18.97602903846615)" font-family="sans-serif">NEXT_WORD</text></g><g class="relationship" transform="translate(-33.534562485127 -281.9286623297699) rotate(182.81764835649778)"><path class="outline" fill="#A5ABB6" stroke="none" d="M 34.39101615137755,-20.433012701892217 L 34.89101615137755,-19.566987298107776 A 149.10211897420248 149.10211897420248 0 0 1 93.55824313845451,-38.69441791261174 L 93.45171324733491,-39.688727412867095 A 150.10211897420248 150.10211897420248 0 0 0 34.39101615137755,-20.433012701892217 Z M 120.83763745419573,-40.10969011233901 L 120.76171872704123,-39.11257610337752 A 149.10211897420248 149.10211897420248 0 0 1 179.98912377112208,-21.797362676732806 L 178.56968623492887,-19.154410334966933 L 186.39258549127467,-18.92583381590961 L 181.88170715271306,-25.32129913242064 L 180.46226961651985,-22.678346790654768 A 150.10211897420248 150.10211897420248 0 0 0 120.83763745419573,-40.10969011233901"/><text text-anchor="middle" pointer-events="none" font-size="8px" fill="#000000" x="107.14273848605363" y="-37.025212397271574" transform="rotate(180 107.14273848605363 -40.025212397271574)" font-family="sans-serif">NEXT</text></g><g class="relationship" transform="translate(-33.534562485127 -281.9286623297699) rotate(182.81764835649778)"><path class="outline" fill="#A5ABB6" stroke="none" d="M 40 0.5 L 78.75933439907654 0.5 L 78.75933439907654 -0.5 L 40 -0.5 Z M 135.87261564907652 0.5 L 174.63195004815307 0.5 L 174.63195004815307 3.5 L 181.63195004815307 0 L 174.63195004815307 -3.5 L 174.63195004815307 -0.5 L 135.87261564907652 -0.5 Z"/><text text-anchor="middle" pointer-events="none" font-size="8px" fill="#000000" x="107.31597502407654" y="3" transform="rotate(180 107.31597502407654 0)" font-family="sans-serif">NEXT_WORD</text></g><g class="relationship" transform="translate(-33.534562485127 -281.9286623297699) rotate(182.81764835649778)"><path class="outline" fill="#A5ABB6" stroke="none" d="M 34.39101615137755,20.433012701892217 L 34.89101615137755,19.566987298107776 A 149.10211897420248 149.10211897420248 0 0 0 75.87074444790929,35.71432578049904 L 75.6455878141771,36.68864836069842 A 150.10211897420248 150.10211897420248 0 0 1 34.39101615137755,20.433012701892217 Z M 138.7275599417546,37.65831281584887 L 138.5324562050225,36.67753020389394 A 149.10211897420248 149.10211897420248 0 0 0 179.98912377112208,21.797362676732806 L 178.56968623492887,19.154410334966933 L 186.39258549127467,18.92583381590961 L 181.88170715271306,25.32129913242064 L 180.46226961651985,22.678346790654768 A 150.10211897420248 150.10211897420248 0 0 1 138.7275599417546,37.65831281584887"/><text text-anchor="middle" pointer-events="none" font-size="8px" fill="#000000" x="107.14273848605364" y="43.025212397271574" transform="rotate(180 107.14273848605364 40.025212397271574)" font-family="sans-serif">NEXT_SIBLING</text></g><g class="relationship" transform="translate(-254.89856907114205 -292.8235175529337) rotate(527.4712514331978)"><path class="outline" fill="#A5ABB6" stroke="none" d="M 34.39101615137755,-20.433012701892217 L 34.89101615137755,-19.566987298107776 A 322.60117962159865 322.60117962159865 0 0 1 164.9056578660693,-61.266706372329566 L 164.80867760042736,-62.26199267690532 A 323.60117962159865 323.60117962159865 0 0 0 34.39101615137755,-20.433012701892217 Z M 221.9337117635977,-62.76184753153268 L 221.8541629009158,-61.765016563692086 A 322.60117962159865 322.60117962159865 0 0 1 352.57860177615305,-22.34681376570803 L 351.1242952916193,-19.722886813782146 L 358.94348241140244,-19.390753127116916 L 354.51767708886473,-25.845383034942543 L 353.063370604331,-23.22145608301666 A 323.60117962159865 323.60117962159865 0 0 0 221.9337117635977,-62.76184753153268"/><text text-anchor="middle" pointer-events="none" font-size="8px" fill="#000000" x="193.36451775015337" y="-60.27498153501068" transform="rotate(180 193.36451775015337 -63.27498153501068)" font-family="sans-serif">NEXT_WORD</text></g><g class="relationship" transform="translate(-254.89856907114205 -292.8235175529337) rotate(527.4712514331978)"><path class="outline" fill="#A5ABB6" stroke="none" d="M 40 0.5 L 179.79661880187393 0.5 L 179.79661880187393 -0.5 L 40 -0.5 Z M 207.13255630187393 0.5 L 346.92917510374787 0.5 L 346.92917510374787 3.5 L 353.92917510374787 0 L 346.92917510374787 -3.5 L 346.92917510374787 -0.5 L 207.13255630187393 -0.5 Z"/><text text-anchor="middle" pointer-events="none" font-size="8px" fill="#000000" x="193.46458755187393" y="3" transform="rotate(180 193.46458755187393 0)" font-family="sans-serif">NEXT</text></g><g class="relationship" transform="translate(-254.89856907114205 -292.8235175529337) rotate(527.4712514331978)"><path class="outline" fill="#A5ABB6" stroke="none" d="M 34.39101615137755,20.433012701892217 L 34.89101615137755,19.566987298107776 A 322.60117962159865 322.60117962159865 0 0 0 161.80753002777783,60.94972264784093 L 161.70094617717092,61.94402636541912 A 323.60117962159865 323.60117962159865 0 0 1 34.39101615137755,20.433012701892217 Z M 225.04653143606197,62.498312218805665 L 224.95736326458734,61.50229563400609 A 322.60117962159865 322.60117962159865 0 0 0 352.57860177615305,22.34681376570803 L 351.1242952916193,19.722886813782146 L 358.94348241140244,19.390753127116916 L 354.51767708886473,25.845383034942543 L 353.063370604331,23.22145608301666 A 323.60117962159865 323.60117962159865 0 0 1 225.04653143606197,62.498312218805665"/><text text-anchor="middle" pointer-events="none" font-size="8px" fill="#000000" x="193.36451775015328" y="66.27498153501068" transform="rotate(180 193.36451775015328 63.27498153501068)" font-family="sans-serif">NEXT_SIBLING</text></g><g class="relationship" transform="translate(-639.4472206455039 -207.36867819167037) rotate(449.4151561519029)"><path class="outline" fill="#A5ABB6" stroke="none" d="M 34.39101615137755,-20.433012701892217 L 34.89101615137755,-19.566987298107776 A 225.58623380997244 225.58623380997244 0 0 1 113.60778538246583,-47.20122697203149 L 113.45672852452563,-48.18975204792446 A 226.58623380997244 226.58623380997244 0 0 0 34.39101615137755,-20.433012701892217 Z M 176.73667445803326,-48.919557013123125 L 176.60845598282776,-47.92781106651381 A 225.58623380997244 225.58623380997244 0 0 1 255.94161218873074,-22.11635456080569 L 254.50193020143942,-19.484375120257383 L 262.322844547892,-19.195759830550706 L 257.8611881717858,-25.625660481536762 L 256.4215061844945,-22.993681040988456 A 226.58623380997244 226.58623380997244 0 0 0 176.73667445803326,-48.919557013123125"/><text text-anchor="middle" pointer-events="none" font-size="8px" fill="#000000" x="145.07686338377363" y="-47.27477761854669" font-family="sans-serif">NEXT_SIBLING</text></g><g class="relationship" transform="translate(-639.4472206455039 -207.36867819167037) rotate(449.4151561519029)"><path class="outline" fill="#A5ABB6" stroke="none" d="M 40 0.5 L 116.6513112526014 0.5 L 116.6513112526014 -0.5 L 40 -0.5 Z M 173.7645925026014 0.5 L 250.4159037552028 0.5 L 250.4159037552028 3.5 L 257.4159037552028 0 L 250.4159037552028 -3.5 L 250.4159037552028 -0.5 L 173.7645925026014 -0.5 Z"/><text text-anchor="middle" pointer-events="none" font-size="8px" fill="#000000" x="145.2079518776014" y="3" font-family="sans-serif">NEXT_WORD</text></g><g class="relationship" transform="translate(-639.4472206455039 -207.36867819167037) rotate(449.4151561519029)"><path class="outline" fill="#A5ABB6" stroke="none" d="M 34.39101615137755,20.433012701892217 L 34.89101615137755,19.566987298107776 A 225.58623380997244 225.58623380997244 0 0 0 131.4588525014236,49.205553967008626 L 131.386927542702,50.202964013234805 A 226.58623380997244 226.58623380997244 0 0 1 34.39101615137755,20.433012701892217 Z M 158.76481416276977,50.518712032567294 L 158.71591145177942,49.519908485888664 A 225.58623380997244 225.58623380997244 0 0 0 255.94161218873074,22.11635456080569 L 254.50193020143942,19.484375120257383 L 262.322844547892,19.195759830550706 L 257.8611881717858,25.625660481536762 L 256.4215061844945,22.993681040988456 A 226.58623380997244 226.58623380997244 0 0 1 158.76481416276977,50.518712032567294"/><text text-anchor="middle" pointer-events="none" font-size="8px" fill="#000000" x="145.07686338377363" y="53.27477761854669" font-family="sans-serif">NEXT</text></g><g class="relationship" transform="translate(-636.4114151713225 90.0317315115561) rotate(399.1985803740036)"><path class="outline" fill="#A5ABB6" stroke="none" d="M 34.39101615137755,-20.433012701892217 L 34.89101615137755,-19.566987298107776 A 61.83168976471258 61.83168976471258 0 0 1 36.124577767279774,-20.260485127068065 L 35.644528081117166,-21.13772642729007 A 62.83168976471258 62.83168976471258 0 0 0 34.39101615137755,-20.433012701892217 Z M 93.22006299245975,-22.555335055865115 L 92.78376719870693,-21.655531754941187 A 61.83168976471258 61.83168976471258 0 0 1 94.04996360573826,-21.02358226501268 L 92.6796418817415,-18.35483379939391 L 100.50543031284819,-18.27095631995672 L 95.87705923773393,-24.581913552504382 L 94.50673751373718,-21.91316508688561 A 62.83168976471258 62.83168976471258 0 0 0 93.22006299245975,-22.555335055865115"/><text text-anchor="middle" pointer-events="none" font-size="8px" fill="#000000" x="64.27261268042486" y="-25.3319779136557" font-family="sans-serif">NEXT_SIBLI…</text></g><g class="relationship" transform="translate(-636.4114151713225 90.0317315115561) rotate(399.1985803740036)"><path class="outline" fill="#A5ABB6" stroke="none" d="M 40 0.5 L 40.876402843882616 0.5 L 40.876402843882616 -0.5 L 40 -0.5 Z M 88.21234034388262 0.5 L 89.08874318776523 0.5 L 89.08874318776523 3.5 L 96.08874318776523 0 L 89.08874318776523 -3.5 L 89.08874318776523 -0.5 L 88.21234034388262 -0.5 Z"/><text text-anchor="middle" pointer-events="none" font-size="8px" fill="#000000" x="64.54437159388262" y="3" font-family="sans-serif">NEXT_W…</text></g><g class="relationship" transform="translate(-636.4114151713225 90.0317315115561) rotate(399.1985803740036)"><path class="outline" fill="#A5ABB6" stroke="none" d="M 34.39101615137755,20.433012701892217 L 34.89101615137755,19.566987298107776 A 61.83168976471258 61.83168976471258 0 0 0 50.87550126098888,26.020942797657177 L 50.634017325654696,26.991347614718343 A 62.83168976471258 62.83168976471258 0 0 1 34.39101615137755,20.433012701892217 Z M 77.96065907592073,27.664176502800885 L 77.76722486958792,26.68306325356796 A 61.83168976471258 61.83168976471258 0 0 0 94.04996360573826,21.02358226501268 L 92.6796418817415,18.35483379939391 L 100.50543031284819,18.27095631995672 L 95.87705923773393,24.581913552504382 L 94.50673751373718,21.91316508688561 A 62.83168976471258 62.83168976471258 0 0 1 77.96065907592073,27.664176502800885"/><text text-anchor="middle" pointer-events="none" font-size="8px" fill="#000000" x="64.27261268042486" y="31.331977913655706" font-family="sans-serif">NEXT</text></g><g class="relationship" transform="translate(-530.948062561802 176.04119191438312) rotate(295.58924819540573)"><path class="outline" fill="#A5ABB6" stroke="none" d="M 34.39101615137755,-20.433012701892217 L 34.89101615137755,-19.566987298107776 A 167.6211543416129 167.6211543416129 0 0 1 84.96733339714343,-38.5943167895699 L 84.76608039863294,-39.57385608464209 A 168.6211543416129 168.6211543416129 0 0 0 34.39101615137755,-20.433012701892217 Z M 147.92439918751325,-40.47243732060984 L 147.751094681448,-39.48756903084849 A 167.6211543416129 167.6211543416129 0 0 1 198.34845395909966,-21.892568303269826 L 196.92297408545681,-19.25287000046338 L 204.7453299779218,-19.00639831523764 L 200.24909379062342,-25.412166040345088 L 198.82361391698058,-22.77246773753864 A 168.6211543416129 168.6211543416129 0 0 0 147.92439918751325,-40.47243732060984"/><text text-anchor="middle" pointer-events="none" font-size="8px" fill="#000000" x="116.30990161749551" y="-39.50695080314587" font-family="sans-serif">NEXT_SIBLING</text></g><g class="relationship" transform="translate(-530.948062561802 176.04119191438312) rotate(295.58924819540573)"><path class="outline" fill="#A5ABB6" stroke="none" d="M 40 0.5 L 102.8026849243372 0.5 L 102.8026849243372 -0.5 L 40 -0.5 Z M 130.1386224243372 0.5 L 192.9413073486744 0.5 L 192.9413073486744 3.5 L 199.9413073486744 0 L 192.9413073486744 -3.5 L 192.9413073486744 -0.5 L 130.1386224243372 -0.5 Z"/><text text-anchor="middle" pointer-events="none" font-size="8px" fill="#000000" x="116.4706536743372" y="3" font-family="sans-serif">NEXT</text></g><g class="relationship" transform="translate(-530.948062561802 176.04119191438312) rotate(295.58924819540573)"><path class="outline" fill="#A5ABB6" stroke="none" d="M 34.39101615137755,20.433012701892217 L 34.89101615137755,19.566987298107776 A 167.6211543416129 167.6211543416129 0 0 0 88.01919847835252,39.19189289228841 L 87.83615240064029,40.174997227257066 A 168.6211543416129 168.6211543416129 0 0 1 34.39101615137755,20.433012701892217 Z M 144.83846788418995,40.98599429118222 L 144.68346435177995,39.998080375428216 A 167.6211543416129 167.6211543416129 0 0 0 198.34845395909966,21.892568303269826 L 196.92297408545681,19.25287000046338 L 204.7453299779218,19.00639831523764 L 200.24909379062342,25.412166040345088 L 198.82361391698058,22.77246773753864 A 168.6211543416129 168.6211543416129 0 0 1 144.83846788418995,40.98599429118222"/><text text-anchor="middle" pointer-events="none" font-size="8px" fill="#000000" x="116.30990161749548" y="45.50695080314587" font-family="sans-serif">NEXT_WORD</text></g><g class="relationship" transform="translate(-427.31345087996147 -40.36513478089897) rotate(406.6839385207137)"><path class="outline" fill="#A5ABB6" stroke="none" d="M 34.39101615137755,-20.433012701892217 L 34.89101615137755,-19.566987298107776 A 95.24650501881742 95.24650501881742 0 0 1 67.07813437881012,-31.06844707893545 L 66.91606927963481,-32.05522714745592 A 96.24650501881742 96.24650501881742 0 0 0 34.39101615137755,-20.433012701892217 Z M 94.29603240073217,-32.6037606010906 L 94.17362002079545,-31.611281276752692 A 95.24650501881742 95.24650501881742 0 0 1 126.79556933541039,-21.40821410107396 L 125.40083152327097,-18.75214436641176 L 133.22552168497876,-18.596504161858995 L 128.6552197515963,-24.94964041395689 L 127.26048193945687,-22.29357067929469 A 96.24650501881742 96.24650501881742 0 0 0 94.29603240073217,-32.6037606010906"/><text text-anchor="middle" pointer-events="none" font-size="8px" fill="#000000" x="80.59645656919037" y="-29.808390437874152" font-family="sans-serif">NEXT</text></g><g class="relationship" transform="translate(-427.31345087996147 -40.36513478089897) rotate(406.6839385207137)"><path class="outline" fill="#A5ABB6" stroke="none" d="M 40 0.5 L 49.14411115690402 0.5 L 49.14411115690402 -0.5 L 40 -0.5 Z M 112.49567365690402 0.5 L 121.63978481380803 0.5 L 121.63978481380803 3.5 L 128.63978481380803 0 L 121.63978481380803 -3.5 L 121.63978481380803 -0.5 L 112.49567365690402 -0.5 Z"/><text text-anchor="middle" pointer-events="none" font-size="8px" fill="#000000" x="80.81989240690402" y="3" font-family="sans-serif">NEXT_SIBLING</text></g><g class="relationship" transform="translate(-427.31345087996147 -40.36513478089897) rotate(406.6839385207137)"><path class="outline" fill="#A5ABB6" stroke="none" d="M 34.39101615137755,20.433012701892217 L 34.89101615137755,19.566987298107776 A 95.24650501881742 95.24650501881742 0 0 0 52.7080927351443,27.543730788445032 L 52.39515552112523,28.49350460366736 A 96.24650501881742 96.24650501881742 0 0 1 34.39101615137755,20.433012701892217 Z M 108.9479491288485,29.626490030022083 L 108.67330351482964,28.66494451019466 A 95.24650501881742 95.24650501881742 0 0 0 126.79556933541039,21.40821410107396 L 125.40083152327097,18.75214436641176 L 133.22552168497876,18.596504161858995 L 128.6552197515963,24.94964041395689 L 127.26048193945687,22.29357067929469 A 96.24650501881742 96.24650501881742 0 0 1 108.9479491288485,29.626490030022083"/><text text-anchor="middle" pointer-events="none" font-size="8px" fill="#000000" x="80.59645656919038" y="35.80839043787415" font-family="sans-serif">NEXT_WORD</text></g><g class="relationship" transform="translate(-311.6227911889347 82.33388022045511) rotate(487.847160439887)"><path class="outline" fill="#A5ABB6" stroke="none" d="M 40 0.5 L 105.93594175756391 0.5 L 105.93594175756391 -0.5 L 40 -0.5 Z M 163.0492230075639 0.5 L 228.98516476512782 0.5 L 228.98516476512782 3.5 L 235.98516476512782 0 L 228.98516476512782 -3.5 L 228.98516476512782 -0.5 L 163.0492230075639 -0.5 Z"/><text text-anchor="middle" pointer-events="none" font-size="8px" fill="#000000" x="134.4925823825639" y="3" transform="rotate(180 134.4925823825639 0)" font-family="sans-serif">NEXT_WORD</text></g><g class="relationship" transform="translate(-480.95548342656576 300.2656367636227) rotate(367.5811335208807)"><path class="outline" fill="#A5ABB6" stroke="none" d="M 34.39101615137755,-20.433012701892217 L 34.89101615137755,-19.566987298107776 A 226.62059696363735 226.62059696363735 0 0 1 131.97266473754692,-49.34656407571313 L 131.90105319776154,-50.34399667362115 A 227.62059696363735 227.62059696363735 0 0 0 34.39101615137755,-20.433012701892217 Z M 159.2788285301251,-50.65867816970842 L 159.23016195932837,-49.65986308928217 A 226.62059696363735 226.62059696363735 0 0 1 256.9706478164406,-22.11958150616444 L 255.53076104568032,-19.487714091686726 L 263.3516529120153,-19.198490276803458 L 258.89049684412095,-25.62873805880139 L 257.4506100733607,-22.996870644323675 A 227.62059696363735 227.62059696363735 0 0 0 159.2788285301251,-50.65867816970842"/><text text-anchor="middle" pointer-events="none" font-size="8px" fill="#000000" x="145.5909517480455" y="-47.41338894620358" font-family="sans-serif">NEXT</text></g><g class="relationship" transform="translate(-480.95548342656576 300.2656367636227) rotate(367.5811335208807)"><path class="outline" fill="#A5ABB6" stroke="none" d="M 40 0.5 L 114.04582796919243 0.5 L 114.04582796919243 -0.5 L 40 -0.5 Z M 177.39739046919243 0.5 L 251.44321843838486 0.5 L 251.44321843838486 3.5 L 258.44321843838486 0 L 251.44321843838486 -3.5 L 251.44321843838486 -0.5 L 177.39739046919243 -0.5 Z"/><text text-anchor="middle" pointer-events="none" font-size="8px" fill="#000000" x="145.72160921919243" y="3" font-family="sans-serif">NEXT_SIBLING</text></g><g class="relationship" transform="translate(-480.95548342656576 300.2656367636227) rotate(367.5811335208807)"><path class="outline" fill="#A5ABB6" stroke="none" d="M 34.39101615137755,20.433012701892217 L 34.89101615137755,19.566987298107776 A 226.62059696363735 226.62059696363735 0 0 0 117.20037891683081,47.79796447887287 L 117.06358227905062,48.78856363084711 A 227.62059696363735 227.62059696363735 0 0 1 34.39101615137755,20.433012701892217 Z M 174.14813124068152,49.44469624398451 L 174.0341397260576,48.451214520653 A 226.62059696363735 226.62059696363735 0 0 0 256.9706478164406,22.11958150616444 L 255.53076104568032,19.487714091686726 L 263.3516529120153,19.198490276803458 L 258.89049684412095,25.62873805880139 L 257.4506100733607,22.996870644323675 A 227.62059696363735 227.62059696363735 0 0 1 174.14813124068152,49.44469624398451"/><text text-anchor="middle" pointer-events="none" font-size="8px" fill="#000000" x="145.59095174804548" y="53.41338894620358" font-family="sans-serif">NEXT_WORD</text></g><g class="relationship" transform="translate(-185.1209463610935 339.63924862638214) rotate(284.54522038143983)"><path class="outline" fill="#A5ABB6" stroke="none" d="M 34.39101615137755,-20.433012701892217 L 34.89101615137755,-19.566987298107776 A 53.609316652408246 53.609316652408246 0 0 1 46.94884094326118,-24.68110321366197 L 46.67376126578766,-25.64252464625075 A 54.609316652408246 54.609316652408246 0 0 0 34.39101615137755,-20.433012701892217 Z M 73.96056752829145,-26.354145753824746 L 73.73597411085727,-25.379693191179832 A 53.609316652408246 53.609316652408246 0 0 1 86.04397220354473,-20.90102114916892 L 84.6814311800973,-18.22829184012491 L 92.50743076188864,-18.167213645965603 L 87.86069356814129,-24.464660227894264 L 86.49815254469387,-21.791930918850255 A 54.609316652408246 54.609316652408246 0 0 0 73.96056752829145,-26.354145753824746"/><text text-anchor="middle" pointer-events="none" font-size="8px" fill="#000000" x="60.2850204117685" y="-24.230882533528423" font-family="sans-serif">NEXT</text></g><g class="relationship" transform="translate(-185.1209463610935 339.63924862638214) rotate(284.54522038143983)"><path class="outline" fill="#A5ABB6" stroke="none" d="M 40 0.5 L 40.67933264957102 0.5 L 40.67933264957102 -0.5 L 40 -0.5 Z M 80.46448889957102 0.5 L 81.14382154914205 0.5 L 81.14382154914205 3.5 L 88.14382154914205 0 L 81.14382154914205 -3.5 L 81.14382154914205 -0.5 L 80.46448889957102 -0.5 Z"/><text text-anchor="middle" pointer-events="none" font-size="8px" fill="#000000" x="60.57191077457102" y="3" font-family="sans-serif">NEXT_…</text></g><g class="relationship" transform="translate(-185.1209463610935 339.63924862638214) rotate(284.54522038143983)"><path class="outline" fill="#A5ABB6" stroke="none" d="M 34.39101615137755,20.433012701892217 L 34.89101615137755,19.566987298107776 A 53.609316652408246 53.609316652408246 0 0 0 35.39098905117582,19.8520793561557 L 34.90031528271575,20.72342271726267 A 54.609316652408246 54.609316652408246 0 0 1 34.39101615137755,20.433012701892217 Z M 85.97440863116597,22.055399883344805 L 85.52981903287233,21.159665497999967 A 53.609316652408246 53.609316652408246 0 0 0 86.04397220354473,20.90102114916892 L 84.6814311800973,18.22829184012491 L 92.50743076188864,18.167213645965603 L 87.86069356814129,24.464660227894264 L 86.49815254469387,21.791930918850255 A 54.609316652408246 54.609316652408246 0 0 1 85.97440863116597,22.055399883344805"/><text text-anchor="middle" pointer-events="none" font-size="8px" fill="#000000" x="60.28502041176849" y="30.230882533528415" font-family="sans-serif">NEXT_SIB…</text></g><g class="relationship" transform="translate(-152.93839043907 215.60247143693647) rotate(260.840259897539)"><path class="outline" fill="#A5ABB6" stroke="none" d="M 38.50762352901147,-10.835724717245364 L 38.766442574113995,-9.869798890956295 A 183.96643732331043 183.96643732331043 0 0 1 70.94624546905432,-15.489718495778192 L 70.86234856389838,-16.486192935643686 A 184.96643732331043 184.96643732331043 0 0 0 38.50762352901147,-10.835724717245364 Z M 98.24596505899837,-16.75732777203831 L 98.18181555697163,-15.759387472526498 A 183.96643732331043 183.96643732331043 0 0 1 130.46658816129641,-10.777754345839107 L 129.7476614604857,-7.8651705446650695 L 137.3824381475043,-9.585689344143079 L 131.42515709571074,-14.661199414071156 L 130.70623039490002,-11.748615612897119 A 184.96643732331043 184.96643732331043 0 0 0 98.24596505899837,-16.75732777203831"/><text text-anchor="middle" pointer-events="none" font-size="8px" fill="#000000" x="84.55408253846763" y="-13.629261650419721" transform="rotate(180 84.55408253846763 -16.62926165041972)" font-family="sans-serif">NEXT</text></g><g class="relationship" transform="translate(-152.93839043907 215.60247143693647) rotate(260.840259897539)"><path class="outline" fill="#A5ABB6" stroke="none" d="M 38.50762352901147,10.835724717245364 L 38.766442574113995,9.869798890956295 A 183.96643732331043 183.96643732331043 0 0 0 56.21658297554134,13.648560202753657 L 56.0526189521228,14.635026522008587 A 184.96643732331043 184.96643732331043 0 0 1 38.50762352901147,10.835724717245364 Z M 113.0894456675136,15.199768242033542 L 112.94504657630019,14.210248710919217 A 183.96643732331043 183.96643732331043 0 0 0 130.46658816129641,10.777754345839107 L 129.7476614604857,7.8651705446650695 L 137.3824381475043,9.585689344143079 L 131.42515709571074,14.661199414071156 L 130.70623039490002,11.748615612897119 A 184.96643732331043 184.96643732331043 0 0 1 113.0894456675136,15.199768242033542"/><text text-anchor="middle" pointer-events="none" font-size="8px" fill="#000000" x="84.55408253846768" y="19.62926165041972" transform="rotate(180 84.55408253846768 16.62926165041972)" font-family="sans-serif">NEXT_WORD</text></g><g class="relationship" transform="translate(-636.4114151713225 90.0317315115561) rotate(333.9711398872669)"><path class="outline" fill="#A5ABB6" stroke="none" d="M 40 0.5 L 203.89748196599845 0.5 L 203.89748196599845 -0.5 L 40 -0.5 Z M 261.46779446599845 0.5 L 425.3652764319969 0.5 L 425.3652764319969 3.5 L 432.3652764319969 0 L 425.3652764319969 -3.5 L 425.3652764319969 -0.5 L 261.46779446599845 -0.5 Z"/><text text-anchor="middle" pointer-events="none" font-size="8px" fill="#000000" x="232.68263821599845" y="3" font-family="sans-serif">IS_CHILD_OF</text></g><g class="relationship" transform="translate(132.97603908417466 105.17940060025035) rotate(211.0581288287451)"><path class="outline" fill="#A5ABB6" stroke="none" d="M 38.50762352901147,-10.835724717245364 L 38.766442574113995,-9.869798890956295 A 661.1447180387489 661.1447180387489 0 0 1 181.57355206876932,-31.791379671387745 L 181.53073279739,-32.79046250579063 A 662.1447180387489 662.1447180387489 0 0 0 38.50762352901147,-10.835724717245364 Z M 244.90514879720075,-32.470929899300586 L 244.8522572454423,-31.4723296370571 A 661.1447180387489 661.1447180387489 0 0 1 387.4310553902297,-8.111838509526175 L 386.62541739581854,-5.222037924371344 L 394.30819642132616,-6.713649953425997 L 388.50523938277786,-11.964905956399283 L 387.6996013883667,-9.075105371244453 A 662.1447180387489 662.1447180387489 0 0 0 244.90514879720075,-32.470929899300586"/><text text-anchor="middle" pointer-events="none" font-size="8px" fill="#000000" x="213.21924491979152" y="-29.889348996994272" transform="rotate(180 213.21924491979152 -32.88934899699427)" font-family="sans-serif">NEXT_SIBLING</text></g><g class="relationship" transform="translate(132.97603908417466 105.17940060025035) rotate(211.0581288287451)"><path class="outline" fill="#A5ABB6" stroke="none" d="M 38.50762352901147,10.835724717245364 L 38.766442574113995,9.869798890956295 A 661.1447180387489 661.1447180387489 0 0 0 199.5595177004557,32.31715115881457 L 199.54390270847384,33.31702923739476 A 662.1447180387489 662.1447180387489 0 0 1 38.50762352901147,10.835724717245364 Z M 226.89820445308618,33.17910936551459 L 226.8725077786009,32.179439579575046 A 661.1447180387489 661.1447180387489 0 0 0 387.4310553902297,8.111838509526175 L 386.62541739581854,5.222037924371344 L 394.30819642132616,6.713649953425997 L 388.50523938277786,11.964905956399283 L 387.6996013883667,9.075105371244453 A 662.1447180387489 662.1447180387489 0 0 1 226.89820445308618,33.17910936551459"/><text text-anchor="middle" pointer-events="none" font-size="8px" fill="#000000" x="213.21924491979155" y="35.88934899699427" transform="rotate(180 213.21924491979155 32.88934899699427)" font-family="sans-serif">NEXT</text></g><g class="relationship" transform="translate(23.310668871844797 284.11993772487926) rotate(237.78620280280575)"><path class="outline" fill="#A5ABB6" stroke="none" d="M 38.50762352901147,10.835724717245364 L 38.766442574113995,9.869798890956295 A 754.0437724156031 754.0437724156031 0 0 0 200.80394187189063,34.835349323781884 L 200.76001419679267,35.834384037573386 A 755.0437724156031 755.0437724156031 0 0 1 38.50762352901147,10.835724717245364 Z M 273.9001896969845,35.50437113020291 L 273.8472485835801,34.50577349425964 A 754.0437724156031 754.0437724156031 0 0 0 435.65286270426736,8.079023294543845 L 434.85028782055014,5.188370503905316 L 442.5314816963768,6.688124030976791 L 436.7229625492236,11.933227015395218 L 435.9203876655064,9.042574224756688 A 755.0437724156031 755.0437724156031 0 0 1 273.9001896969845,35.50437113020291"/><text text-anchor="middle" pointer-events="none" font-size="8px" fill="#000000" x="237.33184432038905" y="39.05553673331701" transform="rotate(180 237.33184432038905 36.05553673331701)" font-family="sans-serif">FIRST_CHILD_OF</text></g><g class="relationship" transform="translate(23.310668871844797 284.11993772487926) rotate(237.78620280280575)"><path class="outline" fill="#A5ABB6" stroke="none" d="M 38.50762352901147,-10.835724717245364 L 38.766442574113995,-9.869798890956295 A 754.0437724156031 754.0437724156031 0 0 1 208.56830086822737,-35.13667557289807 L 208.5346701537043,-36.13610990042571 A 755.0437724156031 755.0437724156031 0 0 0 38.50762352901147,-10.835724717245364 Z M 266.1285730526191,-35.87624271782056 L 266.08592487444344,-34.877152565282586 A 754.0437724156031 754.0437724156031 0 0 1 435.65286270426736,-8.079023294543845 L 434.85028782055014,-5.188370503905316 L 442.5314816963768,-6.688124030976791 L 436.7229625492236,-11.933227015395218 L 435.9203876655064,-9.042574224756688 A 755.0437724156031 755.0437724156031 0 0 0 266.1285730526191,-35.87624271782056"/><text text-anchor="middle" pointer-events="none" font-size="8px" fill="#000000" x="237.33184432038908" y="-33.05553673331701" transform="rotate(180 237.33184432038908 -36.05553673331701)" font-family="sans-serif">IS_CHILD_OF</text></g><g class="relationship" transform="translate(-93.18104377174852 60.747895764223955) rotate(232.3488679820369)"><path class="outline" fill="#A5ABB6" stroke="none" d="M 40 0.5 L 83.46875096206948 0.5 L 83.46875096206948 -0.5 L 40 -0.5 Z M 141.03906346206946 0.5 L 184.50781442413896 0.5 L 184.50781442413896 3.5 L 191.50781442413896 0 L 184.50781442413896 -3.5 L 184.50781442413896 -0.5 L 141.03906346206946 -0.5 Z"/><text text-anchor="middle" pointer-events="none" font-size="8px" fill="#000000" x="112.25390721206948" y="3" transform="rotate(180 112.25390721206948 0)" font-family="sans-serif">IS_CHILD_OF</text></g><g class="relationship" transform="translate(-67.03348045567834 -66.11158379378227) rotate(195.71164040833412)"><path class="outline" fill="#A5ABB6" stroke="none" d="M 40 0.5 L 57.48979837409473 0.5 L 57.48979837409473 -0.5 L 40 -0.5 Z M 115.06011087409473 0.5 L 132.54990924818946 0.5 L 132.54990924818946 3.5 L 139.54990924818946 0 L 132.54990924818946 -3.5 L 132.54990924818946 -0.5 L 115.06011087409473 -0.5 Z"/><text text-anchor="middle" pointer-events="none" font-size="8px" fill="#000000" x="86.27495462409473" y="3" transform="rotate(180 86.27495462409473 0)" font-family="sans-serif">IS_CHILD_OF</text></g><g class="relationship" transform="translate(138.67965001768832 -3.179048859546299) rotate(196.44736344071418)"><path class="outline" fill="#A5ABB6" stroke="none" d="M 40 0.5 L 165.039897739838 0.5 L 165.039897739838 -0.5 L 40 -0.5 Z M 222.610210239838 0.5 L 347.650107979676 0.5 L 347.650107979676 3.5 L 354.650107979676 0 L 347.650107979676 -3.5 L 347.650107979676 -0.5 L 222.610210239838 -0.5 Z"/><text text-anchor="middle" pointer-events="none" font-size="8px" fill="#000000" x="193.825053989838" y="3" transform="rotate(180 193.825053989838 0)" font-family="sans-serif">IS_CHILD_OF</text></g><g class="relationship" transform="translate(287.517221455036 21.827653098875228) rotate(194.48326457676416)"><path class="outline" fill="#A5ABB6" stroke="none" d="M 40 0.5 L 240.10923963057434 0.5 L 240.10923963057434 -0.5 L 40 -0.5 Z M 297.67955213057434 0.5 L 497.7887917611487 0.5 L 497.7887917611487 3.5 L 504.7887917611487 0 L 497.7887917611487 -3.5 L 497.7887917611487 -0.5 L 297.67955213057434 -0.5 Z"/><text text-anchor="middle" pointer-events="none" font-size="8px" fill="#000000" x="268.89439588057434" y="3" transform="rotate(180 268.89439588057434 0)" font-family="sans-serif">IS_CHILD_OF</text></g><g class="relationship" transform="translate(446.20417630838693 -105.22771104694736) rotate(180.4643462129216)"><path class="outline" fill="#A5ABB6" stroke="none" d="M 40 0.5 L 311.04559585268487 0.5 L 311.04559585268487 -0.5 L 40 -0.5 Z M 368.61590835268487 0.5 L 639.6615042053697 0.5 L 639.6615042053697 3.5 L 646.6615042053697 0 L 639.6615042053697 -3.5 L 639.6615042053697 -0.5 L 368.61590835268487 -0.5 Z"/><text text-anchor="middle" pointer-events="none" font-size="8px" fill="#000000" x="339.83075210268487" y="3" transform="rotate(180 339.83075210268487 0)" font-family="sans-serif">IS_CHILD_OF</text></g><g class="relationship" transform="translate(-57.55145353302254 -151.45857263485976) rotate(526.3445072271563)"><path class="outline" fill="#A5ABB6" stroke="none" d="M 40 0.5 L 61.598578286390094 0.5 L 61.598578286390094 -0.5 L 40 -0.5 Z M 119.1688907863901 0.5 L 140.7674690727802 0.5 L 140.7674690727802 3.5 L 147.7674690727802 0 L 140.7674690727802 -3.5 L 140.7674690727802 -0.5 L 119.1688907863901 -0.5 Z"/><text text-anchor="middle" pointer-events="none" font-size="8px" fill="#000000" x="90.3837345363901" y="3" transform="rotate(180 90.3837345363901 0)" font-family="sans-serif">IS_CHILD_OF</text></g><g class="relationship" transform="translate(-33.534562485127 -281.9286623297699) rotate(498.25337587612603)"><path class="outline" fill="#A5ABB6" stroke="none" d="M 40 0.5 L 103.81796694820173 0.5 L 103.81796694820173 -0.5 L 40 -0.5 Z M 161.38827944820173 0.5 L 225.20624639640346 0.5 L 225.20624639640346 3.5 L 232.20624639640346 0 L 225.20624639640346 -3.5 L 225.20624639640346 -0.5 L 161.38827944820173 -0.5 Z"/><text text-anchor="middle" pointer-events="none" font-size="8px" fill="#000000" x="132.60312319820173" y="3" transform="rotate(180 132.60312319820173 0)" font-family="sans-serif">IS_CHILD_OF</text></g><g class="relationship" transform="translate(-254.89856907114205 -292.8235175529337) rotate(440.8119432569069)"><path class="outline" fill="#A5ABB6" stroke="none" d="M 40 0.5 L 67.47481506560318 0.5 L 67.47481506560318 -0.5 L 40 -0.5 Z M 125.04512756560318 0.5 L 152.51994263120636 0.5 L 152.51994263120636 3.5 L 159.51994263120636 0 L 152.51994263120636 -3.5 L 152.51994263120636 -0.5 L 125.04512756560318 -0.5 Z"/><text text-anchor="middle" pointer-events="none" font-size="8px" fill="#000000" x="96.25997131560318" y="3" font-family="sans-serif">IS_CHILD_OF</text></g><g class="relationship" transform="translate(-639.4472206455039 -207.36867819167037) rotate(373.14646967524214)"><path class="outline" fill="#A5ABB6" stroke="none" d="M 40 0.5 L 187.7920810244681 0.5 L 187.7920810244681 -0.5 L 40 -0.5 Z M 245.3623935244681 0.5 L 393.1544745489362 0.5 L 393.1544745489362 3.5 L 400.1544745489362 0 L 393.1544745489362 -3.5 L 393.1544745489362 -0.5 L 245.3623935244681 -0.5 Z"/><text text-anchor="middle" pointer-events="none" font-size="8px" fill="#000000" x="216.5772372744681" y="3" font-family="sans-serif">IS_CHILD_OF</text></g><g class="relationship" transform="translate(-530.948062561802 176.04119191438312) rotate(316.8182798361305)"><path class="outline" fill="#A5ABB6" stroke="none" d="M 40 0.5 L 184.70349080573246 0.5 L 184.70349080573246 -0.5 L 40 -0.5 Z M 242.27380330573246 0.5 L 386.9772941114649 0.5 L 386.9772941114649 3.5 L 393.9772941114649 0 L 386.9772941114649 -3.5 L 386.9772941114649 -0.5 L 242.27380330573246 -0.5 Z"/><text text-anchor="middle" pointer-events="none" font-size="8px" fill="#000000" x="213.48864705573246" y="3" font-family="sans-serif">IS_CHILD_OF</text></g><g class="relationship" transform="translate(-427.31345087996147 -40.36513478089897) rotate(340.79886356750035)"><path class="outline" fill="#A5ABB6" stroke="none" d="M 40 0.5 L 82.09996990577959 0.5 L 82.09996990577959 -0.5 L 40 -0.5 Z M 139.67028240577957 0.5 L 181.77025231155918 0.5 L 181.77025231155918 3.5 L 188.77025231155918 0 L 181.77025231155918 -3.5 L 181.77025231155918 -0.5 L 139.67028240577957 -0.5 Z"/><text text-anchor="middle" pointer-events="none" font-size="8px" fill="#000000" x="110.88512615577959" y="3" font-family="sans-serif">IS_CHILD_OF</text></g><g class="relationship" transform="translate(-311.6227911889347 82.33388022045511) rotate(294.06344030909037)"><path class="outline" fill="#A5ABB6" stroke="none" d="M 40 0.5 L 80.90210634688628 0.5 L 80.90210634688628 -0.5 L 40 -0.5 Z M 138.47241884688628 0.5 L 179.37452519377257 0.5 L 179.37452519377257 3.5 L 186.37452519377257 0 L 179.37452519377257 -3.5 L 179.37452519377257 -0.5 L 138.47241884688628 -0.5 Z"/><text text-anchor="middle" pointer-events="none" font-size="8px" fill="#000000" x="109.68726259688628" y="3" font-family="sans-serif">IS_CHILD_OF</text></g><g class="relationship" transform="translate(-180.98991985571757 41.6326361026182) rotate(253.73166773782992)"><path class="outline" fill="#A5ABB6" stroke="none" d="M 40 0.5 L 54.54296054848206 0.5 L 54.54296054848206 -0.5 L 40 -0.5 Z M 112.11327304848206 0.5 L 126.65623359696411 0.5 L 126.65623359696411 3.5 L 133.6562335969641 0 L 126.65623359696411 -3.5 L 126.65623359696411 -0.5 L 112.11327304848206 -0.5 Z"/><text text-anchor="middle" pointer-events="none" font-size="8px" fill="#000000" x="83.32811679848206" y="3" transform="rotate(180 83.32811679848206 0)" font-family="sans-serif">IS_CHILD_OF</text></g><g class="relationship" transform="translate(369.6480504108146 -232.79844942204227) rotate(531.936502467787)"><path class="outline" fill="#A5ABB6" stroke="none" d="M 40 0.5 L 123.53530872852926 0.5 L 123.53530872852926 -0.5 L 40 -0.5 Z M 181.10562122852926 0.5 L 264.6409299570585 0.5 L 264.6409299570585 3.5 L 271.6409299570585 0 L 264.6409299570585 -3.5 L 264.6409299570585 -0.5 L 181.10562122852926 -0.5 Z"/><text text-anchor="middle" pointer-events="none" font-size="8px" fill="#000000" x="152.32046497852926" y="3" transform="rotate(180 152.32046497852926 0)" font-family="sans-serif">IS_CHILD_OF</text></g><g class="relationship" transform="translate(-57.55145353302254 -151.45857263485976) rotate(343.4258615325946)"><path class="outline" fill="#A5ABB6" stroke="none" d="M 38.50762352901147,-10.835724717245364 L 38.766442574113995,-9.869798890956295 A 127.2721828113825 127.2721828113825 0 0 1 42.422870045475804,-10.791703033316935 L 42.192780196263485,-11.764872423140432 A 128.2721828113825 128.2721828113825 0 0 0 38.50762352901147,-10.835724717245364 Z M 105.13499912983926,-10.774189285222334 L 104.87439631635534,-9.808743184394217 A 127.2721828113825 127.2721828113825 0 0 1 108.49999904185623,-8.772223055370365 L 107.63272960013742,-5.900317117589538 L 115.34565780363128,-7.227245347656644 L 109.65635829748129,-12.601430972411467 L 108.78908885576249,-9.72952503463064 A 128.2721828113825 128.2721828113825 0 0 0 105.13499912983926,-10.774189285222334"/><text text-anchor="middle" pointer-events="none" font-size="8px" fill="#000000" x="73.71773689741671" y="-11.690669545926013" font-family="sans-serif">NEXT_SIBLING</text></g><g class="relationship" transform="translate(-57.55145353302254 -151.45857263485976) rotate(343.4258615325946)"><path class="outline" fill="#A5ABB6" stroke="none" d="M 38.50762352901147,10.835724717245364 L 38.766442574113995,9.869798890956295 A 127.2721828113825 127.2721828113825 0 0 0 60.11156896304755,13.677186653405627 L 60.02046234274541,14.673027797231839 A 128.2721828113825 128.2721828113825 0 0 1 38.50762352901147,10.835724717245364 Z M 87.40767136502862,14.24196504423854 L 87.28526942546978,13.249484432240394 A 127.2721828113825 127.2721828113825 0 0 0 108.49999904185623,8.772223055370365 L 107.63272960013742,5.900317117589538 L 115.34565780363128,7.227245347656644 L 109.65635829748129,12.601430972411467 L 108.78908885576249,9.72952503463064 A 128.2721828113825 128.2721828113825 0 0 1 87.40767136502862,14.24196504423854"/><text text-anchor="middle" pointer-events="none" font-size="8px" fill="#000000" x="73.71773689741671" y="17.690669545926013" font-family="sans-serif">NEXT</text></g><g class="relationship" transform="translate(178.59656603902485 -164.00693996781908) rotate(194.8305141073456)"><path class="outline" fill="#A5ABB6" stroke="none" d="M 38.50762352901147,10.835724717245364 L 38.766442574113995,9.869798890956295 A 65.84791163398098 65.84791163398098 0 0 0 38.96794679777658,9.923449964835115 L 38.712187898678124,10.890190563719813 A 66.84791163398098 66.84791163398098 0 0 1 38.50762352901147,10.835724717245364 Z M 75.60761101584964,10.114356761149665 L 75.31143908845964,9.159222116491598 A 65.84791163398098 65.84791163398098 0 0 0 75.51050984821653,9.09714778611255 L 74.6129244955096,6.234571929544556 L 82.33945107232634,7.479877939224389 L 76.70729031849244,12.913915594869875 L 75.80970496578551,10.05133973830188 A 66.84791163398098 66.84791163398098 0 0 1 75.60761101584964,10.114356761149665"/><text text-anchor="middle" pointer-events="none" font-size="8px" fill="#000000" x="57.203986049463474" y="15.598848299437606" transform="rotate(180 57.203986049463474 12.598848299437606)" font-family="sans-serif">FIRST…</text></g><g class="relationship" transform="translate(178.59656603902485 -164.00693996781908) rotate(194.8305141073456)"><path class="outline" fill="#A5ABB6" stroke="none" d="M 38.50762352901147,-10.835724717245364 L 38.766442574113995,-9.869798890956295 A 65.84791163398098 65.84791163398098 0 0 1 41.53499068490619,-10.547761545097885 L 41.318216224697736,-11.523983258337935 A 66.84791163398098 66.84791163398098 0 0 0 38.50762352901147,-10.835724717245364 Z M 73.03052919934571,-10.857139452663716 L 72.7729086904445,-9.89089327627103 A 65.84791163398098 65.84791163398098 0 0 1 75.51050984821653,-9.09714778611255 L 74.6129244955096,-6.234571929544556 L 82.33945107232634,-7.479877939224389 L 76.70729031849244,-12.913915594869875 L 75.80970496578551,-10.05133973830188 A 66.84791163398098 66.84791163398098 0 0 0 73.03052919934571,-10.857139452663716"/><text text-anchor="middle" pointer-events="none" font-size="8px" fill="#000000" x="57.20398604946345" y="-9.598848299437606" transform="rotate(180 57.20398604946345 -12.598848299437606)" font-family="sans-serif">IS_C…</text></g><g class="relationship" transform="translate(177.21628691348135 -266.8492420954204) rotate(503.2376083803655)"><path class="outline" fill="#A5ABB6" stroke="none" d="M 38.50762352901147,10.835724717245364 L 38.766442574113995,9.869798890956295 A 103.24044731742234 103.24044731742234 0 0 0 38.94297095595539,9.916932144948348 L 38.685861787034426,10.883314509883036 A 104.24044731742234 104.24044731742234 0 0 1 38.50762352901147,10.835724717245364 Z M 95.78551672232585,9.887211364633401 L 95.49485718529127,8.930384821559457 A 103.24044731742234 103.24044731742234 0 0 0 95.66963417645563,8.87712304739703 L 94.7925768293805,6.008191118971132 L 102.50998490062858,7.308811225626048 L 96.8390439725558,12.702365618631559 L 95.96198662548066,9.833433690205661 A 104.24044731742234 104.24044731742234 0 0 1 95.78551672232585,9.887211364633401"/><text text-anchor="middle" pointer-events="none" font-size="8px" fill="#000000" x="67.29651274337925" y="16.871849876816313" transform="rotate(180 67.29651274337925 13.871849876816313)" font-family="sans-serif">IS_CHILD_OF</text></g><g class="relationship" transform="translate(177.21628691348135 -266.8492420954204) rotate(503.2376083803655)"><path class="outline" fill="#A5ABB6" stroke="none" d="M 38.50762352901147,-10.835724717245364 L 38.766442574113995,-9.869798890956295 A 103.24044731742234 103.24044731742234 0 0 1 39.36960171833495,-10.029463014389464 L 39.11662494881233,-10.996935367525154 A 104.24044731742234 104.24044731742234 0 0 0 38.50762352901147,-10.835724717245364 Z M 95.35897869154064,-10.015787836548611 L 95.07241102135585,-9.057727832997244 A 103.24044731742234 103.24044731742234 0 0 1 95.66963417645563,-8.87712304739703 L 94.7925768293805,-6.008191118971132 L 102.50998490062858,-7.308811225626048 L 96.8390439725558,-12.702365618631559 L 95.96198662548066,-9.833433690205661 A 104.24044731742234 104.24044731742234 0 0 0 95.35897869154064,-10.015787836548611"/><text text-anchor="middle" pointer-events="none" font-size="8px" fill="#000000" x="67.29651274337921" y="-10.871849876816313" transform="rotate(180 67.29651274337921 -13.871849876816313)" font-family="sans-serif">LAST_CHIL…</text></g><g class="relationship" transform="translate(-185.1209463610935 339.63924862638214) rotate(221.47377486916434)"><path class="outline" fill="#A5ABB6" stroke="none" d="M 40 0.5 L 45.64028822844567 0.5 L 45.64028822844567 -0.5 L 40 -0.5 Z M 103.21060072844567 0.5 L 108.85088895689134 0.5 L 108.85088895689134 3.5 L 115.85088895689134 0 L 108.85088895689134 -3.5 L 108.85088895689134 -0.5 L 103.21060072844567 -0.5 Z"/><text text-anchor="middle" pointer-events="none" font-size="8px" fill="#000000" x="74.42544447844567" y="3" transform="rotate(180 74.42544447844567 0)" font-family="sans-serif">IS_CHILD_OF</text></g><g class="relationship" transform="translate(-311.6227911889347 82.33388022045511) rotate(442.7150459508737)"><path class="outline" fill="#A5ABB6" stroke="none" d="M 38.50762352901147,-10.835724717245364 L 38.766442574113995,-9.869798890956295 A 176.39411956623005 176.39411956623005 0 0 1 73.1159066107355,-15.517664130929347 L 73.05181890997196,-16.515608401222465 A 177.39411956623005 177.39411956623005 0 0 0 38.50762352901147,-10.835724717245364 Z M 100.435392074455,-16.155911870816453 L 100.34511404296404,-15.159995269373269 A 176.39411956623005 176.39411956623005 0 0 1 134.5343774354665,-8.611840563645845 L 133.68207389955347,-5.735457647087246 L 141.38798816342208,-7.102529465941885 L 135.6707821500172,-12.447017785723977 L 134.81847861410418,-9.570634869165378 A 177.39411956623005 177.39411956623005 0 0 0 100.435392074455,-16.155911870816453"/><text text-anchor="middle" pointer-events="none" font-size="8px" fill="#000000" x="86.74398988720702" y="-13.365023994689807" font-family="sans-serif">NEXT</text></g><g class="relationship" transform="translate(-311.6227911889347 82.33388022045511) rotate(442.7150459508737)"><path class="outline" fill="#A5ABB6" stroke="none" d="M 38.50762352901147,10.835724717245364 L 38.766442574113995,9.869798890956295 A 176.39411956623005 176.39411956623005 0 0 0 55.28537011879713,13.457493558281044 L 55.12019890949154,14.443758467733119 A 177.39411956623005 177.39411956623005 0 0 1 38.50762352901147,10.835724717245364 Z M 118.30640514364222,13.613776966947057 L 118.11538525490772,12.632190800526672 A 176.39411956623005 176.39411956623005 0 0 0 134.5343774354665,8.611840563645845 L 133.68207389955347,5.735457647087246 L 141.38798816342208,7.102529465941885 L 135.6707821500172,12.447017785723977 L 134.81847861410418,9.570634869165378 A 177.39411956623005 177.39411956623005 0 0 1 118.30640514364222,13.613776966947057"/><text text-anchor="middle" pointer-events="none" font-size="8px" fill="#000000" x="86.74398988720706" y="19.36502399468978" font-family="sans-serif">NEXT_SIBLING</text></g><g class="relationship" transform="translate(-480.95548342656576 300.2656367636227) rotate(344.18354564474976)"><path class="outline" fill="#A5ABB6" stroke="none" d="M 38.50762352901147,10.835724717245364 L 38.766442574113995,9.869798890956295 A 237.94307828291784 237.94307828291784 0 0 0 74.27042637332192,16.543907371243876 L 74.16081941732668,17.537882378574267 A 238.94307828291784 238.94307828291784 0 0 1 38.50762352901147,10.835724717245364 Z M 131.70841249906914,16.910952737535496 L 131.5771771862894,15.919601491669738 A 237.94307828291784 237.94307828291784 0 0 0 166.9273349999491,8.473600405823998 L 166.0879322411506,5.593426277664127 L 173.78764175878854,6.9950229899874845 L 168.04653867834708,12.313832576703826 L 167.2071359195486,9.433658448543955 A 238.94307828291784 238.94307828291784 0 0 1 131.70841249906914,16.910952737535496"/><text text-anchor="middle" pointer-events="none" font-size="8px" fill="#000000" x="102.94811317921281" y="21.463364533688633" font-family="sans-serif">IS_CHILD_OF</text></g><g class="relationship" transform="translate(-480.95548342656576 300.2656367636227) rotate(344.18354564474976)"><path class="outline" fill="#A5ABB6" stroke="none" d="M 38.50762352901147,-10.835724717245364 L 38.766442574113995,-9.869798890956295 A 237.94307828291784 237.94307828291784 0 0 1 66.57332035920295,-15.567873600153547 L 66.43136488494164,-16.557746644198716 A 238.94307828291784 238.94307828291784 0 0 0 38.50762352901147,-10.835724717245364 Z M 139.41467968850156,-15.762658597916356 L 139.25119289873908,-14.776113074601227 A 237.94307828291784 237.94307828291784 0 0 1 166.9273349999491,-8.473600405823998 L 166.0879322411506,-5.593426277664127 L 173.78764175878854,-6.9950229899874845 L 168.04653867834708,-12.313832576703826 L 167.2071359195486,-9.433658448543955 A 238.94307828291784 238.94307828291784 0 0 0 139.41467968850156,-15.762658597916356"/><text text-anchor="middle" pointer-events="none" font-size="8px" fill="#000000" x="102.94811317921278" y="-15.463364533688633" font-family="sans-serif">FIRST_CHILD_OF</text></g><g class="relationship" transform="translate(-152.93839043907 215.60247143693647) rotate(527.4114126375982)"><path class="outline" fill="#A5ABB6" stroke="none" d="M 38.50762352901147,10.835724717245364 L 38.766442574113995,9.869798890956295 A 130.70453045321224 130.70453045321224 0 0 0 40.092423879047146,10.217652074608779 L 39.84374971033365,11.186239271413811 A 131.70453045321224 131.70453045321224 0 0 1 38.50762352901147,10.835724717245364 Z M 109.29064522183336,10.108175211216931 L 109.0120262498134,9.147773488795252 A 130.70453045321224 130.70453045321224 0 0 0 110.3265713874123,8.758929896043506 L 109.46054233118925,5.886649674028705 L 117.17289674815069,7.216908801858832 L 111.48127679570972,12.588636858729908 L 110.61524773948666,9.716356636715107 A 131.70453045321224 131.70453045321224 0 0 1 109.29064522183336,10.108175211216931"/><text text-anchor="middle" pointer-events="none" font-size="8px" fill="#000000" x="74.63178228058358" y="17.80764169953963" transform="rotate(180 74.63178228058358 14.80764169953963)" font-family="sans-serif">LAST_CHILD_OF</text></g><g class="relationship" transform="translate(-152.93839043907 215.60247143693647) rotate(527.4114126375982)"><path class="outline" fill="#A5ABB6" stroke="none" d="M 38.50762352901147,-10.835724717245364 L 38.766442574113995,-9.869798890956295 A 130.70453045321224 130.70453045321224 0 0 1 46.13284313519002,-11.61663035979204 L 45.93038327316657,-12.595920921509787 A 131.70453045321224 131.70453045321224 0 0 0 38.50762352901147,-10.835724717245364 Z M 103.25070053479682,-11.706104702891167 L 103.01794137235404,-10.733570296148173 A 130.70453045321224 130.70453045321224 0 0 1 110.3265713874123,-8.758929896043506 L 109.46054233118925,-5.886649674028705 L 117.17289674815069,-7.216908801858832 L 111.48127679570972,-12.588636858729908 L 110.61524773948666,-9.716356636715107 A 131.70453045321224 131.70453045321224 0 0 0 103.25070053479682,-11.706104702891167"/><text text-anchor="middle" pointer-events="none" font-size="8px" fill="#000000" x="74.63178228058351" y="-11.80764169953963" transform="rotate(180 74.63178228058351 -14.80764169953963)" font-family="sans-serif">IS_CHILD_OF</text></g></g><g class="layer nodes"><g class="node" transform="translate(399.59348042630194,271.3721420837011)"><circle class="outline" cx="0" cy="0" r="40" fill="#569480" stroke="#447666" stroke-width="2px"/><text text-anchor="middle" pointer-events="none" font-family="sans-serif" dy="2.5" font-size="40" fill="#FFFFFF"/><text text-anchor="middle" pointer-events="none" y="5" font-size="10px" fill="#FFFFFF" font-family="sans-serif"> 
</text></g><g class="node" transform="translate(166.69498166336075,252.26717583136121)"><circle class="outline" cx="0" cy="0" r="40" fill="#569480" stroke="#447666" stroke-width="2px"/><text text-anchor="middle" pointer-events="none" font-family="sans-serif" dy="2.5" font-size="40" fill="#FFFFFF"/><text text-anchor="middle" pointer-events="none" y="5" font-size="10px" fill="#FFFFFF" font-family="sans-serif">  </text></g><g class="node" transform="translate(302.5446700012892,115.29944043329687)"><circle class="outline" cx="0" cy="0" r="40" fill="#569480" stroke="#447666" stroke-width="2px"/><text text-anchor="middle" pointer-events="none" font-family="sans-serif" dy="2.5" font-size="40" fill="#FFFFFF"/><text text-anchor="middle" pointer-events="none" y="5" font-size="10px" fill="#FFFFFF" font-family="sans-serif">  </text></g><g class="node" transform="translate(132.97603908417466,105.17940060025035)"><circle class="outline" cx="0" cy="0" r="40" fill="#569480" stroke="#447666" stroke-width="2px"/><text text-anchor="middle" pointer-events="none" font-family="sans-serif" dy="2.5" font-size="40" fill="#FFFFFF"/><text text-anchor="middle" pointer-events="none" y="5" font-size="10px" fill="#FFFFFF" font-family="sans-serif">  </text></g><g class="node" transform="translate(23.310668871844797,284.11993772487926)"><circle class="outline" cx="0" cy="0" r="40" fill="#569480" stroke="#447666" stroke-width="2px"/><text text-anchor="middle" pointer-events="none" font-family="sans-serif" dy="2.5" font-size="40" fill="#FFFFFF"/><text text-anchor="middle" pointer-events="none" y="5" font-size="10px" fill="#FFFFFF" font-family="sans-serif"> 
</text></g><g class="node" transform="translate(-93.18104377174852,60.747895764223955)"><circle class="outline" cx="0" cy="0" r="40" fill="#569480" stroke="#447666" stroke-width="2px"/><text text-anchor="middle" pointer-events="none" font-family="sans-serif" dy="2.5" font-size="40" fill="#FFFFFF"/><text text-anchor="middle" pointer-events="none" y="5" font-size="10px" fill="#FFFFFF" font-family="sans-serif">  </text></g><g class="node" transform="translate(-67.03348045567834,-66.11158379378227)"><circle class="outline" cx="0" cy="0" r="40" fill="#569480" stroke="#447666" stroke-width="2px"/><text text-anchor="middle" pointer-events="none" font-family="sans-serif" dy="2.5" font-size="40" fill="#FFFFFF"/><text text-anchor="middle" pointer-events="none" y="5" font-size="10px" fill="#FFFFFF" font-family="sans-serif">  </text></g><g class="node" transform="translate(138.67965001768832,-3.179048859546299)"><circle class="outline" cx="0" cy="0" r="40" fill="#569480" stroke="#447666" stroke-width="2px"/><text text-anchor="middle" pointer-events="none" font-family="sans-serif" dy="2.5" font-size="40" fill="#FFFFFF"/><text text-anchor="middle" pointer-events="none" y="5" font-size="10px" fill="#FFFFFF" font-family="sans-serif">  </text></g><g class="node" transform="translate(287.517221455036,21.827653098875228)"><circle class="outline" cx="0" cy="0" r="40" fill="#569480" stroke="#447666" stroke-width="2px"/><text text-anchor="middle" pointer-events="none" font-family="sans-serif" dy="2.5" font-size="40" fill="#FFFFFF"/><text text-anchor="middle" pointer-events="none" y="5" font-size="10px" fill="#FFFFFF" font-family="sans-serif">  </text></g><g class="node" transform="translate(446.20417630838693,-105.22771104694736)"><circle class="outline" cx="0" cy="0" r="40" fill="#569480" stroke="#447666" stroke-width="2px"/><text text-anchor="middle" pointer-events="none" font-family="sans-serif" dy="2.5" font-size="40" fill="#FFFFFF"/><text text-anchor="middle" pointer-events="none" y="5" font-size="10px" fill="#FFFFFF" font-family="sans-serif">  </text></g><g class="node" transform="translate(-57.55145353302254,-151.45857263485976)"><circle class="outline" cx="0" cy="0" r="40" fill="#569480" stroke="#447666" stroke-width="2px"/><text text-anchor="middle" pointer-events="none" font-family="sans-serif" dy="2.5" font-size="40" fill="#FFFFFF"/><text text-anchor="middle" pointer-events="none" y="5" font-size="10px" fill="#FFFFFF" font-family="sans-serif">  </text></g><g class="node" transform="translate(178.59656603902485,-164.00693996781908)"><circle class="outline" cx="0" cy="0" r="40" fill="#569480" stroke="#447666" stroke-width="2px"/><text text-anchor="middle" pointer-events="none" font-family="sans-serif" dy="2.5" font-size="40" fill="#FFFFFF"/><text text-anchor="middle" pointer-events="none" y="5" font-size="10px" fill="#FFFFFF" font-family="sans-serif"> Gambardella,</text></g><g class="node" transform="translate(369.6480504108146,-232.79844942204227)"><circle class="outline" cx="0" cy="0" r="40" fill="#569480" stroke="#447666" stroke-width="2px"/><text text-anchor="middle" pointer-events="none" font-family="sans-serif" dy="2.5" font-size="40" fill="#FFFFFF"/><text text-anchor="middle" pointer-events="none" y="5" font-size="10px" fill="#FFFFFF" font-family="sans-serif">  </text></g><g class="node" transform="translate(177.21628691348135,-266.8492420954204)"><circle class="outline" cx="0" cy="0" r="40" fill="#569480" stroke="#447666" stroke-width="2px"/><text text-anchor="middle" pointer-events="none" font-family="sans-serif" dy="2.5" font-size="40" fill="#FFFFFF"/><text text-anchor="middle" pointer-events="none" y="5" font-size="10px" fill="#FFFFFF" font-family="sans-serif"> Matthew</text></g><g class="node" transform="translate(-33.534562485127,-281.9286623297699)"><circle class="outline" cx="0" cy="0" r="40" fill="#569480" stroke="#447666" stroke-width="2px"/><text text-anchor="middle" pointer-events="none" font-family="sans-serif" dy="2.5" font-size="40" fill="#FFFFFF"/><text text-anchor="middle" pointer-events="none" y="5" font-size="10px" fill="#FFFFFF" font-family="sans-serif"> 
</text></g><g class="node" transform="translate(-254.89856907114205,-292.8235175529337)"><circle class="outline" cx="0" cy="0" r="40" fill="#569480" stroke="#447666" stroke-width="2px"/><text text-anchor="middle" pointer-events="none" font-family="sans-serif" dy="2.5" font-size="40" fill="#FFFFFF"/><text text-anchor="middle" pointer-events="none" y="5" font-size="10px" fill="#FFFFFF" font-family="sans-serif">  </text></g><g class="node" transform="translate(-639.4472206455039,-207.36867819167037)"><circle class="outline" cx="0" cy="0" r="40" fill="#569480" stroke="#447666" stroke-width="2px"/><text text-anchor="middle" pointer-events="none" font-family="sans-serif" dy="2.5" font-size="40" fill="#FFFFFF"/><text text-anchor="middle" pointer-events="none" y="5" font-size="10px" fill="#FFFFFF" font-family="sans-serif">  </text></g><g class="node" transform="translate(-636.4114151713225,90.0317315115561)"><circle class="outline" cx="0" cy="0" r="40" fill="#569480" stroke="#447666" stroke-width="2px"/><text text-anchor="middle" pointer-events="none" font-family="sans-serif" dy="2.5" font-size="40" fill="#FFFFFF"/><text text-anchor="middle" pointer-events="none" y="5" font-size="10px" fill="#FFFFFF" font-family="sans-serif">  </text></g><g class="node" transform="translate(-530.948062561802,176.04119191438312)"><circle class="outline" cx="0" cy="0" r="40" fill="#569480" stroke="#447666" stroke-width="2px"/><text text-anchor="middle" pointer-events="none" font-family="sans-serif" dy="2.5" font-size="40" fill="#FFFFFF"/><text text-anchor="middle" pointer-events="none" y="5" font-size="10px" fill="#FFFFFF" font-family="sans-serif">  </text></g><g class="node" transform="translate(-427.31345087996147,-40.36513478089897)"><circle class="outline" cx="0" cy="0" r="40" fill="#569480" stroke="#447666" stroke-width="2px"/><text text-anchor="middle" pointer-events="none" font-family="sans-serif" dy="2.5" font-size="40" fill="#FFFFFF"/><text text-anchor="middle" pointer-events="none" y="5" font-size="10px" fill="#FFFFFF" font-family="sans-serif">  </text></g><g class="node" transform="translate(-311.6227911889347,82.33388022045511)"><circle class="outline" cx="0" cy="0" r="40" fill="#569480" stroke="#447666" stroke-width="2px"/><text text-anchor="middle" pointer-events="none" font-family="sans-serif" dy="2.5" font-size="40" fill="#FFFFFF"/><text text-anchor="middle" pointer-events="none" y="5" font-size="10px" fill="#FFFFFF" font-family="sans-serif">  </text></g><g class="node" transform="translate(-480.95548342656576,300.2656367636227)"><circle class="outline" cx="0" cy="0" r="40" fill="#569480" stroke="#447666" stroke-width="2px"/><text text-anchor="middle" pointer-events="none" font-family="sans-serif" dy="2.5" font-size="40" fill="#FFFFFF"/><text text-anchor="middle" pointer-events="none" y="5" font-size="10px" fill="#FFFFFF" font-family="sans-serif"> Arciniegas,</text></g><g class="node selected" transform="translate(-185.1209463610935,339.63924862638214)"><circle class="outline" cx="0" cy="0" r="40" fill="#569480" stroke="#447666" stroke-width="2px"/><text text-anchor="middle" pointer-events="none" font-family="sans-serif" dy="2.5" font-size="40" fill="#FFFFFF"/><text text-anchor="middle" pointer-events="none" y="5" font-size="10px" fill="#FFFFFF" font-family="sans-serif">  </text></g><g class="node" transform="translate(-152.93839043907,215.60247143693647)"><circle class="outline" cx="0" cy="0" r="40" fill="#569480" stroke="#447666" stroke-width="2px"/><text text-anchor="middle" pointer-events="none" font-family="sans-serif" dy="2.5" font-size="40" fill="#FFFFFF"/><text text-anchor="middle" pointer-events="none" y="5" font-size="10px" fill="#FFFFFF" font-family="sans-serif"> Fabio</text></g><g class="node" transform="translate(-180.98991985571757,41.6326361026182)"><circle class="outline" cx="0" cy="0" r="40" fill="#569480" stroke="#447666" stroke-width="2px"/><text text-anchor="middle" pointer-events="none" font-family="sans-serif" dy="2.5" font-size="40" fill="#FFFFFF"/><text text-anchor="middle" pointer-events="none" y="5" font-size="10px" fill="#FFFFFF" font-family="sans-serif"> 
</text></g><g class="node" transform="translate(-225.43527037930244,-110.67104499541082)"><circle class="outline" cx="0" cy="0" r="25" fill="#F16667" stroke="#eb2728" stroke-width="2px"/><text text-anchor="middle" pointer-events="none" font-family="sans-serif" dy="1.5625" font-size="25" fill="#FFFFFF"/><text text-anchor="middle" pointer-events="none" y="5" font-size="10px" fill="#FFFFFF" font-family="sans-serif"> book</text></g><g class="node" transform="translate(75.93994308435455,-191.188486474485)"><circle class="outline" cx="0" cy="0" r="25" fill="#F16667" stroke="#eb2728" stroke-width="2px"/><text text-anchor="middle" pointer-events="none" font-family="sans-serif" dy="1.5625" font-size="25" fill="#FFFFFF"/><text text-anchor="middle" pointer-events="none" y="5" font-size="10px" fill="#FFFFFF" font-family="sans-serif"> author</text></g><g class="node" transform="translate(-290.654733186554,246.35692040594802)"><circle class="outline" cx="0" cy="0" r="25" fill="#F16667" stroke="#eb2728" stroke-width="2px"/><text text-anchor="middle" pointer-events="none" font-family="sans-serif" dy="1.5625" font-size="25" fill="#FFFFFF"/><text text-anchor="middle" pointer-events="none" y="5" font-size="10px" fill="#FFFFFF" font-family="sans-serif"> author</text></g></g></svg>