<svg xmlns="http://www.w3.org/2000/svg" width="947.4759521484375" height="645.7060546875" viewBox="-266.6826171875 -499.484619140625 947.4759521484375 645.7060546875"><title>Neo4j Graph Visualization</title><desc>Created using Neo4j (http://www.neo4j.com/)</desc><g class="layer relationships"><g class="relationship" transform="translate(395.5207085525197 -11.901336118929393) rotate(350.4060174650267)"><path class="outline" fill="#A5ABB6" stroke="none" d="M 40 0.5 L 90.33315822352277 0.5 L 90.33315822352277 -0.5 L 40 -0.5 Z M 126.10659572352277 0.5 L 176.43975394704555 0.5 L 176.43975394704555 3.5 L 183.43975394704555 0 L 176.43975394704555 -3.5 L 176.43975394704555 -0.5 L 126.10659572352277 -0.5 Z"/><text text-anchor="middle" pointer-events="none" font-size="8px" fill="#000000" x="108.21987697352277" y="3" font-family="sans-serif">WROTE</text></g><g class="relationship" transform="translate(499.66870503167297 102.22147106520164) rotate(307.5052757579469)"><path class="outline" fill="#A5ABB6" stroke="none" d="M 40 0.5 L 74.01411016785858 0.5 L 74.01411016785858 -0.5 L 40 -0.5 Z M 109.78754766785858 0.5 L 143.80165783571715 0.5 L 143.80165783571715 3.5 L 150.80165783571715 0 L 143.80165783571715 -3.5 L 143.80165783571715 -0.5 L 109.78754766785858 -0.5 Z"/><text text-anchor="middle" pointer-events="none" font-size="8px" fill="#000000" x="91.90082891785858" y="3" font-family="sans-serif">WROTE</text></g><g class="relationship" transform="translate(568.9568693636161 -312.86181382311054) rotate(424.65209947813054)"><path class="outline" fill="#A5ABB6" stroke="none" d="M 40 0.5 L 55.04813311848257 0.5 L 55.04813311848257 -0.5 L 40 -0.5 Z M 110.39578936848257 0.5 L 125.44392248696514 0.5 L 125.44392248696514 3.5 L 132.44392248696514 0 L 125.44392248696514 -3.5 L 125.44392248696514 -0.5 L 110.39578936848257 -0.5 Z"/><text text-anchor="middle" pointer-events="none" font-size="8px" fill="#000000" x="82.72196124348257" y="3" font-family="sans-serif">HAS_GENRE</text></g><g class="relationship" transform="translate(615.8353327597083 -49.140965606365384) rotate(281.6961473447502)"><path class="outline" fill="#A5ABB6" stroke="none" d="M 40 0.5 L 41.344818425084085 0.5 L 41.344818425084085 -0.5 L 40 -0.5 Z M 76.24325592508409 0.5 L 77.58807435016817 0.5 L 77.58807435016817 3.5 L 84.58807435016817 0 L 77.58807435016817 -3.5 L 77.58807435016817 -0.5 L 76.24325592508409 -0.5 Z"/><text text-anchor="middle" pointer-events="none" font-size="8px" fill="#000000" x="58.794037175084085" y="3" font-family="sans-serif">HAS_…</text></g><g class="relationship" transform="translate(636.7934147185972 -432.2715637018927) rotate(449.40712089750787)"><path class="outline" fill="#A5ABB6" stroke="none" d="M 40 0.5 L 106.820203142313 0.5 L 106.820203142313 -0.5 L 40 -0.5 Z M 162.167859392313 0.5 L 228.988062534626 0.5 L 228.988062534626 3.5 L 235.988062534626 0 L 228.988062534626 -3.5 L 228.988062534626 -0.5 L 162.167859392313 -0.5 Z"/><text text-anchor="middle" pointer-events="none" font-size="8px" fill="#000000" x="134.494031267313" y="3" font-family="sans-serif">HAS_GENRE</text></g><g class="relationship" transform="translate(466.20793027961054 -145.35938070149513) rotate(353.9289974442976)"><path class="outline" fill="#A5ABB6" stroke="none" d="M 40 0.5 L 59.746893774647845 0.5 L 59.746893774647845 -0.5 L 40 -0.5 Z M 115.09455002464784 0.5 L 134.8414437992957 0.5 L 134.8414437992957 3.5 L 141.8414437992957 0 L 134.8414437992957 -3.5 L 134.8414437992957 -0.5 L 115.09455002464784 -0.5 Z"/><text text-anchor="middle" pointer-events="none" font-size="8px" fill="#000000" x="87.42072189964784" y="3" font-family="sans-serif">HAS_GENRE</text></g><g class="relationship" transform="translate(82.05675288575884 -195.60236290732695) rotate(320.8486851727594)"><path class="outline" fill="#A5ABB6" stroke="none" d="M 40 0.5 L 66.1635985017101 0.5 L 66.1635985017101 -0.5 L 40 -0.5 Z M 101.9370360017101 0.5 L 128.1006345034202 0.5 L 128.1006345034202 3.5 L 135.1006345034202 0 L 128.1006345034202 -3.5 L 128.1006345034202 -0.5 L 101.9370360017101 -0.5 Z"/><text text-anchor="middle" pointer-events="none" font-size="8px" fill="#000000" x="84.0503172517101" y="3" font-family="sans-serif">WROTE</text></g><g class="relationship" transform="translate(217.84401261932766 -306.1557540699171) rotate(451.05237186321995)"><path class="outline" fill="#A5ABB6" stroke="none" d="M 40 0.5 L 65.99701099170014 0.5 L 65.99701099170014 -0.5 L 40 -0.5 Z M 121.34466724170014 0.5 L 147.34167823340027 0.5 L 147.34167823340027 3.5 L 154.34167823340027 0 L 147.34167823340027 -3.5 L 147.34167823340027 -0.5 L 121.34466724170014 -0.5 Z"/><text text-anchor="middle" pointer-events="none" font-size="8px" fill="#000000" x="93.67083911670014" y="3" transform="rotate(180 93.67083911670014 0)" font-family="sans-serif">HAS_GENRE</text></g><g class="relationship" transform="translate(305.4787385806676 -244.25174490044265) rotate(486.09496456718955)"><path class="outline" fill="#A5ABB6" stroke="none" d="M 40 0.5 L 49.86559849922203 0.5 L 49.86559849922203 -0.5 L 40 -0.5 Z M 105.21325474922203 0.5 L 115.07885324844406 0.5 L 115.07885324844406 3.5 L 122.07885324844406 0 L 115.07885324844406 -3.5 L 115.07885324844406 -0.5 L 105.21325474922203 -0.5 Z"/><text text-anchor="middle" pointer-events="none" font-size="8px" fill="#000000" x="77.53942662422203" y="3" transform="rotate(180 77.53942662422203 0)" font-family="sans-serif">HAS_GENRE</text></g><g class="relationship" transform="translate(20.528706457312808 -363.9825518312235) rotate(411.60189213811464)"><path class="outline" fill="#A5ABB6" stroke="none" d="M 40 0.5 L 128.65158325658894 0.5 L 128.65158325658894 -0.5 L 40 -0.5 Z M 183.99923950658894 0.5 L 272.65082276317787 0.5 L 272.65082276317787 3.5 L 279.65082276317787 0 L 272.65082276317787 -3.5 L 272.65082276317787 -0.5 L 183.99923950658894 -0.5 Z"/><text text-anchor="middle" pointer-events="none" font-size="8px" fill="#000000" x="156.32541138158894" y="3" font-family="sans-serif">HAS_GENRE</text></g><g class="relationship" transform="translate(470.91700404475216 -269.0604234338205) rotate(509.72903934542074)"><path class="outline" fill="#A5ABB6" stroke="none" d="M 40 0.5 L 121.07628418886401 0.5 L 121.07628418886401 -0.5 L 40 -0.5 Z M 176.423940438864 0.5 L 257.500224627728 0.5 L 257.500224627728 3.5 L 264.500224627728 0 L 257.500224627728 -3.5 L 257.500224627728 -0.5 L 176.423940438864 -0.5 Z"/><text text-anchor="middle" pointer-events="none" font-size="8px" fill="#000000" x="148.750112313864" y="3" transform="rotate(180 148.750112313864 0)" font-family="sans-serif">HAS_GENRE</text></g><g class="relationship" transform="translate(301.44119413922033 -373.80286249394044) rotate(537.9978344277052)"><path class="outline" fill="#A5ABB6" stroke="none" d="M 40 0.5 L 119.15532499238881 0.5 L 119.15532499238881 -0.5 L 40 -0.5 Z M 154.9287624923888 0.5 L 234.08408748477763 0.5 L 234.08408748477763 3.5 L 241.08408748477763 0 L 234.08408748477763 -3.5 L 234.08408748477763 -0.5 L 154.9287624923888 -0.5 Z"/><text text-anchor="middle" pointer-events="none" font-size="8px" fill="#000000" x="137.0420437423888" y="3" transform="rotate(180 137.0420437423888 0)" font-family="sans-serif">WROTE</text></g><g class="relationship" transform="translate(301.44119413922033 -373.80286249394044) rotate(391.71762810707907)"><path class="outline" fill="#A5ABB6" stroke="none" d="M 40 0.5 L 78.22882808306078 0.5 L 78.22882808306078 -0.5 L 40 -0.5 Z M 114.00226558306078 0.5 L 152.23109366612155 0.5 L 152.23109366612155 3.5 L 159.23109366612155 0 L 152.23109366612155 -3.5 L 152.23109366612155 -0.5 L 114.00226558306078 -0.5 Z"/><text text-anchor="middle" pointer-events="none" font-size="8px" fill="#000000" x="96.11554683306078" y="3" font-family="sans-serif">WROTE</text></g><g class="relationship" transform="translate(301.44119413922033 -373.80286249394044) rotate(448.21491774156675)"><path class="outline" fill="#A5ABB6" stroke="none" d="M 40 0.5 L 43.42029058317506 0.5 L 43.42029058317506 -0.5 L 40 -0.5 Z M 79.19372808317506 0.5 L 82.61401866635012 0.5 L 82.61401866635012 3.5 L 89.61401866635012 0 L 82.61401866635012 -3.5 L 82.61401866635012 -0.5 L 79.19372808317506 -0.5 Z"/><text text-anchor="middle" pointer-events="none" font-size="8px" fill="#000000" x="61.30700933317506" y="3" font-family="sans-serif">WROTE</text></g><g class="relationship" transform="translate(245.63582498809777 34.64052196947114) rotate(217.45808712756798)"><path class="outline" fill="#A5ABB6" stroke="none" d="M 40 0.5 L 60.766905783735524 0.5 L 60.766905783735524 -0.5 L 40 -0.5 Z M 96.54034328373552 0.5 L 117.30724906747105 0.5 L 117.30724906747105 3.5 L 124.30724906747105 0 L 117.30724906747105 -3.5 L 117.30724906747105 -0.5 L 96.54034328373552 -0.5 Z"/><text text-anchor="middle" pointer-events="none" font-size="8px" fill="#000000" x="78.65362453373552" y="3" transform="rotate(180 78.65362453373552 0)" font-family="sans-serif">WROTE</text></g><g class="relationship" transform="translate(-85.41573244365719 -286.65975669731927) rotate(445.1084973277291)"><path class="outline" fill="#A5ABB6" stroke="none" d="M 40 0.5 L 44.254214928939774 0.5 L 44.254214928939774 -0.5 L 40 -0.5 Z M 99.60187117893977 0.5 L 103.85608610787955 0.5 L 103.85608610787955 3.5 L 110.85608610787955 0 L 103.85608610787955 -3.5 L 103.85608610787955 -0.5 L 99.60187117893977 -0.5 Z"/><text text-anchor="middle" pointer-events="none" font-size="8px" fill="#000000" x="71.92804305393977" y="3" font-family="sans-serif">HAS_GENRE</text></g><g class="relationship" transform="translate(115.20898573311379 -65.28801098320727) rotate(202.62955790542264)"><path class="outline" fill="#A5ABB6" stroke="none" d="M 40 0.5 L 74.63383607550568 0.5 L 74.63383607550568 -0.5 L 40 -0.5 Z M 129.98149232550568 0.5 L 164.61532840101137 0.5 L 164.61532840101137 3.5 L 171.61532840101137 0 L 164.61532840101137 -3.5 L 164.61532840101137 -0.5 L 129.98149232550568 -0.5 Z"/><text text-anchor="middle" pointer-events="none" font-size="8px" fill="#000000" x="102.30766420050568" y="3" transform="rotate(180 102.30766420050568 0)" font-family="sans-serif">HAS_GENRE</text></g><g class="relationship" transform="translate(-222.68263573038504 -245.36491757599367) rotate(343.25681662005604)"><path class="outline" fill="#A5ABB6" stroke="none" d="M 40 0.5 L 50.285218708087555 0.5 L 50.285218708087555 -0.5 L 40 -0.5 Z M 86.05865620808756 0.5 L 96.34387491617511 0.5 L 96.34387491617511 3.5 L 103.34387491617511 0 L 96.34387491617511 -3.5 L 96.34387491617511 -0.5 L 86.05865620808756 -0.5 Z"/><text text-anchor="middle" pointer-events="none" font-size="8px" fill="#000000" x="68.17193745808756" y="3" font-family="sans-serif">WROTE</text></g><g class="relationship" transform="translate(-93.06303587384235 76.84468387830174) rotate(315.788189185853)"><path class="outline" fill="#A5ABB6" stroke="none" d="M 40 0.5 L 56.65072531237138 0.5 L 56.65072531237138 -0.5 L 40 -0.5 Z M 92.42416281237138 0.5 L 109.07488812474276 0.5 L 109.07488812474276 3.5 L 116.07488812474276 0 L 109.07488812474276 -3.5 L 109.07488812474276 -0.5 L 92.42416281237138 -0.5 Z"/><text text-anchor="middle" pointer-events="none" font-size="8px" fill="#000000" x="74.53744406237138" y="3" font-family="sans-serif">WROTE</text></g><g class="relationship" transform="translate(18.806274809015534 -31.98834433691053) rotate(415.86012494781284)"><path class="outline" fill="#A5ABB6" stroke="none" d="M 40 0.5 L 40.41339719856707 0.5 L 40.41339719856707 -0.5 L 40 -0.5 Z M 75.31183469856707 0.5 L 75.72523189713414 0.5 L 75.72523189713414 3.5 L 82.72523189713414 0 L 75.72523189713414 -3.5 L 75.72523189713414 -0.5 L 75.31183469856707 -0.5 Z"/><text text-anchor="middle" pointer-events="none" font-size="8px" fill="#000000" x="57.86261594856707" y="3" font-family="sans-serif">HAS_…</text></g><g class="relationship" transform="translate(-74.02460571036545 -35.437011337184096) rotate(214.49936577906112)"><path class="outline" fill="#A5ABB6" stroke="none" d="M 40 0.5 L 52.69145385954181 0.5 L 52.69145385954181 -0.5 L 40 -0.5 Z M 88.46489135954181 0.5 L 101.15634521908362 0.5 L 101.15634521908362 3.5 L 108.15634521908362 0 L 101.15634521908362 -3.5 L 101.15634521908362 -0.5 L 88.46489135954181 -0.5 Z"/><text text-anchor="middle" pointer-events="none" font-size="8px" fill="#000000" x="70.57817260954181" y="3" transform="rotate(180 70.57817260954181 0)" font-family="sans-serif">WROTE</text></g><g class="relationship" transform="translate(-196.125058702604 -119.35233775474876) rotate(454.0205616224923)"><path class="outline" fill="#A5ABB6" stroke="none" d="M 40 0.5 L 49.633134603750136 0.5 L 49.633134603750136 -0.5 L 40 -0.5 Z M 104.98079085375014 0.5 L 114.61392545750027 0.5 L 114.61392545750027 3.5 L 121.61392545750027 0 L 114.61392545750027 -3.5 L 114.61392545750027 -0.5 L 104.98079085375014 -0.5 Z"/><text text-anchor="middle" pointer-events="none" font-size="8px" fill="#000000" x="77.30696272875014" y="3" transform="rotate(180 77.30696272875014 0)" font-family="sans-serif">HAS_GENRE</text></g><g class="relationship" transform="translate(484.12999879961717 -455.48461110085736) rotate(419.25735219917107)"><path class="outline" fill="#A5ABB6" stroke="none" d="M 40 0.5 L 61.584451352950055 0.5 L 61.584451352950055 -0.5 L 40 -0.5 Z M 97.35788885295005 0.5 L 118.94234020590011 0.5 L 118.94234020590011 3.5 L 125.94234020590011 0 L 118.94234020590011 -3.5 L 118.94234020590011 -0.5 L 97.35788885295005 -0.5 Z"/><text text-anchor="middle" pointer-events="none" font-size="8px" fill="#000000" x="79.47117010295005" y="3" font-family="sans-serif">WROTE</text></g><g class="relationship" transform="translate(484.12999879961717 -455.48461110085736) rotate(368.64581358335056)"><path class="outline" fill="#A5ABB6" stroke="none" d="M 40 0.5 L 55.82235476082201 0.5 L 55.82235476082201 -0.5 L 40 -0.5 Z M 91.59579226082201 0.5 L 107.41814702164402 0.5 L 107.41814702164402 3.5 L 114.41814702164402 0 L 107.41814702164402 -3.5 L 107.41814702164402 -0.5 L 91.59579226082201 -0.5 Z"/><text text-anchor="middle" pointer-events="none" font-size="8px" fill="#000000" x="73.70907351082201" y="3" font-family="sans-serif">WROTE</text></g><g class="relationship" transform="translate(312.0997122397729 -110.9678161453644) rotate(347.41972593315666)"><path class="outline" fill="#A5ABB6" stroke="none" d="M 40 0.5 L 57.562826182242404 0.5 L 57.562826182242404 -0.5 L 40 -0.5 Z M 93.3362636822424 0.5 L 110.89908986448481 0.5 L 110.89908986448481 3.5 L 117.89908986448481 0 L 110.89908986448481 -3.5 L 110.89908986448481 -0.5 L 93.3362636822424 -0.5 Z"/><text text-anchor="middle" pointer-events="none" font-size="8px" fill="#000000" x="75.4495449322424" y="3" font-family="sans-serif">WROTE</text></g></g><g class="layer nodes"><g class="node" transform="translate(395.5207085525197,-11.901336118929393)"><circle class="outline" cx="0" cy="0" r="40" fill="#4C8EDA" stroke="#2870c2" stroke-width="2px"/><text text-anchor="middle" pointer-events="none" font-family="sans-serif" dy="2.5" font-size="40" fill="#FFFFFF"/><text text-anchor="middle" pointer-events="none" font-family="sans-serif" dy="2.5" font-size="40" fill="#FFFFFF"/><text text-anchor="middle" pointer-events="none" y="0" font-size="10px" fill="#FFFFFF" font-family="sans-serif"> Arciniegas,</text><text text-anchor="middle" pointer-events="none" y="10" font-size="10px" fill="#FFFFFF" font-family="sans-serif"> Fabio</text></g><g class="node" transform="translate(615.8353327597083,-49.140965606365384)"><circle class="outline" cx="0" cy="0" r="40" fill="#C990C0" stroke="#b261a5" stroke-width="2px"/><text text-anchor="middle" pointer-events="none" font-family="sans-serif" dy="2.5" font-size="40" fill="#FFFFFF"/><text text-anchor="middle" pointer-events="none" font-family="sans-serif" dy="2.5" font-size="40" fill="#FFFFFF"/><text text-anchor="middle" pointer-events="none" font-family="sans-serif" dy="2.5" font-size="40" fill="#FFFFFF"/><text text-anchor="middle" pointer-events="none" y="-5" font-size="10px" fill="#FFFFFF" font-family="sans-serif"> XML</text><text text-anchor="middle" pointer-events="none" y="5" font-size="10px" fill="#FFFFFF" font-family="sans-serif"> Developer's</text><text text-anchor="middle" pointer-events="none" y="15" font-size="10px" fill="#FFFFFF" font-family="sans-serif"> Guide</text></g><g class="node" transform="translate(499.66870503167297,102.22147106520164)"><circle class="outline" cx="0" cy="0" r="40" fill="#4C8EDA" stroke="#2870c2" stroke-width="2px"/><text text-anchor="middle" pointer-events="none" font-family="sans-serif" dy="2.5" font-size="40" fill="#FFFFFF"/><text text-anchor="middle" pointer-events="none" font-family="sans-serif" dy="2.5" font-size="40" fill="#FFFFFF"/><text text-anchor="middle" pointer-events="none" y="0" font-size="10px" fill="#FFFFFF" font-family="sans-serif"> Gambardella,</text><text text-anchor="middle" pointer-events="none" y="10" font-size="10px" fill="#FFFFFF" font-family="sans-serif"> Matthew</text></g><g class="node" transform="translate(568.9568693636161,-312.86181382311054)"><circle class="outline" cx="0" cy="0" r="40" fill="#C990C0" stroke="#b261a5" stroke-width="2px"/><text text-anchor="middle" pointer-events="none" font-family="sans-serif" dy="2.5" font-size="40" fill="#FFFFFF"/><text text-anchor="middle" pointer-events="none" font-family="sans-serif" dy="2.5" font-size="40" fill="#FFFFFF"/><text text-anchor="middle" pointer-events="none" font-family="sans-serif" dy="2.5" font-size="40" fill="#FFFFFF"/><text text-anchor="middle" pointer-events="none" font-family="sans-serif" dy="2.5" font-size="40" fill="#FFFFFF"/><text text-anchor="middle" pointer-events="none" y="-10" font-size="10px" fill="#FFFFFF" font-family="sans-serif"> Microsoft</text><text text-anchor="middle" pointer-events="none" y="0" font-size="10px" fill="#FFFFFF" font-family="sans-serif"> .NET: The</text><text text-anchor="middle" pointer-events="none" y="10" font-size="10px" fill="#FFFFFF" font-family="sans-serif"> Programming</text><text text-anchor="middle" pointer-events="none" y="20" font-size="10px" fill="#FFFFFF" font-family="sans-serif"> Bible</text></g><g class="node" transform="translate(639.571597024578,-163.79787518349806)"><circle class="outline" cx="0" cy="0" r="32.5" fill="#FFC454" stroke="#d7a013" stroke-width="2px"/><text text-anchor="middle" pointer-events="none" font-family="sans-serif" dy="2.03125" font-size="32.5" fill="#604A0E"/><text text-anchor="middle" pointer-events="none" y="5" font-size="10px" fill="#604A0E" font-family="sans-serif"> Computer</text></g><g class="node" transform="translate(636.7934147185972,-432.2715637018927)"><circle class="outline" cx="0" cy="0" r="40" fill="#C990C0" stroke="#b261a5" stroke-width="2px"/><text text-anchor="middle" pointer-events="none" font-family="sans-serif" dy="2.5" font-size="40" fill="#FFFFFF"/><text text-anchor="middle" pointer-events="none" font-family="sans-serif" dy="2.5" font-size="40" fill="#FFFFFF"/><text text-anchor="middle" pointer-events="none" font-family="sans-serif" dy="2.5" font-size="40" fill="#FFFFFF"/><text text-anchor="middle" pointer-events="none" y="-5" font-size="10px" fill="#FFFFFF" font-family="sans-serif"> MSXML3: A</text><text text-anchor="middle" pointer-events="none" y="5" font-size="10px" fill="#FFFFFF" font-family="sans-serif"> Comprehensive</text><text text-anchor="middle" pointer-events="none" y="15" font-size="10px" fill="#FFFFFF" font-family="sans-serif"> Guide</text></g><g class="node" transform="translate(466.20793027961054,-145.35938070149513)"><circle class="outline" cx="0" cy="0" r="40" fill="#C990C0" stroke="#b261a5" stroke-width="2px"/><text text-anchor="middle" pointer-events="none" font-family="sans-serif" dy="2.5" font-size="40" fill="#FFFFFF"/><text text-anchor="middle" pointer-events="none" font-family="sans-serif" dy="2.5" font-size="40" fill="#FFFFFF"/><text text-anchor="middle" pointer-events="none" font-family="sans-serif" dy="2.5" font-size="40" fill="#FFFFFF"/><text text-anchor="middle" pointer-events="none" font-family="sans-serif" dy="2.5" font-size="40" fill="#FFFFFF"/><text text-anchor="middle" pointer-events="none" y="-10" font-size="10px" fill="#FFFFFF" font-family="sans-serif"> Visual Studio</text><text text-anchor="middle" pointer-events="none" y="0" font-size="10px" fill="#FFFFFF" font-family="sans-serif"> 7: A</text><text text-anchor="middle" pointer-events="none" y="10" font-size="10px" fill="#FFFFFF" font-family="sans-serif"> Comprehensive</text><text text-anchor="middle" pointer-events="none" y="20" font-size="10px" fill="#FFFFFF" font-family="sans-serif"> Guide</text></g><g class="node" transform="translate(82.05675288575884,-195.60236290732695)"><circle class="outline" cx="0" cy="0" r="40" fill="#4C8EDA" stroke="#2870c2" stroke-width="2px"/><text text-anchor="middle" pointer-events="none" font-family="sans-serif" dy="2.5" font-size="40" fill="#FFFFFF"/><text text-anchor="middle" pointer-events="none" y="5" font-size="10px" fill="#FFFFFF" font-family="sans-serif"> Ralls, Kim</text></g><g class="node" transform="translate(217.84401261932766,-306.1557540699171)"><circle class="outline" cx="0" cy="0" r="40" fill="#C990C0" stroke="#b261a5" stroke-width="2px"/><text text-anchor="middle" pointer-events="none" font-family="sans-serif" dy="2.5" font-size="40" fill="#FFFFFF"/><text text-anchor="middle" pointer-events="none" y="5" font-size="10px" fill="#FFFFFF" font-family="sans-serif"> Midnight Rain</text></g><g class="node" transform="translate(214.4124183336658,-119.34559137598848)"><circle class="outline" cx="0" cy="0" r="32.5" fill="#FFC454" stroke="#d7a013" stroke-width="2px"/><text text-anchor="middle" pointer-events="none" font-family="sans-serif" dy="2.03125" font-size="32.5" fill="#604A0E"/><text text-anchor="middle" pointer-events="none" y="5" font-size="10px" fill="#604A0E" font-family="sans-serif"> Fantasy</text></g><g class="node" transform="translate(305.4787385806676,-244.25174490044265)"><circle class="outline" cx="0" cy="0" r="40" fill="#C990C0" stroke="#b261a5" stroke-width="2px"/><text text-anchor="middle" pointer-events="none" font-family="sans-serif" dy="2.5" font-size="40" fill="#FFFFFF"/><text text-anchor="middle" pointer-events="none" font-family="sans-serif" dy="2.5" font-size="40" fill="#FFFFFF"/><text text-anchor="middle" pointer-events="none" y="0" font-size="10px" fill="#FFFFFF" font-family="sans-serif"> The Sundered</text><text text-anchor="middle" pointer-events="none" y="10" font-size="10px" fill="#FFFFFF" font-family="sans-serif"> Grail</text></g><g class="node" transform="translate(20.528706457312808,-363.9825518312235)"><circle class="outline" cx="0" cy="0" r="40" fill="#C990C0" stroke="#b261a5" stroke-width="2px"/><text text-anchor="middle" pointer-events="none" font-family="sans-serif" dy="2.5" font-size="40" fill="#FFFFFF"/><text text-anchor="middle" pointer-events="none" font-family="sans-serif" dy="2.5" font-size="40" fill="#FFFFFF"/><text text-anchor="middle" pointer-events="none" y="0" font-size="10px" fill="#FFFFFF" font-family="sans-serif"> Maeve</text><text text-anchor="middle" pointer-events="none" y="10" font-size="10px" fill="#FFFFFF" font-family="sans-serif"> Ascendant</text></g><g class="node" transform="translate(470.91700404475216,-269.0604234338205)"><circle class="outline" cx="0" cy="0" r="40" fill="#C990C0" stroke="#b261a5" stroke-width="2px"/><text text-anchor="middle" pointer-events="none" font-family="sans-serif" dy="2.5" font-size="40" fill="#FFFFFF"/><text text-anchor="middle" pointer-events="none" y="5" font-size="10px" fill="#FFFFFF" font-family="sans-serif"> Oberon's Legacy</text></g><g class="node" transform="translate(301.44119413922033,-373.80286249394044)"><circle class="outline" cx="0" cy="0" r="40" fill="#4C8EDA" stroke="#2870c2" stroke-width="2px"/><text text-anchor="middle" pointer-events="none" font-family="sans-serif" dy="2.5" font-size="40" fill="#FFFFFF"/><text text-anchor="middle" pointer-events="none" y="5" font-size="10px" fill="#FFFFFF" font-family="sans-serif"> Corets, Eva</text></g><g class="node" transform="translate(245.63582498809777,34.64052196947114)"><circle class="outline" cx="0" cy="0" r="40" fill="#4C8EDA" stroke="#2870c2" stroke-width="2px"/><text text-anchor="middle" pointer-events="none" font-family="sans-serif" dy="2.5" font-size="40" fill="#FFFFFF"/><text text-anchor="middle" pointer-events="none" y="5" font-size="10px" fill="#FFFFFF" font-family="sans-serif"> Randall, Cynthia</text></g><g class="node" transform="translate(115.20898573311379,-65.28801098320727)"><circle class="outline" cx="0" cy="0" r="40" fill="#C990C0" stroke="#b261a5" stroke-width="2px"/><text text-anchor="middle" pointer-events="none" font-family="sans-serif" dy="2.5" font-size="40" fill="#FFFFFF"/><text text-anchor="middle" pointer-events="none" y="5" font-size="10px" fill="#FFFFFF" font-family="sans-serif"> Lover Birds</text></g><g class="node" transform="translate(-85.41573244365719,-286.65975669731927)"><circle class="outline" cx="0" cy="0" r="40" fill="#C990C0" stroke="#b261a5" stroke-width="2px"/><text text-anchor="middle" pointer-events="none" font-family="sans-serif" dy="2.5" font-size="40" fill="#FFFFFF"/><text text-anchor="middle" pointer-events="none" y="5" font-size="10px" fill="#FFFFFF" font-family="sans-serif"> Splish Splash</text></g><g class="node" transform="translate(-73.19187970601133,-143.82578017766158)"><circle class="outline" cx="0" cy="0" r="32.5" fill="#FFC454" stroke="#d7a013" stroke-width="2px"/><text text-anchor="middle" pointer-events="none" font-family="sans-serif" dy="2.03125" font-size="32.5" fill="#604A0E"/><text text-anchor="middle" pointer-events="none" y="5" font-size="10px" fill="#604A0E" font-family="sans-serif"> Romance</text></g><g class="node" transform="translate(-222.68263573038504,-245.36491757599367)"><circle class="outline" cx="0" cy="0" r="40" fill="#4C8EDA" stroke="#2870c2" stroke-width="2px"/><text text-anchor="middle" pointer-events="none" font-family="sans-serif" dy="2.5" font-size="40" fill="#FFFFFF"/><text text-anchor="middle" pointer-events="none" y="5" font-size="10px" fill="#FFFFFF" font-family="sans-serif"> Thurman, Paula</text></g><g class="node" transform="translate(-93.06303587384235,76.84468387830174)"><circle class="outline" cx="0" cy="0" r="40" fill="#4C8EDA" stroke="#2870c2" stroke-width="2px"/><text text-anchor="middle" pointer-events="none" font-family="sans-serif" dy="2.5" font-size="40" fill="#FFFFFF"/><text text-anchor="middle" pointer-events="none" y="5" font-size="10px" fill="#FFFFFF" font-family="sans-serif"> Knorr, Stefan</text></g><g class="node" transform="translate(18.806274809015534,-31.98834433691053)"><circle class="outline" cx="0" cy="0" r="40" fill="#C990C0" stroke="#b261a5" stroke-width="2px"/><text text-anchor="middle" pointer-events="none" font-family="sans-serif" dy="2.5" font-size="40" fill="#FFFFFF"/><text text-anchor="middle" pointer-events="none" y="5" font-size="10px" fill="#FFFFFF" font-family="sans-serif"> Creepy Crawlies</text></g><g class="node" transform="translate(83.47242039546666,63.38011837870761)"><circle class="outline" cx="0" cy="0" r="32.5" fill="#FFC454" stroke="#d7a013" stroke-width="2px"/><text text-anchor="middle" pointer-events="none" font-family="sans-serif" dy="2.03125" font-size="32.5" fill="#604A0E"/><text text-anchor="middle" pointer-events="none" y="5" font-size="10px" fill="#604A0E" font-family="sans-serif"> Horror</text></g><g class="node" transform="translate(-74.02460571036545,-35.437011337184096)"><circle class="outline" cx="0" cy="0" r="40" fill="#4C8EDA" stroke="#2870c2" stroke-width="2px"/><text text-anchor="middle" pointer-events="none" font-family="sans-serif" dy="2.5" font-size="40" fill="#FFFFFF"/><text text-anchor="middle" pointer-events="none" y="5" font-size="10px" fill="#FFFFFF" font-family="sans-serif"> Kress, Peter</text></g><g class="node" transform="translate(-196.125058702604,-119.35233775474876)"><circle class="outline" cx="0" cy="0" r="40" fill="#C990C0" stroke="#b261a5" stroke-width="2px"/><text text-anchor="middle" pointer-events="none" font-family="sans-serif" dy="2.5" font-size="40" fill="#FFFFFF"/><text text-anchor="middle" pointer-events="none" y="5" font-size="10px" fill="#FFFFFF" font-family="sans-serif"> Paradox Lost</text></g><g class="node" transform="translate(-206.9306738380066,34.38230603599058)"><circle class="outline" cx="0" cy="0" r="32.5" fill="#FFC454" stroke="#d7a013" stroke-width="2px"/><text text-anchor="middle" pointer-events="none" font-family="sans-serif" dy="2.03125" font-size="32.5" fill="#604A0E"/><text text-anchor="middle" pointer-events="none" font-family="sans-serif" dy="2.03125" font-size="32.5" fill="#604A0E"/><text text-anchor="middle" pointer-events="none" y="0" font-size="10px" fill="#604A0E" font-family="sans-serif"> Science</text><text text-anchor="middle" pointer-events="none" y="10" font-size="10px" fill="#604A0E" font-family="sans-serif"> Fiction</text></g><g class="node" transform="translate(484.12999879961717,-455.48461110085736)"><circle class="outline" cx="0" cy="0" r="40" fill="#4C8EDA" stroke="#2870c2" stroke-width="2px"/><text text-anchor="middle" pointer-events="none" font-family="sans-serif" dy="2.5" font-size="40" fill="#FFFFFF"/><text text-anchor="middle" pointer-events="none" y="5" font-size="10px" fill="#FFFFFF" font-family="sans-serif"> O'Brien, Tim</text></g><g class="node" transform="translate(312.0997122397729,-110.9678161453644)"><circle class="outline" cx="0" cy="0" r="40" fill="#4C8EDA" stroke="#2870c2" stroke-width="2px"/><text text-anchor="middle" pointer-events="none" font-family="sans-serif" dy="2.5" font-size="40" fill="#FFFFFF"/><text text-anchor="middle" pointer-events="none" y="5" font-size="10px" fill="#FFFFFF" font-family="sans-serif"> Galos, Mike</text></g></g></svg>