<svg xmlns="http://www.w3.org/2000/svg" width="456.1828918457031" height="276.29638671875" viewBox="-127.02883911132812 -59.52534484863281 456.1828918457031 276.29638671875"><title>Neo4j Graph Visualization</title><desc>Created using Neo4j (http://www.neo4j.com/)</desc><g class="layer relationships"><g class="relationship" transform="translate(110.57675929625836 156.8614278836803) rotate(365.1139654867989)"><path class="outline" fill="#A5ABB6" stroke="none" d="M 40 0.5 L 66.0261623040365 0.5 L 66.0261623040365 -0.5 L 40 -0.5 Z M 102.2488185540365 0.5 L 128.274980858073 0.5 L 128.274980858073 3.5 L 135.274980858073 0 L 128.274980858073 -3.5 L 128.274980858073 -0.5 L 102.2488185540365 -0.5 Z"/><text text-anchor="middle" pointer-events="none" font-size="8px" fill="#000000" x="84.1374904290365" y="3" font-family="sans-serif">KNOWS</text></g><g class="relationship" transform="translate(110.57675929625836 156.8614278836803) rotate(262.6218595828833)"><path class="outline" fill="#A5ABB6" stroke="none" d="M 40 0.5 L 65.30167699733872 0.5 L 65.30167699733872 -0.5 L 40 -0.5 Z M 101.52433324733872 0.5 L 126.82601024467743 0.5 L 126.82601024467743 3.5 L 133.82601024467743 0 L 126.82601024467743 -3.5 L 126.82601024467743 -0.5 L 101.52433324733872 -0.5 Z"/><text text-anchor="middle" pointer-events="none" font-size="8px" fill="#000000" x="83.41300512233872" y="3" transform="rotate(180 83.41300512233872 0)" font-family="sans-serif">KNOWS</text></g><g class="relationship" transform="translate(110.57675929625836 156.8614278836803) rotate(535.3022584258188)"><path class="outline" fill="#A5ABB6" stroke="none" d="M 40 0.5 L 75.51776316170827 0.5 L 75.51776316170827 -0.5 L 40 -0.5 Z M 111.74041941170827 0.5 L 147.25818257341655 0.5 L 147.25818257341655 3.5 L 154.25818257341655 0 L 147.25818257341655 -3.5 L 147.25818257341655 -0.5 L 111.74041941170827 -0.5 Z"/><text text-anchor="middle" pointer-events="none" font-size="8px" fill="#000000" x="93.62909128670827" y="3" transform="rotate(180 93.62909128670827 0)" font-family="sans-serif">KNOWS</text></g></g><g class="layer nodes"><g class="node" transform="translate(110.57675929625836,156.8614278836803)"><circle class="outline" cx="0" cy="0" r="40" fill="#4C8EDA" stroke="#2870c2" stroke-width="2px"/><text text-anchor="middle" pointer-events="none" font-family="sans-serif" dy="2.5" font-size="40" fill="#FFFFFF"/><text text-anchor="middle" pointer-events="none" y="5" font-size="10px" fill="#FFFFFF" font-family="sans-serif"> Zhen</text></g><g class="node" transform="translate(285.1540350261233,172.4849266447313)"><circle class="outline" cx="0" cy="0" r="40" fill="#4C8EDA" stroke="#2870c2" stroke-width="2px"/><text text-anchor="middle" pointer-events="none" font-family="sans-serif" dy="2.5" font-size="40" fill="#FFFFFF"/><text text-anchor="middle" pointer-events="none" y="5" font-size="10px" fill="#FFFFFF" font-family="sans-serif"> Martin</text></g><g class="node" transform="translate(88.25450227271872,-15.525342719396278)"><circle class="outline" cx="0" cy="0" r="40" fill="#ECB5C9" stroke="#da7298" stroke-width="2px"/><text text-anchor="middle" pointer-events="none" font-family="sans-serif" dy="2.5" font-size="40" fill="#604A0E"/><text text-anchor="middle" pointer-events="none" y="5" font-size="10px" fill="#604A0E" font-family="sans-serif"> Lju</text></g><g class="node" transform="translate(-83.02883541008478,172.77102232005856)"><circle class="outline" cx="0" cy="0" r="40" fill="#FFC454" stroke="#d7a013" stroke-width="2px"/><text text-anchor="middle" pointer-events="none" font-family="sans-serif" dy="2.5" font-size="40" fill="#604A0E"/><text text-anchor="middle" pointer-events="none" y="5" font-size="10px" fill="#604A0E" font-family="sans-serif"> Stefan</text></g></g></svg>