<svg xmlns="http://www.w3.org/2000/svg" width="1063.7166748046875" height="470.77685546875" viewBox="-435.0693359375 -99.78845977783203 1063.7166748046875 470.77685546875"><title>Neo4j Graph Visualization</title><desc>Created using Neo4j (http://www.neo4j.com/)</desc><g class="layer relationships"><g class="relationship" transform="translate(445.55732992526714 232.97521106901695) rotate(211.60829309181588)"><path class="outline" fill="#A5ABB6" stroke="none" d="M 40 0.5 L 136.63457377635189 0.5 L 136.63457377635189 -0.5 L 40 -0.5 Z M 220.49394877635189 0.5 L 317.12852255270377 0.5 L 317.12852255270377 3.5 L 324.12852255270377 0 L 317.12852255270377 -3.5 L 317.12852255270377 -0.5 L 220.49394877635189 -0.5 Z"/><text text-anchor="middle" pointer-events="none" font-size="8px" fill="#000000" x="178.56426127635189" y="3" transform="rotate(180 178.56426127635189 0)" font-family="sans-serif">0.8339868065025469</text></g><g class="relationship" transform="translate(445.55732992526714 232.97521106901695) rotate(219.5760823825442)"><path class="outline" fill="#A5ABB6" stroke="none" d="M 40 0.5 L 212.33753522405414 0.5 L 212.33753522405414 -0.5 L 40 -0.5 Z M 233.90784772405414 0.5 L 406.2453829481083 0.5 L 406.2453829481083 3.5 L 413.2453829481083 0 L 406.2453829481083 -3.5 L 406.2453829481083 -0.5 L 233.90784772405414 -0.5 Z"/><text text-anchor="middle" pointer-events="none" font-size="8px" fill="#000000" x="223.12269147405414" y="3" transform="rotate(180 223.12269147405414 0)" font-family="sans-serif">0.94</text></g><g class="relationship" transform="translate(445.55732992526714 232.97521106901695) rotate(282.33005067105603)"><path class="outline" fill="#A5ABB6" stroke="none" d="M 40 0.5 L 126.84126816010118 0.5 L 126.84126816010118 -0.5 L 40 -0.5 Z M 143.96236191010118 0.5 L 230.80363007020236 0.5 L 230.80363007020236 3.5 L 237.80363007020236 0 L 230.80363007020236 -3.5 L 230.80363007020236 -0.5 L 143.96236191010118 -0.5 Z"/><text text-anchor="middle" pointer-events="none" font-size="8px" fill="#000000" x="135.40181503510118" y="3" font-family="sans-serif">0.8</text></g><g class="relationship" transform="translate(445.55732992526714 232.97521106901695) rotate(199.0232334901716)"><path class="outline" fill="#A5ABB6" stroke="none" d="M 40 0.5 L 90.61786847704045 0.5 L 90.61786847704045 -0.5 L 40 -0.5 Z M 174.47724347704045 0.5 L 225.0951119540809 0.5 L 225.0951119540809 3.5 L 232.0951119540809 0 L 225.0951119540809 -3.5 L 225.0951119540809 -0.5 L 174.47724347704045 -0.5 Z"/><text text-anchor="middle" pointer-events="none" font-size="8px" fill="#000000" x="132.54755597704045" y="3" transform="rotate(180 132.54755597704045 0)" font-family="sans-serif">0.7802000593632747</text></g><g class="relationship" transform="translate(445.55732992526714 232.97521106901695) rotate(527.6158067518343)"><path class="outline" fill="#A5ABB6" stroke="none" d="M 40 0.5 L 204.89464837408116 0.5 L 204.89464837408116 -0.5 L 40 -0.5 Z M 226.46496087408116 0.5 L 391.3596092481623 0.5 L 391.3596092481623 3.5 L 398.3596092481623 0 L 391.3596092481623 -3.5 L 391.3596092481623 -0.5 L 226.46496087408116 -0.5 Z"/><text text-anchor="middle" pointer-events="none" font-size="8px" fill="#000000" x="215.67980462408116" y="3" transform="rotate(180 215.67980462408116 0)" font-family="sans-serif">0.72</text></g><g class="relationship" transform="translate(445.55732992526714 232.97521106901695) rotate(180.51632988675647)"><path class="outline" fill="#A5ABB6" stroke="none" d="M 40 0.5 L 179.60529794856234 0.5 L 179.60529794856234 -0.5 L 40 -0.5 Z M 196.72639169856234 0.5 L 336.3316896471247 0.5 L 336.3316896471247 3.5 L 343.3316896471247 0 L 336.3316896471247 -3.5 L 336.3316896471247 -0.5 L 196.72639169856234 -0.5 Z"/><text text-anchor="middle" pointer-events="none" font-size="8px" fill="#000000" x="188.16584482356234" y="3" transform="rotate(180 188.16584482356234 0)" font-family="sans-serif">0.8</text></g><g class="relationship" transform="translate(445.55732992526714 232.97521106901695) rotate(332.3728938705408)"><path class="outline" fill="#A5ABB6" stroke="none" d="M 40 0.5 L 40.18793409116451 0.5 L 40.18793409116451 -0.5 L 40 -0.5 Z M 109.80121534116451 0.5 L 109.98914943232901 0.5 L 109.98914943232901 3.5 L 116.98914943232901 0 L 109.98914943232901 -3.5 L 109.98914943232901 -0.5 L 109.80121534116451 -0.5 Z"/><text text-anchor="middle" pointer-events="none" font-size="8px" fill="#000000" x="74.99457471616451" y="3" font-family="sans-serif">0.81503882538…</text></g><g class="relationship" transform="translate(-219.720612111238 201.41379928009098) rotate(335.8452335894501)"><path class="outline" fill="#A5ABB6" stroke="none" d="M 40 0.5 L 149.19469678790858 0.5 L 149.19469678790858 -0.5 L 40 -0.5 Z M 233.05407178790858 0.5 L 342.24876857581717 0.5 L 342.24876857581717 3.5 L 349.24876857581717 0 L 342.24876857581717 -3.5 L 342.24876857581717 -0.5 L 233.05407178790858 -0.5 Z"/><text text-anchor="middle" pointer-events="none" font-size="8px" fill="#000000" x="191.12438428790858" y="3" font-family="sans-serif">0.9355623498560008</text></g><g class="relationship" transform="translate(-219.720612111238 201.41379928009098) rotate(320.85019400305714)"><path class="outline" fill="#A5ABB6" stroke="none" d="M 40 0.5 L 189.40708310904395 0.5 L 189.40708310904395 -0.5 L 40 -0.5 Z M 210.97739560904395 0.5 L 360.3844787180879 0.5 L 360.3844787180879 3.5 L 367.3844787180879 0 L 360.3844787180879 -3.5 L 360.3844787180879 -0.5 L 210.97739560904395 -0.5 Z"/><text text-anchor="middle" pointer-events="none" font-size="8px" fill="#000000" x="200.19223935904395" y="3" font-family="sans-serif">0.85</text></g><g class="relationship" transform="translate(-219.720612111238 201.41379928009098) rotate(268.92342235080366)"><path class="outline" fill="#A5ABB6" stroke="none" d="M 40 0.5 L 100.41199441933671 0.5 L 100.41199441933671 -0.5 L 40 -0.5 Z M 121.98230691933671 0.5 L 182.39430133867342 0.5 L 182.39430133867342 3.5 L 189.39430133867342 0 L 182.39430133867342 -3.5 L 182.39430133867342 -0.5 L 121.98230691933671 -0.5 Z"/><text text-anchor="middle" pointer-events="none" font-size="8px" fill="#000000" x="111.19715066933671" y="3" transform="rotate(180 111.19715066933671 0)" font-family="sans-serif">0.98</text></g><g class="relationship" transform="translate(-219.720612111238 201.41379928009098) rotate(520.2107016296455)"><path class="outline" fill="#A5ABB6" stroke="none" d="M 40 0.5 L 78.99094288954088 0.5 L 78.99094288954088 -0.5 L 40 -0.5 Z M 96.11203663954088 0.5 L 135.10297952908175 0.5 L 135.10297952908175 3.5 L 142.10297952908175 0 L 135.10297952908175 -3.5 L 135.10297952908175 -0.5 L 96.11203663954088 -0.5 Z"/><text text-anchor="middle" pointer-events="none" font-size="8px" fill="#000000" x="87.55148976454088" y="3" transform="rotate(180 87.55148976454088 0)" font-family="sans-serif">0.8</text></g><g class="relationship" transform="translate(-219.720612111238 201.41379928009098) rotate(292.4852350401964)"><path class="outline" fill="#A5ABB6" stroke="none" d="M 40 0.5 L 122.73611496324321 0.5 L 122.73611496324321 -0.5 L 40 -0.5 Z M 139.8572087132432 0.5 L 222.59332367648642 0.5 L 222.59332367648642 3.5 L 229.59332367648642 0 L 222.59332367648642 -3.5 L 222.59332367648642 -0.5 L 139.8572087132432 -0.5 Z"/><text text-anchor="middle" pointer-events="none" font-size="8px" fill="#000000" x="131.2966618382432" y="3" font-family="sans-serif">0.8</text></g><g class="relationship" transform="translate(-219.720612111238 201.41379928009098) rotate(224.52858902497815)"><path class="outline" fill="#A5ABB6" stroke="none" d="M 40 0.5 L 65.42333361720587 0.5 L 65.42333361720587 -0.5 L 40 -0.5 Z M 149.28270861720586 0.5 L 174.70604223441174 0.5 L 174.70604223441174 3.5 L 181.70604223441174 0 L 174.70604223441174 -3.5 L 174.70604223441174 -0.5 L 149.28270861720586 -0.5 Z"/><text text-anchor="middle" pointer-events="none" font-size="8px" fill="#000000" x="107.35302111720587" y="3" transform="rotate(180 107.35302111720587 0)" font-family="sans-serif">0.9023679924293266</text></g><g class="relationship" transform="translate(-219.720612111238 201.41379928009098) rotate(352.0300588521502)"><path class="outline" fill="#A5ABB6" stroke="none" d="M 40 0.5 L 160.5816379626496 0.5 L 160.5816379626496 -0.5 L 40 -0.5 Z M 244.4410129626496 0.5 L 365.0226509252992 0.5 L 365.0226509252992 3.5 L 372.0226509252992 0 L 365.0226509252992 -3.5 L 365.0226509252992 -0.5 L 244.4410129626496 -0.5 Z"/><text text-anchor="middle" pointer-events="none" font-size="8px" fill="#000000" x="202.5113254626496" y="3" font-family="sans-serif">0.8863202650046607</text></g><g class="relationship" transform="translate(-219.720612111238 201.41379928009098) rotate(387.90507757495084)"><path class="outline" fill="#A5ABB6" stroke="none" d="M 40 0.5 L 119.87339810689812 0.5 L 119.87339810689812 -0.5 L 40 -0.5 Z M 141.44371060689812 0.5 L 221.31710871379624 0.5 L 221.31710871379624 3.5 L 228.31710871379624 0 L 221.31710871379624 -3.5 L 221.31710871379624 -0.5 L 141.44371060689812 -0.5 Z"/><text text-anchor="middle" pointer-events="none" font-size="8px" fill="#000000" x="130.65855435689812" y="3" font-family="sans-serif">0.92</text></g><g class="relationship" transform="translate(-219.720612111238 201.41379928009098) rotate(365.69265092065456)"><path class="outline" fill="#A5ABB6" stroke="none" d="M 40 0.5 L 129.61908313162485 0.5 L 129.61908313162485 -0.5 L 40 -0.5 Z M 146.74017688162485 0.5 L 236.3592600132497 0.5 L 236.3592600132497 3.5 L 243.3592600132497 0 L 236.3592600132497 -3.5 L 236.3592600132497 -0.5 L 146.74017688162485 -0.5 Z"/><text text-anchor="middle" pointer-events="none" font-size="8px" fill="#000000" x="138.17963000662485" y="3" font-family="sans-serif">0.8</text></g></g><g class="layer nodes"><g class="node" transform="translate(445.55732992526714,232.97521106901695)"><circle class="outline" cx="0" cy="0" r="40" fill="#DA7194" stroke="#cc3c6c" stroke-width="2px"/><text text-anchor="middle" pointer-events="none" font-family="sans-serif" dy="2.5" font-size="40" fill="#FFFFFF"/><text text-anchor="middle" pointer-events="none" y="5" font-size="10px" fill="#FFFFFF" font-family="sans-serif"> https://neo4j.co…</text></g><g class="node" transform="translate(135.44687949480544,42.13210935918033)"><circle class="outline" cx="0" cy="0" r="40" fill="#4C8EDA" stroke="#2870c2" stroke-width="2px"/><text text-anchor="middle" pointer-events="none" font-family="sans-serif" dy="2.5" font-size="40" fill="#FFFFFF"/><text text-anchor="middle" pointer-events="none" y="5" font-size="10px" fill="#FFFFFF" font-family="sans-serif"> Nintendo Switch</text></g><g class="node" transform="translate(96.20518785571107,-55.788460460470986)"><circle class="outline" cx="0" cy="0" r="40" fill="#F16667" stroke="#eb2728" stroke-width="2px"/><text text-anchor="middle" pointer-events="none" font-family="sans-serif" dy="2.5" font-size="40" fill="#FFFFFF"/><text text-anchor="middle" pointer-events="none" y="5" font-size="10px" fill="#FFFFFF" font-family="sans-serif"> Nintendo Switch</text></g><g class="node" transform="translate(504.88029518894814,-38.420519686840606)"><circle class="outline" cx="0" cy="0" r="40" fill="#FFC454" stroke="#d7a013" stroke-width="2px"/><text text-anchor="middle" pointer-events="none" font-family="sans-serif" dy="2.5" font-size="40" fill="#604A0E"/><text text-anchor="middle" pointer-events="none" y="5" font-size="10px" fill="#604A0E" font-family="sans-serif"> a week</text></g><g class="node" transform="translate(188.3222898949731,144.28539130419364)"><circle class="outline" cx="0" cy="0" r="40" fill="#4C8EDA" stroke="#2870c2" stroke-width="2px"/><text text-anchor="middle" pointer-events="none" font-family="sans-serif" dy="2.5" font-size="40" fill="#FFFFFF"/><text text-anchor="middle" pointer-events="none" y="5" font-size="10px" fill="#FFFFFF" font-family="sans-serif"> Mario Kart 8</text></g><g class="node" transform="translate(17.39769899550592,326.9883881363422)"><circle class="outline" cx="0" cy="0" r="40" fill="#F16667" stroke="#eb2728" stroke-width="2px"/><text text-anchor="middle" pointer-events="none" font-family="sans-serif" dy="2.5" font-size="40" fill="#FFFFFF"/><text text-anchor="middle" pointer-events="none" y="5" font-size="10px" fill="#FFFFFF" font-family="sans-serif"> Mario Kart</text></g><g class="node" transform="translate(62.241205347205124,229.5208042928636)"><circle class="outline" cx="0" cy="0" r="40" fill="#57C7E3" stroke="#23b3d7" stroke-width="2px"/><text text-anchor="middle" pointer-events="none" font-family="sans-serif" dy="2.5" font-size="40" fill="#FFFFFF"/><text text-anchor="middle" pointer-events="none" y="5" font-size="10px" fill="#FFFFFF" font-family="sans-serif"> 8</text></g><g class="node" transform="translate(584.6472514021111,160.17695021718407)"><circle class="outline" cx="0" cy="0" r="40" fill="#4C8EDA" stroke="#2870c2" stroke-width="2px"/><text text-anchor="middle" pointer-events="none" font-family="sans-serif" dy="2.5" font-size="40" fill="#FFFFFF"/><text text-anchor="middle" pointer-events="none" y="5" font-size="10px" fill="#FFFFFF" font-family="sans-serif"> Neo4j</text></g><g class="node" transform="translate(-219.720612111238,201.41379928009098)"><circle class="outline" cx="0" cy="0" r="40" fill="#DA7194" stroke="#cc3c6c" stroke-width="2px"/><text text-anchor="middle" pointer-events="none" font-family="sans-serif" dy="2.5" font-size="40" fill="#FFFFFF"/><text text-anchor="middle" pointer-events="none" y="5" font-size="10px" fill="#FFFFFF" font-family="sans-serif"> https://en.wikip…</text></g><g class="node" transform="translate(-224.0306371800391,-27.94000855959679)"><circle class="outline" cx="0" cy="0" r="40" fill="#F16667" stroke="#eb2728" stroke-width="2px"/><text text-anchor="middle" pointer-events="none" font-family="sans-serif" dy="2.5" font-size="40" fill="#FFFFFF"/><text text-anchor="middle" pointer-events="none" y="5" font-size="10px" fill="#FFFFFF" font-family="sans-serif"> Nintendo</text></g><g class="node" transform="translate(-391.0693220075843,263.06698062726025)"><circle class="outline" cx="0" cy="0" r="40" fill="#FFC454" stroke="#d7a013" stroke-width="2px"/><text text-anchor="middle" pointer-events="none" font-family="sans-serif" dy="2.5" font-size="40" fill="#604A0E"/><text text-anchor="middle" pointer-events="none" y="5" font-size="10px" fill="#604A0E" font-family="sans-serif"> March 3, 2017</text></g><g class="node" transform="translate(-116.61590217313284,-47.68453262824187)"><circle class="outline" cx="0" cy="0" r="40" fill="#FFC454" stroke="#d7a013" stroke-width="2px"/><text text-anchor="middle" pointer-events="none" font-family="sans-serif" dy="2.5" font-size="40" fill="#604A0E"/><text text-anchor="middle" pointer-events="none" font-family="sans-serif" dy="2.5" font-size="40" fill="#604A0E"/><text text-anchor="middle" pointer-events="none" y="0" font-size="10px" fill="#604A0E" font-family="sans-serif"> October 20,</text><text text-anchor="middle" pointer-events="none" y="10" font-size="10px" fill="#604A0E" font-family="sans-serif"> 2016</text></g><g class="node" transform="translate(-377.77498837473377,45.93909616989344)"><circle class="outline" cx="0" cy="0" r="40" fill="#4C8EDA" stroke="#2870c2" stroke-width="2px"/><text text-anchor="middle" pointer-events="none" font-family="sans-serif" dy="2.5" font-size="40" fill="#FFFFFF"/><text text-anchor="middle" pointer-events="none" y="5" font-size="10px" fill="#FFFFFF" font-family="sans-serif"> Joy-Con</text></g></g></svg>