<svg xmlns="http://www.w3.org/2000/svg" width="388.1467590332031" height="240.8957977294922" viewBox="-113.19699096679688 -10.84909439086914 388.1467590332031 240.8957977294922"><title>Neo4j Graph Visualization</title><desc>Created using Neo4j (http://www.neo4j.com/)</desc><g class="layer relationships"><g class="relationship" transform="translate(230.94977311265365 142.1968388093625) rotate(523.9929562649602)"><path class="outline" fill="#A5ABB6" stroke="none" d="M 40 0.5 L 53.22733359568147 0.5 L 53.22733359568147 -0.5 L 40 -0.5 Z M 98.78983359568147 0.5 L 112.01716719136294 0.5 L 112.01716719136294 3.5 L 119.01716719136294 0 L 112.01716719136294 -3.5 L 112.01716719136294 -0.5 L 98.78983359568147 -0.5 Z"/><text text-anchor="middle" pointer-events="none" font-size="8px" fill="#000000" x="76.00858359568147" y="3" transform="rotate(180 76.00858359568147 0)" font-family="sans-serif">CHILD_OF</text></g><g class="relationship" transform="translate(74.33725280686642 33.15090403925945) rotate(448.59097228047096)"><path class="outline" fill="#A5ABB6" stroke="none" d="M 40 0.5 L 50.18977153010289 0.5 L 50.18977153010289 -0.5 L 40 -0.5 Z M 95.75227153010289 0.5 L 105.94204306020578 0.5 L 105.94204306020578 3.5 L 112.94204306020578 0 L 105.94204306020578 -3.5 L 105.94204306020578 -0.5 L 95.75227153010289 -0.5 Z"/><text text-anchor="middle" pointer-events="none" font-size="8px" fill="#000000" x="72.97102153010289" y="3" font-family="sans-serif">CHILD_OF</text></g><g class="relationship" transform="translate(-69.19698833052396 130.13289208402114) rotate(380.7869701808972)"><path class="outline" fill="#A5ABB6" stroke="none" d="M 40 0.5 L 52.49403590762826 0.5 L 52.49403590762826 -0.5 L 40 -0.5 Z M 98.05653590762826 0.5 L 110.55057181525652 0.5 L 110.55057181525652 3.5 L 117.55057181525652 0 L 110.55057181525652 -3.5 L 110.55057181525652 -0.5 L 98.05653590762826 -0.5 Z"/><text text-anchor="middle" pointer-events="none" font-size="8px" fill="#000000" x="75.27528590762826" y="3" font-family="sans-serif">CHILD_OF</text></g></g><g class="layer nodes"><g class="node" transform="translate(230.94977311265365,142.1968388093625)"><circle class="outline" cx="0" cy="0" r="40" fill="#C990C0" stroke="#b261a5" stroke-width="2px"/><text text-anchor="middle" pointer-events="none" font-family="sans-serif" dy="2.5" font-size="40" fill="#FFFFFF"/><text text-anchor="middle" pointer-events="none" y="5" font-size="10px" fill="#FFFFFF" font-family="sans-serif"> Rana</text></g><g class="node" transform="translate(78.09805088279357,186.04670167039757)"><circle class="outline" cx="0" cy="0" r="40" fill="#C990C0" stroke="#b261a5" stroke-width="2px"/><text text-anchor="middle" pointer-events="none" font-family="sans-serif" dy="2.5" font-size="40" fill="#FFFFFF"/><text text-anchor="middle" pointer-events="none" y="5" font-size="10px" fill="#FFFFFF" font-family="sans-serif"> Michael</text></g><g class="node" transform="translate(74.33725280686642,33.15090403925945)"><circle class="outline" cx="0" cy="0" r="40" fill="#C990C0" stroke="#b261a5" stroke-width="2px"/><text text-anchor="middle" pointer-events="none" font-family="sans-serif" dy="2.5" font-size="40" fill="#FFFFFF"/><text text-anchor="middle" pointer-events="none" y="5" font-size="10px" fill="#FFFFFF" font-family="sans-serif"> Selma</text></g><g class="node" transform="translate(-69.19698833052396,130.13289208402114)"><circle class="outline" cx="0" cy="0" r="40" fill="#C990C0" stroke="#b261a5" stroke-width="2px"/><text text-anchor="middle" pointer-events="none" font-family="sans-serif" dy="2.5" font-size="40" fill="#FFFFFF"/><text text-anchor="middle" pointer-events="none" y="5" font-size="10px" fill="#FFFFFF" font-family="sans-serif"> Selina</text></g></g></svg>