<svg xmlns="http://www.w3.org/2000/svg" width="501.74176025390625" height="199.0439910888672" viewBox="-221.71795654296875 -46.56942367553711 501.74176025390625 199.0439910888672"><title>Neo4j Graph Visualization</title><desc>Created using Neo4j (http://www.neo4j.com/)</desc><g class="layer relationships"><g class="relationship" transform="translate(-177.7179560651665 97.55535902833697) rotate(362.8337200601926)"><path class="outline" fill="#A5ABB6" stroke="none" d="M 40 0.5 L 84.37566145267677 0.5 L 84.37566145267677 -0.5 L 40 -0.5 Z M 129.49284895267675 0.5 L 173.86851040535353 0.5 L 173.86851040535353 3.5 L 180.86851040535353 0 L 173.86851040535353 -3.5 L 173.86851040535353 -0.5 L 129.49284895267675 -0.5 Z"/><text text-anchor="middle" pointer-events="none" font-size="8px" fill="#000000" x="106.93425520267677" y="3" font-family="sans-serif">FOLLOWS</text></g><g class="relationship" transform="translate(42.88047963982487 108.47456473161705) rotate(359.3111523811708)"><path class="outline" fill="#A5ABB6" stroke="none" d="M 40 0.5 L 70.52004762111861 0.5 L 70.52004762111861 -0.5 L 40 -0.5 Z M 115.63723512111861 0.5 L 146.15728274223721 0.5 L 146.15728274223721 3.5 L 153.15728274223721 0 L 146.15728274223721 -3.5 L 146.15728274223721 -0.5 L 115.63723512111861 -0.5 Z"/><text text-anchor="middle" pointer-events="none" font-size="8px" fill="#000000" x="93.07864137111861" y="3" font-family="sans-serif">FOLLOWS</text></g><g class="relationship" transform="translate(42.88047963982487 108.47456473161705) rotate(323.33641529704755)"><path class="outline" fill="#A5ABB6" stroke="none" d="M 40 0.5 L 66.92509075448294 0.5 L 66.92509075448294 -0.5 L 40 -0.5 Z M 112.04227825448294 0.5 L 138.96736900896587 0.5 L 138.96736900896587 3.5 L 145.96736900896587 0 L 138.96736900896587 -3.5 L 138.96736900896587 -0.5 L 112.04227825448294 -0.5 Z"/><text text-anchor="middle" pointer-events="none" font-size="8px" fill="#000000" x="89.48368450448294" y="3" font-family="sans-serif">FOLLOWS</text></g></g><g class="layer nodes"><g class="node" transform="translate(-177.7179560651665,97.55535902833697)"><circle class="outline" cx="0" cy="0" r="40" fill="#DA7194" stroke="#cc3c6c" stroke-width="2px"/><text text-anchor="middle" pointer-events="none" font-family="sans-serif" dy="2.5" font-size="40" fill="#FFFFFF"/><text text-anchor="middle" pointer-events="none" y="5" font-size="10px" fill="#FFFFFF" font-family="sans-serif"> Alicia</text></g><g class="node" transform="translate(42.88047963982487,108.47456473161705)"><circle class="outline" cx="0" cy="0" r="40" fill="#FFC454" stroke="#d7a013" stroke-width="2px"/><text text-anchor="middle" pointer-events="none" font-family="sans-serif" dy="2.5" font-size="40" fill="#604A0E"/><text text-anchor="middle" pointer-events="none" y="5" font-size="10px" fill="#604A0E" font-family="sans-serif"> Joe</text></g><g class="node" transform="translate(236.023802655275,106.15235653378943)"><circle class="outline" cx="0" cy="0" r="40" fill="#ECB5C9" stroke="#da7298" stroke-width="2px"/><text text-anchor="middle" pointer-events="none" font-family="sans-serif" dy="2.5" font-size="40" fill="#604A0E"/><text text-anchor="middle" pointer-events="none" y="5" font-size="10px" fill="#604A0E" font-family="sans-serif"> Mark</text></g><g class="node" transform="translate(192.0551927354834,-2.5694234394894693)"><circle class="outline" cx="0" cy="0" r="40" fill="#4C8EDA" stroke="#2870c2" stroke-width="2px"/><text text-anchor="middle" pointer-events="none" font-family="sans-serif" dy="2.5" font-size="40" fill="#FFFFFF"/><text text-anchor="middle" pointer-events="none" y="5" font-size="10px" fill="#FFFFFF" font-family="sans-serif"> Zhen</text></g></g></svg>