<svg xmlns="http://www.w3.org/2000/svg" width="959.8603515625" height="658.652099609375" viewBox="-343.091064453125 -292.79705810546875 959.8603515625 658.652099609375"><title>Neo4j Graph Visualization</title><desc>Created using Neo4j (http://www.neo4j.com/)</desc><g class="layer relationships"><g class="relationship" transform="translate(459.10755508490126 -113.56746563066596) rotate(412.47405008353235)"><path class="outline" fill="#A5ABB6" stroke="none" d="M 25 0.5 L 58.18455073463316 0.5 L 58.18455073463316 -0.5 L 25 -0.5 Z M 106.41501948463316 0.5 L 139.59957021926633 0.5 L 139.59957021926633 3.5 L 146.59957021926633 0 L 139.59957021926633 -3.5 L 139.59957021926633 -0.5 L 106.41501948463316 -0.5 Z"/><text text-anchor="middle" pointer-events="none" font-size="8px" fill="#000000" x="82.29978510963316" y="3" font-family="sans-serif">QUALIFIED</text></g><g class="relationship" transform="translate(459.10755508490126 -113.56746563066596) rotate(191.55665816230106)"><path class="outline" fill="#A5ABB6" stroke="none" d="M 25 0.5 L 63.35390987091503 0.5 L 63.35390987091503 -0.5 L 25 -0.5 Z M 86.24062862091503 0.5 L 124.59453849183006 0.5 L 124.59453849183006 3.5 L 131.59453849183006 0 L 124.59453849183006 -3.5 L 124.59453849183006 -0.5 L 86.24062862091503 -0.5 Z"/><text text-anchor="middle" pointer-events="none" font-size="8px" fill="#000000" x="74.79726924591503" y="3" transform="rotate(180 74.79726924591503 0)" font-family="sans-serif">FOR</text></g><g class="relationship" transform="translate(369.07774594701425 4.309348747958666) rotate(414.6583897448155)"><path class="outline" fill="#A5ABB6" stroke="none" d="M 25 0.5 L 67.0527223961234 0.5 L 67.0527223961234 -0.5 L 25 -0.5 Z M 115.2831911461234 0.5 L 157.3359135422468 0.5 L 157.3359135422468 3.5 L 164.3359135422468 0 L 157.3359135422468 -3.5 L 157.3359135422468 -0.5 L 115.2831911461234 -0.5 Z"/><text text-anchor="middle" pointer-events="none" font-size="8px" fill="#000000" x="91.1679567711234" y="3" font-family="sans-serif">QUALIFIED</text></g><g class="relationship" transform="translate(369.07774594701425 4.309348747958666) rotate(242.84815048072562)"><path class="outline" fill="#A5ABB6" stroke="none" d="M 25 0.5 L 63.11153557703618 0.5 L 63.11153557703618 -0.5 L 25 -0.5 Z M 85.99825432703618 0.5 L 124.10978990407236 0.5 L 124.10978990407236 3.5 L 131.10978990407236 0 L 124.10978990407236 -3.5 L 124.10978990407236 -0.5 L 85.99825432703618 -0.5 Z"/><text text-anchor="middle" pointer-events="none" font-size="8px" fill="#000000" x="74.55489495203618" y="3" transform="rotate(180 74.55489495203618 0)" font-family="sans-serif">FOR</text></g><g class="relationship" transform="translate(21.640899236666684 -184.36073183623074) rotate(537.1594698874662)"><path class="outline" fill="#A5ABB6" stroke="none" d="M 25 0.5 L 38.561755275406 0.5 L 38.561755275406 -0.5 L 25 -0.5 Z M 86.792224025406 0.5 L 100.353979300812 0.5 L 100.353979300812 3.5 L 107.353979300812 0 L 100.353979300812 -3.5 L 100.353979300812 -0.5 L 86.792224025406 -0.5 Z"/><text text-anchor="middle" pointer-events="none" font-size="8px" fill="#000000" x="62.676989650406" y="3" transform="rotate(180 62.676989650406 0)" font-family="sans-serif">QUALIFIED</text></g><g class="relationship" transform="translate(21.640899236666684 -184.36073183623074) rotate(367.6997688250023)"><path class="outline" fill="#A5ABB6" stroke="none" d="M 25 0.5 L 113.45737713127886 0.5 L 113.45737713127886 -0.5 L 25 -0.5 Z M 136.34409588127886 0.5 L 224.80147301255772 0.5 L 224.80147301255772 3.5 L 231.80147301255772 0 L 224.80147301255772 -3.5 L 224.80147301255772 -0.5 L 136.34409588127886 -0.5 Z"/><text text-anchor="middle" pointer-events="none" font-size="8px" fill="#000000" x="124.90073650627886" y="3" font-family="sans-serif">FOR</text></g><g class="relationship" transform="translate(-180.80666698908652 -104.3099662815957) rotate(313.71056188846876)"><path class="outline" fill="#A5ABB6" stroke="none" d="M 25 0.5 L 25.888199469726743 0.5 L 25.888199469726743 -0.5 L 25 -0.5 Z M 68.78273071972674 0.5 L 69.67093018945349 0.5 L 69.67093018945349 3.5 L 76.67093018945349 0 L 69.67093018945349 -3.5 L 69.67093018945349 -0.5 L 68.78273071972674 -0.5 Z"/><text text-anchor="middle" pointer-events="none" font-size="8px" fill="#000000" x="47.33546509472674" y="3" font-family="sans-serif">QUALIF…</text></g><g class="relationship" transform="translate(-180.80666698908652 -104.3099662815957) rotate(357.62840499705976)"><path class="outline" fill="#A5ABB6" stroke="none" d="M 25 0.5 L 33.14168724625042 0.5 L 33.14168724625042 -0.5 L 25 -0.5 Z M 56.02840599625042 0.5 L 64.17009324250084 0.5 L 64.17009324250084 3.5 L 71.17009324250084 0 L 64.17009324250084 -3.5 L 64.17009324250084 -0.5 L 56.02840599625042 -0.5 Z"/><text text-anchor="middle" pointer-events="none" font-size="8px" fill="#000000" x="44.58504662125042" y="3" font-family="sans-serif">FOR</text></g><g class="relationship" transform="translate(99.30854663431933 181.75274154845863) rotate(320.62111863869984)"><path class="outline" fill="#A5ABB6" stroke="none" d="M 25 0.5 L 212.23486966107538 0.5 L 212.23486966107538 -0.5 L 25 -0.5 Z M 246.24268216107538 0.5 L 433.47755182215076 0.5 L 433.47755182215076 3.5 L 440.47755182215076 0 L 433.47755182215076 -3.5 L 433.47755182215076 -0.5 L 246.24268216107538 -0.5 Z"/><text text-anchor="middle" pointer-events="none" font-size="8px" fill="#000000" x="229.23877591107538" y="3" font-family="sans-serif">SCOPE</text></g><g class="relationship" transform="translate(99.30854663431933 181.75274154845863) rotate(428.71510301783815)"><path class="outline" fill="#A5ABB6" stroke="none" d="M 25 0.5 L 46.809770017389596 0.5 L 46.809770017389596 -0.5 L 25 -0.5 Z M 101.5753950173896 0.5 L 123.38516503477919 0.5 L 123.38516503477919 3.5 L 130.3851650347792 0 L 123.38516503477919 -3.5 L 123.38516503477919 -0.5 L 101.5753950173896 -0.5 Z"/><text text-anchor="middle" pointer-events="none" font-size="8px" fill="#000000" x="74.1925825173896" y="3" font-family="sans-serif">APPLIES_TO</text></g><g class="relationship" transform="translate(194.64945547790555 218.4490543037482) rotate(309.16466571364833)"><path class="outline" fill="#A5ABB6" stroke="none" d="M 25 0.5 L 117.59120772176223 0.5 L 117.59120772176223 -0.5 L 25 -0.5 Z M 151.59902022176223 0.5 L 244.19022794352446 0.5 L 244.19022794352446 3.5 L 251.19022794352446 0 L 244.19022794352446 -3.5 L 244.19022794352446 -0.5 L 151.59902022176223 -0.5 Z"/><text text-anchor="middle" pointer-events="none" font-size="8px" fill="#000000" x="134.59511397176223" y="3" font-family="sans-serif">SCOPE</text></g><g class="relationship" transform="translate(194.64945547790555 218.4490543037482) rotate(469.8096590321065)"><path class="outline" fill="#A5ABB6" stroke="none" d="M 25 0.5 L 26.56129818409012 0.5 L 26.56129818409012 -0.5 L 25 -0.5 Z M 81.32692318409012 0.5 L 82.88822136818024 0.5 L 82.88822136818024 3.5 L 89.88822136818024 0 L 82.88822136818024 -3.5 L 82.88822136818024 -0.5 L 81.32692318409012 -0.5 Z"/><text text-anchor="middle" pointer-events="none" font-size="8px" fill="#000000" x="53.94411068409012" y="3" transform="rotate(180 53.94411068409012 0)" font-family="sans-serif">APPLIES_TO</text></g><g class="relationship" transform="translate(322.6876635818858 217.89833530212812) rotate(292.3703758576725)"><path class="outline" fill="#A5ABB6" stroke="none" d="M 25 0.5 L 158.71660316906258 0.5 L 158.71660316906258 -0.5 L 25 -0.5 Z M 192.72441566906258 0.5 L 326.44101883812516 0.5 L 326.44101883812516 3.5 L 333.44101883812516 0 L 326.44101883812516 -3.5 L 326.44101883812516 -0.5 L 192.72441566906258 -0.5 Z"/><text text-anchor="middle" pointer-events="none" font-size="8px" fill="#000000" x="175.72050941906258" y="3" font-family="sans-serif">SCOPE</text></g><g class="relationship" transform="translate(322.6876635818858 217.89833530212812) rotate(357.3944693052157)"><path class="outline" fill="#A5ABB6" stroke="none" d="M 25 0.5 L 27.27176594313348 0.5 L 27.27176594313348 -0.5 L 25 -0.5 Z M 69.28739094313349 0.5 L 71.55915688626696 0.5 L 71.55915688626696 3.5 L 78.55915688626696 0 L 71.55915688626696 -3.5 L 71.55915688626696 -0.5 L 69.28739094313349 -0.5 Z"/><text text-anchor="middle" pointer-events="none" font-size="8px" fill="#000000" x="48.27957844313348" y="3" font-family="sans-serif">APPLIE…</text></g><g class="relationship" transform="translate(374.85279677179165 336.85503603695867) rotate(269.0050907468261)"><path class="outline" fill="#A5ABB6" stroke="none" d="M 25 0.5 L 145.79400815855635 0.5 L 145.79400815855635 -0.5 L 25 -0.5 Z M 179.80182065855635 0.5 L 300.5958288171127 0.5 L 300.5958288171127 3.5 L 307.5958288171127 0 L 300.5958288171127 -3.5 L 300.5958288171127 -0.5 L 179.80182065855635 -0.5 Z"/><text text-anchor="middle" pointer-events="none" font-size="8px" fill="#000000" x="162.79791440855635" y="3" transform="rotate(180 162.79791440855635 0)" font-family="sans-serif">SCOPE</text></g><g class="relationship" transform="translate(374.85279677179165 336.85503603695867) rotate(292.52509750169736)"><path class="outline" fill="#A5ABB6" stroke="none" d="M 25 0.5 L 36.05605176187797 0.5 L 36.05605176187797 -0.5 L 25 -0.5 Z M 90.82167676187797 0.5 L 101.87772852375593 0.5 L 101.87772852375593 3.5 L 108.87772852375593 0 L 101.87772852375593 -3.5 L 101.87772852375593 -0.5 L 90.82167676187797 -0.5 Z"/><text text-anchor="middle" pointer-events="none" font-size="8px" fill="#000000" x="63.43886426187797" y="3" font-family="sans-serif">APPLIES_TO</text></g><g class="relationship" transform="translate(-314.0910657739477 -138.23759111726685) rotate(374.2813730749307)"><path class="outline" fill="#A5ABB6" stroke="none" d="M 25 0.5 L 48.2634818900769 0.5 L 48.2634818900769 -0.5 L 25 -0.5 Z M 82.2712943900769 0.5 L 105.5347762801538 0.5 L 105.5347762801538 3.5 L 112.5347762801538 0 L 105.5347762801538 -3.5 L 105.5347762801538 -0.5 L 82.2712943900769 -0.5 Z"/><text text-anchor="middle" pointer-events="none" font-size="8px" fill="#000000" x="65.2673881400769" y="3" font-family="sans-serif">SCOPE</text></g><g class="relationship" transform="translate(-314.0910657739477 -138.23759111726685) rotate(415.9409972820523)"><path class="outline" fill="#A5ABB6" stroke="none" d="M 25 0.5 L 202.32074131815938 0.5 L 202.32074131815938 -0.5 L 25 -0.5 Z M 257.0863663181594 0.5 L 434.40710763631876 0.5 L 434.40710763631876 3.5 L 441.40710763631876 0 L 434.40710763631876 -3.5 L 434.40710763631876 -0.5 L 257.0863663181594 -0.5 Z"/><text text-anchor="middle" pointer-events="none" font-size="8px" fill="#000000" x="229.70355381815938" y="3" font-family="sans-serif">APPLIES_TO</text></g><g class="relationship" transform="translate(259.8731311583148 -40.194502601456776) rotate(211.18022825567198)"><path class="outline" fill="#A5ABB6" stroke="none" d="M 25 0.5 L 118.72477073335654 0.5 L 118.72477073335654 -0.5 L 25 -0.5 Z M 152.73258323335654 0.5 L 246.45735396671307 0.5 L 246.45735396671307 3.5 L 253.45735396671307 0 L 246.45735396671307 -3.5 L 246.45735396671307 -0.5 L 152.73258323335654 -0.5 Z"/><text text-anchor="middle" pointer-events="none" font-size="8px" fill="#000000" x="135.72867698335654" y="3" transform="rotate(180 135.72867698335654 0)" font-family="sans-serif">SCOPE</text></g><g class="relationship" transform="translate(259.8731311583148 -40.194502601456776) rotate(497.3242013206676)"><path class="outline" fill="#A5ABB6" stroke="none" d="M 25 0.5 L 181.81725920929253 0.5 L 181.81725920929253 -0.5 L 25 -0.5 Z M 236.58288420929253 0.5 L 393.40014341858506 0.5 L 393.40014341858506 3.5 L 400.40014341858506 0 L 393.40014341858506 -3.5 L 393.40014341858506 -0.5 L 236.58288420929253 -0.5 Z"/><text text-anchor="middle" pointer-events="none" font-size="8px" fill="#000000" x="209.20007170929253" y="3" transform="rotate(180 209.20007170929253 0)" font-family="sans-serif">APPLIES_TO</text></g><g class="relationship" transform="translate(46.66009806053654 46.418729580951975) rotate(263.812630628671)"><path class="outline" fill="#A5ABB6" stroke="none" d="M 25 0.5 L 95.56193726327618 0.5 L 95.56193726327618 -0.5 L 25 -0.5 Z M 129.56974976327618 0.5 L 200.13168702655236 0.5 L 200.13168702655236 3.5 L 207.13168702655236 0 L 200.13168702655236 -3.5 L 200.13168702655236 -0.5 L 129.56974976327618 -0.5 Z"/><text text-anchor="middle" pointer-events="none" font-size="8px" fill="#000000" x="112.56584351327618" y="3" transform="rotate(180 112.56584351327618 0)" font-family="sans-serif">SCOPE</text></g><g class="relationship" transform="translate(46.66009806053654 46.418729580951975) rotate(476.26198828721596)"><path class="outline" fill="#A5ABB6" stroke="none" d="M 25 0.5 L 81.59955145577713 0.5 L 81.59955145577713 -0.5 L 25 -0.5 Z M 136.36517645577715 0.5 L 192.96472791155426 0.5 L 192.96472791155426 3.5 L 199.96472791155426 0 L 192.96472791155426 -3.5 L 192.96472791155426 -0.5 L 136.36517645577715 -0.5 Z"/><text text-anchor="middle" pointer-events="none" font-size="8px" fill="#000000" x="108.98236395577713" y="3" transform="rotate(180 108.98236395577713 0)" font-family="sans-serif">APPLIES_TO</text></g><g class="relationship" transform="translate(-78.23396168132496 84.54602743527622) rotate(290.3755378652018)"><path class="outline" fill="#A5ABB6" stroke="none" d="M 25 0.5 L 122.92363035410924 0.5 L 122.92363035410924 -0.5 L 25 -0.5 Z M 156.93144285410924 0.5 L 254.85507320821847 0.5 L 254.85507320821847 3.5 L 261.85507320821847 0 L 254.85507320821847 -3.5 L 254.85507320821847 -0.5 L 156.93144285410924 -0.5 Z"/><text text-anchor="middle" pointer-events="none" font-size="8px" fill="#000000" x="139.92753660410924" y="3" font-family="sans-serif">SCOPE</text></g><g class="relationship" transform="translate(-78.23396168132496 84.54602743527622) rotate(441.19203147732526)"><path class="outline" fill="#A5ABB6" stroke="none" d="M 25 0.5 L 51.901763758081515 0.5 L 51.901763758081515 -0.5 L 25 -0.5 Z M 106.66738875808151 0.5 L 133.56915251616303 0.5 L 133.56915251616303 3.5 L 140.56915251616303 0 L 133.56915251616303 -3.5 L 133.56915251616303 -0.5 L 106.66738875808151 -0.5 Z"/><text text-anchor="middle" pointer-events="none" font-size="8px" fill="#000000" x="79.28457625808151" y="3" font-family="sans-serif">APPLIES_TO</text></g><g class="relationship" transform="translate(-32.380654940477044 -28.559802362797996) rotate(289.1231948009258)"><path class="outline" fill="#A5ABB6" stroke="none" d="M 25 0.5 L 61.946469644382134 0.5 L 61.946469644382134 -0.5 L 25 -0.5 Z M 95.95428214438213 0.5 L 132.90075178876427 0.5 L 132.90075178876427 3.5 L 139.90075178876427 0 L 132.90075178876427 -3.5 L 132.90075178876427 -0.5 L 95.95428214438213 -0.5 Z"/><text text-anchor="middle" pointer-events="none" font-size="8px" fill="#000000" x="78.95037589438213" y="3" font-family="sans-serif">SCOPE</text></g><g class="relationship" transform="translate(-32.380654940477044 -28.559802362797996) rotate(454.23698318631523)"><path class="outline" fill="#A5ABB6" stroke="none" d="M 25 0.5 L 107.85758611380416 0.5 L 107.85758611380416 -0.5 L 25 -0.5 Z M 162.62321111380416 0.5 L 245.48079722760832 0.5 L 245.48079722760832 3.5 L 252.48079722760832 0 L 245.48079722760832 -3.5 L 245.48079722760832 -0.5 L 162.62321111380416 -0.5 Z"/><text text-anchor="middle" pointer-events="none" font-size="8px" fill="#000000" x="135.24039861380416" y="3" transform="rotate(180 135.24039861380416 0)" font-family="sans-serif">APPLIES_TO</text></g><g class="relationship" transform="translate(138.80540034761322 18.372638001793277) rotate(239.97534739332878)"><path class="outline" fill="#A5ABB6" stroke="none" d="M 25 0.5 L 96.57335410236092 0.5 L 96.57335410236092 -0.5 L 25 -0.5 Z M 130.58116660236092 0.5 L 202.15452070472185 0.5 L 202.15452070472185 3.5 L 209.15452070472185 0 L 202.15452070472185 -3.5 L 202.15452070472185 -0.5 L 130.58116660236092 -0.5 Z"/><text text-anchor="middle" pointer-events="none" font-size="8px" fill="#000000" x="113.57726035236092" y="3" transform="rotate(180 113.57726035236092 0)" font-family="sans-serif">SCOPE</text></g><g class="relationship" transform="translate(138.80540034761322 18.372638001793277) rotate(489.8342836200157)"><path class="outline" fill="#A5ABB6" stroke="none" d="M 25 0.5 L 118.73946275538717 0.5 L 118.73946275538717 -0.5 L 25 -0.5 Z M 173.50508775538717 0.5 L 267.24455051077433 0.5 L 267.24455051077433 3.5 L 274.24455051077433 0 L 267.24455051077433 -3.5 L 267.24455051077433 -0.5 L 173.50508775538717 -0.5 Z"/><text text-anchor="middle" pointer-events="none" font-size="8px" fill="#000000" x="146.12227525538717" y="3" transform="rotate(180 146.12227525538717 0)" font-family="sans-serif">APPLIES_TO</text></g><g class="relationship" transform="translate(247.55987901671972 308.28296214176044) rotate(249.4373523568171)"><path class="outline" fill="#A5ABB6" stroke="none" d="M 25 0.5 L 128.76223150751002 0.5 L 128.76223150751002 -0.5 L 25 -0.5 Z M 173.87551275751002 0.5 L 277.63774426502005 0.5 L 277.63774426502005 3.5 L 284.63774426502005 0 L 277.63774426502005 -3.5 L 277.63774426502005 -0.5 L 173.87551275751002 -0.5 Z"/><text text-anchor="middle" pointer-events="none" font-size="8px" fill="#000000" x="151.31887213251002" y="3" transform="rotate(180 151.31887213251002 0)" font-family="sans-serif">GRANTED</text></g><g class="relationship" transform="translate(247.55987901671972 308.28296214176044) rotate(230.270984137242)"><path class="outline" fill="#A5ABB6" stroke="none" d="M 25 0.5 L 192.9352259770007 0.5 L 192.9352259770007 -0.5 L 25 -0.5 Z M 238.0485072270007 0.5 L 405.9837332040014 0.5 L 405.9837332040014 3.5 L 412.9837332040014 0 L 405.9837332040014 -3.5 L 405.9837332040014 -0.5 L 238.0485072270007 -0.5 Z"/><text text-anchor="middle" pointer-events="none" font-size="8px" fill="#000000" x="215.4918666020007" y="3" transform="rotate(180 215.4918666020007 0)" font-family="sans-serif">GRANTED</text></g><g class="relationship" transform="translate(247.55987901671972 308.28296214176044) rotate(214.47909569330523)"><path class="outline" fill="#A5ABB6" stroke="none" d="M 25 0.5 L 171.55398825704958 0.5 L 171.55398825704958 -0.5 L 25 -0.5 Z M 216.66726950704958 0.5 L 363.22125776409916 0.5 L 363.22125776409916 3.5 L 370.22125776409916 0 L 363.22125776409916 -3.5 L 363.22125776409916 -0.5 L 216.66726950704958 -0.5 Z"/><text text-anchor="middle" pointer-events="none" font-size="8px" fill="#000000" x="194.11062888204958" y="3" transform="rotate(180 194.11062888204958 0)" font-family="sans-serif">GRANTED</text></g><g class="relationship" transform="translate(247.55987901671972 308.28296214176044) rotate(232.50491836782737)"><path class="outline" fill="#A5ABB6" stroke="none" d="M 25 0.5 L 138.96881065669135 0.5 L 138.96881065669135 -0.5 L 25 -0.5 Z M 184.08209190669135 0.5 L 298.0509025633827 0.5 L 298.0509025633827 3.5 L 305.0509025633827 0 L 298.0509025633827 -3.5 L 298.0509025633827 -0.5 L 184.08209190669135 -0.5 Z"/><text text-anchor="middle" pointer-events="none" font-size="8px" fill="#000000" x="161.52545128169135" y="3" transform="rotate(180 161.52545128169135 0)" font-family="sans-serif">GRANTED</text></g><g class="relationship" transform="translate(247.55987901671972 308.28296214176044) rotate(309.7333900587929)"><path class="outline" fill="#A5ABB6" stroke="none" d="M 25 0.5 L 32.708920681367154 0.5 L 32.708920681367154 -0.5 L 25 -0.5 Z M 77.82220193136715 0.5 L 85.53112261273431 0.5 L 85.53112261273431 3.5 L 92.53112261273431 0 L 85.53112261273431 -3.5 L 85.53112261273431 -0.5 L 77.82220193136715 -0.5 Z"/><text text-anchor="middle" pointer-events="none" font-size="8px" fill="#000000" x="55.265561306367154" y="3" font-family="sans-serif">GRANTED</text></g><g class="relationship" transform="translate(247.55987901671972 308.28296214176044) rotate(372.650890753975)"><path class="outline" fill="#A5ABB6" stroke="none" d="M 25 0.5 L 39.17343356871868 0.5 L 39.17343356871868 -0.5 L 25 -0.5 Z M 84.28671481871868 0.5 L 98.46014838743736 0.5 L 98.46014838743736 3.5 L 105.46014838743736 0 L 98.46014838743736 -3.5 L 98.46014838743736 -0.5 L 84.28671481871868 -0.5 Z"/><text text-anchor="middle" pointer-events="none" font-size="8px" fill="#000000" x="61.73007419371868" y="3" font-family="sans-serif">GRANTED</text></g><g class="relationship" transform="translate(247.55987901671972 308.28296214176044) rotate(220.4802443217473)"><path class="outline" fill="#A5ABB6" stroke="none" d="M 25 0.5 L 71.39636635342342 0.5 L 71.39636635342342 -0.5 L 25 -0.5 Z M 116.50964760342342 0.5 L 162.90601395684683 0.5 L 162.90601395684683 3.5 L 169.90601395684683 0 L 162.90601395684683 -3.5 L 162.90601395684683 -0.5 L 116.50964760342342 -0.5 Z"/><text text-anchor="middle" pointer-events="none" font-size="8px" fill="#000000" x="93.95300697842342" y="3" transform="rotate(180 93.95300697842342 0)" font-family="sans-serif">GRANTED</text></g><g class="relationship" transform="translate(247.55987901671972 308.28296214176044) rotate(239.50274269376064)"><path class="outline" fill="#A5ABB6" stroke="none" d="M 25 0.5 L 26.072151602772692 0.5 L 26.072151602772692 -0.5 L 25 -0.5 Z M 71.18543285277269 0.5 L 72.25758445554538 0.5 L 72.25758445554538 3.5 L 79.25758445554538 0 L 72.25758445554538 -3.5 L 72.25758445554538 -0.5 L 71.18543285277269 -0.5 Z"/><text text-anchor="middle" pointer-events="none" font-size="8px" fill="#000000" x="48.62879222777269" y="3" transform="rotate(180 48.62879222777269 0)" font-family="sans-serif">GRANTED</text></g><g class="relationship" transform="translate(247.55987901671972 308.28296214176044) rotate(272.0236717184344)"><path class="outline" fill="#A5ABB6" stroke="none" d="M 25 0.5 L 148.2908282497751 0.5 L 148.2908282497751 -0.5 L 25 -0.5 Z M 193.4041094997751 0.5 L 316.6949377495502 0.5 L 316.6949377495502 3.5 L 323.6949377495502 0 L 316.6949377495502 -3.5 L 316.6949377495502 -0.5 L 193.4041094997751 -0.5 Z"/><text text-anchor="middle" pointer-events="none" font-size="8px" fill="#000000" x="170.8474688747751" y="3" font-family="sans-serif">GRANTED</text></g><g class="relationship" transform="translate(21.204424597881655 324.5377598896832) rotate(261.370798003328)"><path class="outline" fill="#A5ABB6" stroke="none" d="M 25 0.5 L 152.51354810885405 0.5 L 152.51354810885405 -0.5 L 25 -0.5 Z M 197.62682935885405 0.5 L 325.1403774677081 0.5 L 325.1403774677081 3.5 L 332.1403774677081 0 L 325.1403774677081 -3.5 L 325.1403774677081 -0.5 L 197.62682935885405 -0.5 Z"/><text text-anchor="middle" pointer-events="none" font-size="8px" fill="#000000" x="175.07018873385405" y="3" transform="rotate(180 175.07018873385405 0)" font-family="sans-serif">GRANTED</text></g><g class="relationship" transform="translate(21.204424597881655 324.5377598896832) rotate(247.49377367611822)"><path class="outline" fill="#A5ABB6" stroke="none" d="M 25 0.5 L 103.83179642029702 0.5 L 103.83179642029702 -0.5 L 25 -0.5 Z M 148.94507767029702 0.5 L 227.77687409059405 0.5 L 227.77687409059405 3.5 L 234.77687409059405 0 L 227.77687409059405 -3.5 L 227.77687409059405 -0.5 L 148.94507767029702 -0.5 Z"/><text text-anchor="middle" pointer-events="none" font-size="8px" fill="#000000" x="126.38843704529702" y="3" transform="rotate(180 126.38843704529702 0)" font-family="sans-serif">GRANTED</text></g><g class="relationship" transform="translate(21.204424597881655 324.5377598896832) rotate(275.2295961058782)"><path class="outline" fill="#A5ABB6" stroke="none" d="M 25 0.5 L 113.58413630934169 0.5 L 113.58413630934169 -0.5 L 25 -0.5 Z M 158.6974175593417 0.5 L 247.28155386868337 0.5 L 247.28155386868337 3.5 L 254.28155386868337 0 L 247.28155386868337 -3.5 L 247.28155386868337 -0.5 L 158.6974175593417 -0.5 Z"/><text text-anchor="middle" pointer-events="none" font-size="8px" fill="#000000" x="136.1407769343417" y="3" font-family="sans-serif">GRANTED</text></g><g class="relationship" transform="translate(21.204424597881655 324.5377598896832) rotate(340.52050166849403)"><path class="outline" fill="#A5ABB6" stroke="none" d="M 25 0.5 L 133.83716027473076 0.5 L 133.83716027473076 -0.5 L 25 -0.5 Z M 178.95044152473076 0.5 L 287.7876017994615 0.5 L 287.7876017994615 3.5 L 294.7876017994615 0 L 287.7876017994615 -3.5 L 287.7876017994615 -0.5 L 178.95044152473076 -0.5 Z"/><text text-anchor="middle" pointer-events="none" font-size="8px" fill="#000000" x="156.39380089973076" y="3" font-family="sans-serif">GRANTED</text></g><g class="relationship" transform="translate(21.204424597881655 324.5377598896832) rotate(361.99475760517333)"><path class="outline" fill="#A5ABB6" stroke="none" d="M 25 0.5 L 150.87476305517248 0.5 L 150.87476305517248 -0.5 L 25 -0.5 Z M 195.98804430517248 0.5 L 321.86280736034496 0.5 L 321.86280736034496 3.5 L 328.86280736034496 0 L 321.86280736034496 -3.5 L 321.86280736034496 -0.5 L 195.98804430517248 -0.5 Z"/><text text-anchor="middle" pointer-events="none" font-size="8px" fill="#000000" x="173.43140368017248" y="3" font-family="sans-serif">GRANTED</text></g><g class="relationship" transform="translate(21.204424597881655 324.5377598896832) rotate(298.67888079626744)"><path class="outline" fill="#A5ABB6" stroke="none" d="M 25 0.5 L 55.318747763914274 0.5 L 55.318747763914274 -0.5 L 25 -0.5 Z M 100.43202901391427 0.5 L 130.75077677782855 0.5 L 130.75077677782855 3.5 L 137.75077677782855 0 L 130.75077677782855 -3.5 L 130.75077677782855 -0.5 L 100.43202901391427 -0.5 Z"/><text text-anchor="middle" pointer-events="none" font-size="8px" fill="#000000" x="77.87538838891427" y="3" font-family="sans-serif">GRANTED</text></g><g class="relationship" transform="translate(21.204424597881655 324.5377598896832) rotate(328.5477062193996)"><path class="outline" fill="#A5ABB6" stroke="none" d="M 25 0.5 L 75.60209263224607 0.5 L 75.60209263224607 -0.5 L 25 -0.5 Z M 120.71537388224607 0.5 L 171.31746651449214 0.5 L 171.31746651449214 3.5 L 178.31746651449214 0 L 171.31746651449214 -3.5 L 171.31746651449214 -0.5 L 120.71537388224607 -0.5 Z"/><text text-anchor="middle" pointer-events="none" font-size="8px" fill="#000000" x="98.15873325724607" y="3" font-family="sans-serif">GRANTED</text></g><g class="relationship" transform="translate(21.204424597881655 324.5377598896832) rotate(303.1994062522669)"><path class="outline" fill="#A5ABB6" stroke="none" d="M 25 0.5 L 191.88393315208262 0.5 L 191.88393315208262 -0.5 L 25 -0.5 Z M 236.99721440208262 0.5 L 403.88114755416524 0.5 L 403.88114755416524 3.5 L 410.88114755416524 0 L 403.88114755416524 -3.5 L 403.88114755416524 -0.5 L 236.99721440208262 -0.5 Z"/><text text-anchor="middle" pointer-events="none" font-size="8px" fill="#000000" x="214.44057377708262" y="3" font-family="sans-serif">GRANTED</text></g><g class="relationship" transform="translate(225.77973980607374 153.08477846000005) rotate(210.77386984551293)"><path class="outline" fill="#A5ABB6" stroke="none" d="M 25 0.5 L 78.18045934727122 0.5 L 78.18045934727122 -0.5 L 25 -0.5 Z M 123.29374059727122 0.5 L 176.47419994454245 0.5 L 176.47419994454245 3.5 L 183.47419994454245 0 L 176.47419994454245 -3.5 L 176.47419994454245 -0.5 L 123.29374059727122 -0.5 Z"/><text text-anchor="middle" pointer-events="none" font-size="8px" fill="#000000" x="100.73709997227122" y="3" transform="rotate(180 100.73709997227122 0)" font-family="sans-serif">GRANTED</text></g><g class="relationship" transform="translate(225.77973980607374 153.08477846000005) rotate(393.7752337390338)"><path class="outline" fill="#A5ABB6" stroke="none" d="M 25 0.5 L 32.23560337252158 0.5 L 32.23560337252158 -0.5 L 25 -0.5 Z M 77.34888462252158 0.5 L 84.58448799504316 0.5 L 84.58448799504316 3.5 L 91.58448799504316 0 L 84.58448799504316 -3.5 L 84.58448799504316 -0.5 L 77.34888462252158 -0.5 Z"/><text text-anchor="middle" pointer-events="none" font-size="8px" fill="#000000" x="54.79224399752158" y="3" font-family="sans-serif">GRANTED</text></g><g class="relationship" transform="translate(225.77973980607374 153.08477846000005) rotate(410.95129437456535)"><path class="outline" fill="#A5ABB6" stroke="none" d="M 25 0.5 L 92.2589161321377 0.5 L 92.2589161321377 -0.5 L 25 -0.5 Z M 137.3721973821377 0.5 L 204.6311135142754 0.5 L 204.6311135142754 3.5 L 211.6311135142754 0 L 204.6311135142754 -3.5 L 204.6311135142754 -0.5 L 137.3721973821377 -0.5 Z"/><text text-anchor="middle" pointer-events="none" font-size="8px" fill="#000000" x="114.8155567571377" y="3" font-family="sans-serif">GRANTED</text></g><g class="relationship" transform="translate(225.77973980607374 153.08477846000005) rotate(527.2282578973956)"><path class="outline" fill="#A5ABB6" stroke="none" d="M 25 0.5 L 38.78319051668413 0.5 L 38.78319051668413 -0.5 L 25 -0.5 Z M 83.89647176668413 0.5 L 97.67966228336826 0.5 L 97.67966228336826 3.5 L 104.67966228336826 0 L 97.67966228336826 -3.5 L 97.67966228336826 -0.5 L 83.89647176668413 -0.5 Z"/><text text-anchor="middle" pointer-events="none" font-size="8px" fill="#000000" x="61.33983114168413" y="3" transform="rotate(180 61.33983114168413 0)" font-family="sans-serif">GRANTED</text></g><g class="relationship" transform="translate(225.77973980607374 153.08477846000005) rotate(475.46651657637597)"><path class="outline" fill="#A5ABB6" stroke="none" d="M 25 0.5 L 32.69938935579643 0.5 L 32.69938935579643 -0.5 L 25 -0.5 Z M 32.69938935579643 0.5 L 40.398778711592854 0.5 L 40.398778711592854 3.5 L 47.398778711592854 0 L 40.398778711592854 -3.5 L 40.398778711592854 -0.5 L 32.69938935579643 -0.5 Z"/><text text-anchor="middle" pointer-events="none" font-size="8px" fill="#000000" x="32.69938935579643" y="3" transform="rotate(180 32.69938935579643 0)" font-family="sans-serif"/></g><g class="relationship" transform="translate(225.77973980607374 153.08477846000005) rotate(280.00374877309724)"><path class="outline" fill="#A5ABB6" stroke="none" d="M 25 0.5 L 72.07495446742001 0.5 L 72.07495446742001 -0.5 L 25 -0.5 Z M 117.18823571742001 0.5 L 164.26319018484003 0.5 L 164.26319018484003 3.5 L 171.26319018484003 0 L 164.26319018484003 -3.5 L 164.26319018484003 -0.5 L 117.18823571742001 -0.5 Z"/><text text-anchor="middle" pointer-events="none" font-size="8px" fill="#000000" x="94.63159509242001" y="3" font-family="sans-serif">GRANTED</text></g><g class="relationship" transform="translate(331.38962664114354 132.20660748304797) rotate(455.79848763107964)"><path class="outline" fill="#A5ABB6" stroke="none" d="M 25 0.5 L 26.566217554203668 0.5 L 26.566217554203668 -0.5 L 25 -0.5 Z M 52.56621755420367 0.5 L 54.132435108407336 0.5 L 54.132435108407336 3.5 L 61.132435108407336 0 L 54.132435108407336 -3.5 L 54.132435108407336 -0.5 L 52.56621755420367 -0.5 Z"/><text text-anchor="middle" pointer-events="none" font-size="8px" fill="#000000" x="39.56621755420367" y="3" transform="rotate(180 39.56621755420367 0)" font-family="sans-serif">GR…</text></g><g class="relationship" transform="translate(331.38962664114354 132.20660748304797) rotate(438.0096961992292)"><path class="outline" fill="#A5ABB6" stroke="none" d="M 25 0.5 L 78.54979615996886 0.5 L 78.54979615996886 -0.5 L 25 -0.5 Z M 123.66307740996886 0.5 L 177.21287356993773 0.5 L 177.21287356993773 3.5 L 184.21287356993773 0 L 177.21287356993773 -3.5 L 177.21287356993773 -0.5 L 123.66307740996886 -0.5 Z"/><text text-anchor="middle" pointer-events="none" font-size="8px" fill="#000000" x="101.10643678496886" y="3" font-family="sans-serif">GRANTED</text></g><g class="relationship" transform="translate(331.38962664114354 132.20660748304797) rotate(527.9490415793139)"><path class="outline" fill="#A5ABB6" stroke="none" d="M 25 0.5 L 92.59879235002393 0.5 L 92.59879235002393 -0.5 L 25 -0.5 Z M 137.71207360002393 0.5 L 205.31086595004786 0.5 L 205.31086595004786 3.5 L 212.31086595004786 0 L 205.31086595004786 -3.5 L 205.31086595004786 -0.5 L 137.71207360002393 -0.5 Z"/><text text-anchor="middle" pointer-events="none" font-size="8px" fill="#000000" x="115.15543297502393" y="3" transform="rotate(180 115.15543297502393 0)" font-family="sans-serif">GRANTED</text></g><g class="relationship" transform="translate(331.38962664114354 132.20660748304797) rotate(507.7602437118295)"><path class="outline" fill="#A5ABB6" stroke="none" d="M 25 0.5 L 54.775954971351055 0.5 L 54.775954971351055 -0.5 L 25 -0.5 Z M 99.88923622135106 0.5 L 129.6651911927021 0.5 L 129.6651911927021 3.5 L 136.6651911927021 0 L 129.6651911927021 -3.5 L 129.6651911927021 -0.5 L 99.88923622135106 -0.5 Z"/><text text-anchor="middle" pointer-events="none" font-size="8px" fill="#000000" x="77.33259559635106" y="3" transform="rotate(180 77.33259559635106 0)" font-family="sans-serif">GRANTED</text></g><g class="relationship" transform="translate(331.38962664114354 132.20660748304797) rotate(247.47004597924484)"><path class="outline" fill="#A5ABB6" stroke="none" d="M 25 0.5 L 67.2663896040316 0.5 L 67.2663896040316 -0.5 L 25 -0.5 Z M 112.3796708540316 0.5 L 154.6460604580632 0.5 L 154.6460604580632 3.5 L 161.6460604580632 0 L 154.6460604580632 -3.5 L 154.6460604580632 -0.5 L 112.3796708540316 -0.5 Z"/><text text-anchor="middle" pointer-events="none" font-size="8px" fill="#000000" x="89.8230302290316" y="3" transform="rotate(180 89.8230302290316 0)" font-family="sans-serif">GRANTED</text></g><g class="relationship" transform="translate(147.28030909942595 98.93936899668117) rotate(480.0826641527439)"><path class="outline" fill="#A5ABB6" stroke="none" d="M 25 0.5 L 25.795591996394222 0.5 L 25.795591996394222 -0.5 L 25 -0.5 Z M 62.90887324639422 0.5 L 63.704465242788444 0.5 L 63.704465242788444 3.5 L 70.70446524278844 0 L 63.704465242788444 -3.5 L 63.704465242788444 -0.5 L 62.90887324639422 -0.5 Z"/><text text-anchor="middle" pointer-events="none" font-size="8px" fill="#000000" x="44.35223262139422" y="3" transform="rotate(180 44.35223262139422 0)" font-family="sans-serif">GRAN…</text></g><g class="relationship" transform="translate(147.28030909942595 98.93936899668117) rotate(428.3784869528271)"><path class="outline" fill="#A5ABB6" stroke="none" d="M 25 0.5 L 38.22088443395825 0.5 L 38.22088443395825 -0.5 L 25 -0.5 Z M 83.33416568395825 0.5 L 96.5550501179165 0.5 L 96.5550501179165 3.5 L 103.5550501179165 0 L 96.5550501179165 -3.5 L 96.5550501179165 -0.5 L 83.33416568395825 -0.5 Z"/><text text-anchor="middle" pointer-events="none" font-size="8px" fill="#000000" x="60.77752505895825" y="3" font-family="sans-serif">GRANTED</text></g><g class="relationship" transform="translate(147.28030909942595 98.93936899668117) rotate(308.9812010037)"><path class="outline" fill="#A5ABB6" stroke="none" d="M 25 0.5 L 63.43550680296116 0.5 L 63.43550680296116 -0.5 L 25 -0.5 Z M 108.54878805296116 0.5 L 146.98429485592231 0.5 L 146.98429485592231 3.5 L 153.98429485592231 0 L 146.98429485592231 -3.5 L 146.98429485592231 -0.5 L 108.54878805296116 -0.5 Z"/><text text-anchor="middle" pointer-events="none" font-size="8px" fill="#000000" x="85.99214742796116" y="3" font-family="sans-serif">GRANTED</text></g><g class="relationship" transform="translate(-245.22591022473688 37.29060925774122) rotate(248.57838324419617)"><path class="outline" fill="#A5ABB6" stroke="none" d="M 25 0.5 L 68.22029024319541 0.5 L 68.22029024319541 -0.5 L 25 -0.5 Z M 113.33357149319541 0.5 L 156.55386173639081 0.5 L 156.55386173639081 3.5 L 163.55386173639081 0 L 156.55386173639081 -3.5 L 156.55386173639081 -0.5 L 113.33357149319541 -0.5 Z"/><text text-anchor="middle" pointer-events="none" font-size="8px" fill="#000000" x="90.77693086819541" y="3" transform="rotate(180 90.77693086819541 0)" font-family="sans-serif">GRANTED</text></g><g class="relationship" transform="translate(168.4242144805748 -113.36400269999794) rotate(439.3702557724137)"><path class="outline" fill="#A5ABB6" stroke="none" d="M 25 0.5 L 186.662641518384 0.5 L 186.662641518384 -0.5 L 25 -0.5 Z M 235.346235268384 0.5 L 397.008876786768 0.5 L 397.008876786768 3.5 L 404.008876786768 0 L 397.008876786768 -3.5 L 397.008876786768 -0.5 L 235.346235268384 -0.5 Z"/><text text-anchor="middle" pointer-events="none" font-size="8px" fill="#000000" x="211.004438393384" y="3" font-family="sans-serif">HAS_ROLE</text></g></g><g class="layer nodes"><g class="node" transform="translate(163.18642454774636,-248.7970682603236)"><circle class="outline" cx="0" cy="0" r="40" fill="#57C7E3" stroke="#23b3d7" stroke-width="2px"/><text text-anchor="middle" pointer-events="none" font-family="sans-serif" dy="2.5" font-size="40" fill="#2A2C34"/><text text-anchor="middle" pointer-events="none" x="0" y="5" font-size="10px" fill="#2A2C34" font-family="sans-serif"> neo4j</text></g><g class="node" transform="translate(-134.48730148608013,-8.598065276954458)"><circle class="outline" cx="0" cy="0" r="40" fill="#57C7E3" stroke="#23b3d7" stroke-width="2px"/><text text-anchor="middle" pointer-events="none" font-family="sans-serif" dy="2.5" font-size="40" fill="#2A2C34"/><text text-anchor="middle" pointer-events="none" x="0" y="5" font-size="10px" fill="#2A2C34" font-family="sans-serif"> system</text></g><g class="node" transform="translate(168.4242144805748,-113.36400269999794)"><circle class="outline" cx="0" cy="0" r="25" fill="#569480" stroke="#447666" stroke-width="2px"/><text text-anchor="middle" pointer-events="none" font-family="sans-serif" dy="1.5625" font-size="25" fill="#FFFFFF"/><text text-anchor="middle" pointer-events="none" x="0" y="5" font-size="10px" fill="#FFFFFF" font-family="sans-serif"> neo4j</text></g><g class="node" transform="translate(-79.5067152618112,-245.58318444547615)"><circle class="outline" cx="0" cy="0" r="40" fill="#FFC454" stroke="#d7a013" stroke-width="2px"/><text text-anchor="middle" pointer-events="none" font-family="sans-serif" dy="2.5" font-size="40" fill="#2A2C34"/><text text-anchor="middle" pointer-events="none" x="0" y="5" font-size="10px" fill="#2A2C34" font-family="sans-serif"> 4</text></g><g class="node" transform="translate(290.9917395842888,-147.94417604321382)"><circle class="outline" cx="0" cy="0" r="40" fill="#ECB5C9" stroke="#da7298" stroke-width="2px"/><text text-anchor="middle" pointer-events="none" font-family="sans-serif" dy="2.5" font-size="40" fill="#2A2C34"/><text text-anchor="middle" pointer-events="none" x="0" y="5" font-size="10px" fill="#2A2C34" font-family="sans-serif"> *</text></g><g class="node" transform="translate(-69.7317945310449,-108.91022061979459)"><circle class="outline" cx="0" cy="0" r="40" fill="#ECB5C9" stroke="#da7298" stroke-width="2px"/><text text-anchor="middle" pointer-events="none" font-family="sans-serif" dy="2.5" font-size="40" fill="#2A2C34"/><text text-anchor="middle" pointer-events="none" x="0" y="5" font-size="10px" fill="#2A2C34" font-family="sans-serif"> DEFAULT</text></g><g class="node" transform="translate(572.7692131916576,34.42046320962061)"><circle class="outline" cx="0" cy="0" r="40" fill="#C990C0" stroke="#b261a5" stroke-width="2px"/><text text-anchor="middle" pointer-events="none" font-family="sans-serif" dy="2.5" font-size="40" fill="#FFFFFF"/><text text-anchor="middle" pointer-events="none" x="0" y="5" font-size="10px" fill="#FFFFFF" font-family="sans-serif"> *</text></g><g class="node" transform="translate(478.59913929315854,158.75400730368955)"><circle class="outline" cx="0" cy="0" r="25" fill="#A5ABB6" stroke="#9AA1AC" stroke-width="2px"/><text text-anchor="middle" pointer-events="none" font-family="sans-serif" dy="1.5625" font-size="25" fill="#FFFFFF"/><text text-anchor="middle" pointer-events="none" x="0" y="5" font-size="10px" fill="#FFFFFF" font-family="sans-serif"> *</text></g><g class="node" transform="translate(-110.55046095264747,-177.80175874139456)"><circle class="outline" cx="0" cy="0" r="25" fill="#604A0E" stroke="#423204" stroke-width="2px"/><text text-anchor="middle" pointer-events="none" font-family="sans-serif" dy="1.5625" font-size="25" fill="#FFFFFF"/><text text-anchor="middle" pointer-events="none" x="0" y="5" font-size="10px" fill="#FFFFFF" font-family="sans-serif"> </text></g><g class="node" transform="translate(459.10755508490126,-113.56746563066596)"><circle class="outline" cx="0" cy="0" r="25" fill="#8DCC93" stroke="#5db665" stroke-width="2px"/><text text-anchor="middle" pointer-events="none" font-family="sans-serif" dy="1.5625" font-size="25" fill="#2A2C34"/><text text-anchor="middle" pointer-events="none" x="0" y="5" font-size="10px" fill="#2A2C34" font-family="sans-serif"> -9</text></g><g class="node" transform="translate(369.07774594701425,4.309348747958666)"><circle class="outline" cx="0" cy="0" r="25" fill="#8DCC93" stroke="#5db665" stroke-width="2px"/><text text-anchor="middle" pointer-events="none" font-family="sans-serif" dy="1.5625" font-size="25" fill="#2A2C34"/><text text-anchor="middle" pointer-events="none" x="0" y="5" font-size="10px" fill="#2A2C34" font-family="sans-serif"> -10</text></g><g class="node" transform="translate(21.640899236666684,-184.36073183623074)"><circle class="outline" cx="0" cy="0" r="25" fill="#8DCC93" stroke="#5db665" stroke-width="2px"/><text text-anchor="middle" pointer-events="none" font-family="sans-serif" dy="1.5625" font-size="25" fill="#2A2C34"/><text text-anchor="middle" pointer-events="none" x="0" y="5" font-size="10px" fill="#2A2C34" font-family="sans-serif"> -11</text></g><g class="node" transform="translate(-180.80666698908652,-104.3099662815957)"><circle class="outline" cx="0" cy="0" r="25" fill="#8DCC93" stroke="#5db665" stroke-width="2px"/><text text-anchor="middle" pointer-events="none" font-family="sans-serif" dy="1.5625" font-size="25" fill="#2A2C34"/><text text-anchor="middle" pointer-events="none" x="0" y="5" font-size="10px" fill="#2A2C34" font-family="sans-serif"> -12</text></g><g class="node" transform="translate(426.1397595930305,213.19059636551003)"><circle class="outline" cx="0" cy="0" r="25" fill="#A5ABB6" stroke="#9AA1AC" stroke-width="2px"/><text text-anchor="middle" pointer-events="none" font-family="sans-serif" dy="1.5625" font-size="25" fill="#FFFFFF"/><text text-anchor="middle" pointer-events="none" x="0" y="5" font-size="10px" fill="#FFFFFF" font-family="sans-serif"> graph</text></g><g class="node" transform="translate(155.71423581371064,326.5386101305943)"><circle class="outline" cx="0" cy="0" r="25" fill="#A5ABB6" stroke="#9AA1AC" stroke-width="2px"/><text text-anchor="middle" pointer-events="none" font-family="sans-serif" dy="1.5625" font-size="25" fill="#FFFFFF"/><text text-anchor="middle" pointer-events="none" x="0" y="5" font-size="10px" fill="#FFFFFF" font-family="sans-serif"> all_prop…</text></g><g class="node" transform="translate(-52.881470875246464,248.1626386789032)"><circle class="outline" cx="0" cy="0" r="25" fill="#A5ABB6" stroke="#9AA1AC" stroke-width="2px"/><text text-anchor="middle" pointer-events="none" font-family="sans-serif" dy="1.5625" font-size="25" fill="#FFFFFF"/><text text-anchor="middle" pointer-events="none" x="0" y="5" font-size="10px" fill="#FFFFFF" font-family="sans-serif"> database</text></g><g class="node" transform="translate(99.30854663431933,181.75274154845863)"><circle class="outline" cx="0" cy="0" r="25" fill="#D9C8AE" stroke="#c0a378" stroke-width="2px"/><text text-anchor="middle" pointer-events="none" font-family="sans-serif" dy="1.5625" font-size="25" fill="#2A2C34"/><text text-anchor="middle" pointer-events="none" x="0" y="5" font-size="10px" fill="#2A2C34" font-family="sans-serif"> match</text></g><g class="node" transform="translate(194.64945547790555,218.4490543037482)"><circle class="outline" cx="0" cy="0" r="25" fill="#D9C8AE" stroke="#c0a378" stroke-width="2px"/><text text-anchor="middle" pointer-events="none" font-family="sans-serif" dy="1.5625" font-size="25" fill="#2A2C34"/><text text-anchor="middle" pointer-events="none" x="0" y="5" font-size="10px" fill="#2A2C34" font-family="sans-serif"> match</text></g><g class="node" transform="translate(322.6876635818858,217.89833530212812)"><circle class="outline" cx="0" cy="0" r="25" fill="#D9C8AE" stroke="#c0a378" stroke-width="2px"/><text text-anchor="middle" pointer-events="none" font-family="sans-serif" dy="1.5625" font-size="25" fill="#2A2C34"/><text text-anchor="middle" pointer-events="none" x="0" y="5" font-size="10px" fill="#2A2C34" font-family="sans-serif"> write</text></g><g class="node" transform="translate(374.85279677179165,336.85503603695867)"><circle class="outline" cx="0" cy="0" r="25" fill="#D9C8AE" stroke="#c0a378" stroke-width="2px"/><text text-anchor="middle" pointer-events="none" font-family="sans-serif" dy="1.5625" font-size="25" fill="#2A2C34"/><text text-anchor="middle" pointer-events="none" x="0" y="5" font-size="10px" fill="#2A2C34" font-family="sans-serif"> write</text></g><g class="node" transform="translate(-314.0910657739477,-138.23759111726685)"><circle class="outline" cx="0" cy="0" r="25" fill="#D9C8AE" stroke="#c0a378" stroke-width="2px"/><text text-anchor="middle" pointer-events="none" font-family="sans-serif" dy="1.5625" font-size="25" fill="#2A2C34"/><text text-anchor="middle" pointer-events="none" x="0" y="5" font-size="10px" fill="#2A2C34" font-family="sans-serif"> access</text></g><g class="node selected" transform="translate(259.8731311583148,-40.194502601456776)"><circle class="outline" cx="0" cy="0" r="25" fill="#D9C8AE" stroke="#c0a378" stroke-width="2px"/><text text-anchor="middle" pointer-events="none" font-family="sans-serif" dy="1.5625" font-size="25" fill="#2A2C34"/><text text-anchor="middle" pointer-events="none" x="0" y="5" font-size="10px" fill="#2A2C34" font-family="sans-serif"> access</text></g><g class="node" transform="translate(46.66009806053654,46.418729580951975)"><circle class="outline" cx="0" cy="0" r="25" fill="#D9C8AE" stroke="#c0a378" stroke-width="2px"/><text text-anchor="middle" pointer-events="none" font-family="sans-serif" dy="1.5625" font-size="25" fill="#2A2C34"/><text text-anchor="middle" pointer-events="none" x="0" y="5" font-size="10px" fill="#2A2C34" font-family="sans-serif"> token</text></g><g class="node" transform="translate(138.80540034761322,18.372638001793277)"><circle class="outline" cx="0" cy="0" r="25" fill="#D9C8AE" stroke="#c0a378" stroke-width="2px"/><text text-anchor="middle" pointer-events="none" font-family="sans-serif" dy="1.5625" font-size="25" fill="#2A2C34"/><text text-anchor="middle" pointer-events="none" x="0" y="5" font-size="10px" fill="#2A2C34" font-family="sans-serif"> admin</text></g><g class="node" transform="translate(-78.23396168132496,84.54602743527622)"><circle class="outline" cx="0" cy="0" r="25" fill="#D9C8AE" stroke="#c0a378" stroke-width="2px"/><text text-anchor="middle" pointer-events="none" font-family="sans-serif" dy="1.5625" font-size="25" fill="#2A2C34"/><text text-anchor="middle" pointer-events="none" x="0" y="5" font-size="10px" fill="#2A2C34" font-family="sans-serif"> index</text></g><g class="node" transform="translate(-32.380654940477044,-28.559802362797996)"><circle class="outline" cx="0" cy="0" r="25" fill="#D9C8AE" stroke="#c0a378" stroke-width="2px"/><text text-anchor="middle" pointer-events="none" font-family="sans-serif" dy="1.5625" font-size="25" fill="#2A2C34"/><text text-anchor="middle" pointer-events="none" x="0" y="5" font-size="10px" fill="#2A2C34" font-family="sans-serif"> constraint</text></g><g class="node" transform="translate(247.55987901671972,308.28296214176044)"><circle class="outline" cx="0" cy="0" r="25" fill="#4C8EDA" stroke="#2870c2" stroke-width="2px"/><text text-anchor="middle" pointer-events="none" font-family="sans-serif" dy="1.5625" font-size="25" fill="#FFFFFF"/><text text-anchor="middle" pointer-events="none" x="0" y="5" font-size="10px" fill="#FFFFFF" font-family="sans-serif"> admin</text></g><g class="node" transform="translate(21.204424597881655,324.5377598896832)"><circle class="outline" cx="0" cy="0" r="25" fill="#4C8EDA" stroke="#2870c2" stroke-width="2px"/><text text-anchor="middle" pointer-events="none" font-family="sans-serif" dy="1.5625" font-size="25" fill="#FFFFFF"/><text text-anchor="middle" pointer-events="none" x="0" y="5" font-size="10px" fill="#FFFFFF" font-family="sans-serif"> architect</text></g><g class="node" transform="translate(225.77973980607374,153.08477846000005)"><circle class="outline" cx="0" cy="0" r="25" fill="#4C8EDA" stroke="#2870c2" stroke-width="2px"/><text text-anchor="middle" pointer-events="none" font-family="sans-serif" dy="1.5625" font-size="25" fill="#FFFFFF"/><text text-anchor="middle" pointer-events="none" x="0" y="5" font-size="10px" fill="#FFFFFF" font-family="sans-serif"> publisher</text></g><g class="node" transform="translate(331.38962664114354,132.20660748304797)"><circle class="outline" cx="0" cy="0" r="25" fill="#4C8EDA" stroke="#2870c2" stroke-width="2px"/><text text-anchor="middle" pointer-events="none" font-family="sans-serif" dy="1.5625" font-size="25" fill="#FFFFFF"/><text text-anchor="middle" pointer-events="none" x="0" y="5" font-size="10px" fill="#FFFFFF" font-family="sans-serif"> editor</text></g><g class="node" transform="translate(147.28030909942595,98.93936899668117)"><circle class="outline" cx="0" cy="0" r="25" fill="#4C8EDA" stroke="#2870c2" stroke-width="2px"/><text text-anchor="middle" pointer-events="none" font-family="sans-serif" dy="1.5625" font-size="25" fill="#FFFFFF"/><text text-anchor="middle" pointer-events="none" x="0" y="5" font-size="10px" fill="#FFFFFF" font-family="sans-serif"> reader</text></g><g class="node" transform="translate(-245.22591022473688,37.29060925774122)"><circle class="outline" cx="0" cy="0" r="25" fill="#4C8EDA" stroke="#2870c2" stroke-width="2px"/><text text-anchor="middle" pointer-events="none" font-family="sans-serif" dy="1.5625" font-size="25" fill="#FFFFFF"/><text text-anchor="middle" pointer-events="none" x="0" y="5" font-size="10px" fill="#FFFFFF" font-family="sans-serif"> PUBLIC</text></g></g></svg>