<svg xmlns="http://www.w3.org/2000/svg" width="600.3335571289062" height="374.9058532714844" viewBox="-87.20112609863281 -115.53359985351562 600.3335571289062 374.9058532714844"><title>Neo4j Graph Visualization</title><desc>Created using Neo4j (http://www.neo4j.com/)</desc><g class="layer relationships"><g class="relationship" transform="translate(189.01300202753853 69.16221294979138) rotate(455.0631679911735)"><path class="outline" fill="#A5ABB6" stroke="none" d="M 40 0.5 L 52.66875071562261 0.5 L 52.66875071562261 -0.5 L 40 -0.5 Z M 87.11406321562261 0.5 L 99.78281393124522 0.5 L 99.78281393124522 3.5 L 106.78281393124522 0 L 99.78281393124522 -3.5 L 99.78281393124522 -0.5 L 87.11406321562261 -0.5 Z"/><text text-anchor="middle" pointer-events="none" font-size="8px" fill="#000000" x="69.89140696562261" y="3" transform="rotate(180 69.89140696562261 0)" font-family="sans-serif">ENTITY</text></g><g class="relationship" transform="translate(189.01300202753853 69.16221294979138) rotate(356.9987356440861)"><path class="outline" fill="#A5ABB6" stroke="none" d="M 40 0.5 L 119.52945636723976 0.5 L 119.52945636723976 -0.5 L 40 -0.5 Z M 153.97476886723976 0.5 L 233.50422523447952 0.5 L 233.50422523447952 3.5 L 240.50422523447952 0 L 233.50422523447952 -3.5 L 233.50422523447952 -0.5 L 153.97476886723976 -0.5 Z"/><text text-anchor="middle" pointer-events="none" font-size="8px" fill="#000000" x="136.75211261723976" y="3" font-family="sans-serif">ENTITY</text></g><g class="relationship" transform="translate(189.01300202753853 69.16221294979138) rotate(324.3334873168811)"><path class="outline" fill="#A5ABB6" stroke="none" d="M 40 0.5 L 77.05726109232505 0.5 L 77.05726109232505 -0.5 L 40 -0.5 Z M 111.50257359232505 0.5 L 148.5598346846501 0.5 L 148.5598346846501 3.5 L 155.5598346846501 0 L 148.5598346846501 -3.5 L 148.5598346846501 -0.5 L 111.50257359232505 -0.5 Z"/><text text-anchor="middle" pointer-events="none" font-size="8px" fill="#000000" x="94.27991734232505" y="3" font-family="sans-serif">ENTITY</text></g><g class="relationship" transform="translate(189.01300202753853 69.16221294979138) rotate(257.9505570637564)"><path class="outline" fill="#A5ABB6" stroke="none" d="M 40 0.5 L 51.210087148159545 0.5 L 51.210087148159545 -0.5 L 40 -0.5 Z M 85.65539964815954 0.5 L 96.86548679631909 0.5 L 96.86548679631909 3.5 L 103.86548679631909 0 L 96.86548679631909 -3.5 L 96.86548679631909 -0.5 L 85.65539964815954 -0.5 Z"/><text text-anchor="middle" pointer-events="none" font-size="8px" fill="#000000" x="68.43274339815954" y="3" transform="rotate(180 68.43274339815954 0)" font-family="sans-serif">ENTITY</text></g><g class="relationship" transform="translate(189.01300202753853 69.16221294979138) rotate(198.63100556326577)"><path class="outline" fill="#A5ABB6" stroke="none" d="M 40 0.5 L 101.80541125293276 0.5 L 101.80541125293276 -0.5 L 40 -0.5 Z M 136.25072375293274 0.5 L 198.0561350058655 0.5 L 198.0561350058655 3.5 L 205.0561350058655 0 L 198.0561350058655 -3.5 L 198.0561350058655 -0.5 L 136.25072375293274 -0.5 Z"/><text text-anchor="middle" pointer-events="none" font-size="8px" fill="#000000" x="119.02806750293276" y="3" transform="rotate(180 119.02806750293276 0)" font-family="sans-serif">ENTITY</text></g><g class="relationship" transform="translate(189.01300202753853 69.16221294979138) rotate(528.6576539116653)"><path class="outline" fill="#A5ABB6" stroke="none" d="M 40 0.5 L 82.11518062588945 0.5 L 82.11518062588945 -0.5 L 40 -0.5 Z M 116.56049312588945 0.5 L 158.6756737517789 0.5 L 158.6756737517789 3.5 L 165.6756737517789 0 L 158.6756737517789 -3.5 L 158.6756737517789 -0.5 L 116.56049312588945 -0.5 Z"/><text text-anchor="middle" pointer-events="none" font-size="8px" fill="#000000" x="99.33783687588945" y="3" transform="rotate(180 99.33783687588945 0)" font-family="sans-serif">ENTITY</text></g><g class="relationship" transform="translate(189.01300202753853 69.16221294979138) rotate(388.7621571478529)"><path class="outline" fill="#A5ABB6" stroke="none" d="M 40 0.5 L 83.22224223595677 0.5 L 83.22224223595677 -0.5 L 40 -0.5 Z M 117.66755473595677 0.5 L 160.88979697191354 0.5 L 160.88979697191354 3.5 L 167.88979697191354 0 L 160.88979697191354 -3.5 L 160.88979697191354 -0.5 L 117.66755473595677 -0.5 Z"/><text text-anchor="middle" pointer-events="none" font-size="8px" fill="#000000" x="100.44489848595677" y="3" font-family="sans-serif">ENTITY</text></g></g><g class="layer nodes"><g class="node" transform="translate(176.0588339623847,215.37228098655245)"><circle class="outline" cx="0" cy="0" r="40" fill="#FFC454" stroke="#d7a013" stroke-width="2px"/><text text-anchor="middle" pointer-events="none" font-family="sans-serif" dy="2.5" font-size="40" fill="#604A0E"/><text text-anchor="middle" pointer-events="none" y="5" font-size="10px" fill="#604A0E" font-family="sans-serif"> Nintendo Switch</text></g><g class="node" transform="translate(469.1324819457452,54.47557464318723)"><circle class="outline" cx="0" cy="0" r="40" fill="#4C8EDA" stroke="#2870c2" stroke-width="2px"/><text text-anchor="middle" pointer-events="none" font-family="sans-serif" dy="2.5" font-size="40" fill="#FFFFFF"/><text text-anchor="middle" pointer-events="none" y="5" font-size="10px" fill="#FFFFFF" font-family="sans-serif"> at least</text></g><g class="node" transform="translate(347.8905925694355,-44.86217113312747)"><circle class="outline" cx="0" cy="0" r="40" fill="#4C8EDA" stroke="#2870c2" stroke-width="2px"/><text text-anchor="middle" pointer-events="none" font-family="sans-serif" dy="2.5" font-size="40" fill="#FFFFFF"/><text text-anchor="middle" pointer-events="none" y="5" font-size="10px" fill="#FFFFFF" font-family="sans-serif"> once</text></g><g class="node" transform="translate(158.98026191673748,-71.53360366384837)"><circle class="outline" cx="0" cy="0" r="40" fill="#4C8EDA" stroke="#2870c2" stroke-width="2px"/><text text-anchor="middle" pointer-events="none" font-family="sans-serif" dy="2.5" font-size="40" fill="#FFFFFF"/><text text-anchor="middle" pointer-events="none" y="5" font-size="10px" fill="#FFFFFF" font-family="sans-serif"> twice a week</text></g><g class="node" transform="translate(-43.20112959751221,-9.12639655144185)"><circle class="outline" cx="0" cy="0" r="40" fill="#569480" stroke="#447666" stroke-width="2px"/><text text-anchor="middle" pointer-events="none" font-family="sans-serif" dy="2.5" font-size="40" fill="#FFFFFF"/><text text-anchor="middle" pointer-events="none" y="5" font-size="10px" fill="#FFFFFF" font-family="sans-serif"> Mario Kart 8</text></g><g class="node" transform="translate(-12.645737605813082,109.6126208925587)"><circle class="outline" cx="0" cy="0" r="40" fill="#DA7194" stroke="#cc3c6c" stroke-width="2px"/><text text-anchor="middle" pointer-events="none" font-family="sans-serif" dy="2.5" font-size="40" fill="#FFFFFF"/><text text-anchor="middle" pointer-events="none" y="5" font-size="10px" fill="#FFFFFF" font-family="sans-serif"> Neo4j</text></g><g class="node" transform="translate(371.2543285009028,169.19354109378884)"><circle class="outline" cx="0" cy="0" r="40" fill="#DA7194" stroke="#cc3c6c" stroke-width="2px"/><text text-anchor="middle" pointer-events="none" font-family="sans-serif" dy="2.5" font-size="40" fill="#FFFFFF"/><text text-anchor="middle" pointer-events="none" y="5" font-size="10px" fill="#FFFFFF" font-family="sans-serif"> European</text></g><g class="node" transform="translate(189.01300202753853,69.16221294979138)"><circle class="outline" cx="0" cy="0" r="40" fill="#F79767" stroke="#f36924" stroke-width="2px"/><text text-anchor="middle" pointer-events="none" font-family="sans-serif" dy="2.5" font-size="40" fill="#FFFFFF"/><text text-anchor="middle" pointer-events="none" y="5" font-size="10px" fill="#FFFFFF" font-family="sans-serif"> https://neo4j.co…</text></g></g></svg>