<svg xmlns="http://www.w3.org/2000/svg" width="358.0007629394531" height="356.84088134765625" viewBox="-87.56820678710938 -74.54621887207031 358.0007629394531 356.84088134765625"><title>Neo4j Graph Visualization</title><desc>Created using Neo4j (http://www.neo4j.com/)</desc><g class="layer relationships"><g class="relationship" transform="translate(90.26165600844271 105.96107942938713) rotate(394.2172888239626)"><path class="outline" fill="#A5ABB6" stroke="none" d="M 40 0.5 L 43.596212079190664 0.5 L 43.596212079190664 -0.5 L 40 -0.5 Z M 102.95168082919066 0.5 L 106.54789290838133 0.5 L 106.54789290838133 3.5 L 113.54789290838133 0 L 106.54789290838133 -3.5 L 106.54789290838133 -0.5 L 102.95168082919066 -0.5 Z"/><text text-anchor="middle" pointer-events="none" font-size="8px" fill="#000000" x="73.27394645419066" y="3" font-family="sans-serif">KEY_PHRASE</text></g><g class="relationship" transform="translate(90.26165600844271 105.96107942938713) rotate(428.0831418469552)"><path class="outline" fill="#A5ABB6" stroke="none" d="M 40 0.5 L 42.36866597004361 0.5 L 42.36866597004361 -0.5 L 40 -0.5 Z M 101.72413472004361 0.5 L 104.09280069008722 0.5 L 104.09280069008722 3.5 L 111.09280069008722 0 L 104.09280069008722 -3.5 L 104.09280069008722 -0.5 L 101.72413472004361 -0.5 Z"/><text text-anchor="middle" pointer-events="none" font-size="8px" fill="#000000" x="72.04640034504361" y="3" font-family="sans-serif">KEY_PHRASE</text></g><g class="relationship" transform="translate(90.26165600844271 105.96107942938713) rotate(363.23102451389474)"><path class="outline" fill="#A5ABB6" stroke="none" d="M 40 0.5 L 42.52208300122149 0.5 L 42.52208300122149 -0.5 L 40 -0.5 Z M 101.87755175122149 0.5 L 104.39963475244298 0.5 L 104.39963475244298 3.5 L 111.39963475244298 0 L 104.39963475244298 -3.5 L 104.39963475244298 -0.5 L 101.87755175122149 -0.5 Z"/><text text-anchor="middle" pointer-events="none" font-size="8px" fill="#000000" x="72.19981737622149" y="3" font-family="sans-serif">KEY_PHRASE</text></g><g class="relationship" transform="translate(90.26165600844271 105.96107942938713) rotate(332.6091188602545)"><path class="outline" fill="#A5ABB6" stroke="none" d="M 40 0.5 L 42.44613558854297 0.5 L 42.44613558854297 -0.5 L 40 -0.5 Z M 101.80160433854297 0.5 L 104.24773992708595 0.5 L 104.24773992708595 3.5 L 111.24773992708595 0 L 104.24773992708595 -3.5 L 104.24773992708595 -0.5 L 101.80160433854297 -0.5 Z"/><text text-anchor="middle" pointer-events="none" font-size="8px" fill="#000000" x="72.12386996354297" y="3" font-family="sans-serif">KEY_PHRASE</text></g><g class="relationship" transform="translate(90.26165600844271 105.96107942938713) rotate(271.3886611180699)"><path class="outline" fill="#A5ABB6" stroke="none" d="M 40 0.5 L 42.59706934237683 0.5 L 42.59706934237683 -0.5 L 40 -0.5 Z M 101.95253809237683 0.5 L 104.54960743475365 0.5 L 104.54960743475365 3.5 L 111.54960743475365 0 L 104.54960743475365 -3.5 L 104.54960743475365 -0.5 L 101.95253809237683 -0.5 Z"/><text text-anchor="middle" pointer-events="none" font-size="8px" fill="#000000" x="72.27480371737683" y="3" font-family="sans-serif">KEY_PHRASE</text></g><g class="relationship" transform="translate(90.26165600844271 105.96107942938713) rotate(239.10774090288282)"><path class="outline" fill="#A5ABB6" stroke="none" d="M 40 0.5 L 42.95567325046625 0.5 L 42.95567325046625 -0.5 L 40 -0.5 Z M 102.31114200046625 0.5 L 105.2668152509325 0.5 L 105.2668152509325 3.5 L 112.2668152509325 0 L 105.2668152509325 -3.5 L 105.2668152509325 -0.5 L 102.31114200046625 -0.5 Z"/><text text-anchor="middle" pointer-events="none" font-size="8px" fill="#000000" x="72.63340762546625" y="3" transform="rotate(180 72.63340762546625 0)" font-family="sans-serif">KEY_PHRASE</text></g><g class="relationship" transform="translate(90.26165600844271 105.96107942938713) rotate(205.5152017562458)"><path class="outline" fill="#A5ABB6" stroke="none" d="M 40 0.5 L 42.51339652613137 0.5 L 42.51339652613137 -0.5 L 40 -0.5 Z M 101.86886527613137 0.5 L 104.38226180226275 0.5 L 104.38226180226275 3.5 L 111.38226180226275 0 L 104.38226180226275 -3.5 L 104.38226180226275 -0.5 L 101.86886527613137 -0.5 Z"/><text text-anchor="middle" pointer-events="none" font-size="8px" fill="#000000" x="72.19113090113137" y="3" transform="rotate(180 72.19113090113137 0)" font-family="sans-serif">KEY_PHRASE</text></g><g class="relationship" transform="translate(90.26165600844271 105.96107942938713) rotate(530.6985741399865)"><path class="outline" fill="#A5ABB6" stroke="none" d="M 40 0.5 L 42.17869885860149 0.5 L 42.17869885860149 -0.5 L 40 -0.5 Z M 101.53416760860149 0.5 L 103.71286646720299 0.5 L 103.71286646720299 3.5 L 110.71286646720299 0 L 103.71286646720299 -3.5 L 103.71286646720299 -0.5 L 101.53416760860149 -0.5 Z"/><text text-anchor="middle" pointer-events="none" font-size="8px" fill="#000000" x="71.85643323360149" y="3" transform="rotate(180 71.85643323360149 0)" font-family="sans-serif">KEY_PHRASE</text></g><g class="relationship" transform="translate(90.26165600844271 105.96107942938713) rotate(495.87932873994816)"><path class="outline" fill="#A5ABB6" stroke="none" d="M 40 0.5 L 42.5130092801497 0.5 L 42.5130092801497 -0.5 L 40 -0.5 Z M 101.8684780301497 0.5 L 104.3814873102994 0.5 L 104.3814873102994 3.5 L 111.3814873102994 0 L 104.3814873102994 -3.5 L 104.3814873102994 -0.5 L 101.8684780301497 -0.5 Z"/><text text-anchor="middle" pointer-events="none" font-size="8px" fill="#000000" x="72.1907436551497" y="3" transform="rotate(180 72.1907436551497 0)" font-family="sans-serif">KEY_PHRASE</text></g><g class="relationship" transform="translate(90.26165600844271 105.96107942938713) rotate(462.00585334177686)"><path class="outline" fill="#A5ABB6" stroke="none" d="M 40 0.5 L 42.052583931856844 0.5 L 42.052583931856844 -0.5 L 40 -0.5 Z M 101.40805268185684 0.5 L 103.46063661371369 0.5 L 103.46063661371369 3.5 L 110.46063661371369 0 L 103.46063661371369 -3.5 L 103.46063661371369 -0.5 L 101.40805268185684 -0.5 Z"/><text text-anchor="middle" pointer-events="none" font-size="8px" fill="#000000" x="71.73031830685684" y="3" transform="rotate(180 71.73031830685684 0)" font-family="sans-serif">KEY_PHRASE</text></g><g class="relationship" transform="translate(90.26165600844271 105.96107942938713) rotate(302.53276555428)"><path class="outline" fill="#A5ABB6" stroke="none" d="M 40 0.5 L 43.200026677906806 0.5 L 43.200026677906806 -0.5 L 40 -0.5 Z M 102.5554954279068 0.5 L 105.75552210581361 0.5 L 105.75552210581361 3.5 L 112.75552210581361 0 L 105.75552210581361 -3.5 L 105.75552210581361 -0.5 L 102.5554954279068 -0.5 Z"/><text text-anchor="middle" pointer-events="none" font-size="8px" fill="#000000" x="72.8777610529068" y="3" font-family="sans-serif">KEY_PHRASE</text></g></g><g class="layer nodes"><g class="node" transform="translate(90.26165600844271,105.96107942938713)"><circle class="outline" cx="0" cy="0" r="40" fill="#F79767" stroke="#f36924" stroke-width="2px"/><text text-anchor="middle" pointer-events="none" font-family="sans-serif" dy="2.5" font-size="40" fill="#FFFFFF"/><text text-anchor="middle" pointer-events="none" y="5" font-size="10px" fill="#FFFFFF" font-family="sans-serif"> https://neo4j.co…</text></g><g class="node" transform="translate(211.03025491489979,188.0886176924406)"><circle class="outline" cx="0" cy="0" r="32.5" fill="#8DCC93" stroke="#5db665" stroke-width="2px"/><text text-anchor="middle" pointer-events="none" font-family="sans-serif" dy="2.03125" font-size="32.5" fill="#604A0E"/><text text-anchor="middle" pointer-events="none" y="5" font-size="10px" fill="#604A0E" font-family="sans-serif"> These days</text></g><g class="node" transform="translate(143.85921449092555,239.17592145061215)"><circle class="outline" cx="0" cy="0" r="32.5" fill="#8DCC93" stroke="#5db665" stroke-width="2px"/><text text-anchor="middle" pointer-events="none" font-family="sans-serif" dy="2.03125" font-size="32.5" fill="#604A0E"/><text text-anchor="middle" pointer-events="none" font-family="sans-serif" dy="2.03125" font-size="32.5" fill="#604A0E"/><text text-anchor="middle" pointer-events="none" y="0" font-size="10px" fill="#604A0E" font-family="sans-serif"> more than a</text><text text-anchor="middle" pointer-events="none" y="10" font-size="10px" fill="#604A0E" font-family="sans-serif"> few feet</text></g><g class="node" transform="translate(233.9325466909916,114.07156969629402)"><circle class="outline" cx="0" cy="0" r="32.5" fill="#8DCC93" stroke="#5db665" stroke-width="2px"/><text text-anchor="middle" pointer-events="none" font-family="sans-serif" dy="2.03125" font-size="32.5" fill="#604A0E"/><text text-anchor="middle" pointer-events="none" font-family="sans-serif" dy="2.03125" font-size="32.5" fill="#604A0E"/><text text-anchor="middle" pointer-events="none" y="0" font-size="10px" fill="#604A0E" font-family="sans-serif"> my Nintendo</text><text text-anchor="middle" pointer-events="none" y="10" font-size="10px" fill="#604A0E" font-family="sans-serif"> Switch</text></g><g class="node" transform="translate(217.89363795035487,39.82871277186798)"><circle class="outline" cx="0" cy="0" r="32.5" fill="#8DCC93" stroke="#5db665" stroke-width="2px"/><text text-anchor="middle" pointer-events="none" font-family="sans-serif" dy="2.03125" font-size="32.5" fill="#604A0E"/><text text-anchor="middle" pointer-events="none" y="5" font-size="10px" fill="#604A0E" font-family="sans-serif"> board games</text></g><g class="node" transform="translate(93.75260258527669,-38.04622140673136)"><circle class="outline" cx="0" cy="0" r="32.5" fill="#8DCC93" stroke="#5db665" stroke-width="2px"/><text text-anchor="middle" pointer-events="none" font-family="sans-serif" dy="2.03125" font-size="32.5" fill="#604A0E"/><text text-anchor="middle" pointer-events="none" y="5" font-size="10px" fill="#604A0E" font-family="sans-serif"> card games</text></g><g class="node" transform="translate(15.934707684072851,-18.268287270616923)"><circle class="outline" cx="0" cy="0" r="32.5" fill="#8DCC93" stroke="#5db665" stroke-width="2px"/><text text-anchor="middle" pointer-events="none" font-family="sans-serif" dy="2.03125" font-size="32.5" fill="#604A0E"/><text text-anchor="middle" pointer-events="none" font-family="sans-serif" dy="2.03125" font-size="32.5" fill="#604A0E"/><text text-anchor="middle" pointer-events="none" y="0" font-size="10px" fill="#604A0E" font-family="sans-serif"> role playing</text><text text-anchor="middle" pointer-events="none" y="10" font-size="10px" fill="#604A0E" font-family="sans-serif"> games</text></g><g class="node" transform="translate(-39.587916866239745,43.98371512920563)"><circle class="outline" cx="0" cy="0" r="32.5" fill="#8DCC93" stroke="#5db665" stroke-width="2px"/><text text-anchor="middle" pointer-events="none" font-family="sans-serif" dy="2.03125" font-size="32.5" fill="#604A0E"/><text text-anchor="middle" pointer-events="none" y="5" font-size="10px" fill="#604A0E" font-family="sans-serif"> friends</text></g><g class="node" transform="translate(-51.068203929796475,129.10834301691747)"><circle class="outline" cx="0" cy="0" r="32.5" fill="#8DCC93" stroke="#5db665" stroke-width="2px"/><text text-anchor="middle" pointer-events="none" font-family="sans-serif" dy="2.03125" font-size="32.5" fill="#604A0E"/><text text-anchor="middle" pointer-events="none" y="5" font-size="10px" fill="#604A0E" font-family="sans-serif"> a week</text></g><g class="node" transform="translate(-13.027292382384374,206.12731890627327)"><circle class="outline" cx="0" cy="0" r="32.5" fill="#8DCC93" stroke="#5db665" stroke-width="2px"/><text text-anchor="middle" pointer-events="none" font-family="sans-serif" dy="2.03125" font-size="32.5" fill="#604A0E"/><text text-anchor="middle" pointer-events="none" font-family="sans-serif" dy="2.03125" font-size="32.5" fill="#604A0E"/><text text-anchor="middle" pointer-events="none" y="0" font-size="10px" fill="#604A0E" font-family="sans-serif"> lunch-time</text><text text-anchor="middle" pointer-events="none" y="10" font-size="10px" fill="#604A0E" font-family="sans-serif"> Mario Kart</text></g><g class="node" transform="translate(60.524182765337464,245.79464587934183)"><circle class="outline" cx="0" cy="0" r="32.5" fill="#8DCC93" stroke="#5db665" stroke-width="2px"/><text text-anchor="middle" pointer-events="none" font-family="sans-serif" dy="2.03125" font-size="32.5" fill="#604A0E"/><text text-anchor="middle" pointer-events="none" font-family="sans-serif" dy="2.03125" font-size="32.5" fill="#604A0E"/><text text-anchor="middle" pointer-events="none" y="0" font-size="10px" fill="#604A0E" font-family="sans-serif"> 8</text><text text-anchor="middle" pointer-events="none" y="10" font-size="10px" fill="#604A0E" font-family="sans-serif"> tournaments</text></g><g class="node" transform="translate(168.37743621849756,-16.50153357722363)"><circle class="outline" cx="0" cy="0" r="32.5" fill="#8DCC93" stroke="#5db665" stroke-width="2px"/><text text-anchor="middle" pointer-events="none" font-family="sans-serif" dy="2.03125" font-size="32.5" fill="#604A0E"/><text text-anchor="middle" pointer-events="none" font-family="sans-serif" dy="2.03125" font-size="32.5" fill="#604A0E"/><text text-anchor="middle" pointer-events="none" font-family="sans-serif" dy="2.03125" font-size="32.5" fill="#604A0E"/><text text-anchor="middle" pointer-events="none" y="-5" font-size="10px" fill="#604A0E" font-family="sans-serif"> the Neo4j</text><text text-anchor="middle" pointer-events="none" y="5" font-size="10px" fill="#604A0E" font-family="sans-serif"> European</text><text text-anchor="middle" pointer-events="none" y="15" font-size="10px" fill="#604A0E" font-family="sans-serif"> offices</text></g></g></svg>