<svg xmlns="http://www.w3.org/2000/svg" width="602.716796875" height="332.58526611328125" viewBox="-226.9031982421875 -123.75533294677734 602.716796875 332.58526611328125"><title>Neo4j Graph Visualization</title><desc>Created using Neo4j (http://www.neo4j.com/)</desc><g class="layer relationships"><g class="relationship" transform="translate(-182.9032028288879 95.04354208813771) rotate(359.387160073544)"><path class="outline" fill="#A5ABB6" stroke="none" d="M 40 0.5 L 74.35582682670503 0.5 L 74.35582682670503 -0.5 L 40 -0.5 Z M 119.47301432670503 0.5 L 153.82884115341005 0.5 L 153.82884115341005 3.5 L 160.82884115341005 0 L 153.82884115341005 -3.5 L 153.82884115341005 -0.5 L 119.47301432670503 -0.5 Z"/><text text-anchor="middle" pointer-events="none" font-size="8px" fill="#000000" x="96.91442057670503" y="3" font-family="sans-serif">FOLLOWS</text></g><g class="relationship" transform="translate(17.914150420861752 92.8955027991885) rotate(351.5051585622939)"><path class="outline" fill="#A5ABB6" stroke="none" d="M 40 0.5 L 132.6321070961481 0.5 L 132.6321070961481 -0.5 L 40 -0.5 Z M 177.7492945961481 0.5 L 270.3814016922962 0.5 L 270.3814016922962 3.5 L 277.3814016922962 0 L 270.3814016922962 -3.5 L 270.3814016922962 -0.5 L 177.7492945961481 -0.5 Z"/><text text-anchor="middle" pointer-events="none" font-size="8px" fill="#000000" x="155.1907008461481" y="3" font-family="sans-serif">FOLLOWS</text></g><g class="relationship" transform="translate(17.914150420861752 92.8955027991885) rotate(294.88252738513637)"><path class="outline" fill="#A5ABB6" stroke="none" d="M 38.50762352901147,10.835724717245364 L 38.766442574113995,9.869798890956295 A 211.7015106696471 211.7015106696471 0 0 0 69.1616123984322,15.672844496130864 L 69.04636894581445,16.666181773508868 A 212.7015106696471 212.7015106696471 0 0 1 38.50762352901147,10.835724717245364 Z M 114.182824321281,17.081117919367102 L 114.08586215658383,16.085829851209326 A 211.7015106696471 211.7015106696471 0 0 0 144.58257996392604,10.842558932765016 L 143.85952766651727,7.930996572929343 L 151.4967341864441,9.640697298783799 L 145.54664969380443,14.724642079212583 L 144.82359739639566,11.813079719376908 A 212.7015106696471 212.7015106696471 0 0 1 114.182824321281,17.081117919367102"/><text text-anchor="middle" pointer-events="none" font-size="8px" fill="#000000" x="91.60815480846713" y="20.57438694343233" font-family="sans-serif">FOLLOWS</text></g><g class="relationship" transform="translate(17.914150420861752 92.8955027991885) rotate(376.4032069135891)"><path class="outline" fill="#A5ABB6" stroke="none" d="M 40 0.5 L 101.30626210746614 0.5 L 101.30626210746614 -0.5 L 40 -0.5 Z M 146.42344960746613 0.5 L 207.72971171493228 0.5 L 207.72971171493228 3.5 L 214.72971171493228 0 L 207.72971171493228 -3.5 L 207.72971171493228 -0.5 L 146.42344960746613 -0.5 Z"/><text text-anchor="middle" pointer-events="none" font-size="8px" fill="#000000" x="123.86485585746614" y="3" font-family="sans-serif">FOLLOWS</text></g><g class="relationship" transform="translate(331.81361382473256 46.011806113361146) rotate(208.27476293042423)"><path class="outline" fill="#A5ABB6" stroke="none" d="M 40 0.5 L 111.13835535376305 0.5 L 111.13835535376305 -0.5 L 40 -0.5 Z M 147.36101160376305 0.5 L 218.4993669575261 0.5 L 218.4993669575261 3.5 L 225.4993669575261 0 L 218.4993669575261 -3.5 L 218.4993669575261 -0.5 L 147.36101160376305 -0.5 Z"/><text text-anchor="middle" pointer-events="none" font-size="8px" fill="#000000" x="129.24968347876305" y="3" transform="rotate(180 129.24968347876305 0)" font-family="sans-serif">KNOWS</text></g><g class="relationship" transform="translate(97.99201452018036 -79.75533408434129) rotate(474.88252738513637)"><path class="outline" fill="#A5ABB6" stroke="none" d="M 38.50762352901147,10.835724717245364 L 38.766442574113995,9.869798890956295 A 211.7015106696471 211.7015106696471 0 0 0 69.1616123984322,15.672844496130864 L 69.04636894581445,16.666181773508868 A 212.7015106696471 212.7015106696471 0 0 1 38.50762352901147,10.835724717245364 Z M 114.182824321281,17.081117919367102 L 114.08586215658383,16.085829851209326 A 211.7015106696471 211.7015106696471 0 0 0 144.58257996392604,10.842558932765016 L 143.85952766651727,7.930996572929343 L 151.4967341864441,9.640697298783799 L 145.54664969380443,14.724642079212583 L 144.82359739639566,11.813079719376908 A 212.7015106696471 212.7015106696471 0 0 1 114.182824321281,17.081117919367102"/><text text-anchor="middle" pointer-events="none" font-size="8px" fill="#000000" x="91.60815480846713" y="20.57438694343233" transform="rotate(180 91.60815480846713 17.57438694343233)" font-family="sans-serif">FOLLOWS</text></g></g><g class="layer nodes"><g class="node" transform="translate(-182.9032028288879,95.04354208813771)"><circle class="outline" cx="0" cy="0" r="40" fill="#DA7194" stroke="#cc3c6c" stroke-width="2px"/><text text-anchor="middle" pointer-events="none" font-family="sans-serif" dy="2.5" font-size="40" fill="#FFFFFF"/><text text-anchor="middle" pointer-events="none" y="5" font-size="10px" fill="#FFFFFF" font-family="sans-serif"> Alicia</text></g><g class="node" transform="translate(17.914150420861752,92.8955027991885)"><circle class="outline" cx="0" cy="0" r="40" fill="#FFC454" stroke="#d7a013" stroke-width="2px"/><text text-anchor="middle" pointer-events="none" font-family="sans-serif" dy="2.5" font-size="40" fill="#604A0E"/><text text-anchor="middle" pointer-events="none" y="5" font-size="10px" fill="#604A0E" font-family="sans-serif"> Joe</text></g><g class="node" transform="translate(331.81361382473256,46.011806113361146)"><circle class="outline" cx="0" cy="0" r="40" fill="#4C8EDA" stroke="#2870c2" stroke-width="2px"/><text text-anchor="middle" pointer-events="none" font-family="sans-serif" dy="2.5" font-size="40" fill="#FFFFFF"/><text text-anchor="middle" pointer-events="none" y="5" font-size="10px" fill="#FFFFFF" font-family="sans-serif"> Zhen</text></g><g class="node" transform="translate(97.99201452018036,-79.75533408434129)"><circle class="outline" cx="0" cy="0" r="40" fill="#4C8EDA" stroke="#2870c2" stroke-width="2px"/><text text-anchor="middle" pointer-events="none" font-family="sans-serif" dy="2.5" font-size="40" fill="#FFFFFF"/><text text-anchor="middle" pointer-events="none" y="5" font-size="10px" fill="#FFFFFF" font-family="sans-serif"> Praveena</text></g><g class="node" transform="translate(262.2758967255933,164.82993803902696)"><circle class="outline" cx="0" cy="0" r="40" fill="#ECB5C9" stroke="#da7298" stroke-width="2px"/><text text-anchor="middle" pointer-events="none" font-family="sans-serif" dy="2.5" font-size="40" fill="#604A0E"/><text text-anchor="middle" pointer-events="none" y="5" font-size="10px" fill="#604A0E" font-family="sans-serif"> Mark</text></g></g></svg>