<svg xmlns="http://www.w3.org/2000/svg" width="687.5796508789062" height="427.1199951171875" viewBox="-160.28509521484375 -211.5308380126953 687.5796508789062 427.1199951171875"><title>Neo4j Graph Visualization</title><desc>Created using Neo4j (http://www.neo4j.com/)</desc><g class="layer relationships"><g class="relationship" transform="translate(73.7768607064686 -62.80804963652484) rotate(469.7419498645765)"><path class="outline" fill="#A5ABB6" stroke="none" d="M 40 0.5 L 56.929961581501416 0.5 L 56.929961581501416 -0.5 L 40 -0.5 Z M 102.04714908150142 0.5 L 118.97711066300283 0.5 L 118.97711066300283 3.5 L 125.97711066300283 0 L 118.97711066300283 -3.5 L 118.97711066300283 -0.5 L 102.04714908150142 -0.5 Z"/><text text-anchor="middle" pointer-events="none" font-size="8px" fill="#000000" x="79.48855533150142" y="3" transform="rotate(180 79.48855533150142 0)" font-family="sans-serif">FOLLOWS</text></g><g class="relationship" transform="translate(73.7768607064686 -62.80804963652484) rotate(336.6897651630112)"><path class="outline" fill="#A5ABB6" stroke="none" d="M 38.50762352901147,10.835724717245364 L 38.766442574113995,9.869798890956295 A 275.87605748450227 275.87605748450227 0 0 0 85.50891366750191,18.165727785005743 L 85.41952748844653,19.16172482867296 A 276.87605748450227 276.87605748450227 0 0 1 38.50762352901147,10.835724717245364 Z M 130.56676389857893,19.517619647955996 L 130.4930907043526,18.520337210302273 A 275.87605748450227 275.87605748450227 0 0 0 177.3605380512126,10.962333550562608 L 176.6298608225507,8.052675359723859 L 184.2715200346133,9.742363048824737 L 178.33477435609507,14.841877805014276 L 177.6040971274332,11.932219614175526 A 276.87605748450227 276.87605748450227 0 0 1 130.56676389857893,19.517619647955996"/><text text-anchor="middle" pointer-events="none" font-size="8px" fill="#000000" x="107.9898207421797" y="22.76146079985267" font-family="sans-serif">FOLLOWS</text></g><g class="relationship" transform="translate(483.29452685336486 58.36464465294527) rotate(225.66189916632254)"><path class="outline" fill="#A5ABB6" stroke="none" d="M 40 0.5 L 124.80518724953532 0.5 L 124.80518724953532 -0.5 L 40 -0.5 Z M 161.02784349953532 0.5 L 245.83303074907064 0.5 L 245.83303074907064 3.5 L 252.83303074907064 0 L 245.83303074907064 -3.5 L 245.83303074907064 -0.5 L 161.02784349953532 -0.5 Z"/><text text-anchor="middle" pointer-events="none" font-size="8px" fill="#000000" x="142.91651537453532" y="3" transform="rotate(180 142.91651537453532 0)" font-family="sans-serif">KNOWS</text></g><g class="relationship" transform="translate(278.6361407896361 -151.07777920496355) rotate(516.6897651630112)"><path class="outline" fill="#A5ABB6" stroke="none" d="M 38.50762352901147,10.835724717245364 L 38.766442574113995,9.869798890956295 A 275.87605748450227 275.87605748450227 0 0 0 85.50891366750191,18.165727785005743 L 85.41952748844653,19.16172482867296 A 276.87605748450227 276.87605748450227 0 0 1 38.50762352901147,10.835724717245364 Z M 130.56676389857893,19.517619647955996 L 130.4930907043526,18.520337210302273 A 275.87605748450227 275.87605748450227 0 0 0 177.3605380512126,10.962333550562608 L 176.6298608225507,8.052675359723859 L 184.2715200346133,9.742363048824737 L 178.33477435609507,14.841877805014276 L 177.6040971274332,11.932219614175526 A 276.87605748450227 276.87605748450227 0 0 1 130.56676389857893,19.517619647955996"/><text text-anchor="middle" pointer-events="none" font-size="8px" fill="#000000" x="107.9898207421797" y="22.76146079985267" transform="rotate(180 107.9898207421797 19.76146079985267)" font-family="sans-serif">FOLLOWS</text></g><g class="relationship" transform="translate(222.93724902622287 68.66715196479417) rotate(221.39408391541707)"><path class="outline" fill="#A5ABB6" stroke="none" d="M 40 0.5 L 73.35789140186925 0.5 L 73.35789140186925 -0.5 L 40 -0.5 Z M 118.47507890186925 0.5 L 151.8329703037385 0.5 L 151.8329703037385 3.5 L 158.8329703037385 0 L 151.8329703037385 -3.5 L 151.8329703037385 -0.5 L 118.47507890186925 -0.5 Z"/><text text-anchor="middle" pointer-events="none" font-size="8px" fill="#000000" x="95.91648515186925" y="3" transform="rotate(180 95.91648515186925 0)" font-family="sans-serif">FOLLOWS</text></g><g class="relationship" transform="translate(-62.48525378334878 -167.53083738585264) rotate(397.54369280456774)"><path class="outline" fill="#A5ABB6" stroke="none" d="M 40 0.5 L 59.869030037736124 0.5 L 59.869030037736124 -0.5 L 40 -0.5 Z M 104.98621753773612 0.5 L 124.85524757547225 0.5 L 124.85524757547225 3.5 L 131.85524757547225 0 L 124.85524757547225 -3.5 L 124.85524757547225 -0.5 L 104.98621753773612 -0.5 Z"/><text text-anchor="middle" pointer-events="none" font-size="8px" fill="#000000" x="82.42762378773612" y="3" font-family="sans-serif">FOLLOWS</text></g><g class="relationship" transform="translate(483.29452685336486 58.36464465294527) rotate(516.9184289948739)"><path class="outline" fill="#A5ABB6" stroke="none" d="M 40 0.5 L 122.79247675469637 0.5 L 122.79247675469637 -0.5 L 40 -0.5 Z M 159.01513300469637 0.5 L 241.80760975939273 0.5 L 241.80760975939273 3.5 L 248.80760975939273 0 L 241.80760975939273 -3.5 L 241.80760975939273 -0.5 L 159.01513300469637 -0.5 Z"/><text text-anchor="middle" pointer-events="none" font-size="8px" fill="#000000" x="140.90380487969637" y="3" transform="rotate(180 140.90380487969637 0)" font-family="sans-serif">KNOWS</text></g><g class="relationship" transform="translate(73.7768607064686 -62.80804963652484) rotate(376.48302458957687)"><path class="outline" fill="#A5ABB6" stroke="none" d="M 40 0.5 L 187.47567793008076 0.5 L 187.47567793008076 -0.5 L 40 -0.5 Z M 232.59286543008076 0.5 L 380.0685433601615 0.5 L 380.0685433601615 3.5 L 387.0685433601615 0 L 380.0685433601615 -3.5 L 380.0685433601615 -0.5 L 232.59286543008076 -0.5 Z"/><text text-anchor="middle" pointer-events="none" font-size="8px" fill="#000000" x="210.03427168008076" y="3" font-family="sans-serif">FOLLOWS</text></g><g class="relationship" transform="translate(483.29452685336486 58.36464465294527) rotate(537.7339508919415)"><path class="outline" fill="#A5ABB6" stroke="none" d="M 40 0.5 L 108.669190156198 0.5 L 108.669190156198 -0.5 L 40 -0.5 Z M 144.891846406198 0.5 L 213.561036562396 0.5 L 213.561036562396 3.5 L 220.561036562396 0 L 213.561036562396 -3.5 L 213.561036562396 -0.5 L 144.891846406198 -0.5 Z"/><text text-anchor="middle" pointer-events="none" font-size="8px" fill="#000000" x="126.780518281198" y="3" transform="rotate(180 126.780518281198 0)" font-family="sans-serif">KNOWS</text></g><g class="relationship" transform="translate(17.712368996255847 93.41350468077854) rotate(353.12437637808534)"><path class="outline" fill="#A5ABB6" stroke="none" d="M 40 0.5 L 77.29714309616915 0.5 L 77.29714309616915 -0.5 L 40 -0.5 Z M 122.41433059616915 0.5 L 159.7114736923383 0.5 L 159.7114736923383 3.5 L 166.7114736923383 0 L 159.7114736923383 -3.5 L 159.7114736923383 -0.5 L 122.41433059616915 -0.5 Z"/><text text-anchor="middle" pointer-events="none" font-size="8px" fill="#000000" x="99.85573684616915" y="3" font-family="sans-serif">FOLLOWS</text></g><g class="relationship" transform="translate(483.29452685336486 58.36464465294527) rotate(250.39004762890767)"><path class="outline" fill="#A5ABB6" stroke="none" d="M 40 0.5 L 76.3677140718453 0.5 L 76.3677140718453 -0.5 L 40 -0.5 Z M 112.5903703218453 0.5 L 148.9580843936906 0.5 L 148.9580843936906 3.5 L 155.9580843936906 0 L 148.9580843936906 -3.5 L 148.9580843936906 -0.5 L 112.5903703218453 -0.5 Z"/><text text-anchor="middle" pointer-events="none" font-size="8px" fill="#000000" x="94.4790421968453" y="3" transform="rotate(180 94.4790421968453 0)" font-family="sans-serif">KNOWS</text></g><g class="relationship" transform="translate(-62.48525378334878 -167.53083738585264) rotate(465.26396108142336)"><path class="outline" fill="#A5ABB6" stroke="none" d="M 40 0.5 L 80.56627562322443 0.5 L 80.56627562322443 -0.5 L 40 -0.5 Z M 116.78893187322443 0.5 L 157.35520749644886 0.5 L 157.35520749644886 3.5 L 164.35520749644886 0 L 157.35520749644886 -3.5 L 157.35520749644886 -0.5 L 116.78893187322443 -0.5 Z"/><text text-anchor="middle" pointer-events="none" font-size="8px" fill="#000000" x="98.67760374822443" y="3" transform="rotate(180 98.67760374822443 0)" font-family="sans-serif">KNOWS</text></g><g class="relationship" transform="translate(17.712368996255847 93.41350468077854) rotate(205.45979566864867)"><path class="outline" fill="#A5ABB6" stroke="none" d="M 40 0.5 L 52.59366008911245 0.5 L 52.59366008911245 -0.5 L 40 -0.5 Z M 88.81631633911245 0.5 L 101.4099764282249 0.5 L 101.4099764282249 3.5 L 108.4099764282249 0 L 101.4099764282249 -3.5 L 101.4099764282249 -0.5 L 88.81631633911245 -0.5 Z"/><text text-anchor="middle" pointer-events="none" font-size="8px" fill="#000000" x="70.70498821411245" y="3" transform="rotate(180 70.70498821411245 0)" font-family="sans-serif">KNOWS</text></g></g><g class="layer nodes"><g class="node" transform="translate(73.7768607064686,-62.80804963652484)"><circle class="outline" cx="0" cy="0" r="40" fill="#FFC454" stroke="#d7a013" stroke-width="2px"/><text text-anchor="middle" pointer-events="none" font-family="sans-serif" dy="2.5" font-size="40" fill="#604A0E"/><text text-anchor="middle" pointer-events="none" y="5" font-size="10px" fill="#604A0E" font-family="sans-serif"> Joe</text></g><g class="node" transform="translate(17.712368996255847,93.41350468077854)"><circle class="outline" cx="0" cy="0" r="40" fill="#ECB5C9" stroke="#da7298" stroke-width="2px"/><text text-anchor="middle" pointer-events="none" font-family="sans-serif" dy="2.5" font-size="40" fill="#604A0E"/><text text-anchor="middle" pointer-events="none" y="5" font-size="10px" fill="#604A0E" font-family="sans-serif"> Mark</text></g><g class="node" transform="translate(278.6361407896361,-151.07777920496355)"><circle class="outline" cx="0" cy="0" r="40" fill="#4C8EDA" stroke="#2870c2" stroke-width="2px"/><text text-anchor="middle" pointer-events="none" font-family="sans-serif" dy="2.5" font-size="40" fill="#FFFFFF"/><text text-anchor="middle" pointer-events="none" y="5" font-size="10px" fill="#FFFFFF" font-family="sans-serif"> Praveena</text></g><g class="node" transform="translate(483.29452685336486,58.36464465294527)"><circle class="outline" cx="0" cy="0" r="40" fill="#4C8EDA" stroke="#2870c2" stroke-width="2px"/><text text-anchor="middle" pointer-events="none" font-family="sans-serif" dy="2.5" font-size="40" fill="#FFFFFF"/><text text-anchor="middle" pointer-events="none" y="5" font-size="10px" fill="#FFFFFF" font-family="sans-serif"> Zhen</text></g><g class="node" transform="translate(222.93724902622287,68.66715196479417)"><circle class="outline" cx="0" cy="0" r="40" fill="#FFC454" stroke="#d7a013" stroke-width="2px"/><text text-anchor="middle" pointer-events="none" font-family="sans-serif" dy="2.5" font-size="40" fill="#604A0E"/><text text-anchor="middle" pointer-events="none" y="5" font-size="10px" fill="#604A0E" font-family="sans-serif"> Stefan</text></g><g class="node" transform="translate(-62.48525378334878,-167.53083738585264)"><circle class="outline" cx="0" cy="0" r="40" fill="#DA7194" stroke="#cc3c6c" stroke-width="2px"/><text text-anchor="middle" pointer-events="none" font-family="sans-serif" dy="2.5" font-size="40" fill="#FFFFFF"/><text text-anchor="middle" pointer-events="none" y="5" font-size="10px" fill="#FFFFFF" font-family="sans-serif"> Alicia</text></g><g class="node" transform="translate(217.6066467860275,171.58913776401124)"><circle class="outline" cx="0" cy="0" r="40" fill="#ECB5C9" stroke="#da7298" stroke-width="2px"/><text text-anchor="middle" pointer-events="none" font-family="sans-serif" dy="2.5" font-size="40" fill="#604A0E"/><text text-anchor="middle" pointer-events="none" y="5" font-size="10px" fill="#604A0E" font-family="sans-serif"> Lju</text></g><g class="node" transform="translate(417.5280148510948,-126.22770821764371)"><circle class="outline" cx="0" cy="0" r="40" fill="#4C8EDA" stroke="#2870c2" stroke-width="2px"/><text text-anchor="middle" pointer-events="none" font-family="sans-serif" dy="2.5" font-size="40" fill="#FFFFFF"/><text text-anchor="middle" pointer-events="none" y="5" font-size="10px" fill="#FFFFFF" font-family="sans-serif"> Martin</text></g><g class="node" transform="translate(-116.28509178231812,29.615372981481897)"><circle class="outline" cx="0" cy="0" r="40" fill="#DA7194" stroke="#cc3c6c" stroke-width="2px"/><text text-anchor="middle" pointer-events="none" font-family="sans-serif" dy="2.5" font-size="40" fill="#FFFFFF"/><text text-anchor="middle" pointer-events="none" y="5" font-size="10px" fill="#FFFFFF" font-family="sans-serif"> Jake</text></g></g></svg>