<svg xmlns="http://www.w3.org/2000/svg" width="514.3766479492188" height="102.38185119628906" viewBox="-143.37889099121094 79.86076354980469 514.3766479492188 102.38185119628906"><title>Neo4j Graph Visualization</title><desc>Created using Neo4j (http://www.neo4j.com/)</desc><g class="layer relationships"><g class="relationship" transform="translate(-99.37889372750755 138.24261247651282) rotate(356.10859377739996)"><path class="outline" fill="#A5ABB6" stroke="none" d="M 40 0.5 L 88.79029733756377 0.5 L 88.79029733756377 -0.5 L 40 -0.5 Z M 116.12623483756377 0.5 L 164.91653217512754 0.5 L 164.91653217512754 3.5 L 171.91653217512754 0 L 164.91653217512754 -3.5 L 164.91653217512754 -0.5 L 116.12623483756377 -0.5 Z"/><text text-anchor="middle" pointer-events="none" font-size="8px" fill="#000000" x="102.45826608756377" y="3" font-family="sans-serif">NEXT</text></g><g class="relationship" transform="translate(112.04905835713097 123.8607597993483) rotate(361.58621497848037)"><path class="outline" fill="#A5ABB6" stroke="none" d="M 40 0.5 L 90.34758672464845 0.5 L 90.34758672464845 -0.5 L 40 -0.5 Z M 117.68352422464845 0.5 L 168.0311109492969 0.5 L 168.0311109492969 3.5 L 175.0311109492969 0 L 168.0311109492969 -3.5 L 168.0311109492969 -0.5 L 117.68352422464845 -0.5 Z"/><text text-anchor="middle" pointer-events="none" font-size="8px" fill="#000000" x="104.01555547464845" y="3" font-family="sans-serif">NEXT</text></g></g><g class="layer nodes"><g class="node" transform="translate(-99.37889372750755,138.24261247651282)"><circle class="outline" cx="0" cy="0" r="40" fill="#FFC454" stroke="#d7a013" stroke-width="2px"/><text text-anchor="middle" pointer-events="none" font-family="sans-serif" dy="2.5" font-size="40" fill="#604A0E"/><text text-anchor="middle" pointer-events="none" y="5" font-size="10px" fill="#604A0E" font-family="sans-serif"> Event 1</text></g><g class="node" transform="translate(112.04905835713097,123.8607597993483)"><circle class="outline" cx="0" cy="0" r="40" fill="#FFC454" stroke="#d7a013" stroke-width="2px"/><text text-anchor="middle" pointer-events="none" font-family="sans-serif" dy="2.5" font-size="40" fill="#604A0E"/><text text-anchor="middle" pointer-events="none" y="5" font-size="10px" fill="#604A0E" font-family="sans-serif"> Event 2</text></g><g class="node" transform="translate(326.997770220741,129.81306559320603)"><circle class="outline" cx="0" cy="0" r="40" fill="#FFC454" stroke="#d7a013" stroke-width="2px"/><text text-anchor="middle" pointer-events="none" font-family="sans-serif" dy="2.5" font-size="40" fill="#604A0E"/><text text-anchor="middle" pointer-events="none" y="5" font-size="10px" fill="#604A0E" font-family="sans-serif"> Event 3</text></g></g></svg>