<svg xmlns="http://www.w3.org/2000/svg" width="836.61669921875" height="507.1579895019531" viewBox="-493.8575439453125 -270.8374328613281 836.61669921875 507.1579895019531"><title>Neo4j Graph Visualization</title><desc>Created using Neo4j (http://www.neo4j.com/)</desc><g class="layer relationships"><g class="relationship" transform="translate(196.83505974471683 -190.53452583040917) rotate(475.39278587076257)"><path class="outline" fill="#A5ABB6" stroke="none" d="M 40 0.5 L 51.92597004344495 0.5 L 51.92597004344495 -0.5 L 40 -0.5 Z M 109.78925129344495 0.5 L 121.7152213368899 0.5 L 121.7152213368899 3.5 L 128.7152213368899 0 L 121.7152213368899 -3.5 L 121.7152213368899 -0.5 L 109.78925129344495 -0.5 Z"/><text text-anchor="middle" pointer-events="none" font-size="8px" fill="#000000" x="80.85761066844495" y="3" transform="rotate(180 80.85761066844495 0)" font-family="sans-serif">SUB_CAT_OF</text></g><g class="relationship" transform="translate(-280.85854988858034 -137.10719754577696) rotate(369.51746708736704)"><path class="outline" fill="#A5ABB6" stroke="none" d="M 40 0.5 L 52.14970372278151 0.5 L 52.14970372278151 -0.5 L 40 -0.5 Z M 110.01298497278151 0.5 L 122.16268869556302 0.5 L 122.16268869556302 3.5 L 129.16268869556302 0 L 122.16268869556302 -3.5 L 122.16268869556302 -0.5 L 110.01298497278151 -0.5 Z"/><text text-anchor="middle" pointer-events="none" font-size="8px" fill="#000000" x="81.08134434778151" y="3" font-family="sans-serif">SUB_CAT_OF</text></g><g class="relationship" transform="translate(-8.366780272440636 132.98537796298632) rotate(215.91357313876762)"><path class="outline" fill="#A5ABB6" stroke="none" d="M 40 0.5 L 86.84282855666292 0.5 L 86.84282855666292 -0.5 L 40 -0.5 Z M 144.70610980666294 0.5 L 191.54893836332585 0.5 L 191.54893836332585 3.5 L 198.54893836332585 0 L 191.54893836332585 -3.5 L 191.54893836332585 -0.5 L 144.70610980666294 -0.5 Z"/><text text-anchor="middle" pointer-events="none" font-size="8px" fill="#000000" x="115.77446918166292" y="3" transform="rotate(180 115.77446918166292 0)" font-family="sans-serif">SUB_CAT_OF</text></g><g class="relationship" transform="translate(-28.253994353865124 -215.86110273351855) rotate(488.7874499266595)"><path class="outline" fill="#A5ABB6" stroke="none" d="M 40 0.5 L 41.95344783506437 0.5 L 41.95344783506437 -0.5 L 40 -0.5 Z M 87.96516658506437 0.5 L 89.91861442012873 0.5 L 89.91861442012873 3.5 L 96.91861442012873 0 L 89.91861442012873 -3.5 L 89.91861442012873 -0.5 L 87.96516658506437 -0.5 Z"/><text text-anchor="middle" pointer-events="none" font-size="8px" fill="#000000" x="64.95930721006437" y="3" transform="rotate(180 64.95930721006437 0)" font-family="sans-serif">SUB_CA…</text></g><g class="relationship" transform="translate(74.44663103153866 70.01105390595075) rotate(195.57789496307214)"><path class="outline" fill="#A5ABB6" stroke="none" d="M 40 0.5 L 110.83863577106277 0.5 L 110.83863577106277 -0.5 L 40 -0.5 Z M 168.70191702106277 0.5 L 239.54055279212554 0.5 L 239.54055279212554 3.5 L 246.54055279212554 0 L 239.54055279212554 -3.5 L 239.54055279212554 -0.5 L 168.70191702106277 -0.5 Z"/><text text-anchor="middle" pointer-events="none" font-size="8px" fill="#000000" x="139.77027639606277" y="3" transform="rotate(180 139.77027639606277 0)" font-family="sans-serif">SUB_CAT_OF</text></g><g class="relationship" transform="translate(-114.02434507280978 -109.13643870370251) rotate(395.65487587366056)"><path class="outline" fill="#A5ABB6" stroke="none" d="M 40 0.5 L 40.638045077461115 0.5 L 40.638045077461115 -0.5 L 40 -0.5 Z M 90.94273257746111 0.5 L 91.58077765492223 0.5 L 91.58077765492223 3.5 L 98.58077765492223 0 L 91.58077765492223 -3.5 L 91.58077765492223 -0.5 L 90.94273257746111 -0.5 Z"/><text text-anchor="middle" pointer-events="none" font-size="8px" fill="#000000" x="65.79038882746111" y="3" font-family="sans-serif">SUB_CAT…</text></g><g class="relationship" transform="translate(-208.99131428704024 -226.83743045171127) rotate(411.10169783467126)"><path class="outline" fill="#A5ABB6" stroke="none" d="M 40 0.5 L 43.18622879123227 0.5 L 43.18622879123227 -0.5 L 40 -0.5 Z M 101.04951004123227 0.5 L 104.23573883246453 0.5 L 104.23573883246453 3.5 L 111.23573883246453 0 L 104.23573883246453 -3.5 L 104.23573883246453 -0.5 L 101.04951004123227 -0.5 Z"/><text text-anchor="middle" pointer-events="none" font-size="8px" fill="#000000" x="72.11786941623227" y="3" font-family="sans-serif">SUB_CAT_OF</text></g><g class="relationship" transform="translate(-334.3594509957182 -40.601208003171806) rotate(374.22471747081767)"><path class="outline" fill="#A5ABB6" stroke="none" d="M 40 0.5 L 41.98987845025661 0.5 L 41.98987845025661 -0.5 L 40 -0.5 Z M 88.00159720025661 0.5 L 89.99147565051322 0.5 L 89.99147565051322 3.5 L 96.99147565051322 0 L 89.99147565051322 -3.5 L 89.99147565051322 -0.5 L 88.00159720025661 -0.5 Z"/><text text-anchor="middle" pointer-events="none" font-size="8px" fill="#000000" x="64.99573782525661" y="3" font-family="sans-serif">SUB_CA…</text></g><g class="relationship" transform="translate(-201.56821155656866 -6.938897786556851) rotate(353.89176586577116)"><path class="outline" fill="#A5ABB6" stroke="none" d="M 40 0.5 L 68.21309688427802 0.5 L 68.21309688427802 -0.5 L 40 -0.5 Z M 126.07637813427802 0.5 L 154.28947501855603 0.5 L 154.28947501855603 3.5 L 161.28947501855603 0 L 154.28947501855603 -3.5 L 154.28947501855603 -0.5 L 126.07637813427802 -0.5 Z"/><text text-anchor="middle" pointer-events="none" font-size="8px" fill="#000000" x="97.14473750927802" y="3" font-family="sans-serif">SUB_CAT_OF</text></g><g class="relationship" transform="translate(190.09382018118987 108.36301967385415) rotate(245.87299217710768)"><path class="outline" fill="#A5ABB6" stroke="none" d="M 40 0.5 L 47.820027254612185 0.5 L 47.820027254612185 -0.5 L 40 -0.5 Z M 105.68330850461219 0.5 L 113.50333575922437 0.5 L 113.50333575922437 3.5 L 120.50333575922437 0 L 113.50333575922437 -3.5 L 113.50333575922437 -0.5 L 105.68330850461219 -0.5 Z"/><text text-anchor="middle" pointer-events="none" font-size="8px" fill="#000000" x="76.75166787961219" y="3" transform="rotate(180 76.75166787961219 0)" font-family="sans-serif">SUB_CAT_OF</text></g><g class="relationship" transform="translate(124.48636388551537 -38.11900129885592) rotate(535.5667891388209)"><path class="outline" fill="#A5ABB6" stroke="none" d="M 40 0.5 L 42.19364176982899 0.5 L 42.19364176982899 -0.5 L 40 -0.5 Z M 77.09207926982899 0.5 L 79.28572103965799 0.5 L 79.28572103965799 3.5 L 86.28572103965799 0 L 79.28572103965799 -3.5 L 79.28572103965799 -0.5 L 77.09207926982899 -0.5 Z"/><text text-anchor="middle" pointer-events="none" font-size="8px" fill="#000000" x="59.64286051982899" y="3" transform="rotate(180 59.64286051982899 0)" font-family="sans-serif">SUB_…</text></g><g class="relationship" transform="translate(-303.8793572366995 169.48884001354853) rotate(300.10961589063277)"><path class="outline" fill="#A5ABB6" stroke="none" d="M 40 0.5 L 69.54178384878593 0.5 L 69.54178384878593 -0.5 L 40 -0.5 Z M 127.40506509878593 0.5 L 156.94684894757185 0.5 L 156.94684894757185 3.5 L 163.94684894757185 0 L 156.94684894757185 -3.5 L 156.94684894757185 -0.5 L 127.40506509878593 -0.5 Z"/><text text-anchor="middle" pointer-events="none" font-size="8px" fill="#000000" x="98.47342447378593" y="3" font-family="sans-serif">SUB_CAT_OF</text></g><g class="relationship" transform="translate(-96.50430329577628 186.50268417997748) rotate(241.492291811565)"><path class="outline" fill="#A5ABB6" stroke="none" d="M 40 0.5 L 77.63432874422377 0.5 L 77.63432874422377 -0.5 L 40 -0.5 Z M 135.49760999422375 0.5 L 173.13193873844753 0.5 L 173.13193873844753 3.5 L 180.13193873844753 0 L 173.13193873844753 -3.5 L 173.13193873844753 -0.5 L 135.49760999422375 -0.5 Z"/><text text-anchor="middle" pointer-events="none" font-size="8px" fill="#000000" x="106.56596936922377" y="3" transform="rotate(180 106.56596936922377 0)" font-family="sans-serif">SUB_CAT_OF</text></g><g class="relationship" transform="translate(-392.9744586477757 85.12724313994715) rotate(334.3125097139408)"><path class="outline" fill="#A5ABB6" stroke="none" d="M 40 0.5 L 73.766906599808 0.5 L 73.766906599808 -0.5 L 40 -0.5 Z M 131.630187849808 0.5 L 165.397094449616 0.5 L 165.397094449616 3.5 L 172.397094449616 0 L 165.397094449616 -3.5 L 165.397094449616 -0.5 L 131.630187849808 -0.5 Z"/><text text-anchor="middle" pointer-events="none" font-size="8px" fill="#000000" x="102.698547224808" y="3" font-family="sans-serif">SUB_CAT_OF</text></g><g class="relationship" transform="translate(298.75917811752726 30.360525984647268) rotate(201.4520674721917)"><path class="outline" fill="#A5ABB6" stroke="none" d="M 40 0.5 L 61.19055150554854 0.5 L 61.19055150554854 -0.5 L 40 -0.5 Z M 119.05383275554854 0.5 L 140.24438426109708 0.5 L 140.24438426109708 3.5 L 147.24438426109708 0 L 140.24438426109708 -3.5 L 140.24438426109708 -0.5 L 119.05383275554854 -0.5 Z"/><text text-anchor="middle" pointer-events="none" font-size="8px" fill="#000000" x="90.12219213054854" y="3" transform="rotate(180 90.12219213054854 0)" font-family="sans-serif">SUB_CAT_OF</text></g><g class="relationship" transform="translate(290.54393633572573 -79.23663260522375) rotate(526.0926729883299)"><path class="outline" fill="#A5ABB6" stroke="none" d="M 40 0.5 L 53.10457534856184 0.5 L 53.10457534856184 -0.5 L 40 -0.5 Z M 110.96785659856184 0.5 L 124.07243194712368 0.5 L 124.07243194712368 3.5 L 131.07243194712368 0 L 124.07243194712368 -3.5 L 124.07243194712368 -0.5 L 110.96785659856184 -0.5 Z"/><text text-anchor="middle" pointer-events="none" font-size="8px" fill="#000000" x="82.03621597356184" y="3" transform="rotate(180 82.03621597356184 0)" font-family="sans-serif">SUB_CAT_OF</text></g><g class="relationship" transform="translate(68.56172558452167 -134.7655422170455) rotate(532.0097536074131)"><path class="outline" fill="#A5ABB6" stroke="none" d="M 40 0.5 L 59.75637940062708 0.5 L 59.75637940062708 -0.5 L 40 -0.5 Z M 117.61966065062708 0.5 L 137.37604005125417 0.5 L 137.37604005125417 3.5 L 144.37604005125417 0 L 137.37604005125417 -3.5 L 137.37604005125417 -0.5 L 117.61966065062708 -0.5 Z"/><text text-anchor="middle" pointer-events="none" font-size="8px" fill="#000000" x="88.68802002562708" y="3" transform="rotate(180 88.68802002562708 0)" font-family="sans-serif">SUB_CAT_OF</text></g><g class="relationship" transform="translate(-198.42067297634216 192.32055408695135) rotate(269.09502070012695)"><path class="outline" fill="#A5ABB6" stroke="none" d="M 40 0.5 L 67.21051430960203 0.5 L 67.21051430960203 -0.5 L 40 -0.5 Z M 125.07379555960203 0.5 L 152.28430986920407 0.5 L 152.28430986920407 3.5 L 159.28430986920407 0 L 152.28430986920407 -3.5 L 152.28430986920407 -0.5 L 125.07379555960203 -0.5 Z"/><text text-anchor="middle" pointer-events="none" font-size="8px" fill="#000000" x="96.14215493460203" y="3" transform="rotate(180 96.14215493460203 0)" font-family="sans-serif">SUB_CAT_OF</text></g></g><g class="layer nodes"><g class="node" transform="translate(-392.9744586477757,85.12724313994715)"><circle class="outline" cx="0" cy="0" r="40" fill="#FFC454" stroke="#d7a013" stroke-width="2px"/><text text-anchor="middle" pointer-events="none" font-family="sans-serif" dy="2.5" font-size="40" fill="#2A2C34"/><text text-anchor="middle" pointer-events="none" y="5" font-size="10px" fill="#2A2C34" font-family="sans-serif"> Python</text></g><g class="node" transform="translate(-114.02434507280978,-109.13643870370251)"><circle class="outline" cx="0" cy="0" r="40" fill="#FFC454" stroke="#d7a013" stroke-width="2px"/><text text-anchor="middle" pointer-events="none" font-family="sans-serif" dy="2.5" font-size="40" fill="#2A2C34"/><text text-anchor="middle" pointer-events="none" y="5" font-size="10px" fill="#2A2C34" font-family="sans-serif"> MEAN Stack</text></g><g class="node" transform="translate(-201.56821155656866,-6.938897786556851)"><circle class="outline" cx="0" cy="0" r="40" fill="#FFC454" stroke="#d7a013" stroke-width="2px"/><text text-anchor="middle" pointer-events="none" font-family="sans-serif" dy="2.5" font-size="40" fill="#2A2C34"/><text text-anchor="middle" pointer-events="none" y="5" font-size="10px" fill="#2A2C34" font-family="sans-serif"> LAMP Stack</text></g><g class="node" transform="translate(290.54393633572573,-79.23663260522375)"><circle class="outline" cx="0" cy="0" r="40" fill="#FFC454" stroke="#d7a013" stroke-width="2px"/><text text-anchor="middle" pointer-events="none" font-family="sans-serif" dy="2.5" font-size="40" fill="#2A2C34"/><text text-anchor="middle" pointer-events="none" y="5" font-size="10px" fill="#2A2C34" font-family="sans-serif"> GraphQL</text></g><g class="node" transform="translate(196.83505974471683,-190.53452583040917)"><circle class="outline" cx="0" cy="0" r="40" fill="#FFC454" stroke="#d7a013" stroke-width="2px"/><text text-anchor="middle" pointer-events="none" font-family="sans-serif" dy="2.5" font-size="40" fill="#2A2C34"/><text text-anchor="middle" pointer-events="none" y="5" font-size="10px" fill="#2A2C34" font-family="sans-serif"> React</text></g><g class="node" transform="translate(-1.4215248505124514,-28.357500771664938)"><circle class="outline" cx="0" cy="0" r="40" fill="#FFC454" stroke="#d7a013" stroke-width="2px"/><text text-anchor="middle" pointer-events="none" font-family="sans-serif" dy="2.5" font-size="40" fill="#2A2C34"/><text text-anchor="middle" pointer-events="none" y="5" font-size="10px" fill="#2A2C34" font-family="sans-serif"> Software Stack</text></g><g class="node" transform="translate(-303.8793572366995,169.48884001354853)"><circle class="outline" cx="0" cy="0" r="40" fill="#FFC454" stroke="#d7a013" stroke-width="2px"/><text text-anchor="middle" pointer-events="none" font-family="sans-serif" dy="2.5" font-size="40" fill="#2A2C34"/><text text-anchor="middle" pointer-events="none" y="5" font-size="10px" fill="#2A2C34" font-family="sans-serif"> Perl</text></g><g class="node" transform="translate(-96.50430329577628,186.50268417997748)"><circle class="outline" cx="0" cy="0" r="40" fill="#FFC454" stroke="#d7a013" stroke-width="2px"/><text text-anchor="middle" pointer-events="none" font-family="sans-serif" dy="2.5" font-size="40" fill="#2A2C34"/><text text-anchor="middle" pointer-events="none" y="5" font-size="10px" fill="#2A2C34" font-family="sans-serif"> PHP</text></g><g class="node" transform="translate(-208.99131428704024,-226.83743045171127)"><circle class="outline" cx="0" cy="0" r="40" fill="#FFC454" stroke="#d7a013" stroke-width="2px"/><text text-anchor="middle" pointer-events="none" font-family="sans-serif" dy="2.5" font-size="40" fill="#2A2C34"/><text text-anchor="middle" pointer-events="none" y="5" font-size="10px" fill="#2A2C34" font-family="sans-serif"> AngularJS</text></g><g class="node" transform="translate(-198.42067297634216,192.32055408695135)"><circle class="outline" cx="0" cy="0" r="40" fill="#FFC454" stroke="#d7a013" stroke-width="2px"/><text text-anchor="middle" pointer-events="none" font-family="sans-serif" dy="2.5" font-size="40" fill="#2A2C34"/><text text-anchor="middle" pointer-events="none" font-family="sans-serif" dy="2.5" font-size="40" fill="#2A2C34"/><text text-anchor="middle" pointer-events="none" y="0" font-size="10px" fill="#2A2C34" font-family="sans-serif"> Apache HTTP</text><text text-anchor="middle" pointer-events="none" y="10" font-size="10px" fill="#2A2C34" font-family="sans-serif"> Server</text></g><g class="node" transform="translate(74.44663103153866,70.01105390595075)"><circle class="outline" cx="0" cy="0" r="40" fill="#FFC454" stroke="#d7a013" stroke-width="2px"/><text text-anchor="middle" pointer-events="none" font-family="sans-serif" dy="2.5" font-size="40" fill="#2A2C34"/><text text-anchor="middle" pointer-events="none" y="5" font-size="10px" fill="#2A2C34" font-family="sans-serif"> Linux</text></g><g class="node" transform="translate(-334.3594509957182,-40.601208003171806)"><circle class="outline" cx="0" cy="0" r="40" fill="#FFC454" stroke="#d7a013" stroke-width="2px"/><text text-anchor="middle" pointer-events="none" font-family="sans-serif" dy="2.5" font-size="40" fill="#2A2C34"/><text text-anchor="middle" pointer-events="none" y="5" font-size="10px" fill="#2A2C34" font-family="sans-serif"> MySQL</text></g><g class="node" transform="translate(298.75917811752726,30.360525984647268)"><circle class="outline" cx="0" cy="0" r="40" fill="#FFC454" stroke="#d7a013" stroke-width="2px"/><text text-anchor="middle" pointer-events="none" font-family="sans-serif" dy="2.5" font-size="40" fill="#2A2C34"/><text text-anchor="middle" pointer-events="none" y="5" font-size="10px" fill="#2A2C34" font-family="sans-serif"> Neo4j</text></g><g class="node" transform="translate(190.09382018118987,108.36301967385415)"><circle class="outline" cx="0" cy="0" r="40" fill="#FFC454" stroke="#d7a013" stroke-width="2px"/><text text-anchor="middle" pointer-events="none" font-family="sans-serif" dy="2.5" font-size="40" fill="#2A2C34"/><text text-anchor="middle" pointer-events="none" font-family="sans-serif" dy="2.5" font-size="40" fill="#2A2C34"/><text text-anchor="middle" pointer-events="none" y="0" font-size="10px" fill="#2A2C34" font-family="sans-serif"> Apollo (Data</text><text text-anchor="middle" pointer-events="none" y="10" font-size="10px" fill="#2A2C34" font-family="sans-serif"> Graph Platform)</text></g><g class="node" transform="translate(68.56172558452167,-134.7655422170455)"><circle class="outline" cx="0" cy="0" r="40" fill="#FFC454" stroke="#d7a013" stroke-width="2px"/><text text-anchor="middle" pointer-events="none" font-family="sans-serif" dy="2.5" font-size="40" fill="#2A2C34"/><text text-anchor="middle" pointer-events="none" y="5" font-size="10px" fill="#2A2C34" font-family="sans-serif"> Node.js</text></g><g class="node" transform="translate(124.48636388551537,-38.11900129885592)"><circle class="outline" cx="0" cy="0" r="40" fill="#FFC454" stroke="#d7a013" stroke-width="2px"/><text text-anchor="middle" pointer-events="none" font-family="sans-serif" dy="2.5" font-size="40" fill="#2A2C34"/><text text-anchor="middle" pointer-events="none" y="5" font-size="10px" fill="#2A2C34" font-family="sans-serif"> GRAND Stack</text></g><g class="node" transform="translate(-449.8575389913402,-31.404529862969596)"><circle class="outline" cx="0" cy="0" r="40" fill="#569480" stroke="#447666" stroke-width="2px"/><text text-anchor="middle" pointer-events="none" font-family="sans-serif" dy="2.5" font-size="40" fill="#FFFFFF"/><text text-anchor="middle" pointer-events="none" y="5" font-size="40" fill="#FFFFFF" dy="2.5" font-family="sans-serif"/><text text-anchor="middle" pointer-events="none" font-family="sans-serif" dy="2.5" font-size="40" fill="#FFFFFF"/><text text-anchor="middle" pointer-events="none" font-family="sans-serif" dy="2.5" font-size="40" fill="#FFFFFF"/><text text-anchor="middle" pointer-events="none" font-family="sans-serif" dy="2.5" font-size="40" fill="#FFFFFF"/><text text-anchor="middle" pointer-events="none" font-family="sans-serif" dy="2.5" font-size="40" fill="#FFFFFF"/><text text-anchor="middle" pointer-events="none" font-family="sans-serif" dy="2.5" font-size="40" fill="#FFFFFF"/><text text-anchor="middle" pointer-events="none" y="-25" font-size="10px" fill="#FFFFFF" font-family="sans-serif"> This</text><text text-anchor="middle" pointer-events="none" y="-15" font-size="10px" fill="#FFFFFF" font-family="sans-serif"> ontology</text><text text-anchor="middle" pointer-events="none" y="-5" font-size="10px" fill="#FFFFFF" font-family="sans-serif"> describes some</text><text text-anchor="middle" pointer-events="none" y="5" font-size="10px" fill="#FFFFFF" font-family="sans-serif"> of the most</text><text text-anchor="middle" pointer-events="none" y="15" font-size="10px" fill="#FFFFFF" font-family="sans-serif"> popular</text><text text-anchor="middle" pointer-events="none" y="25" font-size="10px" fill="#FFFFFF" font-family="sans-serif"> Software</text><text text-anchor="middle" pointer-events="none" y="35" font-size="10px" fill="#FFFFFF" font-family="sans-serif"> stacks.</text></g><g class="node" transform="translate(-28.253994353865124,-215.86110273351855)"><circle class="outline" cx="0" cy="0" r="40" fill="#FFC454" stroke="#d7a013" stroke-width="2px"/><text text-anchor="middle" pointer-events="none" font-family="sans-serif" dy="2.5" font-size="40" fill="#2A2C34"/><text text-anchor="middle" pointer-events="none" y="5" font-size="10px" fill="#2A2C34" font-family="sans-serif"> MongoDB</text></g><g class="node" transform="translate(-8.366780272440636,132.98537796298632)"><circle class="outline" cx="0" cy="0" r="40" fill="#FFC454" stroke="#d7a013" stroke-width="2px"/><text text-anchor="middle" pointer-events="none" font-family="sans-serif" dy="2.5" font-size="40" fill="#2A2C34"/><text text-anchor="middle" pointer-events="none" y="5" font-size="10px" fill="#2A2C34" font-family="sans-serif"> MariaDB</text></g><g class="node" transform="translate(-280.85854988858034,-137.10719754577696)"><circle class="outline" cx="0" cy="0" r="40" fill="#FFC454" stroke="#d7a013" stroke-width="2px"/><text text-anchor="middle" pointer-events="none" font-family="sans-serif" dy="2.5" font-size="40" fill="#2A2C34"/><text text-anchor="middle" pointer-events="none" y="5" font-size="10px" fill="#2A2C34" font-family="sans-serif"> Express.js</text></g></g></svg>