<svg xmlns="http://www.w3.org/2000/svg" width="792.7117309570312" height="565.25634765625" viewBox="-222.55084228515625 -266.691162109375 792.7117309570312 565.25634765625"><title>Neo4j Graph Visualization</title><desc>Created using Neo4j (http://www.neo4j.com/)</desc><g class="layer relationships"><g class="relationship" transform="translate(78.33952600520702 178.6312803144766) rotate(310.37972046099753)"><path class="outline" fill="#A5ABB6" stroke="none" d="M 40 0.5 L 51.20488486288254 0.5 L 51.20488486288254 -0.5 L 40 -0.5 Z M 109.06816611288254 0.5 L 120.27305097576507 0.5 L 120.27305097576507 3.5 L 127.27305097576507 0 L 120.27305097576507 -3.5 L 120.27305097576507 -0.5 L 109.06816611288254 -0.5 Z"/><text text-anchor="middle" pointer-events="none" font-size="8px" fill="#000000" x="80.13652548788254" y="3" font-family="sans-serif">SUB_CAT_OF</text></g><g class="relationship" transform="translate(68.05898832643734 73.2306528843119) rotate(349.48488128774636)"><path class="outline" fill="#A5ABB6" stroke="none" d="M 40 0.5 L 41.61286925261573 0.5 L 41.61286925261573 -0.5 L 40 -0.5 Z M 72.06208800261572 0.5 L 73.67495725523146 0.5 L 73.67495725523146 3.5 L 80.67495725523146 0 L 73.67495725523146 -3.5 L 73.67495725523146 -0.5 L 72.06208800261572 -0.5 Z"/><text text-anchor="middle" pointer-events="none" font-size="8px" fill="#000000" x="56.83747862761573" y="3" font-family="sans-serif">SUB…</text></g><g class="relationship" transform="translate(98.94346647538798 -60.993781234552856) rotate(411.9675892170682)"><path class="outline" fill="#A5ABB6" stroke="none" d="M 40 0.5 L 40.34763904179147 0.5 L 40.34763904179147 -0.5 L 40 -0.5 Z M 95.10154529179147 0.5 L 95.44918433358293 0.5 L 95.44918433358293 3.5 L 102.44918433358293 0 L 95.44918433358293 -3.5 L 95.44918433358293 -0.5 L 95.10154529179147 -0.5 Z"/><text text-anchor="middle" pointer-events="none" font-size="8px" fill="#000000" x="67.72459216679147" y="3" font-family="sans-serif">SUB_CAT_…</text></g><g class="relationship" transform="translate(133.68487190336234 249.02007812132652) rotate(285.0051313435371)"><path class="outline" fill="#A5ABB6" stroke="none" d="M 40 0.5 L 69.96584199316102 0.5 L 69.96584199316102 -0.5 L 40 -0.5 Z M 127.82912324316102 0.5 L 157.79496523632204 0.5 L 157.79496523632204 3.5 L 164.79496523632204 0 L 157.79496523632204 -3.5 L 157.79496523632204 -0.5 L 127.82912324316102 -0.5 Z"/><text text-anchor="middle" pointer-events="none" font-size="8px" fill="#000000" x="98.89748261816102" y="3" font-family="sans-serif">SUB_CAT_OF</text></g><g class="relationship" transform="translate(428.9527927991496 208.59176261674025) rotate(213.01126142384499)"><path class="outline" fill="#A5ABB6" stroke="none" d="M 40 0.5 L 112.00904067469298 0.5 L 112.00904067469298 -0.5 L 40 -0.5 Z M 169.87232192469298 0.5 L 241.88136259938597 0.5 L 241.88136259938597 3.5 L 248.88136259938597 0 L 241.88136259938597 -3.5 L 241.88136259938597 -0.5 L 169.87232192469298 -0.5 Z"/><text text-anchor="middle" pointer-events="none" font-size="8px" fill="#000000" x="140.94068129969298" y="3" transform="rotate(180 140.94068129969298 0)" font-family="sans-serif">SUB_CAT_OF</text></g><g class="relationship" transform="translate(291.2970602524558 34.93443409679216) rotate(531.1559672945327)"><path class="outline" fill="#A5ABB6" stroke="none" d="M 40 0.5 L 49.4240571348466 0.5 L 49.4240571348466 -0.5 L 40 -0.5 Z M 49.4240571348466 0.5 L 58.8481142696932 0.5 L 58.8481142696932 3.5 L 65.8481142696932 0 L 58.8481142696932 -3.5 L 58.8481142696932 -0.5 L 49.4240571348466 -0.5 Z"/><text text-anchor="middle" pointer-events="none" font-size="8px" fill="#000000" x="49.4240571348466" y="3" transform="rotate(180 49.4240571348466 0)" font-family="sans-serif"/></g><g class="relationship" transform="translate(183.30938096077423 174.40908606386603) rotate(271.57989172918366)"><path class="outline" fill="#A5ABB6" stroke="none" d="M 40 0.5 L 40.674710474896905 0.5 L 40.674710474896905 -0.5 L 40 -0.5 Z M 75.5731479748969 0.5 L 76.24785844979381 0.5 L 76.24785844979381 3.5 L 83.24785844979381 0 L 76.24785844979381 -3.5 L 76.24785844979381 -0.5 L 75.5731479748969 -0.5 Z"/><text text-anchor="middle" pointer-events="none" font-size="8px" fill="#000000" x="58.123929224896905" y="3" font-family="sans-serif">SUB_…</text></g><g class="relationship" transform="translate(223.31397780686376 254.5651679269957) rotate(259.7954049517831)"><path class="outline" fill="#A5ABB6" stroke="none" d="M 40 0.5 L 70.88116704981708 0.5 L 70.88116704981708 -0.5 L 40 -0.5 Z M 128.74444829981707 0.5 L 159.62561534963416 0.5 L 159.62561534963416 3.5 L 166.62561534963416 0 L 159.62561534963416 -3.5 L 159.62561534963416 -0.5 L 128.74444829981707 -0.5 Z"/><text text-anchor="middle" pointer-events="none" font-size="8px" fill="#000000" x="99.81280767481708" y="3" transform="rotate(180 99.81280767481708 0)" font-family="sans-serif">SUB_CAT_OF</text></g><g class="relationship" transform="translate(334.031518265637 114.03669937446507) rotate(203.0965674956002)"><path class="outline" fill="#A5ABB6" stroke="none" d="M 40 0.5 L 47.649293115059024 0.5 L 47.649293115059024 -0.5 L 40 -0.5 Z M 105.51257436505902 0.5 L 113.16186748011805 0.5 L 113.16186748011805 3.5 L 120.16186748011805 0 L 113.16186748011805 -3.5 L 113.16186748011805 -0.5 L 105.51257436505902 -0.5 Z"/><text text-anchor="middle" pointer-events="none" font-size="8px" fill="#000000" x="76.58093374005902" y="3" transform="rotate(180 76.58093374005902 0)" font-family="sans-serif">SUB_CAT_OF</text></g><g class="relationship" transform="translate(273.18647544174786 179.98560706612227) rotate(236.11712438756263)"><path class="outline" fill="#A5ABB6" stroke="none" d="M 40 0.5 L 45.1284612444783 0.5 L 45.1284612444783 -0.5 L 40 -0.5 Z M 102.9917424944783 0.5 L 108.1202037389566 0.5 L 108.1202037389566 3.5 L 115.1202037389566 0 L 108.1202037389566 -3.5 L 108.1202037389566 -0.5 L 102.9917424944783 -0.5 Z"/><text text-anchor="middle" pointer-events="none" font-size="8px" fill="#000000" x="74.0601018694783" y="3" transform="rotate(180 74.0601018694783 0)" font-family="sans-serif">SUB_CAT_OF</text></g><g class="relationship" transform="translate(380.7549946209018 37.16837650301639) rotate(535.8617544226988)"><path class="outline" fill="#A5ABB6" stroke="none" d="M 40 0.5 L 64.84576225281437 0.5 L 64.84576225281437 -0.5 L 40 -0.5 Z M 122.70904350281437 0.5 L 147.55480575562873 0.5 L 147.55480575562873 3.5 L 154.55480575562873 0 L 147.55480575562873 -3.5 L 147.55480575562873 -0.5 L 122.70904350281437 -0.5 Z"/><text text-anchor="middle" pointer-events="none" font-size="8px" fill="#000000" x="93.77740287781437" y="3" transform="rotate(180 93.77740287781437 0)" font-family="sans-serif">SUB_CAT_OF</text></g><g class="relationship" transform="translate(526.1609206448953 66.22931250496626) rotate(191.30226015335654)"><path class="outline" fill="#A5ABB6" stroke="none" d="M 40 0.5 L 41.70913986085087 0.5 L 41.70913986085087 -0.5 L 40 -0.5 Z M 99.57242111085087 0.5 L 101.28156097170174 0.5 L 101.28156097170174 3.5 L 108.28156097170174 0 L 101.28156097170174 -3.5 L 101.28156097170174 -0.5 L 99.57242111085087 -0.5 Z"/><text text-anchor="middle" pointer-events="none" font-size="8px" fill="#000000" x="70.64078048585087" y="3" transform="rotate(180 70.64078048585087 0)" font-family="sans-serif">SUB_CAT_OF</text></g><g class="relationship" transform="translate(328.37548792219155 -46.74681468283851) rotate(505.33848684907673)"><path class="outline" fill="#A5ABB6" stroke="none" d="M 40 0.5 L 53.68601342651725 0.5 L 53.68601342651725 -0.5 L 40 -0.5 Z M 111.54929467651725 0.5 L 125.2353081030345 0.5 L 125.2353081030345 3.5 L 132.2353081030345 0 L 125.2353081030345 -3.5 L 125.2353081030345 -0.5 L 111.54929467651725 -0.5 Z"/><text text-anchor="middle" pointer-events="none" font-size="8px" fill="#000000" x="82.61765405151725" y="3" transform="rotate(180 82.61765405151725 0)" font-family="sans-serif">SUB_CAT_OF</text></g><g class="relationship" transform="translate(248.92403395990718 -88.45559164586817) rotate(474.01175457549937)"><path class="outline" fill="#A5ABB6" stroke="none" d="M 40 0.5 L 44.01580465651455 0.5 L 44.01580465651455 -0.5 L 40 -0.5 Z M 101.87908590651455 0.5 L 105.8948905630291 0.5 L 105.8948905630291 3.5 L 112.8948905630291 0 L 105.8948905630291 -3.5 L 105.8948905630291 -0.5 L 101.87908590651455 -0.5 Z"/><text text-anchor="middle" pointer-events="none" font-size="8px" fill="#000000" x="72.94744528151455" y="3" transform="rotate(180 72.94744528151455 0)" font-family="sans-serif">SUB_CAT_OF</text></g><g class="relationship" transform="translate(165.42002464711462 -121.56737095352815) rotate(442.9760732133327)"><path class="outline" fill="#A5ABB6" stroke="none" d="M 40 0.5 L 54.60931217964122 0.5 L 54.60931217964122 -0.5 L 40 -0.5 Z M 112.47259342964122 0.5 L 127.08190560928244 0.5 L 127.08190560928244 3.5 L 134.08190560928244 0 L 127.08190560928244 -3.5 L 127.08190560928244 -0.5 L 112.47259342964122 -0.5 Z"/><text text-anchor="middle" pointer-events="none" font-size="8px" fill="#000000" x="83.54095280464122" y="3" font-family="sans-serif">SUB_CAT_OF</text></g><g class="relationship" transform="translate(283.1149169288326 -222.69117263425568) rotate(499.33073024024065)"><path class="outline" fill="#A5ABB6" stroke="none" d="M 40 0.5 L 45.15397488388204 0.5 L 45.15397488388204 -0.5 L 40 -0.5 Z M 103.01725613388204 0.5 L 108.17123101776409 0.5 L 108.17123101776409 3.5 L 115.17123101776409 0 L 108.17123101776409 -3.5 L 108.17123101776409 -0.5 L 103.01725613388204 -0.5 Z"/><text text-anchor="middle" pointer-events="none" font-size="8px" fill="#000000" x="74.08561550888204" y="3" transform="rotate(180 74.08561550888204 0)" font-family="sans-serif">SUB_CAT_OF</text></g><g class="relationship" transform="translate(0.9856904212900808 13.482533678539077) rotate(371.4822339715407)"><path class="outline" fill="#A5ABB6" stroke="none" d="M 40 0.5 L 62.325654131087404 0.5 L 62.325654131087404 -0.5 L 40 -0.5 Z M 120.1889353810874 0.5 L 142.5145895121748 0.5 L 142.5145895121748 3.5 L 149.5145895121748 0 L 142.5145895121748 -3.5 L 142.5145895121748 -0.5 L 120.1889353810874 -0.5 Z"/><text text-anchor="middle" pointer-events="none" font-size="8px" fill="#000000" x="91.2572947560874" y="3" font-family="sans-serif">SUB_CAT_OF</text></g><g class="relationship" transform="translate(4.666588173650666 -150.8223922745869) rotate(451.2833737805174)"><path class="outline" fill="#A5ABB6" stroke="none" d="M 40 0.5 L 49.741435410775765 0.5 L 49.741435410775765 -0.5 L 40 -0.5 Z M 107.60471666077576 0.5 L 117.34615207155153 0.5 L 117.34615207155153 3.5 L 124.34615207155153 0 L 117.34615207155153 -3.5 L 117.34615207155153 -0.5 L 107.60471666077576 -0.5 Z"/><text text-anchor="middle" pointer-events="none" font-size="8px" fill="#000000" x="78.67307603577576" y="3" transform="rotate(180 78.67307603577576 0)" font-family="sans-serif">SUB_CAT_OF</text></g><g class="relationship" transform="translate(-166.01021428805942 19.04655448116677) rotate(358.0917075636157)"><path class="outline" fill="#A5ABB6" stroke="none" d="M 40 0.5 L 51.11264481270396 0.5 L 51.11264481270396 -0.5 L 40 -0.5 Z M 108.97592606270396 0.5 L 120.08857087540792 0.5 L 120.08857087540792 3.5 L 127.08857087540792 0 L 120.08857087540792 -3.5 L 120.08857087540792 -0.5 L 108.97592606270396 -0.5 Z"/><text text-anchor="middle" pointer-events="none" font-size="8px" fill="#000000" x="80.04428543770396" y="3" font-family="sans-serif">SUB_CAT_OF</text></g><g class="relationship" transform="translate(-108.13783534652993 163.85568619120045) rotate(305.96782524491107)"><path class="outline" fill="#A5ABB6" stroke="none" d="M 40 0.5 L 60.466191524889524 0.5 L 60.466191524889524 -0.5 L 40 -0.5 Z M 118.32947277488952 0.5 L 138.79566429977905 0.5 L 138.79566429977905 3.5 L 145.79566429977905 0 L 138.79566429977905 -3.5 L 138.79566429977905 -0.5 L 118.32947277488952 -0.5 Z"/><text text-anchor="middle" pointer-events="none" font-size="8px" fill="#000000" x="89.39783214988952" y="3" font-family="sans-serif">SUB_CAT_OF</text></g><g class="relationship" transform="translate(-81.8191787265869 -127.26063550497108) rotate(419.52998831463907)"><path class="outline" fill="#A5ABB6" stroke="none" d="M 40 0.5 L 49.215903775329636 0.5 L 49.215903775329636 -0.5 L 40 -0.5 Z M 107.07918502532964 0.5 L 116.29508880065927 0.5 L 116.29508880065927 3.5 L 123.29508880065927 0 L 116.29508880065927 -3.5 L 116.29508880065927 -0.5 L 107.07918502532964 -0.5 Z"/><text text-anchor="middle" pointer-events="none" font-size="8px" fill="#000000" x="78.14754440032964" y="3" font-family="sans-serif">SUB_CAT_OF</text></g><g class="relationship" transform="translate(-178.55084497229802 107.96538975227737) rotate(332.2439728308534)"><path class="outline" fill="#A5ABB6" stroke="none" d="M 40 0.5 L 69.008461939252 0.5 L 69.008461939252 -0.5 L 40 -0.5 Z M 126.871743189252 0.5 L 155.880205128504 0.5 L 155.880205128504 3.5 L 162.880205128504 0 L 155.880205128504 -3.5 L 155.880205128504 -0.5 L 126.871743189252 -0.5 Z"/><text text-anchor="middle" pointer-events="none" font-size="8px" fill="#000000" x="97.940102564252" y="3" font-family="sans-serif">SUB_CAT_OF</text></g><g class="relationship" transform="translate(-95.55965689072778 74.88567926997968) rotate(327.54351089855226)"><path class="outline" fill="#A5ABB6" stroke="none" d="M 40 0.5 L 41.15207893793421 0.5 L 41.15207893793421 -0.5 L 40 -0.5 Z M 66.26536018793422 0.5 L 67.41743912586843 0.5 L 67.41743912586843 3.5 L 74.41743912586843 0 L 67.41743912586843 -3.5 L 67.41743912586843 -0.5 L 66.26536018793422 -0.5 Z"/><text text-anchor="middle" pointer-events="none" font-size="8px" fill="#000000" x="53.70871956293421" y="3" font-family="sans-serif">SU…</text></g><g class="relationship" transform="translate(-19.317717702962064 177.0153237822984) rotate(277.0773394391835)"><path class="outline" fill="#A5ABB6" stroke="none" d="M 40 0.5 L 49.962536688357744 0.5 L 49.962536688357744 -0.5 L 40 -0.5 Z M 107.82581793835774 0.5 L 117.78835462671549 0.5 L 117.78835462671549 3.5 L 124.78835462671549 0 L 117.78835462671549 -3.5 L 117.78835462671549 -0.5 L 107.82581793835774 -0.5 Z"/><text text-anchor="middle" pointer-events="none" font-size="8px" fill="#000000" x="78.89417731335774" y="3" font-family="sans-serif">SUB_CAT_OF</text></g><g class="relationship" transform="translate(-150.47892382814152 -69.4974033431798) rotate(388.7161453575927)"><path class="outline" fill="#A5ABB6" stroke="none" d="M 40 0.5 L 53.921123253548714 0.5 L 53.921123253548714 -0.5 L 40 -0.5 Z M 111.78440450354871 0.5 L 125.70552775709743 0.5 L 125.70552775709743 3.5 L 132.70552775709743 0 L 125.70552775709743 -3.5 L 125.70552775709743 -0.5 L 111.78440450354871 -0.5 Z"/><text text-anchor="middle" pointer-events="none" font-size="8px" fill="#000000" x="82.85276387854871" y="3" font-family="sans-serif">SUB_CAT_OF</text></g></g><g class="layer nodes"><g class="node" transform="translate(186.70742527329793,51.208079950642514)"><circle class="outline" cx="0" cy="0" r="40" fill="#569480" stroke="#447666" stroke-width="2px"/><text text-anchor="middle" pointer-events="none" font-family="sans-serif" dy="2.5" font-size="40" fill="#FFFFFF"/><text text-anchor="middle" pointer-events="none" font-family="sans-serif" dy="2.5" font-size="40" fill="#FFFFFF"/><text text-anchor="middle" pointer-events="none" y="0" font-size="10px" fill="#FFFFFF" font-family="sans-serif"> version control</text><text text-anchor="middle" pointer-events="none" y="10" font-size="10px" fill="#FFFFFF" font-family="sans-serif"> system</text></g><g class="node" transform="translate(78.33952600520702,178.6312803144766)"><circle class="outline" cx="0" cy="0" r="40" fill="#569480" stroke="#447666" stroke-width="2px"/><text text-anchor="middle" pointer-events="none" font-family="sans-serif" dy="2.5" font-size="40" fill="#FFFFFF"/><text text-anchor="middle" pointer-events="none" y="5" font-size="10px" fill="#FFFFFF" font-family="sans-serif"> PVCS</text></g><g class="node" transform="translate(68.05898832643734,73.2306528843119)"><circle class="outline" cx="0" cy="0" r="40" fill="#569480" stroke="#447666" stroke-width="2px"/><text text-anchor="middle" pointer-events="none" font-family="sans-serif" dy="2.5" font-size="40" fill="#FFFFFF"/><text text-anchor="middle" pointer-events="none" y="5" font-size="10px" fill="#FFFFFF" font-family="sans-serif"> CADES</text></g><g class="node" transform="translate(98.94346647538798,-60.993781234552856)"><circle class="outline" cx="0" cy="0" r="40" fill="#569480" stroke="#447666" stroke-width="2px"/><text text-anchor="middle" pointer-events="none" font-family="sans-serif" dy="2.5" font-size="40" fill="#FFFFFF"/><text text-anchor="middle" pointer-events="none" y="5" font-size="10px" fill="#FFFFFF" font-family="sans-serif"> FishEye</text></g><g class="node" transform="translate(133.68487190336234,249.02007812132652)"><circle class="outline" cx="0" cy="0" r="40" fill="#569480" stroke="#447666" stroke-width="2px"/><text text-anchor="middle" pointer-events="none" font-family="sans-serif" dy="2.5" font-size="40" fill="#FFFFFF"/><text text-anchor="middle" pointer-events="none" font-family="sans-serif" dy="2.5" font-size="40" fill="#FFFFFF"/><text text-anchor="middle" pointer-events="none" y="0" font-size="10px" fill="#FFFFFF" font-family="sans-serif"> Source Code</text><text text-anchor="middle" pointer-events="none" y="10" font-size="10px" fill="#FFFFFF" font-family="sans-serif"> Control System</text></g><g class="node" transform="translate(428.9527927991496,208.59176261674025)"><circle class="outline" cx="0" cy="0" r="40" fill="#569480" stroke="#447666" stroke-width="2px"/><text text-anchor="middle" pointer-events="none" font-family="sans-serif" dy="2.5" font-size="40" fill="#FFFFFF"/><text text-anchor="middle" pointer-events="none" font-family="sans-serif" dy="2.5" font-size="40" fill="#FFFFFF"/><text text-anchor="middle" pointer-events="none" font-family="sans-serif" dy="2.5" font-size="40" fill="#FFFFFF"/><text text-anchor="middle" pointer-events="none" y="-5" font-size="10px" fill="#FFFFFF" font-family="sans-serif"> Symbolic</text><text text-anchor="middle" pointer-events="none" y="5" font-size="10px" fill="#FFFFFF" font-family="sans-serif"> Stream</text><text text-anchor="middle" pointer-events="none" y="15" font-size="10px" fill="#FFFFFF" font-family="sans-serif"> Generator</text></g><g class="node" transform="translate(291.2970602524558,34.93443409679216)"><circle class="outline" cx="0" cy="0" r="40" fill="#569480" stroke="#447666" stroke-width="2px"/><text text-anchor="middle" pointer-events="none" font-family="sans-serif" dy="2.5" font-size="40" fill="#FFFFFF"/><text text-anchor="middle" pointer-events="none" y="5" font-size="10px" fill="#FFFFFF" font-family="sans-serif"> Breezy</text></g><g class="node" transform="translate(183.30938096077423,174.40908606386603)"><circle class="outline" cx="0" cy="0" r="40" fill="#569480" stroke="#447666" stroke-width="2px"/><text text-anchor="middle" pointer-events="none" font-family="sans-serif" dy="2.5" font-size="40" fill="#FFFFFF"/><text text-anchor="middle" pointer-events="none" y="5" font-size="10px" fill="#FFFFFF" font-family="sans-serif"> Code Co-op</text></g><g class="node" transform="translate(223.31397780686376,254.5651679269957)"><circle class="outline" cx="0" cy="0" r="40" fill="#569480" stroke="#447666" stroke-width="2px"/><text text-anchor="middle" pointer-events="none" font-family="sans-serif" dy="2.5" font-size="40" fill="#FFFFFF"/><text text-anchor="middle" pointer-events="none" y="5" font-size="10px" fill="#FFFFFF" font-family="sans-serif"> Autodesk Vault</text></g><g class="node" transform="translate(334.031518265637,114.03669937446507)"><circle class="outline" cx="0" cy="0" r="40" fill="#569480" stroke="#447666" stroke-width="2px"/><text text-anchor="middle" pointer-events="none" font-family="sans-serif" dy="2.5" font-size="40" fill="#FFFFFF"/><text text-anchor="middle" pointer-events="none" y="5" font-size="10px" fill="#FFFFFF" font-family="sans-serif"> Dat</text></g><g class="node" transform="translate(273.18647544174786,179.98560706612227)"><circle class="outline" cx="0" cy="0" r="40" fill="#569480" stroke="#447666" stroke-width="2px"/><text text-anchor="middle" pointer-events="none" font-family="sans-serif" dy="2.5" font-size="40" fill="#FFFFFF"/><text text-anchor="middle" pointer-events="none" y="5" font-size="10px" fill="#FFFFFF" font-family="sans-serif"> Code Bisection</text></g><g class="node" transform="translate(380.7549946209018,37.16837650301639)"><circle class="outline" cx="0" cy="0" r="40" fill="#569480" stroke="#447666" stroke-width="2px"/><text text-anchor="middle" pointer-events="none" font-family="sans-serif" dy="2.5" font-size="40" fill="#FFFFFF"/><text text-anchor="middle" pointer-events="none" font-family="sans-serif" dy="2.5" font-size="40" fill="#FFFFFF"/><text text-anchor="middle" pointer-events="none" y="0" font-size="10px" fill="#FFFFFF" font-family="sans-serif"> local version</text><text text-anchor="middle" pointer-events="none" y="10" font-size="10px" fill="#FFFFFF" font-family="sans-serif"> control system</text></g><g class="node" transform="translate(526.1609206448953,66.22931250496626)"><circle class="outline" cx="0" cy="0" r="40" fill="#569480" stroke="#447666" stroke-width="2px"/><text text-anchor="middle" pointer-events="none" font-family="sans-serif" dy="2.5" font-size="40" fill="#FFFFFF"/><text text-anchor="middle" pointer-events="none" y="5" font-size="10px" fill="#FFFFFF" font-family="sans-serif"> GNU RCS</text></g><g class="node" transform="translate(328.37548792219155,-46.74681468283851)"><circle class="outline" cx="0" cy="0" r="40" fill="#569480" stroke="#447666" stroke-width="2px"/><text text-anchor="middle" pointer-events="none" font-family="sans-serif" dy="2.5" font-size="40" fill="#FFFFFF"/><text text-anchor="middle" pointer-events="none" y="5" font-size="10px" fill="#FFFFFF" font-family="sans-serif"> MKS Integrity</text></g><g class="node" transform="translate(248.92403395990718,-88.45559164586817)"><circle class="outline" cx="0" cy="0" r="40" fill="#569480" stroke="#447666" stroke-width="2px"/><text text-anchor="middle" pointer-events="none" font-family="sans-serif" dy="2.5" font-size="40" fill="#FFFFFF"/><text text-anchor="middle" pointer-events="none" y="5" font-size="10px" fill="#FFFFFF" font-family="sans-serif"> Razor</text></g><g class="node" transform="translate(165.42002464711462,-121.56737095352815)"><circle class="outline" cx="0" cy="0" r="40" fill="#569480" stroke="#447666" stroke-width="2px"/><text text-anchor="middle" pointer-events="none" font-family="sans-serif" dy="2.5" font-size="40" fill="#FFFFFF"/><text text-anchor="middle" pointer-events="none" font-family="sans-serif" dy="2.5" font-size="40" fill="#FFFFFF"/><text text-anchor="middle" pointer-events="none" font-family="sans-serif" dy="2.5" font-size="40" fill="#FFFFFF"/><text text-anchor="middle" pointer-events="none" y="-5" font-size="10px" fill="#FFFFFF" font-family="sans-serif"> software</text><text text-anchor="middle" pointer-events="none" y="5" font-size="10px" fill="#FFFFFF" font-family="sans-serif"> configuration</text><text text-anchor="middle" pointer-events="none" y="15" font-size="10px" fill="#FFFFFF" font-family="sans-serif"> manager</text></g><g class="node" transform="translate(283.1149169288326,-222.69117263425568)"><circle class="outline" cx="0" cy="0" r="40" fill="#569480" stroke="#447666" stroke-width="2px"/><text text-anchor="middle" pointer-events="none" font-family="sans-serif" dy="2.5" font-size="40" fill="#FFFFFF"/><text text-anchor="middle" pointer-events="none" y="5" font-size="10px" fill="#FFFFFF" font-family="sans-serif"> Rational Synergy</text></g><g class="node" transform="translate(0.9856904212900808,13.482533678539077)"><circle class="outline" cx="0" cy="0" r="40" fill="#569480" stroke="#447666" stroke-width="2px"/><text text-anchor="middle" pointer-events="none" font-family="sans-serif" dy="2.5" font-size="40" fill="#FFFFFF"/><text text-anchor="middle" pointer-events="none" font-family="sans-serif" dy="2.5" font-size="40" fill="#FFFFFF"/><text text-anchor="middle" pointer-events="none" font-family="sans-serif" dy="2.5" font-size="40" fill="#FFFFFF"/><text text-anchor="middle" pointer-events="none" y="-5" font-size="10px" fill="#FFFFFF" font-family="sans-serif"> distributed</text><text text-anchor="middle" pointer-events="none" y="5" font-size="10px" fill="#FFFFFF" font-family="sans-serif"> revision control</text><text text-anchor="middle" pointer-events="none" y="15" font-size="10px" fill="#FFFFFF" font-family="sans-serif"> system</text></g><g class="node" transform="translate(4.666588173650666,-150.8223922745869)"><circle class="outline" cx="0" cy="0" r="40" fill="#569480" stroke="#447666" stroke-width="2px"/><text text-anchor="middle" pointer-events="none" font-family="sans-serif" dy="2.5" font-size="40" fill="#FFFFFF"/><text text-anchor="middle" pointer-events="none" y="5" font-size="10px" fill="#FFFFFF" font-family="sans-serif"> Pijul</text></g><g class="node" transform="translate(-166.01021428805942,19.04655448116677)"><circle class="outline" cx="0" cy="0" r="40" fill="#569480" stroke="#447666" stroke-width="2px"/><text text-anchor="middle" pointer-events="none" font-family="sans-serif" dy="2.5" font-size="40" fill="#FFFFFF"/><text text-anchor="middle" pointer-events="none" y="5" font-size="10px" fill="#FFFFFF" font-family="sans-serif"> camp</text></g><g class="node" transform="translate(-108.13783534652993,163.85568619120045)"><circle class="outline" cx="0" cy="0" r="40" fill="#569480" stroke="#447666" stroke-width="2px"/><text text-anchor="middle" pointer-events="none" font-family="sans-serif" dy="2.5" font-size="40" fill="#FFFFFF"/><text text-anchor="middle" pointer-events="none" y="5" font-size="10px" fill="#FFFFFF" font-family="sans-serif"> BitKeeper</text></g><g class="node" transform="translate(-81.8191787265869,-127.26063550497108)"><circle class="outline" cx="0" cy="0" r="40" fill="#569480" stroke="#447666" stroke-width="2px"/><text text-anchor="middle" pointer-events="none" font-family="sans-serif" dy="2.5" font-size="40" fill="#FFFFFF"/><text text-anchor="middle" pointer-events="none" font-family="sans-serif" dy="2.5" font-size="40" fill="#FFFFFF"/><text text-anchor="middle" pointer-events="none" y="0" font-size="10px" fill="#FFFFFF" font-family="sans-serif"> Sun WorkShop</text><text text-anchor="middle" pointer-events="none" y="10" font-size="10px" fill="#FFFFFF" font-family="sans-serif"> TeamWare</text></g><g class="node" transform="translate(-178.55084497229802,107.96538975227737)"><circle class="outline" cx="0" cy="0" r="40" fill="#569480" stroke="#447666" stroke-width="2px"/><text text-anchor="middle" pointer-events="none" font-family="sans-serif" dy="2.5" font-size="40" fill="#FFFFFF"/><text text-anchor="middle" pointer-events="none" y="5" font-size="10px" fill="#FFFFFF" font-family="sans-serif"> Fossil</text></g><g class="node" transform="translate(-95.55965689072778,74.88567926997968)"><circle class="outline" cx="0" cy="0" r="40" fill="#569480" stroke="#447666" stroke-width="2px"/><text text-anchor="middle" pointer-events="none" font-family="sans-serif" dy="2.5" font-size="40" fill="#FFFFFF"/><text text-anchor="middle" pointer-events="none" y="5" font-size="10px" fill="#FFFFFF" font-family="sans-serif"> GNU arch</text></g><g class="node" transform="translate(-19.317717702962064,177.0153237822984)"><circle class="outline" cx="0" cy="0" r="40" fill="#569480" stroke="#447666" stroke-width="2px"/><text text-anchor="middle" pointer-events="none" font-family="sans-serif" dy="2.5" font-size="40" fill="#FFFFFF"/><text text-anchor="middle" pointer-events="none" y="5" font-size="10px" fill="#FFFFFF" font-family="sans-serif"> Git</text></g><g class="node" transform="translate(-150.47892382814152,-69.4974033431798)"><circle class="outline" cx="0" cy="0" r="40" fill="#569480" stroke="#447666" stroke-width="2px"/><text text-anchor="middle" pointer-events="none" font-family="sans-serif" dy="2.5" font-size="40" fill="#FFFFFF"/><text text-anchor="middle" pointer-events="none" y="5" font-size="10px" fill="#FFFFFF" font-family="sans-serif"> GNU Bazaar</text></g></g></svg>