<svg xmlns="http://www.w3.org/2000/svg" width="876.9996948242188" height="494.39483642578125" viewBox="-425.4586181640625 -243.42376708984375 876.9996948242188 494.39483642578125"><title>Neo4j Graph Visualization</title><desc>Created using Neo4j (http://www.neo4j.com/)</desc><g class="layer relationships"><g class="relationship" transform="translate(-146.527997092367 38.66344365401257) rotate(325.18933791412934)"><path class="outline" fill="#A5ABB6" stroke="none" d="M 40 0.5 L 73.12751045614142 0.5 L 73.12751045614142 -0.5 L 40 -0.5 Z M 118.24469795614142 0.5 L 151.37220841228284 0.5 L 151.37220841228284 3.5 L 158.37220841228284 0 L 151.37220841228284 -3.5 L 151.37220841228284 -0.5 L 118.24469795614142 -0.5 Z"/><text text-anchor="middle" pointer-events="none" font-size="8px" fill="#000000" x="95.68610420614142" y="3" font-family="sans-serif">FOLLOWS</text></g><g class="relationship" transform="translate(-146.527997092367 38.66344365401257) rotate(431.24709023003027)"><path class="outline" fill="#A5ABB6" stroke="none" d="M 38.50762352901147,10.835724717245364 L 38.766442574113995,9.869798890956295 A 166.0118277377787 166.0118277377787 0 0 0 57.598683765138325,13.762789795778815 L 57.45330387342415,14.752165703654669 A 167.0118277377787 167.0118277377787 0 0 1 38.50762352901147,10.835724717245364 Z M 102.56521795298289,15.222226626596552 L 102.44048575329245,14.230036181994109 A 166.0118277377787 166.0118277377787 0 0 0 121.34975822689243,10.730307480924061 L 120.63385213522761,7.816979749974934 L 128.26684061438453,9.545414555530993 L 122.30429968244553,14.6147444555229 L 121.58839359078071,11.701416724573772 A 167.0118277377787 167.0118277377787 0 0 1 102.56521795298289,15.222226626596552"/><text text-anchor="middle" pointer-events="none" font-size="8px" fill="#000000" x="79.99852551598852" y="19.017476056808107" font-family="sans-serif">FOLLOWS</text></g><g class="relationship" transform="translate(101.90874103960135 206.97106701124557) rotate(182.9598714035776)"><path class="outline" fill="#A5ABB6" stroke="none" d="M 40 0.5 L 75.8750059045677 0.5 L 75.8750059045677 -0.5 L 40 -0.5 Z M 112.0976621545677 0.5 L 147.9726680591354 0.5 L 147.9726680591354 3.5 L 154.9726680591354 0 L 147.9726680591354 -3.5 L 147.9726680591354 -0.5 L 112.0976621545677 -0.5 Z"/><text text-anchor="middle" pointer-events="none" font-size="8px" fill="#000000" x="93.9863340295677" y="3" transform="rotate(180 93.9863340295677 0)" font-family="sans-serif">KNOWS</text></g><g class="relationship" transform="translate(-381.45861367154066 49.77833256044639) rotate(357.291278109834)"><path class="outline" fill="#A5ABB6" stroke="none" d="M 40 0.5 L 91.53810620547607 0.5 L 91.53810620547607 -0.5 L 40 -0.5 Z M 136.65529370547608 0.5 L 188.19339991095214 0.5 L 188.19339991095214 3.5 L 195.19339991095214 0 L 188.19339991095214 -3.5 L 188.19339991095214 -0.5 L 136.65529370547608 -0.5 Z"/><text text-anchor="middle" pointer-events="none" font-size="8px" fill="#000000" x="114.09669995547607" y="3" font-family="sans-serif">FOLLOWS</text></g><g class="relationship" transform="translate(-107.36152269193158 -199.42377170430208) rotate(459.341758414773)"><path class="outline" fill="#A5ABB6" stroke="none" d="M 40 0.5 L 94.58502899280857 0.5 L 94.58502899280857 -0.5 L 40 -0.5 Z M 139.7022164928086 0.5 L 194.28724548561715 0.5 L 194.28724548561715 3.5 L 201.28724548561715 0 L 194.28724548561715 -3.5 L 194.28724548561715 -0.5 L 139.7022164928086 -0.5 Z"/><text text-anchor="middle" pointer-events="none" font-size="8px" fill="#000000" x="117.14362274280857" y="3" transform="rotate(180 117.14362274280857 0)" font-family="sans-serif">FOLLOWS</text></g><g class="relationship" transform="translate(138.0648797776634 35.2324173372057) rotate(539.3092806601126)"><path class="outline" fill="#A5ABB6" stroke="none" d="M 40 0.5 L 116.24818534603156 0.5 L 116.24818534603156 -0.5 L 40 -0.5 Z M 161.36537284603156 0.5 L 237.61355819206312 0.5 L 237.61355819206312 3.5 L 244.61355819206312 0 L 237.61355819206312 -3.5 L 237.61355819206312 -0.5 L 161.36537284603156 -0.5 Z"/><text text-anchor="middle" pointer-events="none" font-size="8px" fill="#000000" x="138.80677909603156" y="3" transform="rotate(180 138.80677909603156 0)" font-family="sans-serif">FOLLOWS</text></g><g class="relationship" transform="translate(-92.80382269424757 196.9033555389389) rotate(251.24709023003027)"><path class="outline" fill="#A5ABB6" stroke="none" d="M 38.50762352901147,10.835724717245364 L 38.766442574113995,9.869798890956295 A 166.0118277377787 166.0118277377787 0 0 0 57.598683765138325,13.762789795778815 L 57.45330387342415,14.752165703654669 A 167.0118277377787 167.0118277377787 0 0 1 38.50762352901147,10.835724717245364 Z M 102.56521795298289,15.222226626596552 L 102.44048575329245,14.230036181994109 A 166.0118277377787 166.0118277377787 0 0 0 121.34975822689243,10.730307480924061 L 120.63385213522761,7.816979749974934 L 128.26684061438453,9.545414555530993 L 122.30429968244553,14.6147444555229 L 121.58839359078071,11.701416724573772 A 167.0118277377787 167.0118277377787 0 0 1 102.56521795298289,15.222226626596552"/><text text-anchor="middle" pointer-events="none" font-size="8px" fill="#000000" x="79.99852551598852" y="19.017476056808107" transform="rotate(180 79.99852551598852 16.017476056808107)" font-family="sans-serif">FOLLOWS</text></g><g class="relationship" transform="translate(101.90874103960135 206.97106701124557) rotate(318.5545862878574)"><path class="outline" fill="#A5ABB6" stroke="none" d="M 40 0.5 L 180.8329303298404 0.5 L 180.8329303298404 -0.5 L 40 -0.5 Z M 217.0555865798404 0.5 L 357.8885169096808 0.5 L 357.8885169096808 3.5 L 364.8885169096808 0 L 357.8885169096808 -3.5 L 357.8885169096808 -0.5 L 217.0555865798404 -0.5 Z"/><text text-anchor="middle" pointer-events="none" font-size="8px" fill="#000000" x="198.9442584548404" y="3" font-family="sans-serif">KNOWS</text></g><g class="relationship" transform="translate(-146.527997092367 38.66344365401257) rotate(394.11633329043093)"><path class="outline" fill="#A5ABB6" stroke="none" d="M 40 0.5 L 123.98162496969232 0.5 L 123.98162496969232 -0.5 L 40 -0.5 Z M 169.09881246969232 0.5 L 253.08043743938464 0.5 L 253.08043743938464 3.5 L 260.08043743938464 0 L 253.08043743938464 -3.5 L 253.08043743938464 -0.5 L 169.09881246969232 -0.5 Z"/><text text-anchor="middle" pointer-events="none" font-size="8px" fill="#000000" x="146.54021871969232" y="3" font-family="sans-serif">FOLLOWS</text></g><g class="relationship" transform="translate(16.344114369173212 -74.58057772648152) rotate(402.05587471893097)"><path class="outline" fill="#A5ABB6" stroke="none" d="M 40 0.5 L 55.90914169585409 0.5 L 55.90914169585409 -0.5 L 40 -0.5 Z M 101.02632919585409 0.5 L 116.93547089170818 0.5 L 116.93547089170818 3.5 L 123.93547089170818 0 L 116.93547089170818 -3.5 L 116.93547089170818 -0.5 L 101.02632919585409 -0.5 Z"/><text text-anchor="middle" pointer-events="none" font-size="8px" fill="#000000" x="78.46773544585409" y="3" font-family="sans-serif">FOLLOWS</text></g><g class="relationship" transform="translate(101.90874103960135 206.97106701124557) rotate(281.8888604331349)"><path class="outline" fill="#A5ABB6" stroke="none" d="M 40 0.5 L 66.14035299893715 0.5 L 66.14035299893715 -0.5 L 40 -0.5 Z M 102.36300924893715 0.5 L 128.5033622478743 0.5 L 128.5033622478743 3.5 L 135.5033622478743 0 L 128.5033622478743 -3.5 L 128.5033622478743 -0.5 L 102.36300924893715 -0.5 Z"/><text text-anchor="middle" pointer-events="none" font-size="8px" fill="#000000" x="84.25168112393715" y="3" font-family="sans-serif">KNOWS</text></g><g class="relationship" transform="translate(101.90874103960135 206.97106701124557) rotate(305.01625387370643)"><path class="outline" fill="#A5ABB6" stroke="none" d="M 40 0.5 L 117.11070237279273 0.5 L 117.11070237279273 -0.5 L 40 -0.5 Z M 153.33335862279273 0.5 L 230.44406099558546 0.5 L 230.44406099558546 3.5 L 237.44406099558546 0 L 230.44406099558546 -3.5 L 230.44406099558546 -0.5 L 153.33335862279273 -0.5 Z"/><text text-anchor="middle" pointer-events="none" font-size="8px" fill="#000000" x="135.22203049779273" y="3" font-family="sans-serif">KNOWS</text></g><g class="relationship" transform="translate(405.40777446684 -61.02715655386086) rotate(200.86855928801174)"><path class="outline" fill="#A5ABB6" stroke="none" d="M 40 0.5 L 86.55929572932853 0.5 L 86.55929572932853 -0.5 L 40 -0.5 Z M 131.67648322932854 0.5 L 178.23577895865705 0.5 L 178.23577895865705 3.5 L 185.23577895865705 0 L 178.23577895865705 -3.5 L 178.23577895865705 -0.5 L 131.67648322932854 -0.5 Z"/><text text-anchor="middle" pointer-events="none" font-size="8px" fill="#000000" x="109.11788947932853" y="3" transform="rotate(180 109.11788947932853 0)" font-family="sans-serif">FOLLOWS</text></g><g class="relationship" transform="translate(16.344114369173212 -74.58057772648152) rotate(339.52696377568736)"><path class="outline" fill="#A5ABB6" stroke="none" d="M 40 0.5 L 73.71120267169792 0.5 L 73.71120267169792 -0.5 L 40 -0.5 Z M 109.93385892169792 0.5 L 143.64506159339584 0.5 L 143.64506159339584 3.5 L 150.64506159339584 0 L 143.64506159339584 -3.5 L 143.64506159339584 -0.5 L 109.93385892169792 -0.5 Z"/><text text-anchor="middle" pointer-events="none" font-size="8px" fill="#000000" x="91.82253079669792" y="3" font-family="sans-serif">KNOWS</text></g><g class="relationship" transform="translate(-107.36152269193158 -199.42377170430208) rotate(370.89020426637774)"><path class="outline" fill="#A5ABB6" stroke="none" d="M 40 0.5 L 132.31521305854127 0.5 L 132.31521305854127 -0.5 L 40 -0.5 Z M 168.53786930854127 0.5 L 260.85308236708255 0.5 L 260.85308236708255 3.5 L 267.85308236708255 0 L 260.85308236708255 -3.5 L 260.85308236708255 -0.5 L 168.53786930854127 -0.5 Z"/><text text-anchor="middle" pointer-events="none" font-size="8px" fill="#000000" x="150.42654118354127" y="3" font-family="sans-serif">KNOWS</text></g><g class="relationship" transform="translate(-107.36152269193158 -199.42377170430208) rotate(510.1815824807463)"><path class="outline" fill="#A5ABB6" stroke="none" d="M 40 0.5 L 90.43446445761752 0.5 L 90.43446445761752 -0.5 L 40 -0.5 Z M 135.55165195761754 0.5 L 185.98611641523505 0.5 L 185.98611641523505 3.5 L 192.98611641523505 0 L 185.98611641523505 -3.5 L 185.98611641523505 -0.5 L 135.55165195761754 -0.5 Z"/><text text-anchor="middle" pointer-events="none" font-size="8px" fill="#000000" x="112.99305820761752" y="3" transform="rotate(180 112.99305820761752 0)" font-family="sans-serif">FOLLOWS</text></g><g class="relationship" transform="translate(-309.50159554629624 -83.57075539188317) rotate(478.35191491840874)"><path class="outline" fill="#A5ABB6" stroke="none" d="M 40 0.5 L 54.15111592743749 0.5 L 54.15111592743749 -0.5 L 40 -0.5 Z M 90.37377217743749 0.5 L 104.52488810487498 0.5 L 104.52488810487498 3.5 L 111.52488810487498 0 L 104.52488810487498 -3.5 L 104.52488810487498 -0.5 L 90.37377217743749 -0.5 Z"/><text text-anchor="middle" pointer-events="none" font-size="8px" fill="#000000" x="72.26244405243749" y="3" transform="rotate(180 72.26244405243749 0)" font-family="sans-serif">KNOWS</text></g><g class="relationship" transform="translate(101.90874103960135 206.97106701124557) rotate(346.3271103642784)"><path class="outline" fill="#A5ABB6" stroke="none" d="M 40 0.5 L 63.20377004605908 0.5 L 63.20377004605908 -0.5 L 40 -0.5 Z M 108.32095754605908 0.5 L 131.52472759211815 0.5 L 131.52472759211815 3.5 L 138.52472759211815 0 L 131.52472759211815 -3.5 L 131.52472759211815 -0.5 L 108.32095754605908 -0.5 Z"/><text text-anchor="middle" pointer-events="none" font-size="8px" fill="#000000" x="85.76236379605908" y="3" font-family="sans-serif">FOLLOWS</text></g><g class="relationship" transform="translate(275.3742697274699 164.7716746118489) rotate(322.51135264213224)"><path class="outline" fill="#A5ABB6" stroke="none" d="M 40 0.5 L 61.67231989169528 0.5 L 61.67231989169528 -0.5 L 40 -0.5 Z M 97.89497614169528 0.5 L 119.56729603339056 0.5 L 119.56729603339056 3.5 L 126.56729603339056 0 L 119.56729603339056 -3.5 L 119.56729603339056 -0.5 L 97.89497614169528 -0.5 Z"/><text text-anchor="middle" pointer-events="none" font-size="8px" fill="#000000" x="79.78364801669528" y="3" font-family="sans-serif">KNOWS</text></g></g><g class="layer nodes"><g class="node" transform="translate(-146.527997092367,38.66344365401257)"><circle class="outline" cx="0" cy="0" r="40" fill="#FFC454" stroke="#d7a013" stroke-width="2px"/><text text-anchor="middle" pointer-events="none" font-family="sans-serif" dy="2.5" font-size="40" fill="#604A0E"/><text text-anchor="middle" pointer-events="none" y="5" font-size="10px" fill="#604A0E" font-family="sans-serif"> Joe</text></g><g class="node" transform="translate(16.344114369173212,-74.58057772648152)"><circle class="outline" cx="0" cy="0" r="40" fill="#ECB5C9" stroke="#da7298" stroke-width="2px"/><text text-anchor="middle" pointer-events="none" font-family="sans-serif" dy="2.5" font-size="40" fill="#604A0E"/><text text-anchor="middle" pointer-events="none" y="5" font-size="10px" fill="#604A0E" font-family="sans-serif"> Mark</text></g><g class="node" transform="translate(-92.80382269424757,196.9033555389389)"><circle class="outline" cx="0" cy="0" r="40" fill="#4C8EDA" stroke="#2870c2" stroke-width="2px"/><text text-anchor="middle" pointer-events="none" font-family="sans-serif" dy="2.5" font-size="40" fill="#FFFFFF"/><text text-anchor="middle" pointer-events="none" y="5" font-size="10px" fill="#FFFFFF" font-family="sans-serif"> Praveena</text></g><g class="node" transform="translate(101.90874103960135,206.97106701124557)"><circle class="outline" cx="0" cy="0" r="40" fill="#4C8EDA" stroke="#2870c2" stroke-width="2px"/><text text-anchor="middle" pointer-events="none" font-family="sans-serif" dy="2.5" font-size="40" fill="#FFFFFF"/><text text-anchor="middle" pointer-events="none" y="5" font-size="10px" fill="#FFFFFF" font-family="sans-serif"> Zhen</text></g><g class="node" transform="translate(-381.45861367154066,49.77833256044639)"><circle class="outline" cx="0" cy="0" r="40" fill="#569480" stroke="#447666" stroke-width="2px"/><text text-anchor="middle" pointer-events="none" font-family="sans-serif" dy="2.5" font-size="40" fill="#FFFFFF"/><text text-anchor="middle" pointer-events="none" y="5" font-size="10px" fill="#FFFFFF" font-family="sans-serif"> Anthony</text></g><g class="node" transform="translate(-107.36152269193158,-199.42377170430208)"><circle class="outline" cx="0" cy="0" r="40" fill="#DA7194" stroke="#cc3c6c" stroke-width="2px"/><text text-anchor="middle" pointer-events="none" font-family="sans-serif" dy="2.5" font-size="40" fill="#FFFFFF"/><text text-anchor="middle" pointer-events="none" y="5" font-size="10px" fill="#FFFFFF" font-family="sans-serif"> Alicia</text></g><g class="node" transform="translate(138.0648797776634,35.2324173372057)"><circle class="outline" cx="0" cy="0" r="40" fill="#FFC454" stroke="#d7a013" stroke-width="2px"/><text text-anchor="middle" pointer-events="none" font-family="sans-serif" dy="2.5" font-size="40" fill="#604A0E"/><text text-anchor="middle" pointer-events="none" y="5" font-size="10px" fill="#604A0E" font-family="sans-serif"> Stefan</text></g><g class="node" transform="translate(405.40777446684,-61.02715655386086)"><circle class="outline" cx="0" cy="0" r="40" fill="#ECB5C9" stroke="#da7298" stroke-width="2px"/><text text-anchor="middle" pointer-events="none" font-family="sans-serif" dy="2.5" font-size="40" fill="#604A0E"/><text text-anchor="middle" pointer-events="none" y="5" font-size="10px" fill="#604A0E" font-family="sans-serif"> Lju</text></g><g class="node" transform="translate(261.1085828819759,-20.25264948658193)"><circle class="outline" cx="0" cy="0" r="40" fill="#4C8EDA" stroke="#2870c2" stroke-width="2px"/><text text-anchor="middle" pointer-events="none" font-family="sans-serif" dy="2.5" font-size="40" fill="#FFFFFF"/><text text-anchor="middle" pointer-events="none" y="5" font-size="10px" fill="#FFFFFF" font-family="sans-serif"> Martin</text></g><g class="node" transform="translate(194.94744200467173,-141.26184096793838)"><circle class="outline" cx="0" cy="0" r="40" fill="#DA7194" stroke="#cc3c6c" stroke-width="2px"/><text text-anchor="middle" pointer-events="none" font-family="sans-serif" dy="2.5" font-size="40" fill="#FFFFFF"/><text text-anchor="middle" pointer-events="none" y="5" font-size="10px" fill="#FFFFFF" font-family="sans-serif"> Jake</text></g><g class="node" transform="translate(-309.50159554629624,-83.57075539188317)"><circle class="outline" cx="0" cy="0" r="40" fill="#569480" stroke="#447666" stroke-width="2px"/><text text-anchor="middle" pointer-events="none" font-family="sans-serif" dy="2.5" font-size="40" fill="#FFFFFF"/><text text-anchor="middle" pointer-events="none" y="5" font-size="10px" fill="#FFFFFF" font-family="sans-serif"> Jonny</text></g><g class="node" transform="translate(275.3742697274699,164.7716746118489)"><circle class="outline" cx="0" cy="0" r="40" fill="#DA7194" stroke="#cc3c6c" stroke-width="2px"/><text text-anchor="middle" pointer-events="none" font-family="sans-serif" dy="2.5" font-size="40" fill="#FFFFFF"/><text text-anchor="middle" pointer-events="none" y="5" font-size="10px" fill="#FFFFFF" font-family="sans-serif"> John</text></g><g class="node" transform="translate(407.54107926996164,63.398115124012634)"><circle class="outline" cx="0" cy="0" r="40" fill="#569480" stroke="#447666" stroke-width="2px"/><text text-anchor="middle" pointer-events="none" font-family="sans-serif" dy="2.5" font-size="40" fill="#FFFFFF"/><text text-anchor="middle" pointer-events="none" y="5" font-size="10px" fill="#FFFFFF" font-family="sans-serif"> Rik</text></g></g></svg>