<svg xmlns="http://www.w3.org/2000/svg" width="952.1836547851562" height="419.74432373046875" viewBox="-306.19244384765625 -99.79544830322266 952.1836547851562 419.74432373046875"><title>Neo4j Graph Visualization</title><desc>Created using Neo4j (http://www.neo4j.com/)</desc><g class="layer relationships"><g class="relationship" transform="translate(345.93279717519124 111.39801869642665) rotate(502.68727644611624)"><path class="outline" fill="#A5ABB6" stroke="none" d="M 40 0.5 L 73.4826476879226 0.5 L 73.4826476879226 -0.5 L 40 -0.5 Z M 152.8928039379226 0.5 L 186.3754516258452 0.5 L 186.3754516258452 3.5 L 193.3754516258452 0 L 186.3754516258452 -3.5 L 186.3754516258452 -0.5 L 152.8928039379226 -0.5 Z"/><text text-anchor="middle" pointer-events="none" font-size="8px" fill="#000000" x="113.1877258129226" y="3" transform="rotate(180 113.1877258129226 0)" font-family="sans-serif">0.780032217502594</text></g><g class="relationship" transform="translate(345.93279717519124 111.39801869642665) rotate(393.42074547172024)"><path class="outline" fill="#A5ABB6" stroke="none" d="M 40 0.5 L 65.14939408064832 0.5 L 65.14939408064832 -0.5 L 40 -0.5 Z M 149.00876908064834 0.5 L 174.15816316129664 0.5 L 174.15816316129664 3.5 L 181.15816316129664 0 L 174.15816316129664 -3.5 L 174.15816316129664 -0.5 L 149.00876908064834 -0.5 Z"/><text text-anchor="middle" pointer-events="none" font-size="8px" fill="#000000" x="107.07908158064832" y="3" font-family="sans-serif">0.8155304193496704</text></g><g class="relationship" transform="translate(345.93279717519124 111.39801869642665) rotate(362.2169558314328)"><path class="outline" fill="#A5ABB6" stroke="none" d="M 40 0.5 L 82.6954494839751 0.5 L 82.6954494839751 -0.5 L 40 -0.5 Z M 166.5548244839751 0.5 L 209.2502739679502 0.5 L 209.2502739679502 3.5 L 216.2502739679502 0 L 209.2502739679502 -3.5 L 209.2502739679502 -0.5 L 166.5548244839751 -0.5 Z"/><text text-anchor="middle" pointer-events="none" font-size="8px" fill="#000000" x="124.6251369839751" y="3" font-family="sans-serif">0.7507548332214355</text></g><g class="relationship" transform="translate(345.93279717519124 111.39801869642665) rotate(334.4750588156867)"><path class="outline" fill="#A5ABB6" stroke="none" d="M 40 0.5 L 85.98686658944973 0.5 L 85.98686658944973 -0.5 L 40 -0.5 Z M 169.84624158944973 0.5 L 215.83310817889947 0.5 L 215.83310817889947 3.5 L 222.83310817889947 0 L 215.83310817889947 -3.5 L 215.83310817889947 -0.5 L 169.84624158944973 -0.5 Z"/><text text-anchor="middle" pointer-events="none" font-size="8px" fill="#000000" x="127.91655408944973" y="3" font-family="sans-serif">0.8760746717453003</text></g><g class="relationship" transform="translate(345.93279717519124 111.39801869642665) rotate(186.8682755935007)"><path class="outline" fill="#A5ABB6" stroke="none" d="M 40 0.5 L 46.93738842622359 0.5 L 46.93738842622359 -0.5 L 40 -0.5 Z M 130.7967634262236 0.5 L 137.73415185244718 0.5 L 137.73415185244718 3.5 L 144.73415185244718 0 L 137.73415185244718 -3.5 L 137.73415185244718 -0.5 L 130.7967634262236 -0.5 Z"/><text text-anchor="middle" pointer-events="none" font-size="8px" fill="#000000" x="88.86707592622359" y="3" transform="rotate(180 88.86707592622359 0)" font-family="sans-serif">0.9944096803665161</text></g><g class="relationship" transform="translate(345.93279717519124 111.39801869642665) rotate(292.5781520392758)"><path class="outline" fill="#A5ABB6" stroke="none" d="M 40 0.5 L 45.10600032076847 0.5 L 45.10600032076847 -0.5 L 40 -0.5 Z M 128.9653753207685 0.5 L 134.07137564153695 0.5 L 134.07137564153695 3.5 L 141.07137564153695 0 L 134.07137564153695 -3.5 L 134.07137564153695 -0.5 L 128.9653753207685 -0.5 Z"/><text text-anchor="middle" pointer-events="none" font-size="8px" fill="#000000" x="87.03568782076847" y="3" font-family="sans-serif">0.9946564435958862</text></g><g class="relationship" transform="translate(345.93279717519124 111.39801869642665) rotate(438.75522780104205)"><path class="outline" fill="#A5ABB6" stroke="none" d="M 40 0.5 L 41.1299140815367 0.5 L 41.1299140815367 -0.5 L 40 -0.5 Z M 119.6416328315367 0.5 L 120.7715469130734 0.5 L 120.7715469130734 3.5 L 127.7715469130734 0 L 120.7715469130734 -3.5 L 120.7715469130734 -0.5 L 119.6416328315367 -0.5 Z"/><text text-anchor="middle" pointer-events="none" font-size="8px" fill="#000000" x="80.3857734565367" y="3" font-family="sans-serif">0.6274040937423…</text></g><g class="relationship" transform="translate(-28.423196367328558 91.80144860620224) rotate(400.4751536066708)"><path class="outline" fill="#A5ABB6" stroke="none" d="M 38.50762352901147,10.835724717245364 L 38.766442574113995,9.869798890956295 A 324.8115356628823 324.8115356628823 0 0 0 79.08960982920618,17.97835942825867 L 78.95493405744155,18.969249147904407 A 325.8115356628823 325.8115356628823 0 0 1 38.50762352901147,10.835724717245364 Z M 162.11897991923647,19.560385877138174 L 161.99840369173535,18.567681805744485 A 324.8115356628823 324.8115356628823 0 0 0 202.43276328970663,11.033152266937236 L 201.69757780079294,8.124629910672681 L 209.34184636914287,9.802473185516025 L 203.41301060825822,14.911182075289975 L 202.67782511934453,12.00265971902542 A 325.8115356628823 325.8115356628823 0 0 1 162.11897991923647,19.560385877138174"/><text text-anchor="middle" pointer-events="none" font-size="8px" fill="#000000" x="120.52157191618684" y="24.429265740442304" font-family="sans-serif">0.5617191195487976</text></g><g class="relationship" transform="translate(-28.423196367328558 91.80144860620224) rotate(486.0024082514956)"><path class="outline" fill="#A5ABB6" stroke="none" d="M 40 0.5 L 44.027688596467854 0.5 L 44.027688596467854 -0.5 L 40 -0.5 Z M 126.69956359646785 0.5 L 130.7272521929357 0.5 L 130.7272521929357 3.5 L 137.7272521929357 0 L 130.7272521929357 -3.5 L 130.7272521929357 -0.5 L 126.69956359646785 -0.5 Z"/><text text-anchor="middle" pointer-events="none" font-size="8px" fill="#000000" x="85.36362609646785" y="3" transform="rotate(180 85.36362609646785 0)" font-family="sans-serif">0.9962259531021118</text></g><g class="relationship" transform="translate(-28.423196367328558 91.80144860620224) rotate(517.5655645116492)"><path class="outline" fill="#A5ABB6" stroke="none" d="M 40 0.5 L 81.02545735761261 0.5 L 81.02545735761261 -0.5 L 40 -0.5 Z M 164.8848323576126 0.5 L 205.91028971522522 0.5 L 205.91028971522522 3.5 L 212.91028971522522 0 L 205.91028971522522 -3.5 L 205.91028971522522 -0.5 L 164.8848323576126 -0.5 Z"/><text text-anchor="middle" pointer-events="none" font-size="8px" fill="#000000" x="122.95514485761261" y="3" transform="rotate(180 122.95514485761261 0)" font-family="sans-serif">0.9997879862785339</text></g><g class="relationship" transform="translate(-28.423196367328558 91.80144860620224) rotate(400.4751536066708)"><path class="outline" fill="#A5ABB6" stroke="none" d="M 38.50762352901147,-10.835724717245364 L 38.766442574113995,-9.869798890956295 A 324.8115356628823 324.8115356628823 0 0 1 80.99760297155048,-18.231927050962554 L 80.86880135428115,-19.223597431375765 A 325.8115356628823 325.8115356628823 0 0 0 38.50762352901147,-10.835724717245364 Z M 160.2016903347349,-19.787501989248142 L 160.08699876561644,-18.79410083967508 A 324.8115356628823 324.8115356628823 0 0 1 202.43276328970663,-11.033152266937236 L 201.69757780079294,-8.124629910672681 L 209.34184636914287,-9.802473185516025 L 203.41301060825822,-14.911182075289975 L 202.67782511934453,-12.00265971902542 A 325.8115356628823 325.8115356628823 0 0 0 160.2016903347349,-19.787501989248142"/><text text-anchor="middle" pointer-events="none" font-size="8px" fill="#000000" x="120.52157191618669" y="-18.429265740442304" font-family="sans-serif">0.753325343132019</text></g><g class="relationship" transform="translate(-28.423196367328558 91.80144860620224) rotate(317.6226342064568)"><path class="outline" fill="#A5ABB6" stroke="none" d="M 40 0.5 L 62.955424100075945 0.5 L 62.955424100075945 -0.5 L 40 -0.5 Z M 146.81479910007596 0.5 L 169.7702232001519 0.5 L 169.7702232001519 3.5 L 176.7702232001519 0 L 169.7702232001519 -3.5 L 169.7702232001519 -0.5 L 146.81479910007596 -0.5 Z"/><text text-anchor="middle" pointer-events="none" font-size="8px" fill="#000000" x="104.88511160007594" y="3" font-family="sans-serif">0.9998348355293274</text></g><g class="relationship" transform="translate(-28.423196367328558 91.80144860620224) rotate(210.80110292269956)"><path class="outline" fill="#A5ABB6" stroke="none" d="M 40 0.5 L 50.73625023791227 0.5 L 50.73625023791227 -0.5 L 40 -0.5 Z M 134.59562523791226 0.5 L 145.33187547582455 0.5 L 145.33187547582455 3.5 L 152.33187547582455 0 L 145.33187547582455 -3.5 L 145.33187547582455 -0.5 L 134.59562523791226 -0.5 Z"/><text text-anchor="middle" pointer-events="none" font-size="8px" fill="#000000" x="92.66593773791227" y="3" transform="rotate(180 92.66593773791227 0)" font-family="sans-serif">0.9958534240722656</text></g><g class="relationship" transform="translate(-28.423196367328558 91.80144860620224) rotate(359.2513147589509)"><path class="outline" fill="#A5ABB6" stroke="none" d="M 40 0.5 L 50.05223787866703 0.5 L 50.05223787866703 -0.5 L 40 -0.5 Z M 133.91161287866703 0.5 L 143.96385075733406 0.5 L 143.96385075733406 3.5 L 150.96385075733406 0 L 143.96385075733406 -3.5 L 143.96385075733406 -0.5 L 133.91161287866703 -0.5 Z"/><text text-anchor="middle" pointer-events="none" font-size="8px" fill="#000000" x="91.98192537866703" y="3" font-family="sans-serif">0.9990180134773254</text></g></g><g class="layer nodes"><g class="node" transform="translate(345.93279717519124,111.39801869642665)"><circle class="outline" cx="0" cy="0" r="40" fill="#F79767" stroke="#f36924" stroke-width="2px"/><text text-anchor="middle" pointer-events="none" font-family="sans-serif" dy="2.5" font-size="40" fill="#FFFFFF"/><text text-anchor="middle" pointer-events="none" y="5" font-size="10px" fill="#FFFFFF" font-family="sans-serif"> https://neo4j.co…</text></g><g class="node" transform="translate(160.32022437047632,252.86205737192049)"><circle class="outline" cx="0" cy="0" r="40" fill="#FFC454" stroke="#d7a013" stroke-width="2px"/><text text-anchor="middle" pointer-events="none" font-family="sans-serif" dy="2.5" font-size="40" fill="#604A0E"/><text text-anchor="middle" pointer-events="none" y="5" font-size="10px" fill="#604A0E" font-family="sans-serif"> Nintendo Switch</text></g><g class="node" transform="translate(530.5221246057306,233.20817152294535)"><circle class="outline" cx="0" cy="0" r="40" fill="#4C8EDA" stroke="#2870c2" stroke-width="2px"/><text text-anchor="middle" pointer-events="none" font-family="sans-serif" dy="2.5" font-size="40" fill="#FFFFFF"/><text text-anchor="middle" pointer-events="none" y="5" font-size="10px" fill="#FFFFFF" font-family="sans-serif"> at least</text></g><g class="node" transform="translate(601.9912709789705,121.31068241153493)"><circle class="outline" cx="0" cy="0" r="40" fill="#4C8EDA" stroke="#2870c2" stroke-width="2px"/><text text-anchor="middle" pointer-events="none" font-family="sans-serif" dy="2.5" font-size="40" fill="#FFFFFF"/><text text-anchor="middle" pointer-events="none" y="5" font-size="10px" fill="#FFFFFF" font-family="sans-serif"> once</text></g><g class="node" transform="translate(583.112814414295,-1.857807544166862)"><circle class="outline" cx="0" cy="0" r="40" fill="#4C8EDA" stroke="#2870c2" stroke-width="2px"/><text text-anchor="middle" pointer-events="none" font-family="sans-serif" dy="2.5" font-size="40" fill="#FFFFFF"/><text text-anchor="middle" pointer-events="none" y="5" font-size="10px" fill="#FFFFFF" font-family="sans-serif"> twice a week</text></g><g class="node" transform="translate(162.52435136227237,89.30619067942861)"><circle class="outline" cx="0" cy="0" r="40" fill="#569480" stroke="#447666" stroke-width="2px"/><text text-anchor="middle" pointer-events="none" font-family="sans-serif" dy="2.5" font-size="40" fill="#FFFFFF"/><text text-anchor="middle" pointer-events="none" y="5" font-size="10px" fill="#FFFFFF" font-family="sans-serif"> Mario Kart 8</text></g><g class="node" transform="translate(415.4539309376275,-55.79544719594614)"><circle class="outline" cx="0" cy="0" r="40" fill="#DA7194" stroke="#cc3c6c" stroke-width="2px"/><text text-anchor="middle" pointer-events="none" font-family="sans-serif" dy="2.5" font-size="40" fill="#FFFFFF"/><text text-anchor="middle" pointer-events="none" y="5" font-size="10px" fill="#FFFFFF" font-family="sans-serif"> Neo4j</text></g><g class="node" transform="translate(378.6483884191239,275.9488681113279)"><circle class="outline" cx="0" cy="0" r="40" fill="#DA7194" stroke="#cc3c6c" stroke-width="2px"/><text text-anchor="middle" pointer-events="none" font-family="sans-serif" dy="2.5" font-size="40" fill="#FFFFFF"/><text text-anchor="middle" pointer-events="none" y="5" font-size="10px" fill="#FFFFFF" font-family="sans-serif"> European</text></g><g class="node" transform="translate(-28.423196367328558,91.80144860620224)"><circle class="outline" cx="0" cy="0" r="40" fill="#F79767" stroke="#f36924" stroke-width="2px"/><text text-anchor="middle" pointer-events="none" font-family="sans-serif" dy="2.5" font-size="40" fill="#FFFFFF"/><text text-anchor="middle" pointer-events="none" y="5" font-size="10px" fill="#FFFFFF" font-family="sans-serif"> https://en.wikip…</text></g><g class="node" transform="translate(-132.89469757723393,235.5814249833046)"><circle class="outline" cx="0" cy="0" r="40" fill="#DA7194" stroke="#cc3c6c" stroke-width="2px"/><text text-anchor="middle" pointer-events="none" font-family="sans-serif" dy="2.5" font-size="40" fill="#FFFFFF"/><text text-anchor="middle" pointer-events="none" y="5" font-size="10px" fill="#FFFFFF" font-family="sans-serif"> Nintendo</text></g><g class="node" transform="translate(-262.1924357882061,188.318583584524)"><circle class="outline" cx="0" cy="0" r="40" fill="#D9C8AE" stroke="#c0a378" stroke-width="2px"/><text text-anchor="middle" pointer-events="none" font-family="sans-serif" dy="2.5" font-size="40" fill="#604A0E"/><text text-anchor="middle" pointer-events="none" y="5" font-size="10px" fill="#604A0E" font-family="sans-serif"> March 3, 2017</text></g><g class="node" transform="translate(131.70966283495505,-54.303982743714656)"><circle class="outline" cx="0" cy="0" r="40" fill="#D9C8AE" stroke="#c0a378" stroke-width="2px"/><text text-anchor="middle" pointer-events="none" font-family="sans-serif" dy="2.5" font-size="40" fill="#604A0E"/><text text-anchor="middle" pointer-events="none" y="5" font-size="40" fill="#604A0E" dy="2.5" font-family="sans-serif"/><text text-anchor="middle" pointer-events="none" y="0" font-size="10px" fill="#604A0E" font-family="sans-serif"> October 20,</text><text text-anchor="middle" pointer-events="none" y="10" font-size="10px" fill="#604A0E" font-family="sans-serif"> 2016</text></g><g class="node" transform="translate(-193.62666852644094,-6.683896042742646)"><circle class="outline" cx="0" cy="0" r="40" fill="#DA7194" stroke="#cc3c6c" stroke-width="2px"/><text text-anchor="middle" pointer-events="none" font-family="sans-serif" dy="2.5" font-size="40" fill="#FFFFFF"/><text text-anchor="middle" pointer-events="none" y="5" font-size="10px" fill="#FFFFFF" font-family="sans-serif"> Nintendo</text></g></g></svg>