<svg xmlns="http://www.w3.org/2000/svg" width="642.969970703125" height="236.4375457763672" viewBox="-277.1332092285156 -13.027288436889648 642.969970703125 236.4375457763672"><title>Neo4j Graph Visualization</title><desc>Created using Neo4j (http://www.neo4j.com/)</desc><g class="layer relationships"><g class="relationship" transform="translate(-233.1332150933538 142.59609751555683) rotate(333.12319445091066)"><path class="outline" fill="#A5ABB6" stroke="none" d="M 40 0.5 L 97.39848603301566 0.5 L 97.39848603301566 -0.5 L 40 -0.5 Z M 142.51567353301567 0.5 L 199.91415956603132 0.5 L 199.91415956603132 3.5 L 206.91415956603132 0 L 199.91415956603132 -3.5 L 199.91415956603132 -0.5 L 142.51567353301567 -0.5 Z"/><text text-anchor="middle" pointer-events="none" font-size="8px" fill="#000000" x="119.95707978301566" y="3" font-family="sans-serif">FOLLOWS</text></g><g class="relationship" transform="translate(-233.1332150933538 142.59609751555683) rotate(369.5596995292193)"><path class="outline" fill="#A5ABB6" stroke="none" d="M 40 0.5 L 89.22451117913477 0.5 L 89.22451117913477 -0.5 L 40 -0.5 Z M 125.44716742913477 0.5 L 174.67167860826953 0.5 L 174.67167860826953 3.5 L 181.67167860826953 0 L 174.67167860826953 -3.5 L 174.67167860826953 -0.5 L 125.44716742913477 -0.5 Z"/><text text-anchor="middle" pointer-events="none" font-size="8px" fill="#000000" x="107.33583930413477" y="3" font-family="sans-serif">KNOWS</text></g><g class="relationship" transform="translate(-12.890572194849142 30.972710883178905) rotate(365.2637399547213)"><path class="outline" fill="#A5ABB6" stroke="none" d="M 40 0.5 L 77.95269049371905 0.5 L 77.95269049371905 -0.5 L 40 -0.5 Z M 114.17534674371905 0.5 L 152.1280372374381 0.5 L 152.1280372374381 3.5 L 159.1280372374381 0 L 152.1280372374381 -3.5 L 152.1280372374381 -0.5 L 114.17534674371905 -0.5 Z"/><text text-anchor="middle" pointer-events="none" font-size="8px" fill="#000000" x="96.06401861871905" y="3" font-family="sans-serif">KNOWS</text></g><g class="relationship" transform="translate(159.74780606729703 160.33880855787982) rotate(533.7552470020951)"><path class="outline" fill="#A5ABB6" stroke="none" d="M 40 0.5 L 66.05268160349493 0.5 L 66.05268160349493 -0.5 L 40 -0.5 Z M 102.27533785349493 0.5 L 128.32801945698986 0.5 L 128.32801945698986 3.5 L 135.32801945698986 0 L 128.32801945698986 -3.5 L 128.32801945698986 -0.5 L 102.27533785349493 -0.5 Z"/><text text-anchor="middle" pointer-events="none" font-size="8px" fill="#000000" x="84.16400972849493" y="3" transform="rotate(180 84.16400972849493 0)" font-family="sans-serif">KNOWS</text></g><g class="relationship" transform="translate(159.74780606729703 160.33880855787982) rotate(341.3499351220537)"><path class="outline" fill="#A5ABB6" stroke="none" d="M 40 0.5 L 59.47746019351143 0.5 L 59.47746019351143 -0.5 L 40 -0.5 Z M 104.59464769351143 0.5 L 124.07210788702287 0.5 L 124.07210788702287 3.5 L 131.07210788702287 0 L 124.07210788702287 -3.5 L 124.07210788702287 -0.5 L 104.59464769351143 -0.5 Z"/><text text-anchor="middle" pointer-events="none" font-size="8px" fill="#000000" x="82.03605394351143" y="3" font-family="sans-serif">FOLLOWS</text></g></g><g class="layer nodes"><g class="node" transform="translate(-233.1332150933538,142.59609751555683)"><circle class="outline" cx="0" cy="0" r="40" fill="#DA7194" stroke="#cc3c6c" stroke-width="2px"/><text text-anchor="middle" pointer-events="none" font-family="sans-serif" dy="2.5" font-size="40" fill="#FFFFFF"/><text text-anchor="middle" pointer-events="none" y="5" font-size="10px" fill="#FFFFFF" font-family="sans-serif"> Alicia</text></g><g class="node" transform="translate(-12.890572194849142,30.972710883178905)"><circle class="outline" cx="0" cy="0" r="40" fill="#569480" stroke="#447666" stroke-width="2px"/><text text-anchor="middle" pointer-events="none" font-family="sans-serif" dy="2.5" font-size="40" fill="#FFFFFF"/><text text-anchor="middle" pointer-events="none" y="5" font-size="10px" fill="#FFFFFF" font-family="sans-serif"> Jonny</text></g><g class="node" transform="translate(-14.53987018796623,179.4102613670175)"><circle class="outline" cx="0" cy="0" r="40" fill="#DA7194" stroke="#cc3c6c" stroke-width="2px"/><text text-anchor="middle" pointer-events="none" font-family="sans-serif" dy="2.5" font-size="40" fill="#FFFFFF"/><text text-anchor="middle" pointer-events="none" y="5" font-size="10px" fill="#FFFFFF" font-family="sans-serif"> Jake</text></g><g class="node" transform="translate(185.39773338216366,49.24080014921137)"><circle class="outline" cx="0" cy="0" r="40" fill="#569480" stroke="#447666" stroke-width="2px"/><text text-anchor="middle" pointer-events="none" font-family="sans-serif" dy="2.5" font-size="40" fill="#FFFFFF"/><text text-anchor="middle" pointer-events="none" y="5" font-size="10px" fill="#FFFFFF" font-family="sans-serif"> Anthony</text></g><g class="node" transform="translate(159.74780606729703,160.33880855787982)"><circle class="outline" cx="0" cy="0" r="40" fill="#ECB5C9" stroke="#da7298" stroke-width="2px"/><text text-anchor="middle" pointer-events="none" font-family="sans-serif" dy="2.5" font-size="40" fill="#604A0E"/><text text-anchor="middle" pointer-events="none" y="5" font-size="10px" fill="#604A0E" font-family="sans-serif"> Mark</text></g><g class="node" transform="translate(321.83680509776656,105.63211344467047)"><circle class="outline" cx="0" cy="0" r="40" fill="#FFC454" stroke="#d7a013" stroke-width="2px"/><text text-anchor="middle" pointer-events="none" font-family="sans-serif" dy="2.5" font-size="40" fill="#604A0E"/><text text-anchor="middle" pointer-events="none" y="5" font-size="10px" fill="#604A0E" font-family="sans-serif"> Stefan</text></g></g></svg>