<svg xmlns="http://www.w3.org/2000/svg" width="1188.3504638671875" height="646.0095825195312" viewBox="-595.4942626953125 -400.32763671875 1188.3504638671875 646.0095825195312"><title>Neo4j Graph Visualization</title><desc>Created using Neo4j (http://www.neo4j.com/)</desc><g class="layer relationships"><g class="relationship" transform="translate(296.18091861663345 -93.80292250121906) rotate(514.4943260649756)"><path class="outline" fill="#A5ABB6" stroke="none" d="M 40 0.5 L 65.78429518880631 0.5 L 65.78429518880631 -0.5 L 40 -0.5 Z M 100.22960768880631 0.5 L 126.01390287761262 0.5 L 126.01390287761262 3.5 L 133.01390287761262 0 L 126.01390287761262 -3.5 L 126.01390287761262 -0.5 L 100.22960768880631 -0.5 Z"/><text text-anchor="middle" pointer-events="none" font-size="8px" fill="#000000" x="83.00695143880631" y="3" transform="rotate(180 83.00695143880631 0)" font-family="sans-serif">ENTITY</text></g><g class="relationship" transform="translate(296.18091861663345 -93.80292250121906) rotate(296.1432115789248)"><path class="outline" fill="#A5ABB6" stroke="none" d="M 40 0.5 L 99.32651021689094 0.5 L 99.32651021689094 -0.5 L 40 -0.5 Z M 133.77182271689094 0.5 L 193.09833293378188 0.5 L 193.09833293378188 3.5 L 200.09833293378188 0 L 193.09833293378188 -3.5 L 193.09833293378188 -0.5 L 133.77182271689094 -0.5 Z"/><text text-anchor="middle" pointer-events="none" font-size="8px" fill="#000000" x="116.54916646689094" y="3" font-family="sans-serif">ENTITY</text></g><g class="relationship" transform="translate(296.18091861663345 -93.80292250121906) rotate(390.8219125443528)"><path class="outline" fill="#A5ABB6" stroke="none" d="M 40 0.5 L 126.39302577551749 0.5 L 126.39302577551749 -0.5 L 40 -0.5 Z M 160.8383382755175 0.5 L 247.23136405103497 0.5 L 247.23136405103497 3.5 L 254.23136405103497 0 L 247.23136405103497 -3.5 L 247.23136405103497 -0.5 L 160.8383382755175 -0.5 Z"/><text text-anchor="middle" pointer-events="none" font-size="8px" fill="#000000" x="143.6156820255175" y="3" font-family="sans-serif">ENTITY</text></g><g class="relationship" transform="translate(296.18091861663345 -93.80292250121906) rotate(436.0630422535328)"><path class="outline" fill="#A5ABB6" stroke="none" d="M 40 0.5 L 108.88845454334182 0.5 L 108.88845454334182 -0.5 L 40 -0.5 Z M 143.33376704334182 0.5 L 212.22222158668365 0.5 L 212.22222158668365 3.5 L 219.22222158668365 0 L 212.22222158668365 -3.5 L 212.22222158668365 -0.5 L 143.33376704334182 -0.5 Z"/><text text-anchor="middle" pointer-events="none" font-size="8px" fill="#000000" x="126.11111079334182" y="3" font-family="sans-serif">ENTITY</text></g><g class="relationship" transform="translate(296.18091861663345 -93.80292250121906) rotate(414.6555012926854)"><path class="outline" fill="#A5ABB6" stroke="none" d="M 40 0.5 L 130.87142007414297 0.5 L 130.87142007414297 -0.5 L 40 -0.5 Z M 165.31673257414297 0.5 L 256.18815264828595 0.5 L 256.18815264828595 3.5 L 263.18815264828595 0 L 256.18815264828595 -3.5 L 256.18815264828595 -0.5 L 165.31673257414297 -0.5 Z"/><text text-anchor="middle" pointer-events="none" font-size="8px" fill="#000000" x="148.09407632414297" y="3" font-family="sans-serif">ENTITY</text></g><g class="relationship" transform="translate(296.18091861663345 -93.80292250121906) rotate(367.4729091763292)"><path class="outline" fill="#A5ABB6" stroke="none" d="M 40 0.5 L 78.90132617192343 0.5 L 78.90132617192343 -0.5 L 40 -0.5 Z M 113.34663867192343 0.5 L 152.24796484384686 0.5 L 152.24796484384686 3.5 L 159.24796484384686 0 L 152.24796484384686 -3.5 L 152.24796484384686 -0.5 L 113.34663867192343 -0.5 Z"/><text text-anchor="middle" pointer-events="none" font-size="8px" fill="#000000" x="96.12398242192343" y="3" font-family="sans-serif">ENTITY</text></g><g class="relationship" transform="translate(296.18091861663345 -93.80292250121906) rotate(535.3996521031006)"><path class="outline" fill="#A5ABB6" stroke="none" d="M 40 0.5 L 105.89497566499979 0.5 L 105.89497566499979 -0.5 L 40 -0.5 Z M 140.34028816499978 0.5 L 206.23526382999958 0.5 L 206.23526382999958 3.5 L 213.23526382999958 0 L 206.23526382999958 -3.5 L 206.23526382999958 -0.5 L 140.34028816499978 -0.5 Z"/><text text-anchor="middle" pointer-events="none" font-size="8px" fill="#000000" x="123.11763191499979" y="3" transform="rotate(180 123.11763191499979 0)" font-family="sans-serif">ENTITY</text></g><g class="relationship" transform="translate(296.18091861663345 -93.80292250121906) rotate(333.55902287347965)"><path class="outline" fill="#A5ABB6" stroke="none" d="M 40 0.5 L 76.22337271161582 0.5 L 76.22337271161582 -0.5 L 40 -0.5 Z M 110.66868521161582 0.5 L 146.89205792323165 0.5 L 146.89205792323165 3.5 L 153.89205792323165 0 L 146.89205792323165 -3.5 L 146.89205792323165 -0.5 L 110.66868521161582 -0.5 Z"/><text text-anchor="middle" pointer-events="none" font-size="8px" fill="#000000" x="93.44602896161582" y="3" font-family="sans-serif">ENTITY</text></g><g class="relationship" transform="translate(296.18091861663345 -93.80292250121906) rotate(248.50577808961447)"><path class="outline" fill="#A5ABB6" stroke="none" d="M 40 0.5 L 68.44648014369 0.5 L 68.44648014369 -0.5 L 40 -0.5 Z M 102.89179264369 0.5 L 131.33827278738 0.5 L 131.33827278738 3.5 L 138.33827278738 0 L 131.33827278738 -3.5 L 131.33827278738 -0.5 L 102.89179264369 -0.5 Z"/><text text-anchor="middle" pointer-events="none" font-size="8px" fill="#000000" x="85.66913639369" y="3" transform="rotate(180 85.66913639369 0)" font-family="sans-serif">ENTITY</text></g><g class="relationship" transform="translate(296.18091861663345 -93.80292250121906) rotate(205.52336370309968)"><path class="outline" fill="#A5ABB6" stroke="none" d="M 40 0.5 L 61.580416205771655 0.5 L 61.580416205771655 -0.5 L 40 -0.5 Z M 96.02572870577166 0.5 L 117.60614491154331 0.5 L 117.60614491154331 3.5 L 124.60614491154331 0 L 117.60614491154331 -3.5 L 117.60614491154331 -0.5 L 96.02572870577166 -0.5 Z"/><text text-anchor="middle" pointer-events="none" font-size="8px" fill="#000000" x="78.80307245577166" y="3" transform="rotate(180 78.80307245577166 0)" font-family="sans-serif">ENTITY</text></g><g class="relationship" transform="translate(296.18091861663345 -93.80292250121906) rotate(470.3265168950857)"><path class="outline" fill="#A5ABB6" stroke="none" d="M 40 0.5 L 100.2552756866466 0.5 L 100.2552756866466 -0.5 L 40 -0.5 Z M 134.7005881866466 0.5 L 194.9558638732932 0.5 L 194.9558638732932 3.5 L 201.9558638732932 0 L 194.9558638732932 -3.5 L 194.9558638732932 -0.5 L 134.7005881866466 -0.5 Z"/><text text-anchor="middle" pointer-events="none" font-size="8px" fill="#000000" x="117.4779319366466" y="3" transform="rotate(180 117.4779319366466 0)" font-family="sans-serif">ENTITY</text></g><g class="relationship" transform="translate(296.18091861663345 -93.80292250121906) rotate(498.7503137654111)"><path class="outline" fill="#A5ABB6" stroke="none" d="M 40 0.5 L 113.72228638609778 0.5 L 113.72228638609778 -0.5 L 40 -0.5 Z M 148.16759888609778 0.5 L 221.88988527219556 0.5 L 221.88988527219556 3.5 L 228.88988527219556 0 L 221.88988527219556 -3.5 L 221.88988527219556 -0.5 L 148.16759888609778 -0.5 Z"/><text text-anchor="middle" pointer-events="none" font-size="8px" fill="#000000" x="130.94494263609778" y="3" transform="rotate(180 130.94494263609778 0)" font-family="sans-serif">ENTITY</text></g><g class="relationship" transform="translate(-229.8591163464589 -64.21322006865282) rotate(456.37459356112004)"><path class="outline" fill="#A5ABB6" stroke="none" d="M 40 0.5 L 93.55197598433232 0.5 L 93.55197598433232 -0.5 L 40 -0.5 Z M 127.99728848433232 0.5 L 181.54926446866463 0.5 L 181.54926446866463 3.5 L 188.54926446866463 0 L 181.54926446866463 -3.5 L 181.54926446866463 -0.5 L 127.99728848433232 -0.5 Z"/><text text-anchor="middle" pointer-events="none" font-size="8px" fill="#000000" x="110.77463223433232" y="3" transform="rotate(180 110.77463223433232 0)" font-family="sans-serif">ENTITY</text></g><g class="relationship" transform="translate(-229.8591163464589 -64.21322006865282) rotate(186.2306541673815)"><path class="outline" fill="#A5ABB6" stroke="none" d="M 40 0.5 L 141.05048919662588 0.5 L 141.05048919662588 -0.5 L 40 -0.5 Z M 175.49580169662588 0.5 L 276.54629089325175 0.5 L 276.54629089325175 3.5 L 283.54629089325175 0 L 276.54629089325175 -3.5 L 276.54629089325175 -0.5 L 175.49580169662588 -0.5 Z"/><text text-anchor="middle" pointer-events="none" font-size="8px" fill="#000000" x="158.27314544662588" y="3" transform="rotate(180 158.27314544662588 0)" font-family="sans-serif">ENTITY</text></g><g class="relationship" transform="translate(-229.8591163464589 -64.21322006865282) rotate(514.7014811543579)"><path class="outline" fill="#A5ABB6" stroke="none" d="M 40 0.5 L 140.72679028549567 0.5 L 140.72679028549567 -0.5 L 40 -0.5 Z M 175.17210278549567 0.5 L 275.89889307099133 0.5 L 275.89889307099133 3.5 L 282.89889307099133 0 L 275.89889307099133 -3.5 L 275.89889307099133 -0.5 L 175.17210278549567 -0.5 Z"/><text text-anchor="middle" pointer-events="none" font-size="8px" fill="#000000" x="157.94944653549567" y="3" transform="rotate(180 157.94944653549567 0)" font-family="sans-serif">ENTITY</text></g><g class="relationship" transform="translate(-229.8591163464589 -64.21322006865282) rotate(358.0577398173941)"><path class="outline" fill="#A5ABB6" stroke="none" d="M 40 0.5 L 116.16628589257127 0.5 L 116.16628589257127 -0.5 L 40 -0.5 Z M 150.61159839257127 0.5 L 226.77788428514253 0.5 L 226.77788428514253 3.5 L 233.77788428514253 0 L 226.77788428514253 -3.5 L 226.77788428514253 -0.5 L 150.61159839257127 -0.5 Z"/><text text-anchor="middle" pointer-events="none" font-size="8px" fill="#000000" x="133.38894214257127" y="3" font-family="sans-serif">ENTITY</text></g><g class="relationship" transform="translate(-229.8591163464589 -64.21322006865282) rotate(226.15471572553463)"><path class="outline" fill="#A5ABB6" stroke="none" d="M 40 0.5 L 127.90267332918359 0.5 L 127.90267332918359 -0.5 L 40 -0.5 Z M 162.34798582918359 0.5 L 250.25065915836717 0.5 L 250.25065915836717 3.5 L 257.25065915836717 0 L 250.25065915836717 -3.5 L 250.25065915836717 -0.5 L 162.34798582918359 -0.5 Z"/><text text-anchor="middle" pointer-events="none" font-size="8px" fill="#000000" x="145.12532957918359" y="3" transform="rotate(180 145.12532957918359 0)" font-family="sans-serif">ENTITY</text></g><g class="relationship" transform="translate(-229.8591163464589 -64.21322006865282) rotate(265.912262841208)"><path class="outline" fill="#A5ABB6" stroke="none" d="M 40 0.5 L 125.70705738660473 0.5 L 125.70705738660473 -0.5 L 40 -0.5 Z M 160.15236988660473 0.5 L 245.85942727320946 0.5 L 245.85942727320946 3.5 L 252.85942727320946 0 L 245.85942727320946 -3.5 L 245.85942727320946 -0.5 L 160.15236988660473 -0.5 Z"/><text text-anchor="middle" pointer-events="none" font-size="8px" fill="#000000" x="142.92971363660473" y="3" transform="rotate(180 142.92971363660473 0)" font-family="sans-serif">ENTITY</text></g><g class="relationship" transform="translate(-229.8591163464589 -64.21322006865282) rotate(333.60188953027614)"><path class="outline" fill="#A5ABB6" stroke="none" d="M 40 0.5 L 102.85491583729731 0.5 L 102.85491583729731 -0.5 L 40 -0.5 Z M 137.3002283372973 0.5 L 200.15514417459462 0.5 L 200.15514417459462 3.5 L 207.15514417459462 0 L 200.15514417459462 -3.5 L 200.15514417459462 -0.5 L 137.3002283372973 -0.5 Z"/><text text-anchor="middle" pointer-events="none" font-size="8px" fill="#000000" x="120.07757208729731" y="3" font-family="sans-serif">ENTITY</text></g><g class="relationship" transform="translate(-229.8591163464589 -64.21322006865282) rotate(498.98905255489376)"><path class="outline" fill="#A5ABB6" stroke="none" d="M 40 0.5 L 87.55522094620774 0.5 L 87.55522094620774 -0.5 L 40 -0.5 Z M 122.00053344620774 0.5 L 169.55575439241548 0.5 L 169.55575439241548 3.5 L 176.55575439241548 0 L 169.55575439241548 -3.5 L 169.55575439241548 -0.5 L 122.00053344620774 -0.5 Z"/><text text-anchor="middle" pointer-events="none" font-size="8px" fill="#000000" x="104.77787719620774" y="3" transform="rotate(180 104.77787719620774 0)" font-family="sans-serif">ENTITY</text></g><g class="relationship" transform="translate(-229.8591163464589 -64.21322006865282) rotate(322.73438409889445)"><path class="outline" fill="#A5ABB6" stroke="none" d="M 40 0.5 L 162.08564422596677 0.5 L 162.08564422596677 -0.5 L 40 -0.5 Z M 196.53095672596677 0.5 L 318.61660095193355 0.5 L 318.61660095193355 3.5 L 325.61660095193355 0 L 318.61660095193355 -3.5 L 318.61660095193355 -0.5 L 196.53095672596677 -0.5 Z"/><text text-anchor="middle" pointer-events="none" font-size="8px" fill="#000000" x="179.30830047596677" y="3" font-family="sans-serif">ENTITY</text></g><g class="relationship" transform="translate(-229.8591163464589 -64.21322006865282) rotate(397.2558273915426)"><path class="outline" fill="#A5ABB6" stroke="none" d="M 40 0.5 L 116.29100209956951 0.5 L 116.29100209956951 -0.5 L 40 -0.5 Z M 150.7363145995695 0.5 L 227.02731669913902 0.5 L 227.02731669913902 3.5 L 234.02731669913902 0 L 227.02731669913902 -3.5 L 227.02731669913902 -0.5 L 150.7363145995695 -0.5 Z"/><text text-anchor="middle" pointer-events="none" font-size="8px" fill="#000000" x="133.5136583495695" y="3" font-family="sans-serif">ENTITY</text></g><g class="relationship" transform="translate(-229.8591163464589 -64.21322006865282) rotate(412.22808871785054)"><path class="outline" fill="#A5ABB6" stroke="none" d="M 40 0.5 L 147.4684733448786 0.5 L 147.4684733448786 -0.5 L 40 -0.5 Z M 181.9137858448786 0.5 L 289.3822591897572 0.5 L 289.3822591897572 3.5 L 296.3822591897572 0 L 289.3822591897572 -3.5 L 289.3822591897572 -0.5 L 181.9137858448786 -0.5 Z"/><text text-anchor="middle" pointer-events="none" font-size="8px" fill="#000000" x="164.6911295948786" y="3" font-family="sans-serif">ENTITY</text></g><g class="relationship" transform="translate(-229.8591163464589 -64.21322006865282) rotate(529.1871737599441)"><path class="outline" fill="#A5ABB6" stroke="none" d="M 40 0.5 L 77.47808209861776 0.5 L 77.47808209861776 -0.5 L 40 -0.5 Z M 111.92339459861776 0.5 L 149.40147669723552 0.5 L 149.40147669723552 3.5 L 156.40147669723552 0 L 149.40147669723552 -3.5 L 149.40147669723552 -0.5 L 111.92339459861776 -0.5 Z"/><text text-anchor="middle" pointer-events="none" font-size="8px" fill="#000000" x="94.70073834861776" y="3" transform="rotate(180 94.70073834861776 0)" font-family="sans-serif">ENTITY</text></g><g class="relationship" transform="translate(-229.8591163464589 -64.21322006865282) rotate(310.5793045833748)"><path class="outline" fill="#A5ABB6" stroke="none" d="M 40 0.5 L 95.12203847937043 0.5 L 95.12203847937043 -0.5 L 40 -0.5 Z M 129.56735097937042 0.5 L 184.68938945874086 0.5 L 184.68938945874086 3.5 L 191.68938945874086 0 L 184.68938945874086 -3.5 L 184.68938945874086 -0.5 L 129.56735097937042 -0.5 Z"/><text text-anchor="middle" pointer-events="none" font-size="8px" fill="#000000" x="112.34469472937043" y="3" font-family="sans-serif">ENTITY</text></g><g class="relationship" transform="translate(-229.8591163464589 -64.21322006865282) rotate(245.2002921473656)"><path class="outline" fill="#A5ABB6" stroke="none" d="M 40 0.5 L 89.5042732044275 0.5 L 89.5042732044275 -0.5 L 40 -0.5 Z M 123.9495857044275 0.5 L 173.453858908855 0.5 L 173.453858908855 3.5 L 180.453858908855 0 L 173.453858908855 -3.5 L 173.453858908855 -0.5 L 123.9495857044275 -0.5 Z"/><text text-anchor="middle" pointer-events="none" font-size="8px" fill="#000000" x="106.7269294544275" y="3" transform="rotate(180 106.7269294544275 0)" font-family="sans-serif">ENTITY</text></g><g class="relationship" transform="translate(-229.8591163464589 -64.21322006865282) rotate(281.2817512345732)"><path class="outline" fill="#A5ABB6" stroke="none" d="M 40 0.5 L 96.25421145735 0.5 L 96.25421145735 -0.5 L 40 -0.5 Z M 130.69952395734998 0.5 L 186.9537354147 0.5 L 186.9537354147 3.5 L 193.9537354147 0 L 186.9537354147 -3.5 L 186.9537354147 -0.5 L 130.69952395734998 -0.5 Z"/><text text-anchor="middle" pointer-events="none" font-size="8px" fill="#000000" x="113.47686770735" y="3" font-family="sans-serif">ENTITY</text></g><g class="relationship" transform="translate(-229.8591163464589 -64.21322006865282) rotate(384.514849301694)"><path class="outline" fill="#A5ABB6" stroke="none" d="M 40 0.5 L 157.26031040979515 0.5 L 157.26031040979515 -0.5 L 40 -0.5 Z M 191.70562290979515 0.5 L 308.9659333195903 0.5 L 308.9659333195903 3.5 L 315.9659333195903 0 L 308.9659333195903 -3.5 L 308.9659333195903 -0.5 L 191.70562290979515 -0.5 Z"/><text text-anchor="middle" pointer-events="none" font-size="8px" fill="#000000" x="174.48296665979515" y="3" font-family="sans-serif">ENTITY</text></g><g class="relationship" transform="translate(-229.8591163464589 -64.21322006865282) rotate(204.32724317925243)"><path class="outline" fill="#A5ABB6" stroke="none" d="M 40 0.5 L 88.95065238444616 0.5 L 88.95065238444616 -0.5 L 40 -0.5 Z M 123.39596488444616 0.5 L 172.34661726889232 0.5 L 172.34661726889232 3.5 L 179.34661726889232 0 L 172.34661726889232 -3.5 L 172.34661726889232 -0.5 L 123.39596488444616 -0.5 Z"/><text text-anchor="middle" pointer-events="none" font-size="8px" fill="#000000" x="106.17330863444616" y="3" transform="rotate(180 106.17330863444616 0)" font-family="sans-serif">ENTITY</text></g></g><g class="layer nodes"><g class="node" transform="translate(296.18091861663345,-93.80292250121906)"><circle class="outline" cx="0" cy="0" r="40" fill="#F79767" stroke="#f36924" stroke-width="2px"/><text text-anchor="middle" pointer-events="none" font-family="sans-serif" dy="2.5" font-size="40" fill="#FFFFFF"/><text text-anchor="middle" pointer-events="none" y="5" font-size="10px" fill="#FFFFFF" font-family="sans-serif"> https://neo4j.co…</text></g><g class="node" transform="translate(140.02849276186876,-19.303053450218755)"><circle class="outline" cx="0" cy="0" r="40" fill="#DA7194" stroke="#cc3c6c" stroke-width="2px"/><text text-anchor="middle" pointer-events="none" font-family="sans-serif" dy="2.5" font-size="40" fill="#FFFFFF"/><text text-anchor="middle" pointer-events="none" y="5" font-size="10px" fill="#FFFFFF" font-family="sans-serif"> card games</text></g><g class="node" transform="translate(401.9721632317194,-309.33812157638687)"><circle class="outline" cx="0" cy="0" r="40" fill="#DA7194" stroke="#cc3c6c" stroke-width="2px"/><text text-anchor="middle" pointer-events="none" font-family="sans-serif" dy="2.5" font-size="40" fill="#FFFFFF"/><text text-anchor="middle" pointer-events="none" y="5" font-size="10px" fill="#FFFFFF" font-family="sans-serif"> board games</text></g><g class="node" transform="translate(548.856223308189,56.95279377634775)"><circle class="outline" cx="0" cy="0" r="40" fill="#DA7194" stroke="#cc3c6c" stroke-width="2px"/><text text-anchor="middle" pointer-events="none" font-family="sans-serif" dy="2.5" font-size="40" fill="#FFFFFF"/><text text-anchor="middle" pointer-events="none" y="5" font-size="40" fill="#FFFFFF" dy="2.5" font-family="sans-serif"/><text text-anchor="middle" pointer-events="none" y="0" font-size="10px" fill="#FFFFFF" font-family="sans-serif"> role playing</text><text text-anchor="middle" pointer-events="none" y="10" font-size="10px" fill="#FFFFFF" font-family="sans-serif"> games</text></g><g class="node" transform="translate(358.61566333243206,157.7881401711437)"><circle class="outline" cx="0" cy="0" r="40" fill="#DA7194" stroke="#cc3c6c" stroke-width="2px"/><text text-anchor="middle" pointer-events="none" font-family="sans-serif" dy="2.5" font-size="40" fill="#FFFFFF"/><text text-anchor="middle" pointer-events="none" y="5" font-size="10px" fill="#FFFFFF" font-family="sans-serif"> Switch</text></g><g class="node" transform="translate(471.572627929419,153.5041825536493)"><circle class="outline" cx="0" cy="0" r="40" fill="#DA7194" stroke="#cc3c6c" stroke-width="2px"/><text text-anchor="middle" pointer-events="none" font-family="sans-serif" dy="2.5" font-size="40" fill="#FFFFFF"/><text text-anchor="middle" pointer-events="none" y="5" font-size="10px" fill="#FFFFFF" font-family="sans-serif"> friends</text></g><g class="node" transform="translate(493.7365641906896,-67.8892505068307)"><circle class="outline" cx="0" cy="0" r="40" fill="#DA7194" stroke="#cc3c6c" stroke-width="2px"/><text text-anchor="middle" pointer-events="none" font-family="sans-serif" dy="2.5" font-size="40" fill="#FFFFFF"/><text text-anchor="middle" pointer-events="none" y="5" font-size="10px" fill="#FFFFFF" font-family="sans-serif"> Mario Kart 8</text></g><g class="node" transform="translate(43.761479671594884,-73.49219406225251)"><circle class="outline" cx="0" cy="0" r="40" fill="#DA7194" stroke="#cc3c6c" stroke-width="2px"/><text text-anchor="middle" pointer-events="none" font-family="sans-serif" dy="2.5" font-size="40" fill="#FFFFFF"/><text text-anchor="middle" pointer-events="none" y="5" font-size="10px" fill="#FFFFFF" font-family="sans-serif"> Nintendo</text></g><g class="node" transform="translate(469.7906136597501,-180.13833767217807)"><circle class="outline" cx="0" cy="0" r="40" fill="#DA7194" stroke="#cc3c6c" stroke-width="2px"/><text text-anchor="middle" pointer-events="none" font-family="sans-serif" dy="2.5" font-size="40" fill="#FFFFFF"/><text text-anchor="middle" pointer-events="none" y="5" font-size="10px" fill="#FFFFFF" font-family="sans-serif"> Neo4j</text></g><g class="node" transform="translate(230.83645659689267,-259.7385751625342)"><circle class="outline" cx="0" cy="0" r="40" fill="#DA7194" stroke="#cc3c6c" stroke-width="2px"/><text text-anchor="middle" pointer-events="none" font-family="sans-serif" dy="2.5" font-size="40" fill="#FFFFFF"/><text text-anchor="middle" pointer-events="none" y="5" font-size="10px" fill="#FFFFFF" font-family="sans-serif"> tournaments</text></g><g class="node" transform="translate(147.63874363651485,-164.72827195270804)"><circle class="outline" cx="0" cy="0" r="40" fill="#DA7194" stroke="#cc3c6c" stroke-width="2px"/><text text-anchor="middle" pointer-events="none" font-family="sans-serif" dy="2.5" font-size="40" fill="#FFFFFF"/><text text-anchor="middle" pointer-events="none" y="5" font-size="10px" fill="#FFFFFF" font-family="sans-serif"> offices</text></g><g class="node" transform="translate(212.13278855596621,133.08593111653087)"><circle class="outline" cx="0" cy="0" r="40" fill="#DA7194" stroke="#cc3c6c" stroke-width="2px"/><text text-anchor="middle" pointer-events="none" font-family="sans-serif" dy="2.5" font-size="40" fill="#FFFFFF"/><text text-anchor="middle" pointer-events="none" y="5" font-size="10px" fill="#FFFFFF" font-family="sans-serif"> European</text></g><g class="node" transform="translate(94.01782815329227,83.4873909848973)"><circle class="outline" cx="0" cy="0" r="40" fill="#DA7194" stroke="#cc3c6c" stroke-width="2px"/><text text-anchor="middle" pointer-events="none" font-family="sans-serif" dy="2.5" font-size="40" fill="#FFFFFF"/><text text-anchor="middle" pointer-events="none" y="5" font-size="10px" fill="#FFFFFF" font-family="sans-serif"> 8</text></g><g class="node" transform="translate(-229.8591163464589,-64.21322006865282)"><circle class="outline" cx="0" cy="0" r="40" fill="#F79767" stroke="#f36924" stroke-width="2px"/><text text-anchor="middle" pointer-events="none" font-family="sans-serif" dy="2.5" font-size="40" fill="#FFFFFF"/><text text-anchor="middle" pointer-events="none" y="5" font-size="10px" fill="#FFFFFF" font-family="sans-serif"> https://en.wikip…</text></g><g class="node" transform="translate(-255.23454321191448,162.92298136247865)"><circle class="outline" cx="0" cy="0" r="40" fill="#DA7194" stroke="#cc3c6c" stroke-width="2px"/><text text-anchor="middle" pointer-events="none" font-family="sans-serif" dy="2.5" font-size="40" fill="#FFFFFF"/><text text-anchor="middle" pointer-events="none" y="5" font-size="10px" fill="#FFFFFF" font-family="sans-serif"> Nintendo Switch</text></g><g class="node" transform="translate(-551.4942323355808,-99.32809602521542)"><circle class="outline" cx="0" cy="0" r="40" fill="#DA7194" stroke="#cc3c6c" stroke-width="2px"/><text text-anchor="middle" pointer-events="none" font-family="sans-serif" dy="2.5" font-size="40" fill="#FFFFFF"/><text text-anchor="middle" pointer-events="none" y="5" font-size="10px" fill="#FFFFFF" font-family="sans-serif"> home console</text></g><g class="node" transform="translate(-521.7899380488703,73.77261430077206)"><circle class="outline" cx="0" cy="0" r="40" fill="#DA7194" stroke="#cc3c6c" stroke-width="2px"/><text text-anchor="middle" pointer-events="none" font-family="sans-serif" dy="2.5" font-size="40" fill="#FFFFFF"/><text text-anchor="middle" pointer-events="none" y="5" font-size="10px" fill="#FFFFFF" font-family="sans-serif"> device</text></g><g class="node" transform="translate(-435.7686334288808,-278.5942480188136)"><circle class="outline" cx="0" cy="0" r="40" fill="#DA7194" stroke="#cc3c6c" stroke-width="2px"/><text text-anchor="middle" pointer-events="none" font-family="sans-serif" dy="2.5" font-size="40" fill="#FFFFFF"/><text text-anchor="middle" pointer-events="none" y="5" font-size="10px" fill="#FFFFFF" font-family="sans-serif"> unit</text></g><g class="node" transform="translate(-250.73529706598978,-356.32763125262323)"><circle class="outline" cx="0" cy="0" r="40" fill="#DA7194" stroke="#cc3c6c" stroke-width="2px"/><text text-anchor="middle" pointer-events="none" font-family="sans-serif" dy="2.5" font-size="40" fill="#FFFFFF"/><text text-anchor="middle" pointer-events="none" y="5" font-size="10px" fill="#FFFFFF" font-family="sans-serif"> Mario Kart 8</text></g><g class="node" transform="translate(-8.475723088232925,-174.09979104726844)"><circle class="outline" cx="0" cy="0" r="40" fill="#DA7194" stroke="#cc3c6c" stroke-width="2px"/><text text-anchor="middle" pointer-events="none" font-family="sans-serif" dy="2.5" font-size="40" fill="#FFFFFF"/><text text-anchor="middle" pointer-events="none" y="5" font-size="10px" fill="#FFFFFF" font-family="sans-serif"> Joy-Con Wheel</text></g><g class="node" transform="translate(-393.2686700466287,77.89136296785415)"><circle class="outline" cx="0" cy="0" r="40" fill="#DA7194" stroke="#cc3c6c" stroke-width="2px"/><text text-anchor="middle" pointer-events="none" font-family="sans-serif" dy="2.5" font-size="40" fill="#FFFFFF"/><text text-anchor="middle" pointer-events="none" y="5" font-size="10px" fill="#FFFFFF" font-family="sans-serif"> steering wheel</text></g><g class="node" transform="translate(61.11210278592043,-285.5980626578921)"><circle class="outline" cx="0" cy="0" r="40" fill="#DA7194" stroke="#cc3c6c" stroke-width="2px"/><text text-anchor="middle" pointer-events="none" font-family="sans-serif" dy="2.5" font-size="40" fill="#FFFFFF"/><text text-anchor="middle" pointer-events="none" y="5" font-size="10px" fill="#FFFFFF" font-family="sans-serif"> regions</text></g><g class="node" transform="translate(-11.749694504835361,101.67605143870824)"><circle class="outline" cx="0" cy="0" r="40" fill="#DA7194" stroke="#cc3c6c" stroke-width="2px"/><text text-anchor="middle" pointer-events="none" font-family="sans-serif" dy="2.5" font-size="40" fill="#FFFFFF"/><text text-anchor="middle" pointer-events="none" y="5" font-size="10px" fill="#FFFFFF" font-family="sans-serif"> games</text></g><g class="node" transform="translate(-23.818384810567466,201.68194958615618)"><circle class="outline" cx="0" cy="0" r="40" fill="#D9C8AE" stroke="#c0a378" stroke-width="2px"/><text text-anchor="middle" pointer-events="none" font-family="sans-serif" dy="2.5" font-size="40" fill="#604A0E"/><text text-anchor="middle" pointer-events="none" y="5" font-size="10px" fill="#604A0E" font-family="sans-serif"> March 3, 2017</text></g><g class="node" transform="translate(-422.7735396037985,-27.368066409822926)"><circle class="outline" cx="0" cy="0" r="40" fill="#D9C8AE" stroke="#c0a378" stroke-width="2px"/><text text-anchor="middle" pointer-events="none" font-family="sans-serif" dy="2.5" font-size="40" fill="#604A0E"/><text text-anchor="middle" pointer-events="none" y="5" font-size="40" fill="#604A0E" dy="2.5" font-family="sans-serif"/><text text-anchor="middle" pointer-events="none" y="0" font-size="10px" fill="#604A0E" font-family="sans-serif"> October 20,</text><text text-anchor="middle" pointer-events="none" y="10" font-size="10px" fill="#604A0E" font-family="sans-serif"> 2016</text></g><g class="node" transform="translate(-79.14518619913676,-240.18277552445375)"><circle class="outline" cx="0" cy="0" r="40" fill="#DA7194" stroke="#cc3c6c" stroke-width="2px"/><text text-anchor="middle" pointer-events="none" font-family="sans-serif" dy="2.5" font-size="40" fill="#FFFFFF"/><text text-anchor="middle" pointer-events="none" y="5" font-size="10px" fill="#FFFFFF" font-family="sans-serif"> 3</text></g><g class="node" transform="translate(-322.3279261337712,-264.3367397366899)"><circle class="outline" cx="0" cy="0" r="40" fill="#DA7194" stroke="#cc3c6c" stroke-width="2px"/><text text-anchor="middle" pointer-events="none" font-family="sans-serif" dy="2.5" font-size="40" fill="#FFFFFF"/><text text-anchor="middle" pointer-events="none" y="5" font-size="10px" fill="#FFFFFF" font-family="sans-serif"> 2017</text></g><g class="node" transform="translate(-184.08985630388585,-293.6462716319504)"><circle class="outline" cx="0" cy="0" r="40" fill="#DA7194" stroke="#cc3c6c" stroke-width="2px"/><text text-anchor="middle" pointer-events="none" font-family="sans-serif" dy="2.5" font-size="40" fill="#FFFFFF"/><text text-anchor="middle" pointer-events="none" y="5" font-size="10px" fill="#FFFFFF" font-family="sans-serif"> 2016</text></g><g class="node" transform="translate(-429.729400299439,-154.5725477546257)"><circle class="outline" cx="0" cy="0" r="40" fill="#DA7194" stroke="#cc3c6c" stroke-width="2px"/><text text-anchor="middle" pointer-events="none" font-family="sans-serif" dy="2.5" font-size="40" fill="#FFFFFF"/><text text-anchor="middle" pointer-events="none" y="5" font-size="10px" fill="#FFFFFF" font-family="sans-serif"> 20</text></g></g></svg>