<svg xmlns="http://www.w3.org/2000/svg" width="850.3629150390625" height="467.9312744140625" viewBox="-415.31719970703125 -332.510009765625 850.3629150390625 467.9312744140625"><title>Neo4j Graph Visualization</title><desc>Created using Neo4j (http://www.neo4j.com/)</desc><g class="layer relationships"><g class="relationship" transform="translate(391.0456487799237 -27.233776351548443) rotate(241.81175763147007)"><path class="outline" fill="#A5ABB6" stroke="none" d="M 40 0.5 L 93.27092652849515 0.5 L 93.27092652849515 -0.5 L 40 -0.5 Z M 129.49358277849515 0.5 L 182.7645093069903 0.5 L 182.7645093069903 3.5 L 189.7645093069903 0 L 182.7645093069903 -3.5 L 182.7645093069903 -0.5 L 129.49358277849515 -0.5 Z"/><text text-anchor="middle" pointer-events="none" font-size="8px" fill="#000000" x="111.38225465349515" y="3" transform="rotate(180 111.38225465349515 0)" font-family="sans-serif">KNOWS</text></g><g class="relationship" transform="translate(277.10010954141984 -75.34627722533952) rotate(234.37099430586295)"><path class="outline" fill="#A5ABB6" stroke="none" d="M 38.50762352901147,-10.835724717245364 L 38.766442574113995,-9.869798890956295 A 337.40771262534105 337.40771262534105 0 0 1 101.25224982453754,-20.450955499576764 L 101.17862455216839,-21.448241476249734 A 338.40771262534105 338.40771262534105 0 0 0 38.50762352901147,-10.835724717245364 Z M 146.32793126790855,-21.7612360231264 L 146.26813964393844,-20.763025142749427 A 337.40771262534105 337.40771262534105 0 0 1 208.89464048840264,-11.049201235988622 L 208.15843334650208,-8.14093731326521 L 215.80329083174072,-9.816095225341158 L 209.87625001093676,-14.926886466286506 L 209.1400428690362,-12.018622543563094 A 338.40771262534105 338.40771262534105 0 0 0 146.32793126790855,-21.7612360231264"/><text text-anchor="middle" pointer-events="none" font-size="8px" fill="#000000" x="123.75151825225294" y="-18.858568504443667" transform="rotate(180 123.75151825225294 -21.858568504443667)" font-family="sans-serif">FOLLOWS</text></g><g class="relationship" transform="translate(277.10010954141984 -75.34627722533952) rotate(445.2164714788444)"><path class="outline" fill="#A5ABB6" stroke="none" d="M 40 0.5 L 57.616631930545324 0.5 L 57.616631930545324 -0.5 L 40 -0.5 Z M 102.73381943054532 0.5 L 120.35045136109065 0.5 L 120.35045136109065 3.5 L 127.35045136109065 0 L 120.35045136109065 -3.5 L 120.35045136109065 -0.5 L 102.73381943054532 -0.5 Z"/><text text-anchor="middle" pointer-events="none" font-size="8px" fill="#000000" x="80.17522568054532" y="3" font-family="sans-serif">FOLLOWS</text></g><g class="relationship" transform="translate(277.10010954141984 -75.34627722533952) rotate(181.67425971862514)"><path class="outline" fill="#A5ABB6" stroke="none" d="M 40 0.5 L 187.46587751611582 0.5 L 187.46587751611582 -0.5 L 40 -0.5 Z M 232.58306501611582 0.5 L 380.04894253223165 0.5 L 380.04894253223165 3.5 L 387.04894253223165 0 L 380.04894253223165 -3.5 L 380.04894253223165 -0.5 L 232.58306501611582 -0.5 Z"/><text text-anchor="middle" pointer-events="none" font-size="8px" fill="#000000" x="210.02447126611582" y="3" transform="rotate(180 210.02447126611582 0)" font-family="sans-serif">FOLLOWS</text></g><g class="relationship" transform="translate(282.51180976338264 -229.7483079916596) rotate(452.0073616001574)"><path class="outline" fill="#A5ABB6" stroke="none" d="M 40 0.5 L 51.18982630513129 0.5 L 51.18982630513129 -0.5 L 40 -0.5 Z M 96.30701380513129 0.5 L 107.49684011026258 0.5 L 107.49684011026258 3.5 L 114.49684011026258 0 L 107.49684011026258 -3.5 L 107.49684011026258 -0.5 L 96.30701380513129 -0.5 Z"/><text text-anchor="middle" pointer-events="none" font-size="8px" fill="#000000" x="73.74842005513129" y="3" transform="rotate(180 73.74842005513129 0)" font-family="sans-serif">FOLLOWS</text></g><g class="relationship" transform="translate(128.7983871347883 -282.2705348891541) rotate(414.37099430586295)"><path class="outline" fill="#A5ABB6" stroke="none" d="M 38.50762352901147,-10.835724717245364 L 38.766442574113995,-9.869798890956295 A 337.40771262534105 337.40771262534105 0 0 1 101.25224982453754,-20.450955499576764 L 101.17862455216839,-21.448241476249734 A 338.40771262534105 338.40771262534105 0 0 0 38.50762352901147,-10.835724717245364 Z M 146.32793126790855,-21.7612360231264 L 146.26813964393844,-20.763025142749427 A 337.40771262534105 337.40771262534105 0 0 1 208.89464048840264,-11.049201235988622 L 208.15843334650208,-8.14093731326521 L 215.80329083174072,-9.816095225341158 L 209.87625001093676,-14.926886466286506 L 209.1400428690362,-12.018622543563094 A 338.40771262534105 338.40771262534105 0 0 0 146.32793126790855,-21.7612360231264"/><text text-anchor="middle" pointer-events="none" font-size="8px" fill="#000000" x="123.75151825225294" y="-18.858568504443667" font-family="sans-serif">FOLLOWS</text></g><g class="relationship" transform="translate(291.0556923778944 91.42127141184308) rotate(198.36833307954646)"><path class="outline" fill="#A5ABB6" stroke="none" d="M 40 0.5 L 114.83287936192363 0.5 L 114.83287936192363 -0.5 L 40 -0.5 Z M 159.95006686192363 0.5 L 234.78294622384726 0.5 L 234.78294622384726 3.5 L 241.78294622384726 0 L 234.78294622384726 -3.5 L 234.78294622384726 -0.5 L 159.95006686192363 -0.5 Z"/><text text-anchor="middle" pointer-events="none" font-size="8px" fill="#000000" x="137.39147311192363" y="3" transform="rotate(180 137.39147311192363 0)" font-family="sans-serif">FOLLOWS</text></g><g class="relationship" transform="translate(291.0556923778944 91.42127141184308) rotate(183.15438450908283)"><path class="outline" fill="#A5ABB6" stroke="none" d="M 40 0.5 L 188.26850993187497 0.5 L 188.26850993187497 -0.5 L 40 -0.5 Z M 224.49116618187497 0.5 L 372.75967611374995 0.5 L 372.75967611374995 3.5 L 379.75967611374995 0 L 372.75967611374995 -3.5 L 372.75967611374995 -0.5 L 224.49116618187497 -0.5 Z"/><text text-anchor="middle" pointer-events="none" font-size="8px" fill="#000000" x="206.37983805687497" y="3" transform="rotate(180 206.37983805687497 0)" font-family="sans-serif">KNOWS</text></g><g class="relationship" transform="translate(-149.76652019797382 -87.82344568732204) rotate(285.04980331371917)"><path class="outline" fill="#A5ABB6" stroke="none" d="M 40 0.5 L 77.8486556187901 0.5 L 77.8486556187901 -0.5 L 40 -0.5 Z M 122.9658431187901 0.5 L 160.8144987375802 0.5 L 160.8144987375802 3.5 L 167.8144987375802 0 L 160.8144987375802 -3.5 L 160.8144987375802 -0.5 L 122.9658431187901 -0.5 Z"/><text text-anchor="middle" pointer-events="none" font-size="8px" fill="#000000" x="100.4072493687901" y="3" font-family="sans-serif">FOLLOWS</text></g><g class="relationship" transform="translate(-149.76652019797382 -87.82344568732204) rotate(325.08374436845355)"><path class="outline" fill="#A5ABB6" stroke="none" d="M 40 0.5 L 148.24749420723535 0.5 L 148.24749420723535 -0.5 L 40 -0.5 Z M 184.47015045723535 0.5 L 292.7176446644707 0.5 L 292.7176446644707 3.5 L 299.7176446644707 0 L 292.7176446644707 -3.5 L 292.7176446644707 -0.5 L 184.47015045723535 -0.5 Z"/><text text-anchor="middle" pointer-events="none" font-size="8px" fill="#000000" x="166.35882233223535" y="3" font-family="sans-serif">KNOWS</text></g><g class="relationship" transform="translate(-149.76652019797382 -87.82344568732204) rotate(220.5117291401391)"><path class="outline" fill="#A5ABB6" stroke="none" d="M 40 0.5 L 80.873119499368 0.5 L 80.873119499368 -0.5 L 40 -0.5 Z M 117.095775749368 0.5 L 157.968895248736 0.5 L 157.968895248736 3.5 L 164.968895248736 0 L 157.968895248736 -3.5 L 157.968895248736 -0.5 L 117.095775749368 -0.5 Z"/><text text-anchor="middle" pointer-events="none" font-size="8px" fill="#000000" x="98.984447624368" y="3" transform="rotate(180 98.984447624368 0)" font-family="sans-serif">KNOWS</text></g><g class="relationship" transform="translate(-149.76652019797382 -87.82344568732204) rotate(529.7493210628402)"><path class="outline" fill="#A5ABB6" stroke="none" d="M 40 0.5 L 90.96082945531585 0.5 L 90.96082945531585 -0.5 L 40 -0.5 Z M 127.18348570531585 0.5 L 178.1443151606317 0.5 L 178.1443151606317 3.5 L 185.1443151606317 0 L 178.1443151606317 -3.5 L 178.1443151606317 -0.5 L 127.18348570531585 -0.5 Z"/><text text-anchor="middle" pointer-events="none" font-size="8px" fill="#000000" x="109.07215758031585" y="3" transform="rotate(180 109.07215758031585 0)" font-family="sans-serif">KNOWS</text></g><g class="relationship" transform="translate(-149.76652019797382 -87.82344568732204) rotate(387.5477480059301)"><path class="outline" fill="#A5ABB6" stroke="none" d="M 40 0.5 L 76.17289578306874 0.5 L 76.17289578306874 -0.5 L 40 -0.5 Z M 112.39555203306874 0.5 L 148.56844781613748 0.5 L 148.56844781613748 3.5 L 155.56844781613748 0 L 148.56844781613748 -3.5 L 148.56844781613748 -0.5 L 112.39555203306874 -0.5 Z"/><text text-anchor="middle" pointer-events="none" font-size="8px" fill="#000000" x="94.28422390806874" y="3" font-family="sans-serif">KNOWS</text></g><g class="relationship" transform="translate(23.629496131190493 2.624546564521113) rotate(342.90142873612206)"><path class="outline" fill="#A5ABB6" stroke="none" d="M 40 0.5 L 106.53741036119808 0.5 L 106.53741036119808 -0.5 L 40 -0.5 Z M 151.65459786119808 0.5 L 218.19200822239617 0.5 L 218.19200822239617 3.5 L 225.19200822239617 0 L 218.19200822239617 -3.5 L 218.19200822239617 -0.5 L 151.65459786119808 -0.5 Z"/><text text-anchor="middle" pointer-events="none" font-size="8px" fill="#000000" x="129.09600411119808" y="3" font-family="sans-serif">FOLLOWS</text></g><g class="relationship" transform="translate(-371.3172144103636 -47.75784269475474) rotate(385.51098425652805)"><path class="outline" fill="#A5ABB6" stroke="none" d="M 40 0.5 L 108.70510492675274 0.5 L 108.70510492675274 -0.5 L 40 -0.5 Z M 153.82229242675274 0.5 L 222.52739735350548 0.5 L 222.52739735350548 3.5 L 229.52739735350548 0 L 222.52739735350548 -3.5 L 222.52739735350548 -0.5 L 153.82229242675274 -0.5 Z"/><text text-anchor="middle" pointer-events="none" font-size="8px" fill="#000000" x="131.26369867675274" y="3" font-family="sans-serif">FOLLOWS</text></g></g><g class="layer nodes"><g class="node" transform="translate(391.0456487799237,-27.233776351548443)"><circle class="outline" cx="0" cy="0" r="40" fill="#569480" stroke="#447666" stroke-width="2px"/><text text-anchor="middle" pointer-events="none" font-family="sans-serif" dy="2.5" font-size="40" fill="#FFFFFF"/><text text-anchor="middle" pointer-events="none" y="5" font-size="10px" fill="#FFFFFF" font-family="sans-serif"> Jonny</text></g><g class="node" transform="translate(277.10010954141984,-75.34627722533952)"><circle class="outline" cx="0" cy="0" r="40" fill="#FFC454" stroke="#d7a013" stroke-width="2px"/><text text-anchor="middle" pointer-events="none" font-family="sans-serif" dy="2.5" font-size="40" fill="#604A0E"/><text text-anchor="middle" pointer-events="none" y="5" font-size="10px" fill="#604A0E" font-family="sans-serif"> Joe</text></g><g class="node" transform="translate(-128.06800144849586,68.32332855013901)"><circle class="outline" cx="0" cy="0" r="40" fill="#DA7194" stroke="#cc3c6c" stroke-width="2px"/><text text-anchor="middle" pointer-events="none" font-family="sans-serif" dy="2.5" font-size="40" fill="#FFFFFF"/><text text-anchor="middle" pointer-events="none" y="5" font-size="10px" fill="#FFFFFF" font-family="sans-serif"> Jake</text></g><g class="node" transform="translate(282.51180976338264,-229.7483079916596)"><circle class="outline" cx="0" cy="0" r="40" fill="#569480" stroke="#447666" stroke-width="2px"/><text text-anchor="middle" pointer-events="none" font-family="sans-serif" dy="2.5" font-size="40" fill="#FFFFFF"/><text text-anchor="middle" pointer-events="none" y="5" font-size="10px" fill="#FFFFFF" font-family="sans-serif"> Anthony</text></g><g class="node" transform="translate(128.7983871347883,-282.2705348891541)"><circle class="outline" cx="0" cy="0" r="40" fill="#4C8EDA" stroke="#2870c2" stroke-width="2px"/><text text-anchor="middle" pointer-events="none" font-family="sans-serif" dy="2.5" font-size="40" fill="#FFFFFF"/><text text-anchor="middle" pointer-events="none" y="5" font-size="10px" fill="#FFFFFF" font-family="sans-serif"> Praveena</text></g><g class="node" transform="translate(291.0556923778944,91.42127141184308)"><circle class="outline" cx="0" cy="0" r="40" fill="#ECB5C9" stroke="#da7298" stroke-width="2px"/><text text-anchor="middle" pointer-events="none" font-family="sans-serif" dy="2.5" font-size="40" fill="#604A0E"/><text text-anchor="middle" pointer-events="none" y="5" font-size="10px" fill="#604A0E" font-family="sans-serif"> Mark</text></g><g class="node" transform="translate(-149.76652019797382,-87.82344568732204)"><circle class="outline" cx="0" cy="0" r="40" fill="#4C8EDA" stroke="#2870c2" stroke-width="2px"/><text text-anchor="middle" pointer-events="none" font-family="sans-serif" dy="2.5" font-size="40" fill="#FFFFFF"/><text text-anchor="middle" pointer-events="none" y="5" font-size="10px" fill="#FFFFFF" font-family="sans-serif"> Zhen</text></g><g class="node" transform="translate(23.629496131190493,2.624546564521113)"><circle class="outline" cx="0" cy="0" r="40" fill="#FFC454" stroke="#d7a013" stroke-width="2px"/><text text-anchor="middle" pointer-events="none" font-family="sans-serif" dy="2.5" font-size="40" fill="#604A0E"/><text text-anchor="middle" pointer-events="none" y="5" font-size="10px" fill="#604A0E" font-family="sans-serif"> Stefan</text></g><g class="node" transform="translate(-95.80570657004202,-288.5100084616227)"><circle class="outline" cx="0" cy="0" r="40" fill="#DA7194" stroke="#cc3c6c" stroke-width="2px"/><text text-anchor="middle" pointer-events="none" font-family="sans-serif" dy="2.5" font-size="40" fill="#FFFFFF"/><text text-anchor="middle" pointer-events="none" y="5" font-size="10px" fill="#FFFFFF" font-family="sans-serif"> John</text></g><g class="node" transform="translate(-305.5988370513399,-220.97199822770614)"><circle class="outline" cx="0" cy="0" r="40" fill="#4C8EDA" stroke="#2870c2" stroke-width="2px"/><text text-anchor="middle" pointer-events="none" font-family="sans-serif" dy="2.5" font-size="40" fill="#FFFFFF"/><text text-anchor="middle" pointer-events="none" y="5" font-size="10px" fill="#FFFFFF" font-family="sans-serif"> Martin</text></g><g class="node" transform="translate(-371.3172144103636,-47.75784269475474)"><circle class="outline" cx="0" cy="0" r="40" fill="#ECB5C9" stroke="#da7298" stroke-width="2px"/><text text-anchor="middle" pointer-events="none" font-family="sans-serif" dy="2.5" font-size="40" fill="#604A0E"/><text text-anchor="middle" pointer-events="none" y="5" font-size="10px" fill="#604A0E" font-family="sans-serif"> Lju</text></g></g></svg>