<svg xmlns="http://www.w3.org/2000/svg" width="838.8662719726562" height="449.84674072265625" viewBox="-623.2339477539062 -254.51393127441406 838.8662719726562 449.84674072265625"><title>Neo4j Graph Visualization</title><desc>Created using Neo4j (http://www.neo4j.com/)</desc><g class="layer relationships"><g class="relationship" transform="translate(-579.233958527067 2.6687914275837272) rotate(427.0928674445355)"><path class="outline" fill="#A5ABB6" stroke="none" d="M 40 0.5 L 54.637331491281486 0.5 L 54.637331491281486 -0.5 L 40 -0.5 Z M 99.75451899128149 0.5 L 114.39185048256297 0.5 L 114.39185048256297 3.5 L 121.39185048256297 0 L 114.39185048256297 -3.5 L 114.39185048256297 -0.5 L 99.75451899128149 -0.5 Z"/><text text-anchor="middle" pointer-events="none" font-size="8px" fill="#000000" x="77.19592524128149" y="3" font-family="sans-serif">FOLLOWS</text></g><g class="relationship" transform="translate(-579.233958527067 2.6687914275837272) rotate(348.8083473215095)"><path class="outline" fill="#A5ABB6" stroke="none" d="M 40 0.5 L 127.02696901777358 0.5 L 127.02696901777358 -0.5 L 40 -0.5 Z M 172.14415651777358 0.5 L 259.17112553554716 0.5 L 259.17112553554716 3.5 L 266.17112553554716 0 L 259.17112553554716 -3.5 L 259.17112553554716 -0.5 L 172.14415651777358 -0.5 Z"/><text text-anchor="middle" pointer-events="none" font-size="8px" fill="#000000" x="149.58556276777358" y="3" font-family="sans-serif">FOLLOWS</text></g><g class="relationship" transform="translate(-579.233958527067 2.6687914275837272) rotate(313.0317062109308)"><path class="outline" fill="#A5ABB6" stroke="none" d="M 40 0.5 L 124.20923519691775 0.5 L 124.20923519691775 -0.5 L 40 -0.5 Z M 160.43189144691775 0.5 L 244.6411266438355 0.5 L 244.6411266438355 3.5 L 251.6411266438355 0 L 244.6411266438355 -3.5 L 244.6411266438355 -0.5 L 160.43189144691775 -0.5 Z"/><text text-anchor="middle" pointer-events="none" font-size="8px" fill="#000000" x="142.32056332191775" y="3" font-family="sans-serif">KNOWS</text></g><g class="relationship" transform="translate(-516.414016987901 151.3327895818165) rotate(332.4930849493592)"><path class="outline" fill="#A5ABB6" stroke="none" d="M 40 0.5 L 81.34804667276276 0.5 L 81.34804667276276 -0.5 L 40 -0.5 Z M 117.57070292276276 0.5 L 158.91874959552553 0.5 L 158.91874959552553 3.5 L 165.91874959552553 0 L 158.91874959552553 -3.5 L 158.91874959552553 -0.5 L 117.57070292276276 -0.5 Z"/><text text-anchor="middle" pointer-events="none" font-size="8px" fill="#000000" x="99.45937479776276" y="3" font-family="sans-serif">KNOWS</text></g><g class="relationship" transform="translate(-278.88515377441587 -56.75640184393751) rotate(360.03043514538695)"><path class="outline" fill="#A5ABB6" stroke="none" d="M 40 0.5 L 108.68104665591883 0.5 L 108.68104665591883 -0.5 L 40 -0.5 Z M 153.79823415591883 0.5 L 222.47928081183767 0.5 L 222.47928081183767 3.5 L 229.47928081183767 0 L 222.47928081183767 -3.5 L 222.47928081183767 -0.5 L 153.79823415591883 -0.5 Z"/><text text-anchor="middle" pointer-events="none" font-size="8px" fill="#000000" x="131.23964040591883" y="3" font-family="sans-serif">FOLLOWS</text></g><g class="relationship" transform="translate(-278.88515377441587 -56.75640184393751) rotate(320.26166710559437)"><path class="outline" fill="#A5ABB6" stroke="none" d="M 40 0.5 L 65.97380955837467 0.5 L 65.97380955837467 -0.5 L 40 -0.5 Z M 111.09099705837467 0.5 L 137.06480661674934 0.5 L 137.06480661674934 3.5 L 144.06480661674934 0 L 137.06480661674934 -3.5 L 137.06480661674934 -0.5 L 111.09099705837467 -0.5 Z"/><text text-anchor="middle" pointer-events="none" font-size="8px" fill="#000000" x="88.53240330837467" y="3" font-family="sans-serif">FOLLOWS</text></g><g class="relationship" transform="translate(-278.88515377441587 -56.75640184393751) rotate(387.7795791531579)"><path class="outline" fill="#A5ABB6" stroke="none" d="M 40 0.5 L 62.42489990470911 0.5 L 62.42489990470911 -0.5 L 40 -0.5 Z M 107.54208740470911 0.5 L 129.96698730941822 0.5 L 129.96698730941822 3.5 L 136.96698730941822 0 L 129.96698730941822 -3.5 L 129.96698730941822 -0.5 L 107.54208740470911 -0.5 Z"/><text text-anchor="middle" pointer-events="none" font-size="8px" fill="#000000" x="84.98349365470911" y="3" font-family="sans-serif">FOLLOWS</text></g><g class="relationship" transform="translate(-137.34446675114896 -174.42579868034068) rotate(364.60132403384847)"><path class="outline" fill="#A5ABB6" stroke="none" d="M 40 0.5 L 68.30393576321184 0.5 L 68.30393576321184 -0.5 L 40 -0.5 Z M 113.42112326321184 0.5 L 141.72505902642368 0.5 L 141.72505902642368 3.5 L 148.72505902642368 0 L 141.72505902642368 -3.5 L 141.72505902642368 -0.5 L 113.42112326321184 -0.5 Z"/><text text-anchor="middle" pointer-events="none" font-size="8px" fill="#000000" x="90.86252951321184" y="3" font-family="sans-serif">FOLLOWS</text></g><g class="relationship" transform="translate(-122.31411710587264 25.72283841632118) rotate(382.2651160385533)"><path class="outline" fill="#A5ABB6" stroke="none" d="M 40 0.5 L 72.4098510773758 0.5 L 72.4098510773758 -0.5 L 40 -0.5 Z M 117.5270385773758 0.5 L 149.9368896547516 0.5 L 149.9368896547516 3.5 L 156.9368896547516 0 L 149.9368896547516 -3.5 L 149.9368896547516 -0.5 L 117.5270385773758 -0.5 Z"/><text text-anchor="middle" pointer-events="none" font-size="8px" fill="#000000" x="94.9684448273758" y="3" font-family="sans-serif">FOLLOWS</text></g><g class="relationship" transform="translate(-122.31411710587264 25.72283841632118) rotate(355.7096626204101)"><path class="outline" fill="#A5ABB6" stroke="none" d="M 40 0.5 L 125.77491257215723 0.5 L 125.77491257215723 -0.5 L 40 -0.5 Z M 161.99756882215723 0.5 L 247.77248139431447 0.5 L 247.77248139431447 3.5 L 254.77248139431447 0 L 247.77248139431447 -3.5 L 247.77248139431447 -0.5 L 161.99756882215723 -0.5 Z"/><text text-anchor="middle" pointer-events="none" font-size="8px" fill="#000000" x="143.88624069715723" y="3" font-family="sans-serif">KNOWS</text></g><g class="relationship" transform="translate(-122.31411710587264 25.72283841632118) rotate(504.30193403211786)"><path class="outline" fill="#A5ABB6" stroke="none" d="M 40 0.5 L 57.109504725732535 0.5 L 57.109504725732535 -0.5 L 40 -0.5 Z M 93.33216097573253 0.5 L 110.44166570146507 0.5 L 110.44166570146507 3.5 L 117.44166570146507 0 L 110.44166570146507 -3.5 L 110.44166570146507 -0.5 L 93.33216097573253 -0.5 Z"/><text text-anchor="middle" pointer-events="none" font-size="8px" fill="#000000" x="75.22083285073253" y="3" transform="rotate(180 75.22083285073253 0)" font-family="sans-serif">KNOWS</text></g></g><g class="layer nodes"><g class="node" transform="translate(-579.233958527067,2.6687914275837272)"><circle class="outline" cx="0" cy="0" r="40" fill="#DA7194" stroke="#cc3c6c" stroke-width="2px"/><text text-anchor="middle" pointer-events="none" font-family="sans-serif" dy="2.5" font-size="40" fill="#FFFFFF"/><text text-anchor="middle" pointer-events="none" y="5" font-size="10px" fill="#FFFFFF" font-family="sans-serif"> Alicia</text></g><g class="node" transform="translate(-516.414016987901,151.3327895818165)"><circle class="outline" cx="0" cy="0" r="40" fill="#569480" stroke="#447666" stroke-width="2px"/><text text-anchor="middle" pointer-events="none" font-family="sans-serif" dy="2.5" font-size="40" fill="#FFFFFF"/><text text-anchor="middle" pointer-events="none" y="5" font-size="10px" fill="#FFFFFF" font-family="sans-serif"> Jonny</text></g><g class="node" transform="translate(-278.88515377441587,-56.75640184393751)"><circle class="outline" cx="0" cy="0" r="40" fill="#FFC454" stroke="#d7a013" stroke-width="2px"/><text text-anchor="middle" pointer-events="none" font-family="sans-serif" dy="2.5" font-size="40" fill="#604A0E"/><text text-anchor="middle" pointer-events="none" y="5" font-size="10px" fill="#604A0E" font-family="sans-serif"> Joe</text></g><g class="node" transform="translate(-380.2171873847153,-210.51392727672052)"><circle class="outline" cx="0" cy="0" r="40" fill="#DA7194" stroke="#cc3c6c" stroke-width="2px"/><text text-anchor="middle" pointer-events="none" font-family="sans-serif" dy="2.5" font-size="40" fill="#FFFFFF"/><text text-anchor="middle" pointer-events="none" y="5" font-size="10px" fill="#FFFFFF" font-family="sans-serif"> Jake</text></g><g class="node" transform="translate(-333.77333224129626,56.22804884679286)"><circle class="outline" cx="0" cy="0" r="40" fill="#569480" stroke="#447666" stroke-width="2px"/><text text-anchor="middle" pointer-events="none" font-family="sans-serif" dy="2.5" font-size="40" fill="#FFFFFF"/><text text-anchor="middle" pointer-events="none" y="5" font-size="10px" fill="#FFFFFF" font-family="sans-serif"> Anthony</text></g><g class="node" transform="translate(-9.405910981594047,-56.61325620957717)"><circle class="outline" cx="0" cy="0" r="40" fill="#4C8EDA" stroke="#2870c2" stroke-width="2px"/><text text-anchor="middle" pointer-events="none" font-family="sans-serif" dy="2.5" font-size="40" fill="#FFFFFF"/><text text-anchor="middle" pointer-events="none" y="5" font-size="10px" fill="#FFFFFF" font-family="sans-serif"> Praveena</text></g><g class="node" transform="translate(-137.34446675114896,-174.42579868034068)"><circle class="outline" cx="0" cy="0" r="40" fill="#ECB5C9" stroke="#da7298" stroke-width="2px"/><text text-anchor="middle" pointer-events="none" font-family="sans-serif" dy="2.5" font-size="40" fill="#604A0E"/><text text-anchor="middle" pointer-events="none" y="5" font-size="10px" fill="#604A0E" font-family="sans-serif"> Mark</text></g><g class="node" transform="translate(-122.31411710587264,25.72283841632118)"><circle class="outline" cx="0" cy="0" r="40" fill="#4C8EDA" stroke="#2870c2" stroke-width="2px"/><text text-anchor="middle" pointer-events="none" font-family="sans-serif" dy="2.5" font-size="40" fill="#FFFFFF"/><text text-anchor="middle" pointer-events="none" y="5" font-size="10px" fill="#FFFFFF" font-family="sans-serif"> Zhen</text></g><g class="node" transform="translate(50.772336108003685,-159.28590480429892)"><circle class="outline" cx="0" cy="0" r="40" fill="#FFC454" stroke="#d7a013" stroke-width="2px"/><text text-anchor="middle" pointer-events="none" font-family="sans-serif" dy="2.5" font-size="40" fill="#604A0E"/><text text-anchor="middle" pointer-events="none" y="5" font-size="10px" fill="#604A0E" font-family="sans-serif"> Stefan</text></g><g class="node" transform="translate(59.93927128945222,100.34080492111599)"><circle class="outline" cx="0" cy="0" r="40" fill="#DA7194" stroke="#cc3c6c" stroke-width="2px"/><text text-anchor="middle" pointer-events="none" font-family="sans-serif" dy="2.5" font-size="40" fill="#FFFFFF"/><text text-anchor="middle" pointer-events="none" y="5" font-size="10px" fill="#FFFFFF" font-family="sans-serif"> John</text></g><g class="node" transform="translate(171.63234225801818,3.670745209690267)"><circle class="outline" cx="0" cy="0" r="40" fill="#4C8EDA" stroke="#2870c2" stroke-width="2px"/><text text-anchor="middle" pointer-events="none" font-family="sans-serif" dy="2.5" font-size="40" fill="#FFFFFF"/><text text-anchor="middle" pointer-events="none" y="5" font-size="10px" fill="#FFFFFF" font-family="sans-serif"> Martin</text></g><g class="node" transform="translate(-250.1730014133268,117.59222288418914)"><circle class="outline" cx="0" cy="0" r="40" fill="#ECB5C9" stroke="#da7298" stroke-width="2px"/><text text-anchor="middle" pointer-events="none" font-family="sans-serif" dy="2.5" font-size="40" fill="#604A0E"/><text text-anchor="middle" pointer-events="none" y="5" font-size="10px" fill="#604A0E" font-family="sans-serif"> Lju</text></g></g></svg>