<svg xmlns="http://www.w3.org/2000/svg" width="1111.3927001953125" height="527.356689453125" viewBox="-311.3824157714844 -172.70013427734375 1111.3927001953125 527.356689453125"><title>Neo4j Graph Visualization</title><desc>Created using Neo4j (http://www.neo4j.com/)</desc><g class="layer relationships"><g class="relationship" transform="translate(637.6503780807964 107.83881679766057) rotate(530.8237239001236)"><path class="outline" fill="#A5ABB6" stroke="none" d="M 40 0.5 L 135.65579032374842 0.5 L 135.65579032374842 -0.5 L 40 -0.5 Z M 219.51516532374842 0.5 L 315.17095564749684 0.5 L 315.17095564749684 3.5 L 322.17095564749684 0 L 315.17095564749684 -3.5 L 315.17095564749684 -0.5 L 219.51516532374842 -0.5 Z"/><text text-anchor="middle" pointer-events="none" font-size="8px" fill="#000000" x="177.58547782374842" y="3" transform="rotate(180 177.58547782374842 0)" font-family="sans-serif">0.8339868065025469</text></g><g class="relationship" transform="translate(637.6503780807964 107.83881679766057) rotate(184.28962735594143)"><path class="outline" fill="#A5ABB6" stroke="none" d="M 40 0.5 L 172.1519631050749 0.5 L 172.1519631050749 -0.5 L 40 -0.5 Z M 193.7222756050749 0.5 L 325.8742387101498 0.5 L 325.8742387101498 3.5 L 332.8742387101498 0 L 325.8742387101498 -3.5 L 325.8742387101498 -0.5 L 193.7222756050749 -0.5 Z"/><text text-anchor="middle" pointer-events="none" font-size="8px" fill="#000000" x="182.9371193550749" y="3" transform="rotate(180 182.9371193550749 0)" font-family="sans-serif">0.94</text></g><g class="relationship" transform="translate(637.6503780807964 107.83881679766057) rotate(397.30965740067785)"><path class="outline" fill="#A5ABB6" stroke="none" d="M 40 0.5 L 40.54801063045457 0.5 L 40.54801063045457 -0.5 L 40 -0.5 Z M 101.26285438045457 0.5 L 101.81086501090914 0.5 L 101.81086501090914 3.5 L 108.81086501090914 0 L 101.81086501090914 -3.5 L 101.81086501090914 -0.5 L 101.26285438045457 -0.5 Z"/><text text-anchor="middle" pointer-events="none" font-size="8px" fill="#000000" x="70.90543250545457" y="3" font-family="sans-serif">0.032446316…</text></g><g class="relationship" transform="translate(637.6503780807964 107.83881679766057) rotate(461.86446398771886)"><path class="outline" fill="#A5ABB6" stroke="none" d="M 40 0.5 L 80.99505004351346 0.5 L 80.99505004351346 -0.5 L 40 -0.5 Z M 98.11614379351346 0.5 L 139.11119383702692 0.5 L 139.11119383702692 3.5 L 146.11119383702692 0 L 139.11119383702692 -3.5 L 139.11119383702692 -0.5 L 98.11614379351346 -0.5 Z"/><text text-anchor="middle" pointer-events="none" font-size="8px" fill="#000000" x="89.55559691851346" y="3" transform="rotate(180 89.55559691851346 0)" font-family="sans-serif">0.8</text></g><g class="relationship" transform="translate(637.6503780807964 107.83881679766057) rotate(509.5658514245654)"><path class="outline" fill="#A5ABB6" stroke="none" d="M 40 0.5 L 154.76635184063983 0.5 L 154.76635184063983 -0.5 L 40 -0.5 Z M 238.62572684063983 0.5 L 353.39207868127966 0.5 L 353.39207868127966 3.5 L 360.39207868127966 0 L 353.39207868127966 -3.5 L 353.39207868127966 -0.5 L 238.62572684063983 -0.5 Z"/><text text-anchor="middle" pointer-events="none" font-size="8px" fill="#000000" x="196.69603934063983" y="3" transform="rotate(180 196.69603934063983 0)" font-family="sans-serif">0.7802000593632747</text></g><g class="relationship" transform="translate(637.6503780807964 107.83881679766057) rotate(210.91047440234115)"><path class="outline" fill="#A5ABB6" stroke="none" d="M 40 0.5 L 215.9463160991918 0.5 L 215.9463160991918 -0.5 L 40 -0.5 Z M 237.5166285991918 0.5 L 413.4629446983836 0.5 L 413.4629446983836 3.5 L 420.4629446983836 0 L 413.4629446983836 -3.5 L 413.4629446983836 -0.5 L 237.5166285991918 -0.5 Z"/><text text-anchor="middle" pointer-events="none" font-size="8px" fill="#000000" x="226.7314723491918" y="3" transform="rotate(180 226.7314723491918 0)" font-family="sans-serif">0.72</text></g><g class="relationship" transform="translate(637.6503780807964 107.83881679766057) rotate(195.91985739278516)"><path class="outline" fill="#A5ABB6" stroke="none" d="M 40 0.5 L 196.98052587546593 0.5 L 196.98052587546593 -0.5 L 40 -0.5 Z M 214.10161962546593 0.5 L 371.08214550093186 0.5 L 371.08214550093186 3.5 L 378.08214550093186 0 L 371.08214550093186 -3.5 L 371.08214550093186 -0.5 L 214.10161962546593 -0.5 Z"/><text text-anchor="middle" pointer-events="none" font-size="8px" fill="#000000" x="205.54107275046593" y="3" transform="rotate(180 205.54107275046593 0)" font-family="sans-serif">0.8</text></g><g class="relationship" transform="translate(637.6503780807964 107.83881679766057) rotate(227.83866784823527)"><path class="outline" fill="#A5ABB6" stroke="none" d="M 40 0.5 L 68.63025559486513 0.5 L 68.63025559486513 -0.5 L 40 -0.5 Z M 152.48963059486513 0.5 L 181.11988618973027 0.5 L 181.11988618973027 3.5 L 188.11988618973027 0 L 181.11988618973027 -3.5 L 181.11988618973027 -0.5 L 152.48963059486513 -0.5 Z"/><text text-anchor="middle" pointer-events="none" font-size="8px" fill="#000000" x="110.55994309486513" y="3" transform="rotate(180 110.55994309486513 0)" font-family="sans-serif">0.8150388253887939</text></g><g class="relationship" transform="translate(637.6503780807964 107.83881679766057) rotate(264.3204232265251)"><path class="outline" fill="#A5ABB6" stroke="none" d="M 40 0.5 L 40.09819472412819 0.5 L 40.09819472412819 -0.5 L 40 -0.5 Z M 114.16069472412819 0.5 L 114.25888944825638 0.5 L 114.25888944825638 3.5 L 121.25888944825638 0 L 114.25888944825638 -3.5 L 114.25888944825638 -0.5 L 114.16069472412819 -0.5 Z"/><text text-anchor="middle" pointer-events="none" font-size="8px" fill="#000000" x="77.12944472412819" y="3" transform="rotate(180 77.12944472412819 0)" font-family="sans-serif">0.005917599267…</text></g><g class="relationship" transform="translate(-34.2559908236313 137.31308532181555) rotate(365.14071926159033)"><path class="outline" fill="#A5ABB6" stroke="none" d="M 40 0.5 L 112.39029118340306 0.5 L 112.39029118340306 -0.5 L 40 -0.5 Z M 196.24966618340306 0.5 L 268.63995736680613 0.5 L 268.63995736680613 3.5 L 275.63995736680613 0 L 268.63995736680613 -3.5 L 268.63995736680613 -0.5 L 196.24966618340306 -0.5 Z"/><text text-anchor="middle" pointer-events="none" font-size="8px" fill="#000000" x="154.31997868340306" y="3" font-family="sans-serif">0.9355623498560008</text></g><g class="relationship" transform="translate(-34.2559908236313 137.31308532181555) rotate(349.1775428856338)"><path class="outline" fill="#A5ABB6" stroke="none" d="M 40 0.5 L 138.47012329395636 0.5 L 138.47012329395636 -0.5 L 40 -0.5 Z M 160.04043579395636 0.5 L 258.5105590879127 0.5 L 258.5105590879127 3.5 L 265.5105590879127 0 L 258.5105590879127 -3.5 L 258.5105590879127 -0.5 L 160.04043579395636 -0.5 Z"/><text text-anchor="middle" pointer-events="none" font-size="8px" fill="#000000" x="149.25527954395636" y="3" font-family="sans-serif">0.85</text></g><g class="relationship" transform="translate(-34.2559908236313 137.31308532181555) rotate(181.76783535108382)"><path class="outline" fill="#A5ABB6" stroke="none" d="M 40 0.5 L 102.33356659714363 0.5 L 102.33356659714363 -0.5 L 40 -0.5 Z M 123.90387909714363 0.5 L 186.23744569428726 0.5 L 186.23744569428726 3.5 L 193.23744569428726 0 L 186.23744569428726 -3.5 L 186.23744569428726 -0.5 L 123.90387909714363 -0.5 Z"/><text text-anchor="middle" pointer-events="none" font-size="8px" fill="#000000" x="113.11872284714363" y="3" transform="rotate(180 113.11872284714363 0)" font-family="sans-serif">0.98</text></g><g class="relationship" transform="translate(-34.2559908236313 137.31308532181555) rotate(295.2755203800133)"><path class="outline" fill="#A5ABB6" stroke="none" d="M 40 0.5 L 59.488458565691644 0.5 L 59.488458565691644 -0.5 L 40 -0.5 Z M 147.79705231569164 0.5 L 167.2855108813833 0.5 L 167.2855108813833 3.5 L 174.2855108813833 0 L 167.2855108813833 -3.5 L 167.2855108813833 -0.5 L 147.79705231569164 -0.5 Z"/><text text-anchor="middle" pointer-events="none" font-size="8px" fill="#000000" x="103.64275544069164" y="3" font-family="sans-serif">0.17175475041657506</text></g><g class="relationship" transform="translate(-34.2559908236313 137.31308532181555) rotate(221.19088672246488)"><path class="outline" fill="#A5ABB6" stroke="none" d="M 40 0.5 L 115.88443874287469 0.5 L 115.88443874287469 -0.5 L 40 -0.5 Z M 133.0055324928747 0.5 L 208.88997123574939 0.5 L 208.88997123574939 3.5 L 215.88997123574939 0 L 208.88997123574939 -3.5 L 208.88997123574939 -0.5 L 133.0055324928747 -0.5 Z"/><text text-anchor="middle" pointer-events="none" font-size="8px" fill="#000000" x="124.44498561787469" y="3" transform="rotate(180 124.44498561787469 0)" font-family="sans-serif">0.8</text></g><g class="relationship" transform="translate(-34.2559908236313 137.31308532181555) rotate(509.0745815341777)"><path class="outline" fill="#A5ABB6" stroke="none" d="M 40 0.5 L 59.23538522181195 0.5 L 59.23538522181195 -0.5 L 40 -0.5 Z M 147.54397897181195 0.5 L 166.7793641936239 0.5 L 166.7793641936239 3.5 L 173.7793641936239 0 L 166.7793641936239 -3.5 L 166.7793641936239 -0.5 L 147.54397897181195 -0.5 Z"/><text text-anchor="middle" pointer-events="none" font-size="8px" fill="#000000" x="103.38968209681195" y="3" transform="rotate(180 103.38968209681195 0)" font-family="sans-serif">0.19698770368988128</text></g><g class="relationship" transform="translate(-34.2559908236313 137.31308532181555) rotate(472.53189594202394)"><path class="outline" fill="#A5ABB6" stroke="none" d="M 40 0.5 L 76.01063529002465 0.5 L 76.01063529002465 -0.5 L 40 -0.5 Z M 93.13172904002465 0.5 L 129.1423643300493 0.5 L 129.1423643300493 3.5 L 136.1423643300493 0 L 129.1423643300493 -3.5 L 129.1423643300493 -0.5 L 93.13172904002465 -0.5 Z"/><text text-anchor="middle" pointer-events="none" font-size="8px" fill="#000000" x="84.57118216502465" y="3" transform="rotate(180 84.57118216502465 0)" font-family="sans-serif">0.8</text></g><g class="relationship" transform="translate(-34.2559908236313 137.31308532181555) rotate(260.4949593251802)"><path class="outline" fill="#A5ABB6" stroke="none" d="M 40 0.5 L 66.00295157481858 0.5 L 66.00295157481858 -0.5 L 40 -0.5 Z M 149.86232657481858 0.5 L 175.86527814963716 0.5 L 175.86527814963716 3.5 L 182.86527814963716 0 L 175.86527814963716 -3.5 L 175.86527814963716 -0.5 L 149.86232657481858 -0.5 Z"/><text text-anchor="middle" pointer-events="none" font-size="8px" fill="#000000" x="107.93263907481858" y="3" transform="rotate(180 107.93263907481858 0)" font-family="sans-serif">0.9023679924293266</text></g><g class="relationship" transform="translate(-34.2559908236313 137.31308532181555) rotate(412.6512887104276)"><path class="outline" fill="#A5ABB6" stroke="none" d="M 40 0.5 L 47.48194727138207 0.5 L 47.48194727138207 -0.5 L 40 -0.5 Z M 140.23975977138207 0.5 L 147.72170704276414 0.5 L 147.72170704276414 3.5 L 154.72170704276414 0 L 147.72170704276414 -3.5 L 147.72170704276414 -0.5 L 140.23975977138207 -0.5 Z"/><text text-anchor="middle" pointer-events="none" font-size="8px" fill="#000000" x="93.86085352138207" y="3" font-family="sans-serif">0.031043862798465494</text></g><g class="relationship" transform="translate(-34.2559908236313 137.31308532181555) rotate(387.951125379494)"><path class="outline" fill="#A5ABB6" stroke="none" d="M 40 0.5 L 139.48251165913587 0.5 L 139.48251165913587 -0.5 L 40 -0.5 Z M 223.34188665913587 0.5 L 322.82439831827173 0.5 L 322.82439831827173 3.5 L 329.82439831827173 0 L 322.82439831827173 -3.5 L 322.82439831827173 -0.5 L 223.34188665913587 -0.5 Z"/><text text-anchor="middle" pointer-events="none" font-size="8px" fill="#000000" x="181.41219915913587" y="3" font-family="sans-serif">0.8863202650046607</text></g><g class="relationship selected" transform="translate(-34.2559908236313 137.31308532181555) rotate(316.14282822759674)"><path class="outline" fill="#A5ABB6" stroke="none" d="M 40 0.5 L 177.6815109588176 0.5 L 177.6815109588176 -0.5 L 40 -0.5 Z M 199.2518234588176 0.5 L 336.9333344176352 0.5 L 336.9333344176352 3.5 L 343.9333344176352 0 L 336.9333344176352 -3.5 L 336.9333344176352 -0.5 L 199.2518234588176 -0.5 Z"/><text text-anchor="middle" pointer-events="none" font-size="8px" fill="#000000" x="188.4666672088176" y="3" font-family="sans-serif">0.92</text></g><g class="relationship" transform="translate(-34.2559908236313 137.31308532181555) rotate(331.8901425957649)"><path class="outline" fill="#A5ABB6" stroke="none" d="M 40 0.5 L 140.91292311407756 0.5 L 140.91292311407756 -0.5 L 40 -0.5 Z M 158.03401686407756 0.5 L 258.9469399781551 0.5 L 258.9469399781551 3.5 L 265.9469399781551 0 L 258.9469399781551 -3.5 L 258.9469399781551 -0.5 L 158.03401686407756 -0.5 Z"/><text text-anchor="middle" pointer-events="none" font-size="8px" fill="#000000" x="149.47346998907756" y="3" font-family="sans-serif">0.8</text></g></g><g class="layer nodes"><g class="node" transform="translate(637.6503780807964,107.83881679766057)"><circle class="outline" cx="0" cy="0" r="40" fill="#DA7194" stroke="#cc3c6c" stroke-width="2px"/><text text-anchor="middle" pointer-events="none" font-family="sans-serif" dy="2.5" font-size="40" fill="#FFFFFF"/><text text-anchor="middle" pointer-events="none" y="5" font-size="10px" fill="#FFFFFF" font-family="sans-serif"> https://neo4j.co…</text></g><g class="node" transform="translate(280.1143483791227,165.5951028606081)"><circle class="outline" cx="0" cy="0" r="40" fill="#4C8EDA" stroke="#2870c2" stroke-width="2px"/><text text-anchor="middle" pointer-events="none" font-family="sans-serif" dy="2.5" font-size="40" fill="#FFFFFF"/><text text-anchor="middle" pointer-events="none" y="5" font-size="10px" fill="#FFFFFF" font-family="sans-serif"> Nintendo Switch</text></g><g class="node" transform="translate(265.8206752970701,79.94849551160164)"><circle class="outline" cx="0" cy="0" r="40" fill="#F16667" stroke="#eb2728" stroke-width="2px"/><text text-anchor="middle" pointer-events="none" font-family="sans-serif" dy="2.5" font-size="40" fill="#FFFFFF"/><text text-anchor="middle" pointer-events="none" y="5" font-size="10px" fill="#FFFFFF" font-family="sans-serif"> Nintendo Switch</text></g><g class="node" transform="translate(756.0102734242074,198.03642607635382)"><circle class="outline" cx="0" cy="0" r="40" fill="#F16667" stroke="#eb2728" stroke-width="2px"/><text text-anchor="middle" pointer-events="none" font-family="sans-serif" dy="2.5" font-size="40" fill="#FFFFFF"/><text text-anchor="middle" pointer-events="none" y="5" font-size="10px" fill="#FFFFFF" font-family="sans-serif"> Oberon Media</text></g><g class="node" transform="translate(599.386427591756,289.9740593083171)"><circle class="outline" cx="0" cy="0" r="40" fill="#FFC454" stroke="#d7a013" stroke-width="2px"/><text text-anchor="middle" pointer-events="none" font-family="sans-serif" dy="2.5" font-size="40" fill="#604A0E"/><text text-anchor="middle" pointer-events="none" y="5" font-size="10px" fill="#604A0E" font-family="sans-serif"> a week</text></g><g class="node" transform="translate(292.42755623284734,310.6565180617645)"><circle class="outline" cx="0" cy="0" r="40" fill="#4C8EDA" stroke="#2870c2" stroke-width="2px"/><text text-anchor="middle" pointer-events="none" font-family="sans-serif" dy="2.5" font-size="40" fill="#FFFFFF"/><text text-anchor="middle" pointer-events="none" y="5" font-size="10px" fill="#FFFFFF" font-family="sans-serif"> Mario Kart 8</text></g><g class="node" transform="translate(242.58652059561564,-128.70012703450305)"><circle class="outline" cx="0" cy="0" r="40" fill="#F16667" stroke="#eb2728" stroke-width="2px"/><text text-anchor="middle" pointer-events="none" font-family="sans-serif" dy="2.5" font-size="40" fill="#FFFFFF"/><text text-anchor="middle" pointer-events="none" y="5" font-size="10px" fill="#FFFFFF" font-family="sans-serif"> Mario Kart</text></g><g class="node" transform="translate(235.60322815061278,-6.83798826630526)"><circle class="outline" cx="0" cy="0" r="40" fill="#57C7E3" stroke="#23b3d7" stroke-width="2px"/><text text-anchor="middle" pointer-events="none" font-family="sans-serif" dy="2.5" font-size="40" fill="#FFFFFF"/><text text-anchor="middle" pointer-events="none" y="5" font-size="10px" fill="#FFFFFF" font-family="sans-serif"> 8</text></g><g class="node" transform="translate(484.53163829111713,-61.256818865818346)"><circle class="outline" cx="0" cy="0" r="40" fill="#4C8EDA" stroke="#2870c2" stroke-width="2px"/><text text-anchor="middle" pointer-events="none" font-family="sans-serif" dy="2.5" font-size="40" fill="#FFFFFF"/><text text-anchor="middle" pointer-events="none" y="5" font-size="10px" fill="#FFFFFF" font-family="sans-serif"> Neo4j</text></g><g class="node" transform="translate(621.6913834834878,-52.62843817209347)"><circle class="outline" cx="0" cy="0" r="40" fill="#C990C0" stroke="#b261a5" stroke-width="2px"/><text text-anchor="middle" pointer-events="none" font-family="sans-serif" dy="2.5" font-size="40" fill="#FFFFFF"/><text text-anchor="middle" pointer-events="none" y="5" font-size="10px" fill="#FFFFFF" font-family="sans-serif"> Europe</text></g><g class="node" transform="translate(-34.2559908236313,137.31308532181555)"><circle class="outline" cx="0" cy="0" r="40" fill="#DA7194" stroke="#cc3c6c" stroke-width="2px"/><text text-anchor="middle" pointer-events="none" font-family="sans-serif" dy="2.5" font-size="40" fill="#FFFFFF"/><text text-anchor="middle" pointer-events="none" y="5" font-size="10px" fill="#FFFFFF" font-family="sans-serif"> https://en.wikip…</text></g><g class="node" transform="translate(-267.3824239394603,130.11779125649042)"><circle class="outline" cx="0" cy="0" r="40" fill="#F16667" stroke="#eb2728" stroke-width="2px"/><text text-anchor="middle" pointer-events="none" font-family="sans-serif" dy="2.5" font-size="40" fill="#FFFFFF"/><text text-anchor="middle" pointer-events="none" y="5" font-size="10px" fill="#FFFFFF" font-family="sans-serif"> Nintendo</text></g><g class="node" transform="translate(57.237827004077985,-56.45781412649013)"><circle class="outline" cx="0" cy="0" r="40" fill="#4C8EDA" stroke="#2870c2" stroke-width="2px"/><text text-anchor="middle" pointer-events="none" font-family="sans-serif" dy="2.5" font-size="40" fill="#FFFFFF"/><text text-anchor="middle" pointer-events="none" y="5" font-size="10px" fill="#FFFFFF" font-family="sans-serif"> March 3</text></g><g class="node" transform="translate(-226.8182271116774,-31.20831549950253)"><circle class="outline" cx="0" cy="0" r="40" fill="#FFC454" stroke="#d7a013" stroke-width="2px"/><text text-anchor="middle" pointer-events="none" font-family="sans-serif" dy="2.5" font-size="40" fill="#604A0E"/><text text-anchor="middle" pointer-events="none" y="5" font-size="10px" fill="#604A0E" font-family="sans-serif"> March 3, 2017</text></g><g class="node" transform="translate(-217.64383839884644,247.178975919215)"><circle class="outline" cx="0" cy="0" r="40" fill="#4C8EDA" stroke="#2870c2" stroke-width="2px"/><text text-anchor="middle" pointer-events="none" font-family="sans-serif" dy="2.5" font-size="40" fill="#FFFFFF"/><text text-anchor="middle" pointer-events="none" y="5" font-size="10px" fill="#FFFFFF" font-family="sans-serif"> October 20</text></g><g class="node" transform="translate(-101.75333738325033,300.00986070224684)"><circle class="outline" cx="0" cy="0" r="40" fill="#FFC454" stroke="#d7a013" stroke-width="2px"/><text text-anchor="middle" pointer-events="none" font-family="sans-serif" dy="2.5" font-size="40" fill="#604A0E"/><text text-anchor="middle" pointer-events="none" font-family="sans-serif" dy="2.5" font-size="40" fill="#604A0E"/><text text-anchor="middle" pointer-events="none" y="0" font-size="10px" fill="#604A0E" font-family="sans-serif"> October 20,</text><text text-anchor="middle" pointer-events="none" y="10" font-size="10px" fill="#604A0E" font-family="sans-serif"> 2016</text></g><g class="node" transform="translate(-71.05870925142769,-82.49249268074443)"><circle class="outline" cx="0" cy="0" r="40" fill="#4C8EDA" stroke="#2870c2" stroke-width="2px"/><text text-anchor="middle" pointer-events="none" font-family="sans-serif" dy="2.5" font-size="40" fill="#FFFFFF"/><text text-anchor="middle" pointer-events="none" y="5" font-size="10px" fill="#FFFFFF" font-family="sans-serif"> Joy-Con</text></g><g class="node" transform="translate(83.87475052676284,292.1086638815869)"><circle class="outline" cx="0" cy="0" r="40" fill="#4C8EDA" stroke="#2870c2" stroke-width="2px"/><text text-anchor="middle" pointer-events="none" font-family="sans-serif" dy="2.5" font-size="40" fill="#FFFFFF"/><text text-anchor="middle" pointer-events="none" y="5" font-size="10px" fill="#FFFFFF" font-family="sans-serif"> Wheel</text></g></g></svg>