<svg xmlns="http://www.w3.org/2000/svg" width="904.728515625" height="404.59033203125" viewBox="-286.3144836425781 -118.37505340576172 904.728515625 404.59033203125"><title>Neo4j Graph Visualization</title><desc>Created using Neo4j (http://www.neo4j.com/)</desc><g class="layer relationships"><g class="relationship" transform="translate(436.88214519116866 114.86527606227511) rotate(204.76941265985295)"><path class="outline" fill="#A5ABB6" stroke="none" d="M 40 0.5 L 108.3677584253484 0.5 L 108.3677584253484 -0.5 L 40 -0.5 Z M 142.8130709253484 0.5 L 211.1808293506968 0.5 L 211.1808293506968 3.5 L 218.1808293506968 0 L 211.1808293506968 -3.5 L 211.1808293506968 -0.5 L 142.8130709253484 -0.5 Z"/><text text-anchor="middle" pointer-events="none" font-size="8px" fill="#000000" x="125.5904146753484" y="3" transform="rotate(180 125.5904146753484 0)" font-family="sans-serif">ENTITY</text></g><g class="relationship" transform="translate(436.88214519116866 114.86527606227511) rotate(398.5004713417287)"><path class="outline" fill="#A5ABB6" stroke="none" d="M 40 0.5 L 53.575982494852624 0.5 L 53.575982494852624 -0.5 L 40 -0.5 Z M 88.02129499485262 0.5 L 101.59727748970525 0.5 L 101.59727748970525 3.5 L 108.59727748970525 0 L 101.59727748970525 -3.5 L 101.59727748970525 -0.5 L 88.02129499485262 -0.5 Z"/><text text-anchor="middle" pointer-events="none" font-size="8px" fill="#000000" x="70.79863874485262" y="3" font-family="sans-serif">ENTITY</text></g><g class="relationship" transform="translate(436.88214519116866 114.86527606227511) rotate(328.28181121005684)"><path class="outline" fill="#A5ABB6" stroke="none" d="M 40 0.5 L 60.117164477732516 0.5 L 60.117164477732516 -0.5 L 40 -0.5 Z M 94.56247697773252 0.5 L 114.67964145546503 0.5 L 114.67964145546503 3.5 L 121.67964145546503 0 L 114.67964145546503 -3.5 L 114.67964145546503 -0.5 L 94.56247697773252 -0.5 Z"/><text text-anchor="middle" pointer-events="none" font-size="8px" fill="#000000" x="77.33982072773252" y="3" font-family="sans-serif">ENTITY</text></g><g class="relationship" transform="translate(436.88214519116866 114.86527606227511) rotate(252.9782255360604)"><path class="outline" fill="#A5ABB6" stroke="none" d="M 40 0.5 L 66.70900685114998 0.5 L 66.70900685114998 -0.5 L 40 -0.5 Z M 101.15431935114998 0.5 L 127.86332620229996 0.5 L 127.86332620229996 3.5 L 134.86332620229996 0 L 127.86332620229996 -3.5 L 127.86332620229996 -0.5 L 101.15431935114998 -0.5 Z"/><text text-anchor="middle" pointer-events="none" font-size="8px" fill="#000000" x="83.93166310114998" y="3" transform="rotate(180 83.93166310114998 0)" font-family="sans-serif">ENTITY</text></g><g class="relationship" transform="translate(436.88214519116866 114.86527606227511) rotate(527.6162914691945)"><path class="outline" fill="#A5ABB6" stroke="none" d="M 40 0.5 L 107.1371053208361 0.5 L 107.1371053208361 -0.5 L 40 -0.5 Z M 141.5824178208361 0.5 L 208.7195231416722 0.5 L 208.7195231416722 3.5 L 215.7195231416722 0 L 208.7195231416722 -3.5 L 208.7195231416722 -0.5 L 141.5824178208361 -0.5 Z"/><text text-anchor="middle" pointer-events="none" font-size="8px" fill="#000000" x="124.3597615708361" y="3" transform="rotate(180 124.3597615708361 0)" font-family="sans-serif">ENTITY</text></g><g class="relationship" transform="translate(-78.37590198153488 115.0817885333088) rotate(338.8959566366059)"><path class="outline" fill="#A5ABB6" stroke="none" d="M 40 0.5 L 129.78707597047392 0.5 L 129.78707597047392 -0.5 L 40 -0.5 Z M 164.23238847047392 0.5 L 254.01946444094784 0.5 L 254.01946444094784 3.5 L 261.01946444094784 0 L 254.01946444094784 -3.5 L 254.01946444094784 -0.5 L 164.23238847047392 -0.5 Z"/><text text-anchor="middle" pointer-events="none" font-size="8px" fill="#000000" x="147.00973222047392" y="3" font-family="sans-serif">ENTITY</text></g><g class="relationship" transform="translate(-78.37590198153488 115.0817885333088) rotate(308.0188926210721)"><path class="outline" fill="#A5ABB6" stroke="none" d="M 40 0.5 L 99.52042057394672 0.5 L 99.52042057394672 -0.5 L 40 -0.5 Z M 133.96573307394672 0.5 L 193.48615364789345 0.5 L 193.48615364789345 3.5 L 200.48615364789345 0 L 193.48615364789345 -3.5 L 193.48615364789345 -0.5 L 133.96573307394672 -0.5 Z"/><text text-anchor="middle" pointer-events="none" font-size="8px" fill="#000000" x="116.74307682394672" y="3" font-family="sans-serif">ENTITY</text></g><g class="relationship" transform="translate(-78.37590198153488 115.0817885333088) rotate(249.58537862640958)"><path class="outline" fill="#A5ABB6" stroke="none" d="M 40 0.5 L 75.37474682682796 0.5 L 75.37474682682796 -0.5 L 40 -0.5 Z M 109.82005932682796 0.5 L 145.19480615365592 0.5 L 145.19480615365592 3.5 L 152.19480615365592 0 L 145.19480615365592 -3.5 L 145.19480615365592 -0.5 L 109.82005932682796 -0.5 Z"/><text text-anchor="middle" pointer-events="none" font-size="8px" fill="#000000" x="92.59740307682796" y="3" transform="rotate(180 92.59740307682796 0)" font-family="sans-serif">ENTITY</text></g><g class="relationship" transform="translate(-78.37590198153488 115.0817885333088) rotate(194.51402344233105)"><path class="outline" fill="#A5ABB6" stroke="none" d="M 40 0.5 L 63.94881358877274 0.5 L 63.94881358877274 -0.5 L 40 -0.5 Z M 98.39412608877274 0.5 L 122.34293967754547 0.5 L 122.34293967754547 3.5 L 129.34293967754547 0 L 122.34293967754547 -3.5 L 122.34293967754547 -0.5 L 98.39412608877274 -0.5 Z"/><text text-anchor="middle" pointer-events="none" font-size="8px" fill="#000000" x="81.17146983877274" y="3" transform="rotate(180 81.17146983877274 0)" font-family="sans-serif">ENTITY</text></g><g class="relationship" transform="translate(-78.37590198153488 115.0817885333088) rotate(371.6264154929355)"><path class="outline" fill="#A5ABB6" stroke="none" d="M 40 0.5 L 114.80211846055485 0.5 L 114.80211846055485 -0.5 L 40 -0.5 Z M 149.24743096055485 0.5 L 224.0495494211097 0.5 L 224.0495494211097 3.5 L 231.0495494211097 0 L 224.0495494211097 -3.5 L 224.0495494211097 -0.5 L 149.24743096055485 -0.5 Z"/><text text-anchor="middle" pointer-events="none" font-size="8px" fill="#000000" x="132.02477471055485" y="3" font-family="sans-serif">ENTITY</text></g><g class="relationship" transform="translate(-78.37590198153488 115.0817885333088) rotate(416.2890644045431)"><path class="outline" fill="#A5ABB6" stroke="none" d="M 40 0.5 L 55.69361612310665 0.5 L 55.69361612310665 -0.5 L 40 -0.5 Z M 90.13892862310665 0.5 L 105.8325447462133 0.5 L 105.8325447462133 3.5 L 112.8325447462133 0 L 105.8325447462133 -3.5 L 105.8325447462133 -0.5 L 90.13892862310665 -0.5 Z"/><text text-anchor="middle" pointer-events="none" font-size="8px" fill="#000000" x="72.91627237310665" y="3" font-family="sans-serif">ENTITY</text></g><g class="relationship" transform="translate(-78.37590198153488 115.0817885333088) rotate(495.0508124274978)"><path class="outline" fill="#A5ABB6" stroke="none" d="M 40 0.5 L 60.80313486864206 0.5 L 60.80313486864206 -0.5 L 40 -0.5 Z M 95.24844736864206 0.5 L 116.05158223728412 0.5 L 116.05158223728412 3.5 L 123.05158223728412 0 L 116.05158223728412 -3.5 L 116.05158223728412 -0.5 L 95.24844736864206 -0.5 Z"/><text text-anchor="middle" pointer-events="none" font-size="8px" fill="#000000" x="78.02579111864206" y="3" transform="rotate(180 78.02579111864206 0)" font-family="sans-serif">ENTITY</text></g></g><g class="layer nodes"><g class="node" transform="translate(202.4536233282919,6.695923741942124)"><circle class="outline" cx="0" cy="0" r="40" fill="#FFC454" stroke="#d7a013" stroke-width="2px"/><text text-anchor="middle" pointer-events="none" font-family="sans-serif" dy="2.5" font-size="40" fill="#604A0E"/><text text-anchor="middle" pointer-events="none" y="5" font-size="10px" fill="#604A0E" font-family="sans-serif"> Nintendo Switch</text></g><g class="node" transform="translate(553.1748256559767,207.37021294492212)"><circle class="outline" cx="0" cy="0" r="40" fill="#DA7194" stroke="#cc3c6c" stroke-width="2px"/><text text-anchor="middle" pointer-events="none" font-family="sans-serif" dy="2.5" font-size="40" fill="#FFFFFF"/><text text-anchor="middle" pointer-events="none" y="5" font-size="10px" fill="#FFFFFF" font-family="sans-serif"> Nintendo</text></g><g class="node" transform="translate(574.4140030766043,29.863543563766285)"><circle class="outline" cx="0" cy="0" r="40" fill="#D9C8AE" stroke="#c0a378" stroke-width="2px"/><text text-anchor="middle" pointer-events="none" font-family="sans-serif" dy="2.5" font-size="40" fill="#604A0E"/><text text-anchor="middle" pointer-events="none" y="5" font-size="10px" fill="#604A0E" font-family="sans-serif"> March 3, 2017</text></g><g class="node" transform="translate(385.69350947495883,-52.33791297443297)"><circle class="outline" cx="0" cy="0" r="40" fill="#D9C8AE" stroke="#c0a378" stroke-width="2px"/><text text-anchor="middle" pointer-events="none" font-family="sans-serif" dy="2.5" font-size="40" fill="#604A0E"/><text text-anchor="middle" pointer-events="none" font-family="sans-serif" dy="2.5" font-size="40" fill="#604A0E"/><text text-anchor="middle" pointer-events="none" y="0" font-size="10px" fill="#604A0E" font-family="sans-serif"> October 20,</text><text text-anchor="middle" pointer-events="none" y="10" font-size="10px" fill="#604A0E" font-family="sans-serif"> 2016</text></g><g class="node" transform="translate(187.11237233602048,169.7062742633646)"><circle class="outline" cx="0" cy="0" r="40" fill="#569480" stroke="#447666" stroke-width="2px"/><text text-anchor="middle" pointer-events="none" font-family="sans-serif" dy="2.5" font-size="40" fill="#FFFFFF"/><text text-anchor="middle" pointer-events="none" y="5" font-size="10px" fill="#FFFFFF" font-family="sans-serif"> Mario Kart 8</text></g><g class="node" transform="translate(436.88214519116866,114.86527606227511)"><circle class="outline" cx="0" cy="0" r="40" fill="#F79767" stroke="#f36924" stroke-width="2px"/><text text-anchor="middle" pointer-events="none" font-family="sans-serif" dy="2.5" font-size="40" fill="#FFFFFF"/><text text-anchor="middle" pointer-events="none" y="5" font-size="10px" fill="#FFFFFF" font-family="sans-serif"> https://en.wikip…</text></g><g class="node" transform="translate(69.74463742468855,-74.37505589931556)"><circle class="outline" cx="0" cy="0" r="40" fill="#4C8EDA" stroke="#2870c2" stroke-width="2px"/><text text-anchor="middle" pointer-events="none" font-family="sans-serif" dy="2.5" font-size="40" fill="#FFFFFF"/><text text-anchor="middle" pointer-events="none" y="5" font-size="10px" fill="#FFFFFF" font-family="sans-serif"> at least</text></g><g class="node" transform="translate(-145.4156071782092,-65.04183967683016)"><circle class="outline" cx="0" cy="0" r="40" fill="#4C8EDA" stroke="#2870c2" stroke-width="2px"/><text text-anchor="middle" pointer-events="none" font-family="sans-serif" dy="2.5" font-size="40" fill="#FFFFFF"/><text text-anchor="middle" pointer-events="none" y="5" font-size="10px" fill="#FFFFFF" font-family="sans-serif"> once</text></g><g class="node" transform="translate(-242.31448689119998,72.64157651157954)"><circle class="outline" cx="0" cy="0" r="40" fill="#4C8EDA" stroke="#2870c2" stroke-width="2px"/><text text-anchor="middle" pointer-events="none" font-family="sans-serif" dy="2.5" font-size="40" fill="#FFFFFF"/><text text-anchor="middle" pointer-events="none" y="5" font-size="10px" fill="#FFFFFF" font-family="sans-serif"> twice a week</text></g><g class="node" transform="translate(6.446650317008569,242.21526703194877)"><circle class="outline" cx="0" cy="0" r="40" fill="#DA7194" stroke="#cc3c6c" stroke-width="2px"/><text text-anchor="middle" pointer-events="none" font-family="sans-serif" dy="2.5" font-size="40" fill="#FFFFFF"/><text text-anchor="middle" pointer-events="none" y="5" font-size="10px" fill="#FFFFFF" font-family="sans-serif"> Neo4j</text></g><g class="node" transform="translate(-193.77298470266783,230.2743740999755)"><circle class="outline" cx="0" cy="0" r="40" fill="#DA7194" stroke="#cc3c6c" stroke-width="2px"/><text text-anchor="middle" pointer-events="none" font-family="sans-serif" dy="2.5" font-size="40" fill="#FFFFFF"/><text text-anchor="middle" pointer-events="none" y="5" font-size="10px" fill="#FFFFFF" font-family="sans-serif"> European</text></g><g class="node" transform="translate(-78.37590198153488,115.0817885333088)"><circle class="outline" cx="0" cy="0" r="40" fill="#F79767" stroke="#f36924" stroke-width="2px"/><text text-anchor="middle" pointer-events="none" font-family="sans-serif" dy="2.5" font-size="40" fill="#FFFFFF"/><text text-anchor="middle" pointer-events="none" y="5" font-size="10px" fill="#FFFFFF" font-family="sans-serif"> https://neo4j.co…</text></g></g></svg>