<svg xmlns="http://www.w3.org/2000/svg" width="1117.82861328125" height="428.0606689453125" viewBox="-441.3319396972656 -94.48582458496094 1117.82861328125 428.0606689453125"><title>Neo4j Graph Visualization</title><desc>Created using Neo4j (http://www.neo4j.com/)</desc><g class="layer relationships"><g class="relationship" transform="translate(437.445180184834 89.2852310006752) rotate(511.8089787370109)"><path class="outline" fill="#A5ABB6" stroke="none" d="M 40 0.5 L 168.7807604689289 0.5 L 168.7807604689289 -0.5 L 40 -0.5 Z M 248.1909167189289 0.5 L 376.9716771878578 0.5 L 376.9716771878578 3.5 L 383.9716771878578 0 L 376.9716771878578 -3.5 L 376.9716771878578 -0.5 L 248.1909167189289 -0.5 Z"/><text text-anchor="middle" pointer-events="none" font-size="8px" fill="#000000" x="208.4858385939289" y="3" transform="rotate(180 208.4858385939289 0)" font-family="sans-serif">0.780032217502594</text></g><g class="relationship" transform="translate(437.445180184834 89.2852310006752) rotate(462.6417911622787)"><path class="outline" fill="#A5ABB6" stroke="none" d="M 40 0.5 L 41.654317225862656 0.5 L 41.654317225862656 -0.5 L 40 -0.5 Z M 120.16603597586266 0.5 L 121.82035320172531 0.5 L 121.82035320172531 3.5 L 128.8203532017253 0 L 121.82035320172531 -3.5 L 121.82035320172531 -0.5 L 120.16603597586266 -0.5 Z"/><text text-anchor="middle" pointer-events="none" font-size="8px" fill="#000000" x="80.91017660086266" y="3" transform="rotate(180 80.91017660086266 0)" font-family="sans-serif">0.8155304193496…</text></g><g class="relationship" transform="translate(437.445180184834 89.2852310006752) rotate(373.31610705696727)"><path class="outline" fill="#A5ABB6" stroke="none" d="M 40 0.5 L 54.7906145898764 0.5 L 54.7906145898764 -0.5 L 40 -0.5 Z M 138.64998958987638 0.5 L 153.4406041797528 0.5 L 153.4406041797528 3.5 L 160.4406041797528 0 L 153.4406041797528 -3.5 L 153.4406041797528 -0.5 L 138.64998958987638 -0.5 Z"/><text text-anchor="middle" pointer-events="none" font-size="8px" fill="#000000" x="96.7203020898764" y="3" font-family="sans-serif">0.7507548332214355</text></g><g class="relationship" transform="translate(437.445180184834 89.2852310006752) rotate(295.61917817557594)"><path class="outline" fill="#A5ABB6" stroke="none" d="M 40 0.5 L 40.81669227268168 0.5 L 40.81669227268168 -0.5 L 40 -0.5 Z M 92.63309852268168 0.5 L 93.44979079536336 0.5 L 93.44979079536336 3.5 L 100.44979079536336 0 L 93.44979079536336 -3.5 L 93.44979079536336 -0.5 L 92.63309852268168 -0.5 Z"/><text text-anchor="middle" pointer-events="none" font-size="8px" fill="#000000" x="66.72489539768168" y="3" font-family="sans-serif">0.8760746…</text></g><g class="relationship" transform="translate(437.445180184834 89.2852310006752) rotate(190.72266378377464)"><path class="outline" fill="#A5ABB6" stroke="none" d="M 40 0.5 L 107.32910149376835 0.5 L 107.32910149376835 -0.5 L 40 -0.5 Z M 191.18847649376835 0.5 L 258.5175779875367 0.5 L 258.5175779875367 3.5 L 265.5175779875367 0 L 258.5175779875367 -3.5 L 258.5175779875367 -0.5 L 191.18847649376835 -0.5 Z"/><text text-anchor="middle" pointer-events="none" font-size="8px" fill="#000000" x="149.25878899376835" y="3" transform="rotate(180 149.25878899376835 0)" font-family="sans-serif">0.9944096803665161</text></g><g class="relationship" transform="translate(437.445180184834 89.2852310006752) rotate(220.21808306335856)"><path class="outline" fill="#A5ABB6" stroke="none" d="M 40 0.5 L 48.641679860806875 0.5 L 48.641679860806875 -0.5 L 40 -0.5 Z M 132.50105486080687 0.5 L 141.14273472161375 0.5 L 141.14273472161375 3.5 L 148.14273472161375 0 L 141.14273472161375 -3.5 L 141.14273472161375 -0.5 L 132.50105486080687 -0.5 Z"/><text text-anchor="middle" pointer-events="none" font-size="8px" fill="#000000" x="90.57136736080687" y="3" transform="rotate(180 90.57136736080687 0)" font-family="sans-serif">0.9946564435958862</text></g><g class="relationship" transform="translate(-126.46274804317616 87.91857475776212) rotate(226.26563196990105)"><path class="outline" fill="#A5ABB6" stroke="none" d="M 40 0.5 L 50.93867925810024 0.5 L 50.93867925810024 -0.5 L 40 -0.5 Z M 133.61055425810025 0.5 L 144.54923351620047 0.5 L 144.54923351620047 3.5 L 151.54923351620047 0 L 144.54923351620047 -3.5 L 144.54923351620047 -0.5 L 133.61055425810025 -0.5 Z"/><text text-anchor="middle" pointer-events="none" font-size="8px" fill="#000000" x="92.27461675810024" y="3" transform="rotate(180 92.27461675810024 0)" font-family="sans-serif">0.9962259531021118</text></g><g class="relationship" transform="translate(-126.46274804317616 87.91857475776212) rotate(378.0098910643926)"><path class="outline" fill="#A5ABB6" stroke="none" d="M 40 0.5 L 57.646250475383525 0.5 L 57.646250475383525 -0.5 L 40 -0.5 Z M 141.5056254753835 0.5 L 159.15187595076705 0.5 L 159.15187595076705 3.5 L 166.15187595076705 0 L 159.15187595076705 -3.5 L 159.15187595076705 -0.5 L 141.5056254753835 -0.5 Z"/><text text-anchor="middle" pointer-events="none" font-size="8px" fill="#000000" x="99.57593797538352" y="3" font-family="sans-serif">0.9997879862785339</text></g><g class="relationship" transform="translate(-126.46274804317616 87.91857475776212) rotate(406.67027713224854)"><path class="outline" fill="#A5ABB6" stroke="none" d="M 40 0.5 L 95.4061123545514 0.5 L 95.4061123545514 -0.5 L 40 -0.5 Z M 174.8162686045514 0.5 L 230.2223809591028 0.5 L 230.2223809591028 3.5 L 237.2223809591028 0 L 230.2223809591028 -3.5 L 230.2223809591028 -0.5 L 174.8162686045514 -0.5 Z"/><text text-anchor="middle" pointer-events="none" font-size="8px" fill="#000000" x="135.1111904795514" y="3" font-family="sans-serif">0.753325343132019</text></g><g class="relationship" transform="translate(-126.46274804317616 87.91857475776212) rotate(193.94600265480585)"><path class="outline" fill="#A5ABB6" stroke="none" d="M 40 0.5 L 80.87887652280598 0.5 L 80.87887652280598 -0.5 L 40 -0.5 Z M 164.73825152280597 0.5 L 205.61712804561196 0.5 L 205.61712804561196 3.5 L 212.61712804561196 0 L 205.61712804561196 -3.5 L 205.61712804561196 -0.5 L 164.73825152280597 -0.5 Z"/><text text-anchor="middle" pointer-events="none" font-size="8px" fill="#000000" x="122.80856402280598" y="3" transform="rotate(180 122.80856402280598 0)" font-family="sans-serif">0.9998348355293274</text></g><g class="relationship" transform="translate(-126.46274804317616 87.91857475776212) rotate(517.3406601530032)"><path class="outline" fill="#A5ABB6" stroke="none" d="M 40 0.5 L 101.33329563530174 0.5 L 101.33329563530174 -0.5 L 40 -0.5 Z M 185.19267063530174 0.5 L 246.52596627060348 0.5 L 246.52596627060348 3.5 L 253.52596627060348 0 L 246.52596627060348 -3.5 L 246.52596627060348 -0.5 L 185.19267063530174 -0.5 Z"/><text text-anchor="middle" pointer-events="none" font-size="8px" fill="#000000" x="143.26298313530174" y="3" transform="rotate(180 143.26298313530174 0)" font-family="sans-serif">0.9958534240722656</text></g><g class="relationship" transform="translate(-126.46274804317616 87.91857475776212) rotate(348.1206062360038)"><path class="outline" fill="#A5ABB6" stroke="none" d="M 40 0.5 L 89.31866065537957 0.5 L 89.31866065537957 -0.5 L 40 -0.5 Z M 173.17803565537957 0.5 L 222.49669631075915 0.5 L 222.49669631075915 3.5 L 229.49669631075915 0 L 222.49669631075915 -3.5 L 222.49669631075915 -0.5 L 173.17803565537957 -0.5 Z"/><text text-anchor="middle" pointer-events="none" font-size="8px" fill="#000000" x="131.24834815537957" y="3" font-family="sans-serif">0.9990180134773254</text></g></g><g class="layer nodes"><g class="node" transform="translate(437.445180184834,89.2852310006752)"><circle class="outline" cx="0" cy="0" r="40" fill="#F79767" stroke="#f36924" stroke-width="2px"/><text text-anchor="middle" pointer-events="none" font-family="sans-serif" dy="2.5" font-size="40" fill="#FFFFFF"/><text text-anchor="middle" pointer-events="none" y="5" font-size="10px" fill="#FFFFFF" font-family="sans-serif"> https://neo4j.co…</text></g><g class="node" transform="translate(63.76608582819654,289.57481509902107)"><circle class="outline" cx="0" cy="0" r="40" fill="#FFC454" stroke="#d7a013" stroke-width="2px"/><text text-anchor="middle" pointer-events="none" font-family="sans-serif" dy="2.5" font-size="40" fill="#604A0E"/><text text-anchor="middle" pointer-events="none" y="5" font-size="10px" fill="#604A0E" font-family="sans-serif"> Nintendo Switch</text></g><g class="node" transform="translate(400.498000006971,254.01293823919596)"><circle class="outline" cx="0" cy="0" r="40" fill="#4C8EDA" stroke="#2870c2" stroke-width="2px"/><text text-anchor="middle" pointer-events="none" font-family="sans-serif" dy="2.5" font-size="40" fill="#FFFFFF"/><text text-anchor="middle" pointer-events="none" y="5" font-size="10px" fill="#FFFFFF" font-family="sans-serif"> at least</text></g><g class="node" transform="translate(632.4967708462644,135.4513742702847)"><circle class="outline" cx="0" cy="0" r="40" fill="#4C8EDA" stroke="#2870c2" stroke-width="2px"/><text text-anchor="middle" pointer-events="none" font-family="sans-serif" dy="2.5" font-size="40" fill="#FFFFFF"/><text text-anchor="middle" pointer-events="none" y="5" font-size="10px" fill="#FFFFFF" font-family="sans-serif"> once</text></g><g class="node" transform="translate(498.1739264698215,-37.356638494034)"><circle class="outline" cx="0" cy="0" r="40" fill="#4C8EDA" stroke="#2870c2" stroke-width="2px"/><text text-anchor="middle" pointer-events="none" font-family="sans-serif" dy="2.5" font-size="40" fill="#FFFFFF"/><text text-anchor="middle" pointer-events="none" y="5" font-size="10px" fill="#FFFFFF" font-family="sans-serif"> twice a week</text></g><g class="node" transform="translate(137.2621597466681,32.44207222153763)"><circle class="outline" cx="0" cy="0" r="40" fill="#569480" stroke="#447666" stroke-width="2px"/><text text-anchor="middle" pointer-events="none" font-family="sans-serif" dy="2.5" font-size="40" fill="#FFFFFF"/><text text-anchor="middle" pointer-events="none" y="5" font-size="10px" fill="#FFFFFF" font-family="sans-serif"> Mario Kart 8</text></g><g class="node" transform="translate(293.78084072455766,-32.19829132218972)"><circle class="outline" cx="0" cy="0" r="40" fill="#DA7194" stroke="#cc3c6c" stroke-width="2px"/><text text-anchor="middle" pointer-events="none" font-family="sans-serif" dy="2.5" font-size="40" fill="#FFFFFF"/><text text-anchor="middle" pointer-events="none" y="5" font-size="10px" fill="#FFFFFF" font-family="sans-serif"> Neo4j</text></g><g class="node" transform="translate(-126.46274804317616,87.91857475776212)"><circle class="outline" cx="0" cy="0" r="40" fill="#F79767" stroke="#f36924" stroke-width="2px"/><text text-anchor="middle" pointer-events="none" font-family="sans-serif" dy="2.5" font-size="40" fill="#FFFFFF"/><text text-anchor="middle" pointer-events="none" y="5" font-size="10px" fill="#FFFFFF" font-family="sans-serif"> https://en.wikip…</text></g><g class="node" transform="translate(-258.8837879929393,-50.485821990560645)"><circle class="outline" cx="0" cy="0" r="40" fill="#DA7194" stroke="#cc3c6c" stroke-width="2px"/><text text-anchor="middle" pointer-events="none" font-family="sans-serif" dy="2.5" font-size="40" fill="#FFFFFF"/><text text-anchor="middle" pointer-events="none" y="5" font-size="10px" fill="#FFFFFF" font-family="sans-serif"> Nintendo</text></g><g class="node" transform="translate(69.5883366040645,151.65685341871225)"><circle class="outline" cx="0" cy="0" r="40" fill="#D9C8AE" stroke="#c0a378" stroke-width="2px"/><text text-anchor="middle" pointer-events="none" font-family="sans-serif" dy="2.5" font-size="40" fill="#604A0E"/><text text-anchor="middle" pointer-events="none" y="5" font-size="10px" fill="#604A0E" font-family="sans-serif"> March 3, 2017</text></g><g class="node" transform="translate(-371.63355430239585,27.035989889695887)"><circle class="outline" cx="0" cy="0" r="40" fill="#D9C8AE" stroke="#c0a378" stroke-width="2px"/><text text-anchor="middle" pointer-events="none" font-family="sans-serif" dy="2.5" font-size="40" fill="#604A0E"/><text text-anchor="middle" pointer-events="none" font-family="sans-serif" dy="2.5" font-size="40" fill="#604A0E"/><text text-anchor="middle" pointer-events="none" y="0" font-size="10px" fill="#604A0E" font-family="sans-serif"> October 20,</text><text text-anchor="middle" pointer-events="none" y="10" font-size="10px" fill="#604A0E" font-family="sans-serif"> 2016</text></g><g class="node" transform="translate(-397.3319488807483,200.99982392271625)"><circle class="outline" cx="0" cy="0" r="40" fill="#DA7194" stroke="#cc3c6c" stroke-width="2px"/><text text-anchor="middle" pointer-events="none" font-family="sans-serif" dy="2.5" font-size="40" fill="#FFFFFF"/><text text-anchor="middle" pointer-events="none" y="5" font-size="10px" fill="#FFFFFF" font-family="sans-serif"> Nintendo</text></g></g></svg>