<svg xmlns="http://www.w3.org/2000/svg" width="984.2476806640625" height="431.4417724609375" viewBox="-670.709228515625 -124.41033935546875 984.2476806640625 431.4417724609375"><title>Neo4j Graph Visualization</title><desc>Created using Neo4j (http://www.neo4j.com/)</desc><g class="layer relationships"><g class="relationship" transform="translate(41.2719705624327 74.65718500097711) rotate(508.844275598058)"><path class="outline" fill="#A5ABB6" stroke="none" d="M 40 0.5 L 105.98742338666685 0.5 L 105.98742338666685 -0.5 L 40 -0.5 Z M 185.39757963666685 0.5 L 251.3850030233337 0.5 L 251.3850030233337 3.5 L 258.3850030233337 0 L 251.3850030233337 -3.5 L 251.3850030233337 -0.5 L 185.39757963666685 -0.5 Z"/><text text-anchor="middle" pointer-events="none" font-size="8px" fill="#000000" x="145.69250151166685" y="3" transform="rotate(180 145.69250151166685 0)" font-family="sans-serif">0.780032217502594</text></g><g class="relationship" transform="translate(41.2719705624327 74.65718500097711) rotate(408.78111729402974)"><path class="outline" fill="#A5ABB6" stroke="none" d="M 40 0.5 L 46.95808940897278 0.5 L 46.95808940897278 -0.5 L 40 -0.5 Z M 130.8174644089728 0.5 L 137.77555381794556 0.5 L 137.77555381794556 3.5 L 144.77555381794556 0 L 137.77555381794556 -3.5 L 137.77555381794556 -0.5 L 130.8174644089728 -0.5 Z"/><text text-anchor="middle" pointer-events="none" font-size="8px" fill="#000000" x="88.88777690897278" y="3" font-family="sans-serif">0.8155304193496704</text></g><g class="relationship" transform="translate(41.2719705624327 74.65718500097711) rotate(369.30972269243495)"><path class="outline" fill="#A5ABB6" stroke="none" d="M 40 0.5 L 69.03507031230438 0.5 L 69.03507031230438 -0.5 L 40 -0.5 Z M 152.89444531230438 0.5 L 181.92951562460877 0.5 L 181.92951562460877 3.5 L 188.92951562460877 0 L 181.92951562460877 -3.5 L 181.92951562460877 -0.5 L 152.89444531230438 -0.5 Z"/><text text-anchor="middle" pointer-events="none" font-size="8px" fill="#000000" x="110.96475781230438" y="3" font-family="sans-serif">0.7507548332214355</text></g><g class="relationship" transform="translate(41.2719705624327 74.65718500097711) rotate(339.18016341590476)"><path class="outline" fill="#A5ABB6" stroke="none" d="M 40 0.5 L 76.67676652075909 0.5 L 76.67676652075909 -0.5 L 40 -0.5 Z M 160.5361415207591 0.5 L 197.21290804151818 0.5 L 197.21290804151818 3.5 L 204.21290804151818 0 L 197.21290804151818 -3.5 L 197.21290804151818 -0.5 L 160.5361415207591 -0.5 Z"/><text text-anchor="middle" pointer-events="none" font-size="8px" fill="#000000" x="118.60645402075909" y="3" font-family="sans-serif">0.8760746717453003</text></g><g class="relationship" transform="translate(41.2719705624327 74.65718500097711) rotate(538.4816854127871)"><path class="outline" fill="#A5ABB6" stroke="none" d="M 40 0.5 L 75.79684791095181 0.5 L 75.79684791095181 -0.5 L 40 -0.5 Z M 159.6562229109518 0.5 L 195.45307082190362 0.5 L 195.45307082190362 3.5 L 202.45307082190362 0 L 195.45307082190362 -3.5 L 195.45307082190362 -0.5 L 159.6562229109518 -0.5 Z"/><text text-anchor="middle" pointer-events="none" font-size="8px" fill="#000000" x="117.72653541095181" y="3" transform="rotate(180 117.72653541095181 0)" font-family="sans-serif">0.9944096803665161</text></g><g class="relationship" transform="translate(41.2719705624327 74.65718500097711) rotate(289.06520411123597)"><path class="outline" fill="#A5ABB6" stroke="none" d="M 40 0.5 L 41.50225789794047 0.5 L 41.50225789794047 -0.5 L 40 -0.5 Z M 115.56475789794047 0.5 L 117.06701579588093 0.5 L 117.06701579588093 3.5 L 124.06701579588093 0 L 117.06701579588093 -3.5 L 117.06701579588093 -0.5 L 115.56475789794047 -0.5 Z"/><text text-anchor="middle" pointer-events="none" font-size="8px" fill="#000000" x="78.53350789794047" y="3" font-family="sans-serif">0.994656443595…</text></g><g class="relationship" transform="translate(41.2719705624327 74.65718500097711) rotate(464.7895775802686)"><path class="outline" fill="#A5ABB6" stroke="none" d="M 40 0.5 L 40.44985844960007 0.5 L 40.44985844960007 -0.5 L 40 -0.5 Z M 101.16470219960007 0.5 L 101.61456064920014 0.5 L 101.61456064920014 3.5 L 108.61456064920014 0 L 101.61456064920014 -3.5 L 101.61456064920014 -0.5 L 101.16470219960007 -0.5 Z"/><text text-anchor="middle" pointer-events="none" font-size="8px" fill="#000000" x="70.80728032460007" y="3" transform="rotate(180 70.80728032460007 0)" font-family="sans-serif">0.627404093…</text></g><g class="relationship" transform="translate(-491.31746133937816 90.65184088510975) rotate(386.5251037515205)"><path class="outline" fill="#A5ABB6" stroke="none" d="M 40 0.5 L 111.72404864368849 0.5 L 111.72404864368849 -0.5 L 40 -0.5 Z M 191.1342048936885 0.5 L 262.858253537377 0.5 L 262.858253537377 3.5 L 269.858253537377 0 L 262.858253537377 -3.5 L 262.858253537377 -0.5 L 191.1342048936885 -0.5 Z"/><text text-anchor="middle" pointer-events="none" font-size="8px" fill="#000000" x="151.4291267686885" y="3" font-family="sans-serif">0.753325343132019</text></g><g class="relationship" transform="translate(-491.31746133937816 90.65184088510975) rotate(247.6341262924032)"><path class="outline" fill="#A5ABB6" stroke="none" d="M 40 0.5 L 40.47752554907514 0.5 L 40.47752554907514 -0.5 L 40 -0.5 Z M 101.19236929907514 0.5 L 101.66989484815028 0.5 L 101.66989484815028 3.5 L 108.66989484815028 0 L 101.66989484815028 -3.5 L 101.66989484815028 -0.5 L 101.19236929907514 -0.5 Z"/><text text-anchor="middle" pointer-events="none" font-size="8px" fill="#000000" x="70.83494742407514" y="3" transform="rotate(180 70.83494742407514 0)" font-family="sans-serif">0.996225953…</text></g><g class="relationship" transform="translate(-491.31746133937816 90.65184088510975) rotate(507.40551847545294)"><path class="outline" fill="#A5ABB6" stroke="none" d="M 40 0.5 L 42.04415798628993 0.5 L 42.04415798628993 -0.5 L 40 -0.5 Z M 111.65743923628993 0.5 L 113.70159722257986 0.5 L 113.70159722257986 3.5 L 120.70159722257986 0 L 113.70159722257986 -3.5 L 113.70159722257986 -0.5 L 111.65743923628993 -0.5 Z"/><text text-anchor="middle" pointer-events="none" font-size="8px" fill="#000000" x="76.85079861128993" y="3" transform="rotate(180 76.85079861128993 0)" font-family="sans-serif">0.99978798627…</text></g><g class="relationship" transform="translate(-491.31746133937816 90.65184088510975) rotate(324.64227220302587)"><path class="outline" fill="#A5ABB6" stroke="none" d="M 40 0.5 L 57.67018100434757 0.5 L 57.67018100434757 -0.5 L 40 -0.5 Z M 141.52955600434757 0.5 L 159.19973700869514 0.5 L 159.19973700869514 3.5 L 166.19973700869514 0 L 159.19973700869514 -3.5 L 159.19973700869514 -0.5 L 141.52955600434757 -0.5 Z"/><text text-anchor="middle" pointer-events="none" font-size="8px" fill="#000000" x="99.59986850434757" y="3" font-family="sans-serif">0.9998348355293274</text></g><g class="relationship" transform="translate(-491.31746133937816 90.65184088510975) rotate(358.11126771894146)"><path class="outline" fill="#A5ABB6" stroke="none" d="M 40 0.5 L 99.75993396655215 0.5 L 99.75993396655215 -0.5 L 40 -0.5 Z M 183.61930896655215 0.5 L 243.3792429331043 0.5 L 243.3792429331043 3.5 L 250.3792429331043 0 L 243.3792429331043 -3.5 L 243.3792429331043 -0.5 L 183.61930896655215 -0.5 Z"/><text text-anchor="middle" pointer-events="none" font-size="8px" fill="#000000" x="141.68962146655215" y="3" font-family="sans-serif">0.9990180134773254</text></g></g><g class="layer nodes"><g class="node" transform="translate(41.2719705624327,74.65718500097711)"><circle class="outline" cx="0" cy="0" r="40" fill="#F79767" stroke="#f36924" stroke-width="2px"/><text text-anchor="middle" pointer-events="none" font-family="sans-serif" dy="2.5" font-size="40" fill="#FFFFFF"/><text text-anchor="middle" pointer-events="none" y="5" font-size="10px" fill="#FFFFFF" font-family="sans-serif"> https://neo4j.co…</text></g><g class="node selected" transform="translate(-214.0752664618753,229.03140102582609)"><circle class="outline" cx="0" cy="0" r="40" fill="#FFC454" stroke="#d7a013" stroke-width="2px"/><text text-anchor="middle" pointer-events="none" font-family="sans-serif" dy="2.5" font-size="40" fill="#604A0E"/><text text-anchor="middle" pointer-events="none" y="5" font-size="10px" fill="#604A0E" font-family="sans-serif"> Nintendo Switch</text></g><g class="node" transform="translate(163.02749251753198,213.64494763556962)"><circle class="outline" cx="0" cy="0" r="40" fill="#4C8EDA" stroke="#2870c2" stroke-width="2px"/><text text-anchor="middle" pointer-events="none" font-family="sans-serif" dy="2.5" font-size="40" fill="#FFFFFF"/><text text-anchor="middle" pointer-events="none" y="5" font-size="10px" fill="#FFFFFF" font-family="sans-serif"> at least</text></g><g class="node" transform="translate(267.18609051563305,111.69140606594607)"><circle class="outline" cx="0" cy="0" r="40" fill="#4C8EDA" stroke="#2870c2" stroke-width="2px"/><text text-anchor="middle" pointer-events="none" font-family="sans-serif" dy="2.5" font-size="40" fill="#FFFFFF"/><text text-anchor="middle" pointer-events="none" y="5" font-size="10px" fill="#FFFFFF" font-family="sans-serif"> once</text></g><g class="node" transform="translate(269.538429582911,-12.143553131525522)"><circle class="outline" cx="0" cy="0" r="40" fill="#4C8EDA" stroke="#2870c2" stroke-width="2px"/><text text-anchor="middle" pointer-events="none" font-family="sans-serif" dy="2.5" font-size="40" fill="#FFFFFF"/><text text-anchor="middle" pointer-events="none" y="5" font-size="10px" fill="#FFFFFF" font-family="sans-serif"> twice a week</text></g><g class="node" transform="translate(-201.09597654955698,81.0813397073016)"><circle class="outline" cx="0" cy="0" r="40" fill="#569480" stroke="#447666" stroke-width="2px"/><text text-anchor="middle" pointer-events="none" font-family="sans-serif" dy="2.5" font-size="40" fill="#FFFFFF"/><text text-anchor="middle" pointer-events="none" y="5" font-size="10px" fill="#FFFFFF" font-family="sans-serif"> Mario Kart 8</text></g><g class="node" transform="translate(94.86347170666774,-80.41033796006491)"><circle class="outline" cx="0" cy="0" r="40" fill="#DA7194" stroke="#cc3c6c" stroke-width="2px"/><text text-anchor="middle" pointer-events="none" font-family="sans-serif" dy="2.5" font-size="40" fill="#FFFFFF"/><text text-anchor="middle" pointer-events="none" y="5" font-size="10px" fill="#FFFFFF" font-family="sans-serif"> Neo4j</text></g><g class="node" transform="translate(3.335149026732296,218.34812141912147)"><circle class="outline" cx="0" cy="0" r="40" fill="#DA7194" stroke="#cc3c6c" stroke-width="2px"/><text text-anchor="middle" pointer-events="none" font-family="sans-serif" dy="2.5" font-size="40" fill="#FFFFFF"/><text text-anchor="middle" pointer-events="none" y="5" font-size="10px" fill="#FFFFFF" font-family="sans-serif"> European</text></g><g class="node" transform="translate(-491.31746133937816,90.65184088510975)"><circle class="outline" cx="0" cy="0" r="40" fill="#F79767" stroke="#f36924" stroke-width="2px"/><text text-anchor="middle" pointer-events="none" font-family="sans-serif" dy="2.5" font-size="40" fill="#FFFFFF"/><text text-anchor="middle" pointer-events="none" y="5" font-size="10px" fill="#FFFFFF" font-family="sans-serif"> https://en.wikip…</text></g><g class="node" transform="translate(-547.8892753475502,-46.834040186310986)"><circle class="outline" cx="0" cy="0" r="40" fill="#DA7194" stroke="#cc3c6c" stroke-width="2px"/><text text-anchor="middle" pointer-events="none" font-family="sans-serif" dy="2.5" font-size="40" fill="#FFFFFF"/><text text-anchor="middle" pointer-events="none" y="5" font-size="10px" fill="#FFFFFF" font-family="sans-serif"> Nintendo</text></g><g class="node" transform="translate(-626.7092456238682,177.22012663774777)"><circle class="outline" cx="0" cy="0" r="40" fill="#D9C8AE" stroke="#c0a378" stroke-width="2px"/><text text-anchor="middle" pointer-events="none" font-family="sans-serif" dy="2.5" font-size="40" fill="#604A0E"/><text text-anchor="middle" pointer-events="none" y="5" font-size="10px" fill="#604A0E" font-family="sans-serif"> March 3, 2017</text></g><g class="node" transform="translate(-323.15024282615354,-28.67174504818513)"><circle class="outline" cx="0" cy="0" r="40" fill="#D9C8AE" stroke="#c0a378" stroke-width="2px"/><text text-anchor="middle" pointer-events="none" font-family="sans-serif" dy="2.5" font-size="40" fill="#604A0E"/><text text-anchor="middle" pointer-events="none" font-family="sans-serif" dy="2.5" font-size="40" fill="#604A0E"/><text text-anchor="middle" pointer-events="none" y="0" font-size="10px" fill="#604A0E" font-family="sans-serif"> October 20,</text><text text-anchor="middle" pointer-events="none" y="10" font-size="10px" fill="#604A0E" font-family="sans-serif"> 2016</text></g></g></svg>