<svg xmlns="http://www.w3.org/2000/svg" width="212.1452178955078" height="260.438720703125" viewBox="56.97038269042969 -43.40481185913086 212.1452178955078 260.438720703125"><title>Neo4j Graph Visualization</title><desc>Created using Neo4j (http://www.neo4j.com/)</desc><g class="layer relationships"><g class="relationship" transform="translate(100.97038271330918 99.83069143957691) rotate(390.5260716258393)"><path class="outline" fill="#A5ABB6" stroke="none" d="M 40 0.5 L 50.44896743852222 0.5 L 50.44896743852222 -0.5 L 40 -0.5 Z M 86.67162368852222 0.5 L 97.12059112704443 0.5 L 97.12059112704443 3.5 L 104.12059112704443 0 L 97.12059112704443 -3.5 L 97.12059112704443 -0.5 L 86.67162368852222 -0.5 Z"/><text text-anchor="middle" pointer-events="none" font-size="8px" fill="#000000" x="68.56029556352222" y="3" font-family="sans-serif">KNOWS</text></g><g class="relationship" transform="translate(100.97038271330918 99.83069143957691) rotate(316.4952692505211)"><path class="outline" fill="#A5ABB6" stroke="none" d="M 40 0.5 L 50.46407730831913 0.5 L 50.46407730831913 -0.5 L 40 -0.5 Z M 86.68673355831913 0.5 L 97.15081086663827 0.5 L 97.15081086663827 3.5 L 104.15081086663827 0 L 97.15081086663827 -3.5 L 97.15081086663827 -0.5 L 86.68673355831913 -0.5 Z"/><text text-anchor="middle" pointer-events="none" font-size="8px" fill="#000000" x="68.57540543331913" y="3" font-family="sans-serif">KNOWS</text></g></g><g class="layer nodes"><g class="node" transform="translate(225.11558941966595,173.0339184083702)"><circle class="outline" cx="0" cy="0" r="40" fill="#4C8EDA" stroke="#2870c2" stroke-width="2px"/><text text-anchor="middle" pointer-events="none" font-family="sans-serif" dy="2.5" font-size="40" fill="#FFFFFF"/><text text-anchor="middle" pointer-events="none" y="5" font-size="10px" fill="#FFFFFF" font-family="sans-serif"> Praveena</text></g><g class="node" transform="translate(100.97038271330918,99.83069143957691)"><circle class="outline" cx="0" cy="0" r="40" fill="#4C8EDA" stroke="#2870c2" stroke-width="2px"/><text text-anchor="middle" pointer-events="none" font-family="sans-serif" dy="2.5" font-size="40" fill="#FFFFFF"/><text text-anchor="middle" pointer-events="none" y="5" font-size="10px" fill="#FFFFFF" font-family="sans-serif"> Zhen</text></g><g class="node" transform="translate(205.5254932398701,0.595188033346588)"><circle class="outline" cx="0" cy="0" r="40" fill="#4C8EDA" stroke="#2870c2" stroke-width="2px"/><text text-anchor="middle" pointer-events="none" font-family="sans-serif" dy="2.5" font-size="40" fill="#FFFFFF"/><text text-anchor="middle" pointer-events="none" y="5" font-size="10px" fill="#FFFFFF" font-family="sans-serif"> Martin</text></g></g></svg>