<svg xmlns="http://www.w3.org/2000/svg" width="808.9796142578125" height="547.254150390625" viewBox="-270.7975769042969 -189.5176544189453 808.9796142578125 547.254150390625"><title>Neo4j Graph Visualization</title><desc>Created using Neo4j (http://www.neo4j.com/)</desc><g class="layer relationships"><g class="relationship" transform="translate(87.57989491169305 142.25012630629652) rotate(470.13329154857763)"><path class="outline" fill="#A5ABB6" stroke="none" d="M 40 0.5 L 70.60089386487812 0.5 L 70.60089386487812 -0.5 L 40 -0.5 Z M 105.04620636487812 0.5 L 135.64710022975623 0.5 L 135.64710022975623 3.5 L 142.64710022975623 0 L 135.64710022975623 -3.5 L 135.64710022975623 -0.5 L 105.04620636487812 -0.5 Z"/><text text-anchor="middle" pointer-events="none" font-size="8px" fill="#000000" x="87.82355011487812" y="3" transform="rotate(180 87.82355011487812 0)" font-family="sans-serif">ENTITY</text></g><g class="relationship" transform="translate(87.57989491169305 142.25012630629652) rotate(389.4191403050331)"><path class="outline" fill="#A5ABB6" stroke="none" d="M 40 0.5 L 130.6831775589803 0.5 L 130.6831775589803 -0.5 L 40 -0.5 Z M 165.1284900589803 0.5 L 255.8116676179606 0.5 L 255.8116676179606 3.5 L 262.8116676179606 0 L 255.8116676179606 -3.5 L 255.8116676179606 -0.5 L 165.1284900589803 -0.5 Z"/><text text-anchor="middle" pointer-events="none" font-size="8px" fill="#000000" x="147.9058338089803" y="3" font-family="sans-serif">ENTITY</text></g><g class="relationship" transform="translate(87.57989491169305 142.25012630629652) rotate(351.91826430076776)"><path class="outline" fill="#A5ABB6" stroke="none" d="M 40 0.5 L 184.61775729943034 0.5 L 184.61775729943034 -0.5 L 40 -0.5 Z M 219.06306979943034 0.5 L 363.6808270988607 0.5 L 363.6808270988607 3.5 L 370.6808270988607 0 L 363.6808270988607 -3.5 L 363.6808270988607 -0.5 L 219.06306979943034 -0.5 Z"/><text text-anchor="middle" pointer-events="none" font-size="8px" fill="#000000" x="201.84041354943034" y="3" font-family="sans-serif">ENTITY</text></g><g class="relationship" transform="translate(87.57989491169305 142.25012630629652) rotate(332.36139891774496)"><path class="outline" fill="#A5ABB6" stroke="none" d="M 40 0.5 L 139.13128096754696 0.5 L 139.13128096754696 -0.5 L 40 -0.5 Z M 173.57659346754696 0.5 L 272.7078744350939 0.5 L 272.7078744350939 3.5 L 279.7078744350939 0 L 272.7078744350939 -3.5 L 272.7078744350939 -0.5 L 173.57659346754696 -0.5 Z"/><text text-anchor="middle" pointer-events="none" font-size="8px" fill="#000000" x="156.35393721754696" y="3" font-family="sans-serif">ENTITY</text></g><g class="relationship" transform="translate(87.57989491169305 142.25012630629652) rotate(315.4167852603367)"><path class="outline" fill="#A5ABB6" stroke="none" d="M 40 0.5 L 184.2563752605209 0.5 L 184.2563752605209 -0.5 L 40 -0.5 Z M 218.7016877605209 0.5 L 362.9580630210418 0.5 L 362.9580630210418 3.5 L 369.9580630210418 0 L 362.9580630210418 -3.5 L 362.9580630210418 -0.5 L 218.7016877605209 -0.5 Z"/><text text-anchor="middle" pointer-events="none" font-size="8px" fill="#000000" x="201.4790315105209" y="3" font-family="sans-serif">ENTITY</text></g><g class="relationship" transform="translate(87.57989491169305 142.25012630629652) rotate(298.66212470089425)"><path class="outline" fill="#A5ABB6" stroke="none" d="M 40 0.5 L 125.52087586630103 0.5 L 125.52087586630103 -0.5 L 40 -0.5 Z M 159.96618836630103 0.5 L 245.48706423260205 0.5 L 245.48706423260205 3.5 L 252.48706423260205 0 L 245.48706423260205 -3.5 L 245.48706423260205 -0.5 L 159.96618836630103 -0.5 Z"/><text text-anchor="middle" pointer-events="none" font-size="8px" fill="#000000" x="142.74353211630103" y="3" font-family="sans-serif">ENTITY</text></g><g class="relationship" transform="translate(87.57989491169305 142.25012630629652) rotate(237.66710328325274)"><path class="outline" fill="#A5ABB6" stroke="none" d="M 40 0.5 L 106.75208560013564 0.5 L 106.75208560013564 -0.5 L 40 -0.5 Z M 141.19739810013564 0.5 L 207.9494837002713 0.5 L 207.9494837002713 3.5 L 214.9494837002713 0 L 207.9494837002713 -3.5 L 207.9494837002713 -0.5 L 141.19739810013564 -0.5 Z"/><text text-anchor="middle" pointer-events="none" font-size="8px" fill="#000000" x="123.97474185013564" y="3" transform="rotate(180 123.97474185013564 0)" font-family="sans-serif">ENTITY</text></g><g class="relationship" transform="translate(87.57989491169305 142.25012630629652) rotate(203.33525332109798)"><path class="outline" fill="#A5ABB6" stroke="none" d="M 40 0.5 L 109.18733760415577 0.5 L 109.18733760415577 -0.5 L 40 -0.5 Z M 143.63265010415577 0.5 L 212.81998770831154 0.5 L 212.81998770831154 3.5 L 219.81998770831154 0 L 212.81998770831154 -3.5 L 212.81998770831154 -0.5 L 143.63265010415577 -0.5 Z"/><text text-anchor="middle" pointer-events="none" font-size="8px" fill="#000000" x="126.40999385415577" y="3" transform="rotate(180 126.40999385415577 0)" font-family="sans-serif">ENTITY</text></g><g class="relationship" transform="translate(87.57989491169305 142.25012630629652) rotate(517.1579698042248)"><path class="outline" fill="#A5ABB6" stroke="none" d="M 40 0.5 L 102.65256922840241 0.5 L 102.65256922840241 -0.5 L 40 -0.5 Z M 137.0978817284024 0.5 L 199.75045095680483 0.5 L 199.75045095680483 3.5 L 206.75045095680483 0 L 199.75045095680483 -3.5 L 199.75045095680483 -0.5 L 137.0978817284024 -0.5 Z"/><text text-anchor="middle" pointer-events="none" font-size="8px" fill="#000000" x="119.87522547840241" y="3" transform="rotate(180 119.87522547840241 0)" font-family="sans-serif">ENTITY</text></g><g class="relationship" transform="translate(87.57989491169305 142.25012630629652) rotate(269.6715718195894)"><path class="outline" fill="#A5ABB6" stroke="none" d="M 40 0.5 L 116.52019194541899 0.5 L 116.52019194541899 -0.5 L 40 -0.5 Z M 150.965504445419 0.5 L 227.48569639083797 0.5 L 227.48569639083797 3.5 L 234.48569639083797 0 L 227.48569639083797 -3.5 L 227.48569639083797 -0.5 L 150.965504445419 -0.5 Z"/><text text-anchor="middle" pointer-events="none" font-size="8px" fill="#000000" x="133.742848195419" y="3" transform="rotate(180 133.742848195419 0)" font-family="sans-serif">ENTITY</text></g><g class="relationship" transform="translate(87.57989491169305 142.25012630629652) rotate(536.1421355592563)"><path class="outline" fill="#A5ABB6" stroke="none" d="M 40 0.5 L 136.82307770045452 0.5 L 136.82307770045452 -0.5 L 40 -0.5 Z M 171.26839020045452 0.5 L 268.09146790090904 0.5 L 268.09146790090904 3.5 L 275.09146790090904 0 L 268.09146790090904 -3.5 L 268.09146790090904 -0.5 L 171.26839020045452 -0.5 Z"/><text text-anchor="middle" pointer-events="none" font-size="8px" fill="#000000" x="154.04573395045452" y="3" transform="rotate(180 154.04573395045452 0)" font-family="sans-serif">ENTITY</text></g><g class="relationship" transform="translate(87.57989491169305 142.25012630629652) rotate(369.1319128943821)"><path class="outline" fill="#A5ABB6" stroke="none" d="M 40 0.5 L 160.17425789881167 0.5 L 160.17425789881167 -0.5 L 40 -0.5 Z M 194.61957039881167 0.5 L 314.79382829762335 0.5 L 314.79382829762335 3.5 L 321.79382829762335 0 L 314.79382829762335 -3.5 L 314.79382829762335 -0.5 L 194.61957039881167 -0.5 Z"/><text text-anchor="middle" pointer-events="none" font-size="8px" fill="#000000" x="177.39691414881167" y="3" font-family="sans-serif">ENTITY</text></g></g><g class="layer nodes"><g class="node" transform="translate(24.71179597514771,313.7364679153103)"><circle class="outline" cx="0" cy="0" r="40" fill="#DA7194" stroke="#cc3c6c" stroke-width="2px"/><text text-anchor="middle" pointer-events="none" font-family="sans-serif" dy="2.5" font-size="40" fill="#FFFFFF"/><text text-anchor="middle" pointer-events="none" y="5" font-size="10px" fill="#FFFFFF" font-family="sans-serif"> card games</text></g><g class="node" transform="translate(351.34392850829494,290.98963224342447)"><circle class="outline" cx="0" cy="0" r="40" fill="#DA7194" stroke="#cc3c6c" stroke-width="2px"/><text text-anchor="middle" pointer-events="none" font-family="sans-serif" dy="2.5" font-size="40" fill="#FFFFFF"/><text text-anchor="middle" pointer-events="none" y="5" font-size="10px" fill="#FFFFFF" font-family="sans-serif"> board games</text></g><g class="node" transform="translate(494.1820547431325,84.51430235779065)"><circle class="outline" cx="0" cy="0" r="40" fill="#DA7194" stroke="#cc3c6c" stroke-width="2px"/><text text-anchor="middle" pointer-events="none" font-family="sans-serif" dy="2.5" font-size="40" fill="#FFFFFF"/><text text-anchor="middle" pointer-events="none" font-family="sans-serif" dy="2.5" font-size="40" fill="#FFFFFF"/><text text-anchor="middle" pointer-events="none" y="0" font-size="10px" fill="#FFFFFF" font-family="sans-serif"> role playing</text><text text-anchor="middle" pointer-events="none" y="10" font-size="10px" fill="#FFFFFF" font-family="sans-serif"> games</text></g><g class="node" transform="translate(370.806302851656,-6.060112117190101)"><circle class="outline" cx="0" cy="0" r="40" fill="#DA7194" stroke="#cc3c6c" stroke-width="2px"/><text text-anchor="middle" pointer-events="none" font-family="sans-serif" dy="2.5" font-size="40" fill="#FFFFFF"/><text text-anchor="middle" pointer-events="none" y="5" font-size="10px" fill="#FFFFFF" font-family="sans-serif"> Switch</text></g><g class="node" transform="translate(379.56502996495584,-145.51765219555796)"><circle class="outline" cx="0" cy="0" r="40" fill="#DA7194" stroke="#cc3c6c" stroke-width="2px"/><text text-anchor="middle" pointer-events="none" font-family="sans-serif" dy="2.5" font-size="40" fill="#FFFFFF"/><text text-anchor="middle" pointer-events="none" y="5" font-size="10px" fill="#FFFFFF" font-family="sans-serif"> friends</text></g><g class="node" transform="translate(227.86943055768603,-114.39657429910369)"><circle class="outline" cx="0" cy="0" r="40" fill="#DA7194" stroke="#cc3c6c" stroke-width="2px"/><text text-anchor="middle" pointer-events="none" font-family="sans-serif" dy="2.5" font-size="40" fill="#FFFFFF"/><text text-anchor="middle" pointer-events="none" y="5" font-size="10px" fill="#FFFFFF" font-family="sans-serif"> Mario Kart 8</text></g><g class="node" transform="translate(-48.776668304794896,-73.17068723506678)"><circle class="outline" cx="0" cy="0" r="40" fill="#DA7194" stroke="#cc3c6c" stroke-width="2px"/><text text-anchor="middle" pointer-events="none" font-family="sans-serif" dy="2.5" font-size="40" fill="#FFFFFF"/><text text-anchor="middle" pointer-events="none" y="5" font-size="10px" fill="#FFFFFF" font-family="sans-serif"> Nintendo</text></g><g class="node" transform="translate(-150.987554051109,39.33269188370708)"><circle class="outline" cx="0" cy="0" r="40" fill="#DA7194" stroke="#cc3c6c" stroke-width="2px"/><text text-anchor="middle" pointer-events="none" font-family="sans-serif" dy="2.5" font-size="40" fill="#FFFFFF"/><text text-anchor="middle" pointer-events="none" y="5" font-size="10px" fill="#FFFFFF" font-family="sans-serif"> Neo4j</text></g><g class="node" transform="translate(-139.82004901238997,238.03661048183378)"><circle class="outline" cx="0" cy="0" r="40" fill="#DA7194" stroke="#cc3c6c" stroke-width="2px"/><text text-anchor="middle" pointer-events="none" font-family="sans-serif" dy="2.5" font-size="40" fill="#FFFFFF"/><text text-anchor="middle" pointer-events="none" y="5" font-size="10px" fill="#FFFFFF" font-family="sans-serif"> tournaments</text></g><g class="node" transform="translate(86.00650949129138,-132.2310606291329)"><circle class="outline" cx="0" cy="0" r="40" fill="#DA7194" stroke="#cc3c6c" stroke-width="2px"/><text text-anchor="middle" pointer-events="none" font-family="sans-serif" dy="2.5" font-size="40" fill="#FFFFFF"/><text text-anchor="middle" pointer-events="none" y="5" font-size="10px" fill="#FFFFFF" font-family="sans-serif"> offices</text></g><g class="node" transform="translate(-226.79758447645332,163.44997530352262)"><circle class="outline" cx="0" cy="0" r="40" fill="#DA7194" stroke="#cc3c6c" stroke-width="2px"/><text text-anchor="middle" pointer-events="none" font-family="sans-serif" dy="2.5" font-size="40" fill="#FFFFFF"/><text text-anchor="middle" pointer-events="none" y="5" font-size="10px" fill="#FFFFFF" font-family="sans-serif"> European</text></g><g class="node" transform="translate(444.7881897303936,199.66970752182323)"><circle class="outline" cx="0" cy="0" r="40" fill="#DA7194" stroke="#cc3c6c" stroke-width="2px"/><text text-anchor="middle" pointer-events="none" font-family="sans-serif" dy="2.5" font-size="40" fill="#FFFFFF"/><text text-anchor="middle" pointer-events="none" y="5" font-size="10px" fill="#FFFFFF" font-family="sans-serif"> 8</text></g><g class="node" transform="translate(87.57989491169305,142.25012630629652)"><circle class="outline" cx="0" cy="0" r="40" fill="#F79767" stroke="#f36924" stroke-width="2px"/><text text-anchor="middle" pointer-events="none" font-family="sans-serif" dy="2.5" font-size="40" fill="#FFFFFF"/><text text-anchor="middle" pointer-events="none" y="5" font-size="10px" fill="#FFFFFF" font-family="sans-serif"> https://neo4j.co…</text></g></g></svg>