<svg xmlns="http://www.w3.org/2000/svg" width="469.8682861328125" height="246.82020568847656" viewBox="-232.7264404296875 -15.362300872802734 469.8682861328125 246.82020568847656"><title>Neo4j Graph Visualization</title><desc>Created using Neo4j (http://www.neo4j.com/)</desc><g class="layer relationships"><g class="relationship" transform="translate(-188.72643995188528 187.45790114259478) rotate(348.4847201319178)"><path class="outline" fill="#A5ABB6" stroke="none" d="M 40 0.5 L 79.77516778346248 0.5 L 79.77516778346248 -0.5 L 40 -0.5 Z M 124.89235528346248 0.5 L 164.66752306692496 0.5 L 164.66752306692496 3.5 L 171.66752306692496 0 L 164.66752306692496 -3.5 L 164.66752306692496 -0.5 L 124.89235528346248 -0.5 Z"/><text text-anchor="middle" pointer-events="none" font-size="8px" fill="#000000" x="102.33376153346248" y="3" font-family="sans-serif">FOLLOWS</text></g><g class="relationship" transform="translate(18.680533701998975 145.20287066071995) rotate(372.70841164957795)"><path class="outline" fill="#A5ABB6" stroke="none" d="M 40 0.5 L 63.36269105247408 0.5 L 63.36269105247408 -0.5 L 40 -0.5 Z M 108.47987855247408 0.5 L 131.84256960494815 0.5 L 131.84256960494815 3.5 L 138.84256960494815 0 L 131.84256960494815 -3.5 L 131.84256960494815 -0.5 L 108.47987855247408 -0.5 Z"/><text text-anchor="middle" pointer-events="none" font-size="8px" fill="#000000" x="85.92128480247408" y="3" font-family="sans-serif">FOLLOWS</text></g><g class="relationship" transform="translate(18.680533701998975 145.20287066071995) rotate(310.3109411473746)"><path class="outline" fill="#A5ABB6" stroke="none" d="M 40 0.5 L 50.37309324898847 0.5 L 50.37309324898847 -0.5 L 40 -0.5 Z M 95.49028074898847 0.5 L 105.86337399797694 0.5 L 105.86337399797694 3.5 L 112.86337399797694 0 L 105.86337399797694 -3.5 L 105.86337399797694 -0.5 L 95.49028074898847 -0.5 Z"/><text text-anchor="middle" pointer-events="none" font-size="8px" fill="#000000" x="72.93168699898847" y="3" font-family="sans-serif">FOLLOWS</text></g></g><g class="layer nodes"><g class="node" transform="translate(-188.72643995188528,187.45790114259478)"><circle class="outline" cx="0" cy="0" r="40" fill="#DA7194" stroke="#cc3c6c" stroke-width="2px"/><text text-anchor="middle" pointer-events="none" font-family="sans-serif" dy="2.5" font-size="40" fill="#FFFFFF"/><text text-anchor="middle" pointer-events="none" y="5" font-size="10px" fill="#FFFFFF" font-family="sans-serif"> Alicia</text></g><g class="node" transform="translate(18.680533701998975,145.20287066071995)"><circle class="outline" cx="0" cy="0" r="40" fill="#FFC454" stroke="#d7a013" stroke-width="2px"/><text text-anchor="middle" pointer-events="none" font-family="sans-serif" dy="2.5" font-size="40" fill="#604A0E"/><text text-anchor="middle" pointer-events="none" y="5" font-size="10px" fill="#604A0E" font-family="sans-serif"> Joe</text></g><g class="node" transform="translate(193.14186410590332,184.54634402798177)"><circle class="outline" cx="0" cy="0" r="40" fill="#4C8EDA" stroke="#2870c2" stroke-width="2px"/><text text-anchor="middle" pointer-events="none" font-family="sans-serif" dy="2.5" font-size="40" fill="#FFFFFF"/><text text-anchor="middle" pointer-events="none" y="5" font-size="10px" fill="#FFFFFF" font-family="sans-serif"> Praveena</text></g><g class="node" transform="translate(117.57326264227717,28.637698877763988)"><circle class="outline" cx="0" cy="0" r="40" fill="#4C8EDA" stroke="#2870c2" stroke-width="2px"/><text text-anchor="middle" pointer-events="none" font-family="sans-serif" dy="2.5" font-size="40" fill="#FFFFFF"/><text text-anchor="middle" pointer-events="none" y="5" font-size="10px" fill="#FFFFFF" font-family="sans-serif"> Zhen</text></g></g></svg>